<?xml version="1.0" encoding="UTF-8" standalone="no"?>
<!DOCTYPE svg PUBLIC "-//W3C//DTD SVG 1.1//EN"
 "http://www.w3.org/Graphics/SVG/1.1/DTD/svg11.dtd">
<!-- Generated by graphviz version 2.47.3 (20210619.1520)
 -->
<!-- Title: dependencies Pages: 1 -->
<svg width="662pt" height="247pt"
 viewBox="0.00 0.00 662.00 246.80" xmlns="http://www.w3.org/2000/svg" xmlns:xlink="http://www.w3.org/1999/xlink">
<g id="graph0" class="graph" transform="scale(1 1) rotate(0) translate(4 242.8)">
<title>dependencies</title>
<polygon fill="white" stroke="transparent" points="-4,4 -4,-242.8 658,-242.8 658,4 -4,4"/>
<text text-anchor="middle" x="327" y="-8.2" font-family="sans-serif" font-size="14.00">dependencies</text>
<g id="clust1" class="cluster">
<title>cluster_SharedModule</title>
<polygon fill="none" stroke="black" stroke-dasharray="1,5" points="8,-32.8 8,-230.8 646,-230.8 646,-32.8 8,-32.8"/>
</g>
<g id="clust2" class="cluster">
<title>cluster_SharedModule_declarations</title>
<polygon fill="none" stroke="black" points="16,-40.8 16,-92.8 638,-92.8 638,-40.8 16,-40.8"/>
</g>
<g id="clust8" class="cluster">
<title>cluster_SharedModule_exports</title>
<polygon fill="none" stroke="black" points="188,-170.8 188,-222.8 476,-222.8 476,-170.8 188,-170.8"/>
</g>
<!-- ColorthemeComponent -->
<g id="node1" class="node">
<title>ColorthemeComponent</title>
<polygon fill="#ffffb3" stroke="black" points="629.93,-84.8 482.07,-84.8 482.07,-48.8 629.93,-48.8 629.93,-84.8"/>
<text text-anchor="middle" x="556" y="-62.6" font-family="Times,serif" font-size="14.00">ColorthemeComponent</text>
</g>
<!-- SharedModule -->
<g id="node5" class="node">
<title>SharedModule</title>
<polygon fill="#8dd3c7" stroke="black" points="381.42,-149.8 378.42,-153.8 357.42,-153.8 354.42,-149.8 282.58,-149.8 282.58,-113.8 381.42,-113.8 381.42,-149.8"/>
<text text-anchor="middle" x="332" y="-127.6" font-family="Times,serif" font-size="14.00">SharedModule</text>
</g>
<!-- ColorthemeComponent&#45;&gt;SharedModule -->
<g id="edge1" class="edge">
<title>ColorthemeComponent&#45;&gt;SharedModule</title>
<path fill="none" stroke="black" d="M556,-84.91C556,-104.14 556,-131.8 556,-131.8 556,-131.8 391.44,-131.8 391.44,-131.8"/>
<polygon fill="black" stroke="black" points="391.44,-128.3 381.44,-131.8 391.44,-135.3 391.44,-128.3"/>
</g>
<!-- NavbarComponent -->
<g id="node2" class="node">
<title>NavbarComponent</title>
<polygon fill="#ffffb3" stroke="black" points="464.03,-84.8 341.97,-84.8 341.97,-48.8 464.03,-48.8 464.03,-84.8"/>
<text text-anchor="middle" x="403" y="-62.6" font-family="Times,serif" font-size="14.00">NavbarComponent</text>
</g>
<!-- NavbarComponent&#45;&gt;SharedModule -->
<g id="edge2" class="edge">
<title>NavbarComponent&#45;&gt;SharedModule</title>
<path fill="none" stroke="black" d="M361.47,-84.91C361.47,-84.91 361.47,-103.79 361.47,-103.79"/>
<polygon fill="black" stroke="black" points="357.97,-103.79 361.47,-113.79 364.97,-103.79 357.97,-103.79"/>
</g>
<!-- SidebarComponent -->
<g id="node3" class="node">
<title>SidebarComponent</title>
<polygon fill="#ffffb3" stroke="black" points="324.1,-84.8 199.9,-84.8 199.9,-48.8 324.1,-48.8 324.1,-84.8"/>
<text text-anchor="middle" x="262" y="-62.6" font-family="Times,serif" font-size="14.00">SidebarComponent</text>
</g>
<!-- SidebarComponent&#45;&gt;SharedModule -->
<g id="edge3" class="edge">
<title>SidebarComponent&#45;&gt;SharedModule</title>
<path fill="none" stroke="black" d="M303.42,-84.91C303.42,-84.91 303.42,-103.79 303.42,-103.79"/>
<polygon fill="black" stroke="black" points="299.92,-103.79 303.42,-113.79 306.92,-103.79 299.92,-103.79"/>
</g>
<!-- SidebarfooterComponent -->
<g id="node4" class="node">
<title>SidebarfooterComponent</title>
<polygon fill="#ffffb3" stroke="black" points="181.52,-84.8 24.48,-84.8 24.48,-48.8 181.52,-48.8 181.52,-84.8"/>
<text text-anchor="middle" x="103" y="-62.6" font-family="Times,serif" font-size="14.00">SidebarfooterComponent</text>
</g>
<!-- SidebarfooterComponent&#45;&gt;SharedModule -->
<g id="edge4" class="edge">
<title>SidebarfooterComponent&#45;&gt;SharedModule</title>
<path fill="none" stroke="black" d="M103,-84.91C103,-104.14 103,-131.8 103,-131.8 103,-131.8 272.59,-131.8 272.59,-131.8"/>
<polygon fill="black" stroke="black" points="272.59,-135.3 282.59,-131.8 272.59,-128.3 272.59,-135.3"/>
</g>
<!-- NavbarComponent  -->
<g id="node6" class="node">
<title>NavbarComponent </title>
<polygon fill="#fb8072" stroke="black" points="468.03,-214.8 341.97,-214.8 341.97,-178.8 468.03,-178.8 468.03,-214.8"/>
<text text-anchor="middle" x="405" y="-192.6" font-family="Times,serif" font-size="14.00">NavbarComponent </text>
</g>
<!-- SharedModule&#45;&gt;NavbarComponent  -->
<g id="edge5" class="edge">
<title>SharedModule&#45;&gt;NavbarComponent </title>
<path fill="none" stroke="black" stroke-dasharray="5,2" d="M361.6,-149.91C361.6,-149.91 361.6,-168.79 361.6,-168.79"/>
<polygon fill="black" stroke="black" points="358.1,-168.79 361.6,-178.79 365.1,-168.79 358.1,-168.79"/>
</g>
<!-- SidebarComponent  -->
<g id="node7" class="node">
<title>SidebarComponent </title>
<polygon fill="#fb8072" stroke="black" points="323.6,-214.8 196.4,-214.8 196.4,-178.8 323.6,-178.8 323.6,-214.8"/>
<text text-anchor="middle" x="260" y="-192.6" font-family="Times,serif" font-size="14.00">SidebarComponent </text>
</g>
<!-- SharedModule&#45;&gt;SidebarComponent  -->
<g id="edge6" class="edge">
<title>SharedModule&#45;&gt;SidebarComponent </title>
<path fill="none" stroke="black" stroke-dasharray="5,2" d="M303.29,-149.91C303.29,-149.91 303.29,-168.79 303.29,-168.79"/>
<polygon fill="black" stroke="black" points="299.79,-168.79 303.29,-178.79 306.79,-168.79 299.79,-168.79"/>
</g>
</g>
</svg>
