<?xml version="1.0" encoding="UTF-8" standalone="no"?>
<!DOCTYPE svg PUBLIC "-//W3C//DTD SVG 1.1//EN"
 "http://www.w3.org/Graphics/SVG/1.1/DTD/svg11.dtd">
<!-- Generated by graphviz version 2.47.3 (20210619.1520)
 -->
<!-- Title: dependencies Pages: 1 -->
<svg width="186pt" height="247pt"
 viewBox="0.00 0.00 186.00 246.80" xmlns="http://www.w3.org/2000/svg" xmlns:xlink="http://www.w3.org/1999/xlink">
<g id="graph0" class="graph" transform="scale(1 1) rotate(0) translate(4 242.8)">
<title>dependencies</title>
<polygon fill="white" stroke="transparent" points="-4,4 -4,-242.8 182,-242.8 182,4 -4,4"/>
<text text-anchor="middle" x="89" y="-8.2" font-family="sans-serif" font-size="14.00">dependencies</text>
<g id="clust1" class="cluster">
<title>cluster_ConfigModule</title>
<polygon fill="none" stroke="black" stroke-dasharray="1,5" points="8,-32.8 8,-230.8 170,-230.8 170,-32.8 8,-32.8"/>
</g>
<g id="clust2" class="cluster">
<title>cluster_ConfigModule_declarations</title>
<polygon fill="none" stroke="black" points="18,-40.8 18,-92.8 160,-92.8 160,-40.8 18,-40.8"/>
</g>
<g id="clust5" class="cluster">
<title>cluster_ConfigModule_exports</title>
<polygon fill="none" stroke="black" points="16,-170.8 16,-222.8 162,-222.8 162,-170.8 16,-170.8"/>
</g>
<!-- GeneralComponent -->
<g id="node1" class="node">
<title>GeneralComponent</title>
<polygon fill="#ffffb3" stroke="black" points="151.63,-84.8 26.37,-84.8 26.37,-48.8 151.63,-48.8 151.63,-84.8"/>
<text text-anchor="middle" x="89" y="-62.6" font-family="Times,serif" font-size="14.00">GeneralComponent</text>
</g>
<!-- ConfigModule -->
<g id="node2" class="node">
<title>ConfigModule</title>
<polygon fill="#8dd3c7" stroke="black" points="138.44,-149.8 135.44,-153.8 114.44,-153.8 111.44,-149.8 39.56,-149.8 39.56,-113.8 138.44,-113.8 138.44,-149.8"/>
<text text-anchor="middle" x="89" y="-127.6" font-family="Times,serif" font-size="14.00">ConfigModule</text>
</g>
<!-- GeneralComponent&#45;&gt;ConfigModule -->
<g id="edge1" class="edge">
<title>GeneralComponent&#45;&gt;ConfigModule</title>
<path fill="none" stroke="black" d="M89,-84.91C89,-84.91 89,-103.79 89,-103.79"/>
<polygon fill="black" stroke="black" points="85.5,-103.79 89,-113.79 92.5,-103.79 85.5,-103.79"/>
</g>
<!-- GeneralComponent  -->
<g id="node3" class="node">
<title>GeneralComponent </title>
<polygon fill="#fb8072" stroke="black" points="153.63,-214.8 24.37,-214.8 24.37,-178.8 153.63,-178.8 153.63,-214.8"/>
<text text-anchor="middle" x="89" y="-192.6" font-family="Times,serif" font-size="14.00">GeneralComponent </text>
</g>
<!-- ConfigModule&#45;&gt;GeneralComponent  -->
<g id="edge2" class="edge">
<title>ConfigModule&#45;&gt;GeneralComponent </title>
<path fill="none" stroke="black" stroke-dasharray="5,2" d="M89,-149.91C89,-149.91 89,-168.79 89,-168.79"/>
<polygon fill="black" stroke="black" points="85.5,-168.79 89,-178.79 92.5,-168.79 85.5,-168.79"/>
</g>
</g>
</svg>
