<?xml version="1.0" encoding="UTF-8" standalone="no"?>
<!DOCTYPE svg PUBLIC "-//W3C//DTD SVG 1.1//EN"
 "http://www.w3.org/Graphics/SVG/1.1/DTD/svg11.dtd">
<!-- Generated by graphviz version 2.40.1 (20161225.0304)
 -->
<!-- Title: dependencies Pages: 1 -->
<svg width="2655pt" height="211pt"
 viewBox="0.00 0.00 2655.00 211.00" xmlns="http://www.w3.org/2000/svg" xmlns:xlink="http://www.w3.org/1999/xlink">
<g id="graph0" class="graph" transform="scale(1 1) rotate(0) translate(4 207)">
<title>dependencies</title>
<polygon fill="#ffffff" stroke="transparent" points="-4,4 -4,-207 2651,-207 2651,4 -4,4"/>
<text text-anchor="start" x="1302.5091" y="-42.4" font-family="sans-serif" font-weight="bold" font-size="14.00" fill="#000000">Legend</text>
<polygon fill="#ffffb3" stroke="transparent" points="1089.5,-10 1089.5,-30 1109.5,-30 1109.5,-10 1089.5,-10"/>
<text text-anchor="start" x="1113.129" y="-15.4" font-family="sans-serif" font-size="14.00" fill="#000000"> &#160;Declarations</text>
<polygon fill="#8dd3c7" stroke="transparent" points="1202.5,-10 1202.5,-30 1222.5,-30 1222.5,-10 1202.5,-10"/>
<text text-anchor="start" x="1226.2251" y="-15.4" font-family="sans-serif" font-size="14.00" fill="#000000"> &#160;Module</text>
<polygon fill="#80b1d3" stroke="transparent" points="1288.5,-10 1288.5,-30 1308.5,-30 1308.5,-10 1288.5,-10"/>
<text text-anchor="start" x="1312.2812" y="-15.4" font-family="sans-serif" font-size="14.00" fill="#000000"> &#160;Bootstrap</text>
<polygon fill="#fdb462" stroke="transparent" points="1385.5,-10 1385.5,-30 1405.5,-30 1405.5,-10 1385.5,-10"/>
<text text-anchor="start" x="1409.1732" y="-15.4" font-family="sans-serif" font-size="14.00" fill="#000000"> &#160;Providers</text>
<polygon fill="#fb8072" stroke="transparent" points="1481.5,-10 1481.5,-30 1501.5,-30 1501.5,-10 1481.5,-10"/>
<text text-anchor="start" x="1505.2258" y="-15.4" font-family="sans-serif" font-size="14.00" fill="#000000"> &#160;Exports</text>
<g id="clust1" class="cluster">
<title>cluster_PagesModule</title>
<polygon fill="none" stroke="#000000" stroke-dasharray="1,5" points="8,-70 8,-195 2639,-195 2639,-70 8,-70"/>
</g>
<g id="clust2" class="cluster">
<title>cluster_PagesModule_declarations</title>
<polygon fill="none" stroke="#000000" points="16,-78 16,-130 2631,-130 2631,-78 16,-78"/>
</g>
<!-- ConfigComponent -->
<g id="node1" class="node">
<title>ConfigComponent</title>
<polygon fill="#ffffb3" stroke="#000000" points="2623.2204,-122 2502.7796,-122 2502.7796,-86 2623.2204,-86 2623.2204,-122"/>
<text text-anchor="middle" x="2563" y="-99.8" font-family="Times,serif" font-size="14.00" fill="#000000">ConfigComponent</text>
</g>
<!-- PagesModule -->
<g id="node19" class="node">
<title>PagesModule</title>
<polygon fill="#8dd3c7" stroke="#000000" points="1345.2064,-187 1342.2064,-191 1321.2064,-191 1318.2064,-187 1252.7936,-187 1252.7936,-151 1345.2064,-151 1345.2064,-187"/>
<text text-anchor="middle" x="1299" y="-164.8" font-family="Times,serif" font-size="14.00" fill="#000000">PagesModule</text>
</g>
<!-- ConfigComponent&#45;&gt;PagesModule -->
<g id="edge1" class="edge">
<title>ConfigComponent&#45;&gt;PagesModule</title>
<path fill="none" stroke="#000000" d="M2563,-122.3228C2563,-145.6602 2563,-183 2563,-183 2563,-183 1355.1086,-183 1355.1086,-183"/>
<polygon fill="#000000" stroke="#000000" points="1355.1087,-179.5001 1345.1086,-183 1355.1086,-186.5001 1355.1087,-179.5001"/>
</g>
<!-- ContabilidadComponent -->
<g id="node2" class="node">
<title>ContabilidadComponent</title>
<polygon fill="#ffffb3" stroke="#000000" points="2484.661,-122 2331.339,-122 2331.339,-86 2484.661,-86 2484.661,-122"/>
<text text-anchor="middle" x="2408" y="-99.8" font-family="Times,serif" font-size="14.00" fill="#000000">ContabilidadComponent</text>
</g>
<!-- ContabilidadComponent&#45;&gt;PagesModule -->
<g id="edge2" class="edge">
<title>ContabilidadComponent&#45;&gt;PagesModule</title>
<path fill="none" stroke="#000000" d="M2408,-122.1554C2408,-144.3519 2408,-179 2408,-179 2408,-179 1355.2404,-179 1355.2404,-179"/>
<polygon fill="#000000" stroke="#000000" points="1355.2405,-175.5001 1345.2404,-179 1355.2404,-182.5001 1355.2405,-175.5001"/>
</g>
<!-- CuentaComponent -->
<g id="node3" class="node">
<title>CuentaComponent</title>
<polygon fill="#ffffb3" stroke="#000000" points="2313.4888,-122 2192.5112,-122 2192.5112,-86 2313.4888,-86 2313.4888,-122"/>
<text text-anchor="middle" x="2253" y="-99.8" font-family="Times,serif" font-size="14.00" fill="#000000">CuentaComponent</text>
</g>
<!-- CuentaComponent&#45;&gt;PagesModule -->
<g id="edge3" class="edge">
<title>CuentaComponent&#45;&gt;PagesModule</title>
<path fill="none" stroke="#000000" d="M2253,-122.2843C2253,-143.3211 2253,-175 2253,-175 2253,-175 1355.3358,-175 1355.3358,-175"/>
<polygon fill="#000000" stroke="#000000" points="1355.3358,-171.5001 1345.3358,-175 1355.3358,-178.5001 1355.3358,-171.5001"/>
</g>
<!-- CuentasComponent -->
<g id="node4" class="node">
<title>CuentasComponent</title>
<polygon fill="#ffffb3" stroke="#000000" points="2174.4341,-122 2047.5659,-122 2047.5659,-86 2174.4341,-86 2174.4341,-122"/>
<text text-anchor="middle" x="2111" y="-99.8" font-family="Times,serif" font-size="14.00" fill="#000000">CuentasComponent</text>
</g>
<!-- CuentasComponent&#45;&gt;PagesModule -->
<g id="edge4" class="edge">
<title>CuentasComponent&#45;&gt;PagesModule</title>
<path fill="none" stroke="#000000" d="M2111,-122.308C2111,-142.1455 2111,-171 2111,-171 2111,-171 1355.2777,-171 1355.2777,-171"/>
<polygon fill="#000000" stroke="#000000" points="1355.2778,-167.5001 1345.2777,-171 1355.2777,-174.5001 1355.2778,-167.5001"/>
</g>
<!-- DashboardComponent -->
<g id="node5" class="node">
<title>DashboardComponent</title>
<polygon fill="#ffffb3" stroke="#000000" points="2029.9734,-122 1888.0266,-122 1888.0266,-86 2029.9734,-86 2029.9734,-122"/>
<text text-anchor="middle" x="1959" y="-99.8" font-family="Times,serif" font-size="14.00" fill="#000000">DashboardComponent</text>
</g>
<!-- DashboardComponent&#45;&gt;PagesModule -->
<g id="edge5" class="edge">
<title>DashboardComponent&#45;&gt;PagesModule</title>
<path fill="none" stroke="#000000" d="M1959,-122.2222C1959,-140.8285 1959,-167 1959,-167 1959,-167 1355.1476,-167 1355.1476,-167"/>
<polygon fill="#000000" stroke="#000000" points="1355.1476,-163.5001 1345.1476,-167 1355.1476,-170.5001 1355.1476,-163.5001"/>
</g>
<!-- GrupoComponent -->
<g id="node6" class="node">
<title>GrupoComponent</title>
<polygon fill="#ffffb3" stroke="#000000" points="1869.5996,-122 1752.4004,-122 1752.4004,-86 1869.5996,-86 1869.5996,-122"/>
<text text-anchor="middle" x="1811" y="-99.8" font-family="Times,serif" font-size="14.00" fill="#000000">GrupoComponent</text>
</g>
<!-- GrupoComponent&#45;&gt;PagesModule -->
<g id="edge6" class="edge">
<title>GrupoComponent&#45;&gt;PagesModule</title>
<path fill="none" stroke="#000000" d="M1811,-122.0225C1811,-139.3734 1811,-163 1811,-163 1811,-163 1355.3396,-163 1355.3396,-163"/>
<polygon fill="#000000" stroke="#000000" points="1355.3396,-159.5001 1345.3396,-163 1355.3396,-166.5001 1355.3396,-159.5001"/>
</g>
<!-- GruposComponent -->
<g id="node7" class="node">
<title>GruposComponent</title>
<polygon fill="#ffffb3" stroke="#000000" points="1734.045,-122 1611.955,-122 1611.955,-86 1734.045,-86 1734.045,-122"/>
<text text-anchor="middle" x="1673" y="-99.8" font-family="Times,serif" font-size="14.00" fill="#000000">GruposComponent</text>
</g>
<!-- GruposComponent&#45;&gt;PagesModule -->
<g id="edge7" class="edge">
<title>GruposComponent&#45;&gt;PagesModule</title>
<path fill="none" stroke="#000000" d="M1673,-122.0091C1673,-138.0494 1673,-159 1673,-159 1673,-159 1355.2349,-159 1355.2349,-159"/>
<polygon fill="#000000" stroke="#000000" points="1355.2349,-155.5001 1345.2349,-159 1355.2348,-162.5001 1355.2349,-155.5001"/>
</g>
<!-- LoadTableComponent -->
<g id="node8" class="node">
<title>LoadTableComponent</title>
<polygon fill="#ffffb3" stroke="#000000" points="1593.972,-122 1452.028,-122 1452.028,-86 1593.972,-86 1593.972,-122"/>
<text text-anchor="middle" x="1523" y="-99.8" font-family="Times,serif" font-size="14.00" fill="#000000">LoadTableComponent</text>
</g>
<!-- LoadTableComponent&#45;&gt;PagesModule -->
<g id="edge8" class="edge">
<title>LoadTableComponent&#45;&gt;PagesModule</title>
<path fill="none" stroke="#000000" d="M1523,-122.1243C1523,-136.7832 1523,-155 1523,-155 1523,-155 1355.1413,-155 1355.1413,-155"/>
<polygon fill="#000000" stroke="#000000" points="1355.1414,-151.5001 1345.1413,-155 1355.1413,-158.5001 1355.1414,-151.5001"/>
</g>
<!-- NotfoundComponent -->
<g id="node9" class="node">
<title>NotfoundComponent</title>
<polygon fill="#ffffb3" stroke="#000000" points="1434.4902,-122 1299.5098,-122 1299.5098,-86 1434.4902,-86 1434.4902,-122"/>
<text text-anchor="middle" x="1367" y="-99.8" font-family="Times,serif" font-size="14.00" fill="#000000">NotfoundComponent</text>
</g>
<!-- NotfoundComponent&#45;&gt;PagesModule -->
<g id="edge9" class="edge">
<title>NotfoundComponent&#45;&gt;PagesModule</title>
<path fill="none" stroke="#000000" d="M1322.304,-122.1061C1322.304,-122.1061 1322.304,-140.991 1322.304,-140.991"/>
<polygon fill="#000000" stroke="#000000" points="1318.8041,-140.9909 1322.304,-150.991 1325.8041,-140.991 1318.8041,-140.9909"/>
</g>
<!-- RoundceilPipe -->
<g id="node10" class="node">
<title>RoundceilPipe</title>
<polygon fill="#ffffb3" stroke="#000000" points="1281.4358,-122 1182.5642,-122 1182.5642,-86 1281.4358,-86 1281.4358,-122"/>
<text text-anchor="middle" x="1232" y="-99.8" font-family="Times,serif" font-size="14.00" fill="#000000">RoundceilPipe</text>
</g>
<!-- RoundceilPipe&#45;&gt;PagesModule -->
<g id="edge10" class="edge">
<title>RoundceilPipe&#45;&gt;PagesModule</title>
<path fill="none" stroke="#000000" d="M1267.0572,-122.1061C1267.0572,-122.1061 1267.0572,-140.991 1267.0572,-140.991"/>
<polygon fill="#000000" stroke="#000000" points="1263.5572,-140.9909 1267.0572,-150.991 1270.5572,-140.991 1263.5572,-140.9909"/>
</g>
<!-- SubcuentaComponent -->
<g id="node11" class="node">
<title>SubcuentaComponent</title>
<polygon fill="#ffffb3" stroke="#000000" points="1164.6498,-122 1025.3502,-122 1025.3502,-86 1164.6498,-86 1164.6498,-122"/>
<text text-anchor="middle" x="1095" y="-99.8" font-family="Times,serif" font-size="14.00" fill="#000000">SubcuentaComponent</text>
</g>
<!-- SubcuentaComponent&#45;&gt;PagesModule -->
<g id="edge11" class="edge">
<title>SubcuentaComponent&#45;&gt;PagesModule</title>
<path fill="none" stroke="#000000" d="M1095,-122.1243C1095,-136.7832 1095,-155 1095,-155 1095,-155 1242.7092,-155 1242.7092,-155"/>
<polygon fill="#000000" stroke="#000000" points="1242.7093,-158.5001 1252.7092,-155 1242.7092,-151.5001 1242.7093,-158.5001"/>
</g>
<!-- SubcuentasComponent -->
<g id="node12" class="node">
<title>SubcuentasComponent</title>
<polygon fill="#ffffb3" stroke="#000000" points="1007.594,-122 862.406,-122 862.406,-86 1007.594,-86 1007.594,-122"/>
<text text-anchor="middle" x="935" y="-99.8" font-family="Times,serif" font-size="14.00" fill="#000000">SubcuentasComponent</text>
</g>
<!-- SubcuentasComponent&#45;&gt;PagesModule -->
<g id="edge12" class="edge">
<title>SubcuentasComponent&#45;&gt;PagesModule</title>
<path fill="none" stroke="#000000" d="M935,-122.0091C935,-138.0494 935,-159 935,-159 935,-159 1242.5294,-159 1242.5294,-159"/>
<polygon fill="#000000" stroke="#000000" points="1242.5295,-162.5001 1252.5294,-159 1242.5294,-155.5001 1242.5295,-162.5001"/>
</g>
<!-- SubgrupoComponent -->
<g id="node13" class="node">
<title>SubgrupoComponent</title>
<polygon fill="#ffffb3" stroke="#000000" points="844.7758,-122 709.2242,-122 709.2242,-86 844.7758,-86 844.7758,-122"/>
<text text-anchor="middle" x="777" y="-99.8" font-family="Times,serif" font-size="14.00" fill="#000000">SubgrupoComponent</text>
</g>
<!-- SubgrupoComponent&#45;&gt;PagesModule -->
<g id="edge13" class="edge">
<title>SubgrupoComponent&#45;&gt;PagesModule</title>
<path fill="none" stroke="#000000" d="M777,-122.0225C777,-139.3734 777,-163 777,-163 777,-163 1242.676,-163 1242.676,-163"/>
<polygon fill="#000000" stroke="#000000" points="1242.676,-166.5001 1252.676,-163 1242.6759,-159.5001 1242.676,-166.5001"/>
</g>
<!-- SubgruposComponent -->
<g id="node14" class="node">
<title>SubgruposComponent</title>
<polygon fill="#ffffb3" stroke="#000000" points="691.7204,-122 550.2796,-122 550.2796,-86 691.7204,-86 691.7204,-122"/>
<text text-anchor="middle" x="621" y="-99.8" font-family="Times,serif" font-size="14.00" fill="#000000">SubgruposComponent</text>
</g>
<!-- SubgruposComponent&#45;&gt;PagesModule -->
<g id="edge14" class="edge">
<title>SubgruposComponent&#45;&gt;PagesModule</title>
<path fill="none" stroke="#000000" d="M621,-122.2222C621,-140.8285 621,-167 621,-167 621,-167 1242.6652,-167 1242.6652,-167"/>
<polygon fill="#000000" stroke="#000000" points="1242.6652,-170.5001 1252.6652,-167 1242.6651,-163.5001 1242.6652,-170.5001"/>
</g>
<!-- TaxComponent -->
<g id="node15" class="node">
<title>TaxComponent</title>
<polygon fill="#ffffb3" stroke="#000000" points="532.5996,-122 429.4004,-122 429.4004,-86 532.5996,-86 532.5996,-122"/>
<text text-anchor="middle" x="481" y="-99.8" font-family="Times,serif" font-size="14.00" fill="#000000">TaxComponent</text>
</g>
<!-- TaxComponent&#45;&gt;PagesModule -->
<g id="edge15" class="edge">
<title>TaxComponent&#45;&gt;PagesModule</title>
<path fill="none" stroke="#000000" d="M481,-122.308C481,-142.1455 481,-171 481,-171 481,-171 1242.677,-171 1242.677,-171"/>
<polygon fill="#000000" stroke="#000000" points="1242.6771,-174.5001 1252.677,-171 1242.677,-167.5001 1242.6771,-174.5001"/>
</g>
<!-- TaxformComponent -->
<g id="node16" class="node">
<title>TaxformComponent</title>
<polygon fill="#ffffb3" stroke="#000000" points="411.3118,-122 280.6882,-122 280.6882,-86 411.3118,-86 411.3118,-122"/>
<text text-anchor="middle" x="346" y="-99.8" font-family="Times,serif" font-size="14.00" fill="#000000">TaxformComponent</text>
</g>
<!-- TaxformComponent&#45;&gt;PagesModule -->
<g id="edge16" class="edge">
<title>TaxformComponent&#45;&gt;PagesModule</title>
<path fill="none" stroke="#000000" d="M346,-122.2843C346,-143.3211 346,-175 346,-175 346,-175 1242.7128,-175 1242.7128,-175"/>
<polygon fill="#000000" stroke="#000000" points="1242.7128,-178.5001 1252.7128,-175 1242.7127,-171.5001 1242.7128,-178.5001"/>
</g>
<!-- UserComponent -->
<g id="node17" class="node">
<title>UserComponent</title>
<polygon fill="#ffffb3" stroke="#000000" points="262.7591,-122 155.2409,-122 155.2409,-86 262.7591,-86 262.7591,-122"/>
<text text-anchor="middle" x="209" y="-99.8" font-family="Times,serif" font-size="14.00" fill="#000000">UserComponent</text>
</g>
<!-- UserComponent&#45;&gt;PagesModule -->
<g id="edge17" class="edge">
<title>UserComponent&#45;&gt;PagesModule</title>
<path fill="none" stroke="#000000" d="M209,-122.1554C209,-144.3519 209,-179 209,-179 209,-179 1242.8603,-179 1242.8603,-179"/>
<polygon fill="#000000" stroke="#000000" points="1242.8603,-182.5001 1252.8603,-179 1242.8602,-175.5001 1242.8603,-182.5001"/>
</g>
<!-- UsersComponent -->
<g id="node18" class="node">
<title>UsersComponent</title>
<polygon fill="#ffffb3" stroke="#000000" points="137.7036,-122 24.2964,-122 24.2964,-86 137.7036,-86 137.7036,-122"/>
<text text-anchor="middle" x="81" y="-99.8" font-family="Times,serif" font-size="14.00" fill="#000000">UsersComponent</text>
</g>
<!-- UsersComponent&#45;&gt;PagesModule -->
<g id="edge18" class="edge">
<title>UsersComponent&#45;&gt;PagesModule</title>
<path fill="none" stroke="#000000" d="M81,-122.3228C81,-145.6602 81,-183 81,-183 81,-183 1242.7403,-183 1242.7403,-183"/>
<polygon fill="#000000" stroke="#000000" points="1242.7403,-186.5001 1252.7403,-183 1242.7402,-179.5001 1242.7403,-186.5001"/>
</g>
</g>
</svg>
