<?xml version="1.0" encoding="UTF-8" standalone="no"?>
<!DOCTYPE svg PUBLIC "-//W3C//DTD SVG 1.1//EN"
 "http://www.w3.org/Graphics/SVG/1.1/DTD/svg11.dtd">
<!-- Generated by graphviz version 2.47.3 (20210619.1520)
 -->
<!-- Title: dependencies Pages: 1 -->
<svg width="3070pt" height="174pt"
 viewBox="0.00 0.00 3070.00 173.80" xmlns="http://www.w3.org/2000/svg" xmlns:xlink="http://www.w3.org/1999/xlink">
<g id="graph0" class="graph" transform="scale(1 1) rotate(0) translate(4 169.8)">
<title>dependencies</title>
<polygon fill="white" stroke="transparent" points="-4,4 -4,-169.8 3066,-169.8 3066,4 -4,4"/>
<text text-anchor="middle" x="1531" y="-8.2" font-family="sans-serif" font-size="14.00">dependencies</text>
<g id="clust1" class="cluster">
<title>cluster_PagesModule</title>
<polygon fill="none" stroke="black" stroke-dasharray="1,5" points="8,-32.8 8,-157.8 3054,-157.8 3054,-32.8 8,-32.8"/>
</g>
<g id="clust2" class="cluster">
<title>cluster_PagesModule_declarations</title>
<polygon fill="none" stroke="black" points="138,-40.8 138,-92.8 3046,-92.8 3046,-40.8 138,-40.8"/>
</g>
<g id="clust23" class="cluster">
<title>cluster_PagesModule_imports</title>
<polygon fill="none" stroke="black" points="16,-40.8 16,-92.8 130,-92.8 130,-40.8 16,-40.8"/>
</g>
<!-- ConfigComponent -->
<g id="node1" class="node">
<title>ConfigComponent</title>
<polygon fill="#ffffb3" stroke="black" points="3038.22,-84.8 2917.78,-84.8 2917.78,-48.8 3038.22,-48.8 3038.22,-84.8"/>
<text text-anchor="middle" x="2978" y="-62.6" font-family="Times,serif" font-size="14.00">ConfigComponent</text>
</g>
<!-- PagesModule -->
<g id="node21" class="node">
<title>PagesModule</title>
<polygon fill="#8dd3c7" stroke="black" points="1513.21,-149.8 1510.21,-153.8 1489.21,-153.8 1486.21,-149.8 1420.79,-149.8 1420.79,-113.8 1513.21,-113.8 1513.21,-149.8"/>
<text text-anchor="middle" x="1467" y="-127.6" font-family="Times,serif" font-size="14.00">PagesModule</text>
</g>
<!-- ConfigComponent&#45;&gt;PagesModule -->
<g id="edge1" class="edge">
<title>ConfigComponent&#45;&gt;PagesModule</title>
<path fill="none" stroke="black" d="M2978,-84.95C2978,-108.56 2978,-146.8 2978,-146.8 2978,-146.8 1523.46,-146.8 1523.46,-146.8"/>
<polygon fill="black" stroke="black" points="1523.46,-143.3 1513.46,-146.8 1523.46,-150.3 1523.46,-143.3"/>
</g>
<!-- ContabilidadComponent -->
<g id="node2" class="node">
<title>ContabilidadComponent</title>
<polygon fill="#ffffb3" stroke="black" points="2899.66,-84.8 2746.34,-84.8 2746.34,-48.8 2899.66,-48.8 2899.66,-84.8"/>
<text text-anchor="middle" x="2823" y="-62.6" font-family="Times,serif" font-size="14.00">ContabilidadComponent</text>
</g>
<!-- ContabilidadComponent&#45;&gt;PagesModule -->
<g id="edge2" class="edge">
<title>ContabilidadComponent&#45;&gt;PagesModule</title>
<path fill="none" stroke="black" d="M2823,-85.05C2823,-107.82 2823,-143.8 2823,-143.8 2823,-143.8 1523.28,-143.8 1523.28,-143.8"/>
<polygon fill="black" stroke="black" points="1523.28,-140.3 1513.28,-143.8 1523.28,-147.3 1523.28,-140.3"/>
</g>
<!-- CuentaComponent -->
<g id="node3" class="node">
<title>CuentaComponent</title>
<polygon fill="#ffffb3" stroke="black" points="2728.49,-84.8 2607.51,-84.8 2607.51,-48.8 2728.49,-48.8 2728.49,-84.8"/>
<text text-anchor="middle" x="2668" y="-62.6" font-family="Times,serif" font-size="14.00">CuentaComponent</text>
</g>
<!-- CuentaComponent&#45;&gt;PagesModule -->
<g id="edge3" class="edge">
<title>CuentaComponent&#45;&gt;PagesModule</title>
<path fill="none" stroke="black" d="M2668,-85.09C2668,-107.01 2668,-140.8 2668,-140.8 2668,-140.8 1523.34,-140.8 1523.34,-140.8"/>
<polygon fill="black" stroke="black" points="1523.34,-137.3 1513.34,-140.8 1523.34,-144.3 1523.34,-137.3"/>
</g>
<!-- CuentasComponent -->
<g id="node4" class="node">
<title>CuentasComponent</title>
<polygon fill="#ffffb3" stroke="black" points="2589.43,-84.8 2462.57,-84.8 2462.57,-48.8 2589.43,-48.8 2589.43,-84.8"/>
<text text-anchor="middle" x="2526" y="-62.6" font-family="Times,serif" font-size="14.00">CuentasComponent</text>
</g>
<!-- CuentasComponent&#45;&gt;PagesModule -->
<g id="edge4" class="edge">
<title>CuentasComponent&#45;&gt;PagesModule</title>
<path fill="none" stroke="black" d="M2526,-84.83C2526,-105.57 2526,-136.8 2526,-136.8 2526,-136.8 1523.18,-136.8 1523.18,-136.8"/>
<polygon fill="black" stroke="black" points="1523.18,-133.3 1513.18,-136.8 1523.18,-140.3 1523.18,-133.3"/>
</g>
<!-- DashboardComponent -->
<g id="node5" class="node">
<title>DashboardComponent</title>
<polygon fill="#ffffb3" stroke="black" points="2444.97,-84.8 2303.03,-84.8 2303.03,-48.8 2444.97,-48.8 2444.97,-84.8"/>
<text text-anchor="middle" x="2374" y="-62.6" font-family="Times,serif" font-size="14.00">DashboardComponent</text>
</g>
<!-- DashboardComponent&#45;&gt;PagesModule -->
<g id="edge5" class="edge">
<title>DashboardComponent&#45;&gt;PagesModule</title>
<path fill="none" stroke="black" d="M2374,-85.11C2374,-104.95 2374,-133.8 2374,-133.8 2374,-133.8 1523.23,-133.8 1523.23,-133.8"/>
<polygon fill="black" stroke="black" points="1523.23,-130.3 1513.23,-133.8 1523.23,-137.3 1523.23,-130.3"/>
</g>
<!-- GrupoComponent -->
<g id="node6" class="node">
<title>GrupoComponent</title>
<polygon fill="#ffffb3" stroke="black" points="2284.6,-84.8 2167.4,-84.8 2167.4,-48.8 2284.6,-48.8 2284.6,-84.8"/>
<text text-anchor="middle" x="2226" y="-62.6" font-family="Times,serif" font-size="14.00">GrupoComponent</text>
</g>
<!-- GrupoComponent&#45;&gt;PagesModule -->
<g id="edge6" class="edge">
<title>GrupoComponent&#45;&gt;PagesModule</title>
<path fill="none" stroke="black" d="M2226,-84.97C2226,-103.89 2226,-130.8 2226,-130.8 2226,-130.8 1523.34,-130.8 1523.34,-130.8"/>
<polygon fill="black" stroke="black" points="1523.34,-127.3 1513.34,-130.8 1523.34,-134.3 1523.34,-127.3"/>
</g>
<!-- GruposComponent -->
<g id="node7" class="node">
<title>GruposComponent</title>
<polygon fill="#ffffb3" stroke="black" points="2149.05,-84.8 2026.95,-84.8 2026.95,-48.8 2149.05,-48.8 2149.05,-84.8"/>
<text text-anchor="middle" x="2088" y="-62.6" font-family="Times,serif" font-size="14.00">GruposComponent</text>
</g>
<!-- GruposComponent&#45;&gt;PagesModule -->
<g id="edge7" class="edge">
<title>GruposComponent&#45;&gt;PagesModule</title>
<path fill="none" stroke="black" d="M2088,-85.1C2088,-103.07 2088,-127.8 2088,-127.8 2088,-127.8 1523.17,-127.8 1523.17,-127.8"/>
<polygon fill="black" stroke="black" points="1523.17,-124.3 1513.17,-127.8 1523.17,-131.3 1523.17,-124.3"/>
</g>
<!-- LoadTableComponent -->
<g id="node8" class="node">
<title>LoadTableComponent</title>
<polygon fill="#ffffb3" stroke="black" points="2008.97,-84.8 1867.03,-84.8 1867.03,-48.8 2008.97,-48.8 2008.97,-84.8"/>
<text text-anchor="middle" x="1938" y="-62.6" font-family="Times,serif" font-size="14.00">LoadTableComponent</text>
</g>
<!-- LoadTableComponent&#45;&gt;PagesModule -->
<g id="edge8" class="edge">
<title>LoadTableComponent&#45;&gt;PagesModule</title>
<path fill="none" stroke="black" d="M1938,-84.84C1938,-101.53 1938,-123.8 1938,-123.8 1938,-123.8 1523.45,-123.8 1523.45,-123.8"/>
<polygon fill="black" stroke="black" points="1523.45,-120.3 1513.45,-123.8 1523.45,-127.3 1523.45,-120.3"/>
</g>
<!-- NotfoundComponent -->
<g id="node9" class="node">
<title>NotfoundComponent</title>
<polygon fill="#ffffb3" stroke="black" points="1849.49,-84.8 1714.51,-84.8 1714.51,-48.8 1849.49,-48.8 1849.49,-84.8"/>
<text text-anchor="middle" x="1782" y="-62.6" font-family="Times,serif" font-size="14.00">NotfoundComponent</text>
</g>
<!-- NotfoundComponent&#45;&gt;PagesModule -->
<g id="edge9" class="edge">
<title>NotfoundComponent&#45;&gt;PagesModule</title>
<path fill="none" stroke="black" d="M1782,-85.08C1782,-100.75 1782,-120.8 1782,-120.8 1782,-120.8 1523.14,-120.8 1523.14,-120.8"/>
<polygon fill="black" stroke="black" points="1523.14,-117.3 1513.14,-120.8 1523.14,-124.3 1523.14,-117.3"/>
</g>
<!-- SubcuentaComponent -->
<g id="node10" class="node">
<title>SubcuentaComponent</title>
<polygon fill="#ffffb3" stroke="black" points="1696.65,-84.8 1557.35,-84.8 1557.35,-48.8 1696.65,-48.8 1696.65,-84.8"/>
<text text-anchor="middle" x="1627" y="-62.6" font-family="Times,serif" font-size="14.00">SubcuentaComponent</text>
</g>
<!-- SubcuentaComponent&#45;&gt;PagesModule -->
<g id="edge10" class="edge">
<title>SubcuentaComponent&#45;&gt;PagesModule</title>
<path fill="none" stroke="black" d="M1627,-84.92C1627,-99.58 1627,-117.8 1627,-117.8 1627,-117.8 1523.28,-117.8 1523.28,-117.8"/>
<polygon fill="black" stroke="black" points="1523.28,-114.3 1513.28,-117.8 1523.28,-121.3 1523.28,-114.3"/>
</g>
<!-- SubcuentasComponent -->
<g id="node11" class="node">
<title>SubcuentasComponent</title>
<polygon fill="#ffffb3" stroke="black" points="1539.59,-84.8 1394.41,-84.8 1394.41,-48.8 1539.59,-48.8 1539.59,-84.8"/>
<text text-anchor="middle" x="1467" y="-62.6" font-family="Times,serif" font-size="14.00">SubcuentasComponent</text>
</g>
<!-- SubcuentasComponent&#45;&gt;PagesModule -->
<g id="edge11" class="edge">
<title>SubcuentasComponent&#45;&gt;PagesModule</title>
<path fill="none" stroke="black" d="M1467,-84.91C1467,-84.91 1467,-103.79 1467,-103.79"/>
<polygon fill="black" stroke="black" points="1463.5,-103.79 1467,-113.79 1470.5,-103.79 1463.5,-103.79"/>
</g>
<!-- SubgrupoComponent -->
<g id="node12" class="node">
<title>SubgrupoComponent</title>
<polygon fill="#ffffb3" stroke="black" points="1376.78,-84.8 1241.22,-84.8 1241.22,-48.8 1376.78,-48.8 1376.78,-84.8"/>
<text text-anchor="middle" x="1309" y="-62.6" font-family="Times,serif" font-size="14.00">SubgrupoComponent</text>
</g>
<!-- SubgrupoComponent&#45;&gt;PagesModule -->
<g id="edge12" class="edge">
<title>SubgrupoComponent&#45;&gt;PagesModule</title>
<path fill="none" stroke="black" d="M1309,-84.92C1309,-99.58 1309,-117.8 1309,-117.8 1309,-117.8 1410.88,-117.8 1410.88,-117.8"/>
<polygon fill="black" stroke="black" points="1410.88,-121.3 1420.88,-117.8 1410.88,-114.3 1410.88,-121.3"/>
</g>
<!-- SubgruposComponent -->
<g id="node13" class="node">
<title>SubgruposComponent</title>
<polygon fill="#ffffb3" stroke="black" points="1223.72,-84.8 1082.28,-84.8 1082.28,-48.8 1223.72,-48.8 1223.72,-84.8"/>
<text text-anchor="middle" x="1153" y="-62.6" font-family="Times,serif" font-size="14.00">SubgruposComponent</text>
</g>
<!-- SubgruposComponent&#45;&gt;PagesModule -->
<g id="edge13" class="edge">
<title>SubgruposComponent&#45;&gt;PagesModule</title>
<path fill="none" stroke="black" d="M1153,-85.08C1153,-100.75 1153,-120.8 1153,-120.8 1153,-120.8 1410.67,-120.8 1410.67,-120.8"/>
<polygon fill="black" stroke="black" points="1410.67,-124.3 1420.67,-120.8 1410.67,-117.3 1410.67,-124.3"/>
</g>
<!-- TaxComponent -->
<g id="node14" class="node">
<title>TaxComponent</title>
<polygon fill="#ffffb3" stroke="black" points="1064.6,-84.8 961.4,-84.8 961.4,-48.8 1064.6,-48.8 1064.6,-84.8"/>
<text text-anchor="middle" x="1013" y="-62.6" font-family="Times,serif" font-size="14.00">TaxComponent</text>
</g>
<!-- TaxComponent&#45;&gt;PagesModule -->
<g id="edge14" class="edge">
<title>TaxComponent&#45;&gt;PagesModule</title>
<path fill="none" stroke="black" d="M1013,-84.84C1013,-101.53 1013,-123.8 1013,-123.8 1013,-123.8 1410.55,-123.8 1410.55,-123.8"/>
<polygon fill="black" stroke="black" points="1410.55,-127.3 1420.55,-123.8 1410.55,-120.3 1410.55,-127.3"/>
</g>
<!-- TaxformComponent -->
<g id="node15" class="node">
<title>TaxformComponent</title>
<polygon fill="#ffffb3" stroke="black" points="943.31,-84.8 812.69,-84.8 812.69,-48.8 943.31,-48.8 943.31,-84.8"/>
<text text-anchor="middle" x="878" y="-62.6" font-family="Times,serif" font-size="14.00">TaxformComponent</text>
</g>
<!-- TaxformComponent&#45;&gt;PagesModule -->
<g id="edge15" class="edge">
<title>TaxformComponent&#45;&gt;PagesModule</title>
<path fill="none" stroke="black" d="M878,-85.1C878,-103.07 878,-127.8 878,-127.8 878,-127.8 1410.78,-127.8 1410.78,-127.8"/>
<polygon fill="black" stroke="black" points="1410.78,-131.3 1420.78,-127.8 1410.78,-124.3 1410.78,-131.3"/>
</g>
<!-- TaxporformComponent -->
<g id="node16" class="node">
<title>TaxporformComponent</title>
<polygon fill="#ffffb3" stroke="black" points="794.47,-84.8 645.53,-84.8 645.53,-48.8 794.47,-48.8 794.47,-84.8"/>
<text text-anchor="middle" x="720" y="-62.6" font-family="Times,serif" font-size="14.00">TaxporformComponent</text>
</g>
<!-- TaxporformComponent&#45;&gt;PagesModule -->
<g id="edge16" class="edge">
<title>TaxporformComponent&#45;&gt;PagesModule</title>
<path fill="none" stroke="black" d="M720,-84.97C720,-103.89 720,-130.8 720,-130.8 720,-130.8 1410.84,-130.8 1410.84,-130.8"/>
<polygon fill="black" stroke="black" points="1410.84,-134.3 1420.84,-130.8 1410.84,-127.3 1410.84,-134.3"/>
</g>
<!-- UserComponent -->
<g id="node17" class="node">
<title>UserComponent</title>
<polygon fill="#ffffb3" stroke="black" points="627.76,-84.8 520.24,-84.8 520.24,-48.8 627.76,-48.8 627.76,-84.8"/>
<text text-anchor="middle" x="574" y="-62.6" font-family="Times,serif" font-size="14.00">UserComponent</text>
</g>
<!-- UserComponent&#45;&gt;PagesModule -->
<g id="edge17" class="edge">
<title>UserComponent&#45;&gt;PagesModule</title>
<path fill="none" stroke="black" d="M574,-85.11C574,-104.95 574,-133.8 574,-133.8 574,-133.8 1410.87,-133.8 1410.87,-133.8"/>
<polygon fill="black" stroke="black" points="1410.87,-137.3 1420.87,-133.8 1410.87,-130.3 1410.87,-137.3"/>
</g>
<!-- UsersComponent -->
<g id="node18" class="node">
<title>UsersComponent</title>
<polygon fill="#ffffb3" stroke="black" points="502.7,-84.8 389.3,-84.8 389.3,-48.8 502.7,-48.8 502.7,-84.8"/>
<text text-anchor="middle" x="446" y="-62.6" font-family="Times,serif" font-size="14.00">UsersComponent</text>
</g>
<!-- UsersComponent&#45;&gt;PagesModule -->
<g id="edge18" class="edge">
<title>UsersComponent&#45;&gt;PagesModule</title>
<path fill="none" stroke="black" d="M446,-84.83C446,-105.57 446,-136.8 446,-136.8 446,-136.8 1410.81,-136.8 1410.81,-136.8"/>
<polygon fill="black" stroke="black" points="1410.81,-140.3 1420.81,-136.8 1410.81,-133.3 1410.81,-140.3"/>
</g>
<!-- ViaComponent -->
<g id="node19" class="node">
<title>ViaComponent</title>
<polygon fill="#ffffb3" stroke="black" points="371.55,-84.8 270.45,-84.8 270.45,-48.8 371.55,-48.8 371.55,-84.8"/>
<text text-anchor="middle" x="321" y="-62.6" font-family="Times,serif" font-size="14.00">ViaComponent</text>
</g>
<!-- ViaComponent&#45;&gt;PagesModule -->
<g id="edge19" class="edge">
<title>ViaComponent&#45;&gt;PagesModule</title>
<path fill="none" stroke="black" d="M321,-85.09C321,-107.01 321,-140.8 321,-140.8 321,-140.8 1410.66,-140.8 1410.66,-140.8"/>
<polygon fill="black" stroke="black" points="1410.66,-144.3 1420.66,-140.8 1410.66,-137.3 1410.66,-144.3"/>
</g>
<!-- ViasComponent -->
<g id="node20" class="node">
<title>ViasComponent</title>
<polygon fill="#ffffb3" stroke="black" points="252.49,-84.8 145.51,-84.8 145.51,-48.8 252.49,-48.8 252.49,-84.8"/>
<text text-anchor="middle" x="199" y="-62.6" font-family="Times,serif" font-size="14.00">ViasComponent</text>
</g>
<!-- ViasComponent&#45;&gt;PagesModule -->
<g id="edge20" class="edge">
<title>ViasComponent&#45;&gt;PagesModule</title>
<path fill="none" stroke="black" d="M199,-85.05C199,-107.82 199,-143.8 199,-143.8 199,-143.8 1410.75,-143.8 1410.75,-143.8"/>
<polygon fill="black" stroke="black" points="1410.75,-147.3 1420.75,-143.8 1410.75,-140.3 1410.75,-147.3"/>
</g>
<!-- ConfigModule -->
<g id="node22" class="node">
<title>ConfigModule</title>
<polygon fill="#8dd3c7" stroke="black" points="122.44,-84.8 119.44,-88.8 98.44,-88.8 95.44,-84.8 23.56,-84.8 23.56,-48.8 122.44,-48.8 122.44,-84.8"/>
<text text-anchor="middle" x="73" y="-62.6" font-family="Times,serif" font-size="14.00">ConfigModule</text>
</g>
<!-- ConfigModule&#45;&gt;PagesModule -->
<g id="edge21" class="edge">
<title>ConfigModule&#45;&gt;PagesModule</title>
<path fill="none" stroke="black" d="M73,-84.95C73,-108.56 73,-146.8 73,-146.8 73,-146.8 1410.62,-146.8 1410.62,-146.8"/>
<polygon fill="black" stroke="black" points="1410.62,-150.3 1420.62,-146.8 1410.62,-143.3 1410.62,-150.3"/>
</g>
</g>
</svg>
