<?xml version="1.0" encoding="UTF-8" standalone="no"?>
<!DOCTYPE svg PUBLIC "-//W3C//DTD SVG 1.1//EN"
 "http://www.w3.org/Graphics/SVG/1.1/DTD/svg11.dtd">
<!-- Generated by graphviz version 2.40.1 (20161225.0304)
 -->
<!-- Title: dependencies Pages: 1 -->
<svg width="2102pt" height="211pt"
 viewBox="0.00 0.00 2102.00 211.00" xmlns="http://www.w3.org/2000/svg" xmlns:xlink="http://www.w3.org/1999/xlink">
<g id="graph0" class="graph" transform="scale(1 1) rotate(0) translate(4 207)">
<title>dependencies</title>
<polygon fill="#ffffff" stroke="transparent" points="-4,4 -4,-207 2098,-207 2098,4 -4,4"/>
<text text-anchor="start" x="1026.0091" y="-42.4" font-family="sans-serif" font-weight="bold" font-size="14.00" fill="#000000">Legend</text>
<polygon fill="#ffffb3" stroke="transparent" points="813,-10 813,-30 833,-30 833,-10 813,-10"/>
<text text-anchor="start" x="836.629" y="-15.4" font-family="sans-serif" font-size="14.00" fill="#000000"> &#160;Declarations</text>
<polygon fill="#8dd3c7" stroke="transparent" points="926,-10 926,-30 946,-30 946,-10 926,-10"/>
<text text-anchor="start" x="949.7251" y="-15.4" font-family="sans-serif" font-size="14.00" fill="#000000"> &#160;Module</text>
<polygon fill="#80b1d3" stroke="transparent" points="1012,-10 1012,-30 1032,-30 1032,-10 1012,-10"/>
<text text-anchor="start" x="1035.7812" y="-15.4" font-family="sans-serif" font-size="14.00" fill="#000000"> &#160;Bootstrap</text>
<polygon fill="#fdb462" stroke="transparent" points="1109,-10 1109,-30 1129,-30 1129,-10 1109,-10"/>
<text text-anchor="start" x="1132.6732" y="-15.4" font-family="sans-serif" font-size="14.00" fill="#000000"> &#160;Providers</text>
<polygon fill="#fb8072" stroke="transparent" points="1205,-10 1205,-30 1225,-30 1225,-10 1205,-10"/>
<text text-anchor="start" x="1228.7258" y="-15.4" font-family="sans-serif" font-size="14.00" fill="#000000"> &#160;Exports</text>
<g id="clust1" class="cluster">
<title>cluster_PagesModule</title>
<polygon fill="none" stroke="#000000" stroke-dasharray="1,5" points="8,-70 8,-195 2086,-195 2086,-70 8,-70"/>
</g>
<g id="clust2" class="cluster">
<title>cluster_PagesModule_declarations</title>
<polygon fill="none" stroke="#000000" points="16,-78 16,-130 2078,-130 2078,-78 16,-78"/>
</g>
<!-- ConfigComponent -->
<g id="node1" class="node">
<title>ConfigComponent</title>
<polygon fill="#ffffb3" stroke="#000000" points="2070.2204,-122 1949.7796,-122 1949.7796,-86 2070.2204,-86 2070.2204,-122"/>
<text text-anchor="middle" x="2010" y="-99.8" font-family="Times,serif" font-size="14.00" fill="#000000">ConfigComponent</text>
</g>
<!-- PagesModule -->
<g id="node15" class="node">
<title>PagesModule</title>
<polygon fill="#8dd3c7" stroke="#000000" points="1075.2064,-187 1072.2064,-191 1051.2064,-191 1048.2064,-187 982.7936,-187 982.7936,-151 1075.2064,-151 1075.2064,-187"/>
<text text-anchor="middle" x="1029" y="-164.8" font-family="Times,serif" font-size="14.00" fill="#000000">PagesModule</text>
</g>
<!-- ConfigComponent&#45;&gt;PagesModule -->
<g id="edge1" class="edge">
<title>ConfigComponent&#45;&gt;PagesModule</title>
<path fill="none" stroke="#000000" d="M2010,-122.0908C2010,-145.1328 2010,-182 2010,-182 2010,-182 1085.3273,-182 1085.3273,-182"/>
<polygon fill="#000000" stroke="#000000" points="1085.3273,-178.5001 1075.3273,-182 1085.3272,-185.5001 1085.3273,-178.5001"/>
</g>
<!-- ContabilidadComponent -->
<g id="node2" class="node">
<title>ContabilidadComponent</title>
<polygon fill="#ffffb3" stroke="#000000" points="1931.661,-122 1778.339,-122 1778.339,-86 1931.661,-86 1931.661,-122"/>
<text text-anchor="middle" x="1855" y="-99.8" font-family="Times,serif" font-size="14.00" fill="#000000">ContabilidadComponent</text>
</g>
<!-- ContabilidadComponent&#45;&gt;PagesModule -->
<g id="edge2" class="edge">
<title>ContabilidadComponent&#45;&gt;PagesModule</title>
<path fill="none" stroke="#000000" d="M1855,-122.0449C1855,-143.6623 1855,-177 1855,-177 1855,-177 1085.1793,-177 1085.1793,-177"/>
<polygon fill="#000000" stroke="#000000" points="1085.1793,-173.5001 1075.1793,-177 1085.1792,-180.5001 1085.1793,-173.5001"/>
</g>
<!-- DashboardComponent -->
<g id="node3" class="node">
<title>DashboardComponent</title>
<polygon fill="#ffffb3" stroke="#000000" points="1759.9734,-122 1618.0266,-122 1618.0266,-86 1759.9734,-86 1759.9734,-122"/>
<text text-anchor="middle" x="1689" y="-99.8" font-family="Times,serif" font-size="14.00" fill="#000000">DashboardComponent</text>
</g>
<!-- DashboardComponent&#45;&gt;PagesModule -->
<g id="edge3" class="edge">
<title>DashboardComponent&#45;&gt;PagesModule</title>
<path fill="none" stroke="#000000" d="M1689,-122.2228C1689,-142.3652 1689,-172 1689,-172 1689,-172 1085.1476,-172 1085.1476,-172"/>
<polygon fill="#000000" stroke="#000000" points="1085.1476,-168.5001 1075.1476,-172 1085.1476,-175.5001 1085.1476,-168.5001"/>
</g>
<!-- GrupoComponent -->
<g id="node4" class="node">
<title>GrupoComponent</title>
<polygon fill="#ffffb3" stroke="#000000" points="1599.5996,-122 1482.4004,-122 1482.4004,-86 1599.5996,-86 1599.5996,-122"/>
<text text-anchor="middle" x="1541" y="-99.8" font-family="Times,serif" font-size="14.00" fill="#000000">GrupoComponent</text>
</g>
<!-- GrupoComponent&#45;&gt;PagesModule -->
<g id="edge4" class="edge">
<title>GrupoComponent&#45;&gt;PagesModule</title>
<path fill="none" stroke="#000000" d="M1541,-122.2222C1541,-140.8285 1541,-167 1541,-167 1541,-167 1085.3396,-167 1085.3396,-167"/>
<polygon fill="#000000" stroke="#000000" points="1085.3396,-163.5001 1075.3396,-167 1085.3396,-170.5001 1085.3396,-163.5001"/>
</g>
<!-- GruposComponent -->
<g id="node5" class="node">
<title>GruposComponent</title>
<polygon fill="#ffffb3" stroke="#000000" points="1464.045,-122 1341.955,-122 1341.955,-86 1464.045,-86 1464.045,-122"/>
<text text-anchor="middle" x="1403" y="-99.8" font-family="Times,serif" font-size="14.00" fill="#000000">GruposComponent</text>
</g>
<!-- GruposComponent&#45;&gt;PagesModule -->
<g id="edge5" class="edge">
<title>GruposComponent&#45;&gt;PagesModule</title>
<path fill="none" stroke="#000000" d="M1403,-122.0336C1403,-139.0597 1403,-162 1403,-162 1403,-162 1085.2349,-162 1085.2349,-162"/>
<polygon fill="#000000" stroke="#000000" points="1085.2349,-158.5001 1075.2349,-162 1085.2348,-165.5001 1085.2349,-158.5001"/>
</g>
<!-- LoadTableComponent -->
<g id="node6" class="node">
<title>LoadTableComponent</title>
<polygon fill="#ffffb3" stroke="#000000" points="1323.972,-122 1182.028,-122 1182.028,-86 1323.972,-86 1323.972,-122"/>
<text text-anchor="middle" x="1253" y="-99.8" font-family="Times,serif" font-size="14.00" fill="#000000">LoadTableComponent</text>
</g>
<!-- LoadTableComponent&#45;&gt;PagesModule -->
<g id="edge6" class="edge">
<title>LoadTableComponent&#45;&gt;PagesModule</title>
<path fill="none" stroke="#000000" d="M1253,-122.2396C1253,-137.5706 1253,-157 1253,-157 1253,-157 1085.1413,-157 1085.1413,-157"/>
<polygon fill="#000000" stroke="#000000" points="1085.1414,-153.5001 1075.1413,-157 1085.1413,-160.5001 1085.1414,-153.5001"/>
</g>
<!-- NotfoundComponent -->
<g id="node7" class="node">
<title>NotfoundComponent</title>
<polygon fill="#ffffb3" stroke="#000000" points="1164.4902,-122 1029.5098,-122 1029.5098,-86 1164.4902,-86 1164.4902,-122"/>
<text text-anchor="middle" x="1097" y="-99.8" font-family="Times,serif" font-size="14.00" fill="#000000">NotfoundComponent</text>
</g>
<!-- NotfoundComponent&#45;&gt;PagesModule -->
<g id="edge7" class="edge">
<title>NotfoundComponent&#45;&gt;PagesModule</title>
<path fill="none" stroke="#000000" d="M1052.304,-122.1061C1052.304,-122.1061 1052.304,-140.991 1052.304,-140.991"/>
<polygon fill="#000000" stroke="#000000" points="1048.8041,-140.9909 1052.304,-150.991 1055.8041,-140.991 1048.8041,-140.9909"/>
</g>
<!-- RoundceilPipe -->
<g id="node8" class="node">
<title>RoundceilPipe</title>
<polygon fill="#ffffb3" stroke="#000000" points="1011.4358,-122 912.5642,-122 912.5642,-86 1011.4358,-86 1011.4358,-122"/>
<text text-anchor="middle" x="962" y="-99.8" font-family="Times,serif" font-size="14.00" fill="#000000">RoundceilPipe</text>
</g>
<!-- RoundceilPipe&#45;&gt;PagesModule -->
<g id="edge8" class="edge">
<title>RoundceilPipe&#45;&gt;PagesModule</title>
<path fill="none" stroke="#000000" d="M997.0572,-122.1061C997.0572,-122.1061 997.0572,-140.991 997.0572,-140.991"/>
<polygon fill="#000000" stroke="#000000" points="993.5572,-140.9909 997.0572,-150.991 1000.5572,-140.991 993.5572,-140.9909"/>
</g>
<!-- SubcuentaComponent -->
<g id="node9" class="node">
<title>SubcuentaComponent</title>
<polygon fill="#ffffb3" stroke="#000000" points="894.6498,-122 755.3502,-122 755.3502,-86 894.6498,-86 894.6498,-122"/>
<text text-anchor="middle" x="825" y="-99.8" font-family="Times,serif" font-size="14.00" fill="#000000">SubcuentaComponent</text>
</g>
<!-- SubcuentaComponent&#45;&gt;PagesModule -->
<g id="edge9" class="edge">
<title>SubcuentaComponent&#45;&gt;PagesModule</title>
<path fill="none" stroke="#000000" d="M825,-122.2396C825,-137.5706 825,-157 825,-157 825,-157 972.7092,-157 972.7092,-157"/>
<polygon fill="#000000" stroke="#000000" points="972.7093,-160.5001 982.7092,-157 972.7092,-153.5001 972.7093,-160.5001"/>
</g>
<!-- SubcuentasComponent -->
<g id="node10" class="node">
<title>SubcuentasComponent</title>
<polygon fill="#ffffb3" stroke="#000000" points="737.594,-122 592.406,-122 592.406,-86 737.594,-86 737.594,-122"/>
<text text-anchor="middle" x="665" y="-99.8" font-family="Times,serif" font-size="14.00" fill="#000000">SubcuentasComponent</text>
</g>
<!-- SubcuentasComponent&#45;&gt;PagesModule -->
<g id="edge10" class="edge">
<title>SubcuentasComponent&#45;&gt;PagesModule</title>
<path fill="none" stroke="#000000" d="M665,-122.0336C665,-139.0597 665,-162 665,-162 665,-162 972.5294,-162 972.5294,-162"/>
<polygon fill="#000000" stroke="#000000" points="972.5295,-165.5001 982.5294,-162 972.5294,-158.5001 972.5295,-165.5001"/>
</g>
<!-- SubgrupoComponent -->
<g id="node11" class="node">
<title>SubgrupoComponent</title>
<polygon fill="#ffffb3" stroke="#000000" points="574.7758,-122 439.2242,-122 439.2242,-86 574.7758,-86 574.7758,-122"/>
<text text-anchor="middle" x="507" y="-99.8" font-family="Times,serif" font-size="14.00" fill="#000000">SubgrupoComponent</text>
</g>
<!-- SubgrupoComponent&#45;&gt;PagesModule -->
<g id="edge11" class="edge">
<title>SubgrupoComponent&#45;&gt;PagesModule</title>
<path fill="none" stroke="#000000" d="M507,-122.2222C507,-140.8285 507,-167 507,-167 507,-167 972.676,-167 972.676,-167"/>
<polygon fill="#000000" stroke="#000000" points="972.676,-170.5001 982.676,-167 972.6759,-163.5001 972.676,-170.5001"/>
</g>
<!-- SubgruposComponent -->
<g id="node12" class="node">
<title>SubgruposComponent</title>
<polygon fill="#ffffb3" stroke="#000000" points="421.7204,-122 280.2796,-122 280.2796,-86 421.7204,-86 421.7204,-122"/>
<text text-anchor="middle" x="351" y="-99.8" font-family="Times,serif" font-size="14.00" fill="#000000">SubgruposComponent</text>
</g>
<!-- SubgruposComponent&#45;&gt;PagesModule -->
<g id="edge12" class="edge">
<title>SubgruposComponent&#45;&gt;PagesModule</title>
<path fill="none" stroke="#000000" d="M351,-122.2228C351,-142.3652 351,-172 351,-172 351,-172 972.6652,-172 972.6652,-172"/>
<polygon fill="#000000" stroke="#000000" points="972.6652,-175.5001 982.6652,-172 972.6651,-168.5001 972.6652,-175.5001"/>
</g>
<!-- UserComponent -->
<g id="node13" class="node">
<title>UserComponent</title>
<polygon fill="#ffffb3" stroke="#000000" points="262.7591,-122 155.2409,-122 155.2409,-86 262.7591,-86 262.7591,-122"/>
<text text-anchor="middle" x="209" y="-99.8" font-family="Times,serif" font-size="14.00" fill="#000000">UserComponent</text>
</g>
<!-- UserComponent&#45;&gt;PagesModule -->
<g id="edge13" class="edge">
<title>UserComponent&#45;&gt;PagesModule</title>
<path fill="none" stroke="#000000" d="M209,-122.0449C209,-143.6623 209,-177 209,-177 209,-177 972.8604,-177 972.8604,-177"/>
<polygon fill="#000000" stroke="#000000" points="972.8604,-180.5001 982.8604,-177 972.8604,-173.5001 972.8604,-180.5001"/>
</g>
<!-- UsersComponent -->
<g id="node14" class="node">
<title>UsersComponent</title>
<polygon fill="#ffffb3" stroke="#000000" points="137.7036,-122 24.2964,-122 24.2964,-86 137.7036,-86 137.7036,-122"/>
<text text-anchor="middle" x="81" y="-99.8" font-family="Times,serif" font-size="14.00" fill="#000000">UsersComponent</text>
</g>
<!-- UsersComponent&#45;&gt;PagesModule -->
<g id="edge14" class="edge">
<title>UsersComponent&#45;&gt;PagesModule</title>
<path fill="none" stroke="#000000" d="M81,-122.0908C81,-145.1328 81,-182 81,-182 81,-182 972.6342,-182 972.6342,-182"/>
<polygon fill="#000000" stroke="#000000" points="972.6343,-185.5001 982.6342,-182 972.6342,-178.5001 972.6343,-185.5001"/>
</g>
</g>
</svg>
