<?xml version="1.0" encoding="UTF-8" standalone="no"?>
<!DOCTYPE svg PUBLIC "-//W3C//DTD SVG 1.1//EN"
 "http://www.w3.org/Graphics/SVG/1.1/DTD/svg11.dtd">
<!-- Generated by graphviz version 2.40.1 (20161225.0304)
 -->
<!-- Title: dependencies Pages: 1 -->
<svg width="1457pt" height="211pt"
 viewBox="0.00 0.00 1457.00 211.00" xmlns="http://www.w3.org/2000/svg" xmlns:xlink="http://www.w3.org/1999/xlink">
<g id="graph0" class="graph" transform="scale(1 1) rotate(0) translate(4 207)">
<title>dependencies</title>
<polygon fill="#ffffff" stroke="transparent" points="-4,4 -4,-207 1453,-207 1453,4 -4,4"/>
<text text-anchor="start" x="703.5091" y="-42.4" font-family="sans-serif" font-weight="bold" font-size="14.00" fill="#000000">Legend</text>
<polygon fill="#ffffb3" stroke="transparent" points="490.5,-10 490.5,-30 510.5,-30 510.5,-10 490.5,-10"/>
<text text-anchor="start" x="514.129" y="-15.4" font-family="sans-serif" font-size="14.00" fill="#000000"> &#160;Declarations</text>
<polygon fill="#8dd3c7" stroke="transparent" points="603.5,-10 603.5,-30 623.5,-30 623.5,-10 603.5,-10"/>
<text text-anchor="start" x="627.2251" y="-15.4" font-family="sans-serif" font-size="14.00" fill="#000000"> &#160;Module</text>
<polygon fill="#80b1d3" stroke="transparent" points="689.5,-10 689.5,-30 709.5,-30 709.5,-10 689.5,-10"/>
<text text-anchor="start" x="713.2812" y="-15.4" font-family="sans-serif" font-size="14.00" fill="#000000"> &#160;Bootstrap</text>
<polygon fill="#fdb462" stroke="transparent" points="786.5,-10 786.5,-30 806.5,-30 806.5,-10 786.5,-10"/>
<text text-anchor="start" x="810.1732" y="-15.4" font-family="sans-serif" font-size="14.00" fill="#000000"> &#160;Providers</text>
<polygon fill="#fb8072" stroke="transparent" points="882.5,-10 882.5,-30 902.5,-30 902.5,-10 882.5,-10"/>
<text text-anchor="start" x="906.2258" y="-15.4" font-family="sans-serif" font-size="14.00" fill="#000000"> &#160;Exports</text>
<g id="clust1" class="cluster">
<title>cluster_PagesModule</title>
<polygon fill="none" stroke="#000000" stroke-dasharray="1,5" points="8,-70 8,-195 1441,-195 1441,-70 8,-70"/>
</g>
<g id="clust2" class="cluster">
<title>cluster_PagesModule_declarations</title>
<polygon fill="none" stroke="#000000" points="16,-78 16,-130 1433,-130 1433,-78 16,-78"/>
</g>
<!-- ConfigComponent -->
<g id="node1" class="node">
<title>ConfigComponent</title>
<polygon fill="#ffffb3" stroke="#000000" points="1425.2204,-122 1304.7796,-122 1304.7796,-86 1425.2204,-86 1425.2204,-122"/>
<text text-anchor="middle" x="1365" y="-99.8" font-family="Times,serif" font-size="14.00" fill="#000000">ConfigComponent</text>
</g>
<!-- PagesModule -->
<g id="node11" class="node">
<title>PagesModule</title>
<polygon fill="#8dd3c7" stroke="#000000" points="757.2064,-187 754.2064,-191 733.2064,-191 730.2064,-187 664.7936,-187 664.7936,-151 757.2064,-151 757.2064,-187"/>
<text text-anchor="middle" x="711" y="-164.8" font-family="Times,serif" font-size="14.00" fill="#000000">PagesModule</text>
</g>
<!-- ConfigComponent&#45;&gt;PagesModule -->
<g id="edge1" class="edge">
<title>ConfigComponent&#45;&gt;PagesModule</title>
<path fill="none" stroke="#000000" d="M1365,-122.0109C1365,-144.4852 1365,-180 1365,-180 1365,-180 767.2486,-180 767.2486,-180"/>
<polygon fill="#000000" stroke="#000000" points="767.2486,-176.5001 757.2486,-180 767.2485,-183.5001 767.2486,-176.5001"/>
</g>
<!-- DashboardComponent -->
<g id="node2" class="node">
<title>DashboardComponent</title>
<polygon fill="#ffffb3" stroke="#000000" points="1286.9734,-122 1145.0266,-122 1145.0266,-86 1286.9734,-86 1286.9734,-122"/>
<text text-anchor="middle" x="1216" y="-99.8" font-family="Times,serif" font-size="14.00" fill="#000000">DashboardComponent</text>
</g>
<!-- DashboardComponent&#45;&gt;PagesModule -->
<g id="edge2" class="edge">
<title>DashboardComponent&#45;&gt;PagesModule</title>
<path fill="none" stroke="#000000" d="M1216,-122.1289C1216,-142.5724 1216,-173 1216,-173 1216,-173 767.1541,-173 767.1541,-173"/>
<polygon fill="#000000" stroke="#000000" points="767.1542,-169.5001 757.1541,-173 767.1541,-176.5001 767.1542,-169.5001"/>
</g>
<!-- GrupoComponent -->
<g id="node3" class="node">
<title>GrupoComponent</title>
<polygon fill="#ffffb3" stroke="#000000" points="1126.5996,-122 1009.4004,-122 1009.4004,-86 1126.5996,-86 1126.5996,-122"/>
<text text-anchor="middle" x="1068" y="-99.8" font-family="Times,serif" font-size="14.00" fill="#000000">GrupoComponent</text>
</g>
<!-- GrupoComponent&#45;&gt;PagesModule -->
<g id="edge3" class="edge">
<title>GrupoComponent&#45;&gt;PagesModule</title>
<path fill="none" stroke="#000000" d="M1068,-122.2667C1068,-140.5552 1068,-166 1068,-166 1068,-166 767.3055,-166 767.3055,-166"/>
<polygon fill="#000000" stroke="#000000" points="767.3056,-162.5001 757.3055,-166 767.3055,-169.5001 767.3056,-162.5001"/>
</g>
<!-- GruposComponent -->
<g id="node4" class="node">
<title>GruposComponent</title>
<polygon fill="#ffffb3" stroke="#000000" points="991.045,-122 868.955,-122 868.955,-86 991.045,-86 991.045,-122"/>
<text text-anchor="middle" x="930" y="-99.8" font-family="Times,serif" font-size="14.00" fill="#000000">GruposComponent</text>
</g>
<!-- GruposComponent&#45;&gt;PagesModule -->
<g id="edge4" class="edge">
<title>GruposComponent&#45;&gt;PagesModule</title>
<path fill="none" stroke="#000000" d="M930,-122.0091C930,-138.0494 930,-159 930,-159 930,-159 767.1767,-159 767.1767,-159"/>
<polygon fill="#000000" stroke="#000000" points="767.1767,-155.5001 757.1767,-159 767.1766,-162.5001 767.1767,-155.5001"/>
</g>
<!-- LoadTableComponent -->
<g id="node5" class="node">
<title>LoadTableComponent</title>
<polygon fill="#ffffb3" stroke="#000000" points="850.972,-122 709.028,-122 709.028,-86 850.972,-86 850.972,-122"/>
<text text-anchor="middle" x="780" y="-99.8" font-family="Times,serif" font-size="14.00" fill="#000000">LoadTableComponent</text>
</g>
<!-- LoadTableComponent&#45;&gt;PagesModule -->
<g id="edge5" class="edge">
<title>LoadTableComponent&#45;&gt;PagesModule</title>
<path fill="none" stroke="#000000" d="M733.0586,-122.1061C733.0586,-122.1061 733.0586,-140.991 733.0586,-140.991"/>
<polygon fill="#000000" stroke="#000000" points="729.5586,-140.9909 733.0586,-150.991 736.5586,-140.991 729.5586,-140.9909"/>
</g>
<!-- RoundceilPipe -->
<g id="node6" class="node">
<title>RoundceilPipe</title>
<polygon fill="#ffffb3" stroke="#000000" points="691.4358,-122 592.5642,-122 592.5642,-86 691.4358,-86 691.4358,-122"/>
<text text-anchor="middle" x="642" y="-99.8" font-family="Times,serif" font-size="14.00" fill="#000000">RoundceilPipe</text>
</g>
<!-- RoundceilPipe&#45;&gt;PagesModule -->
<g id="edge6" class="edge">
<title>RoundceilPipe&#45;&gt;PagesModule</title>
<path fill="none" stroke="#000000" d="M678.0572,-122.1061C678.0572,-122.1061 678.0572,-140.991 678.0572,-140.991"/>
<polygon fill="#000000" stroke="#000000" points="674.5572,-140.9909 678.0572,-150.991 681.5572,-140.991 674.5572,-140.9909"/>
</g>
<!-- SubgrupoComponent -->
<g id="node7" class="node">
<title>SubgrupoComponent</title>
<polygon fill="#ffffb3" stroke="#000000" points="574.7758,-122 439.2242,-122 439.2242,-86 574.7758,-86 574.7758,-122"/>
<text text-anchor="middle" x="507" y="-99.8" font-family="Times,serif" font-size="14.00" fill="#000000">SubgrupoComponent</text>
</g>
<!-- SubgrupoComponent&#45;&gt;PagesModule -->
<g id="edge7" class="edge">
<title>SubgrupoComponent&#45;&gt;PagesModule</title>
<path fill="none" stroke="#000000" d="M507,-122.0091C507,-138.0494 507,-159 507,-159 507,-159 654.7092,-159 654.7092,-159"/>
<polygon fill="#000000" stroke="#000000" points="654.7093,-162.5001 664.7092,-159 654.7092,-155.5001 654.7093,-162.5001"/>
</g>
<!-- SubgruposComponent -->
<g id="node8" class="node">
<title>SubgruposComponent</title>
<polygon fill="#ffffb3" stroke="#000000" points="421.7204,-122 280.2796,-122 280.2796,-86 421.7204,-86 421.7204,-122"/>
<text text-anchor="middle" x="351" y="-99.8" font-family="Times,serif" font-size="14.00" fill="#000000">SubgruposComponent</text>
</g>
<!-- SubgruposComponent&#45;&gt;PagesModule -->
<g id="edge8" class="edge">
<title>SubgruposComponent&#45;&gt;PagesModule</title>
<path fill="none" stroke="#000000" d="M351,-122.2667C351,-140.5552 351,-166 351,-166 351,-166 654.6733,-166 654.6733,-166"/>
<polygon fill="#000000" stroke="#000000" points="654.6733,-169.5001 664.6733,-166 654.6733,-162.5001 654.6733,-169.5001"/>
</g>
<!-- UserComponent -->
<g id="node9" class="node">
<title>UserComponent</title>
<polygon fill="#ffffb3" stroke="#000000" points="262.7591,-122 155.2409,-122 155.2409,-86 262.7591,-86 262.7591,-122"/>
<text text-anchor="middle" x="209" y="-99.8" font-family="Times,serif" font-size="14.00" fill="#000000">UserComponent</text>
</g>
<!-- UserComponent&#45;&gt;PagesModule -->
<g id="edge9" class="edge">
<title>UserComponent&#45;&gt;PagesModule</title>
<path fill="none" stroke="#000000" d="M209,-122.1289C209,-142.5724 209,-173 209,-173 209,-173 654.6729,-173 654.6729,-173"/>
<polygon fill="#000000" stroke="#000000" points="654.6729,-176.5001 664.6729,-173 654.6728,-169.5001 654.6729,-176.5001"/>
</g>
<!-- UsersComponent -->
<g id="node10" class="node">
<title>UsersComponent</title>
<polygon fill="#ffffb3" stroke="#000000" points="137.7036,-122 24.2964,-122 24.2964,-86 137.7036,-86 137.7036,-122"/>
<text text-anchor="middle" x="81" y="-99.8" font-family="Times,serif" font-size="14.00" fill="#000000">UsersComponent</text>
</g>
<!-- UsersComponent&#45;&gt;PagesModule -->
<g id="edge10" class="edge">
<title>UsersComponent&#45;&gt;PagesModule</title>
<path fill="none" stroke="#000000" d="M81,-122.0109C81,-144.4852 81,-180 81,-180 81,-180 654.6746,-180 654.6746,-180"/>
<polygon fill="#000000" stroke="#000000" points="654.6746,-183.5001 664.6746,-180 654.6746,-176.5001 654.6746,-183.5001"/>
</g>
</g>
</svg>
