<?xml version="1.0" encoding="UTF-8" standalone="no"?>
<!DOCTYPE svg PUBLIC "-//W3C//DTD SVG 1.1//EN"
 "http://www.w3.org/Graphics/SVG/1.1/DTD/svg11.dtd">
<!-- Generated by graphviz version 2.40.1 (20161225.0304)
 -->
<!-- Title: dependencies Pages: 1 -->
<svg width="3065pt" height="211pt"
 viewBox="0.00 0.00 3065.00 211.00" xmlns="http://www.w3.org/2000/svg" xmlns:xlink="http://www.w3.org/1999/xlink">
<g id="graph0" class="graph" transform="scale(1 1) rotate(0) translate(4 207)">
<title>dependencies</title>
<polygon fill="#ffffff" stroke="transparent" points="-4,4 -4,-207 3061,-207 3061,4 -4,4"/>
<text text-anchor="start" x="1507.5091" y="-42.4" font-family="sans-serif" font-weight="bold" font-size="14.00" fill="#000000">Legend</text>
<polygon fill="#ffffb3" stroke="transparent" points="1294.5,-10 1294.5,-30 1314.5,-30 1314.5,-10 1294.5,-10"/>
<text text-anchor="start" x="1318.129" y="-15.4" font-family="sans-serif" font-size="14.00" fill="#000000"> &#160;Declarations</text>
<polygon fill="#8dd3c7" stroke="transparent" points="1407.5,-10 1407.5,-30 1427.5,-30 1427.5,-10 1407.5,-10"/>
<text text-anchor="start" x="1431.2251" y="-15.4" font-family="sans-serif" font-size="14.00" fill="#000000"> &#160;Module</text>
<polygon fill="#80b1d3" stroke="transparent" points="1493.5,-10 1493.5,-30 1513.5,-30 1513.5,-10 1493.5,-10"/>
<text text-anchor="start" x="1517.2812" y="-15.4" font-family="sans-serif" font-size="14.00" fill="#000000"> &#160;Bootstrap</text>
<polygon fill="#fdb462" stroke="transparent" points="1590.5,-10 1590.5,-30 1610.5,-30 1610.5,-10 1590.5,-10"/>
<text text-anchor="start" x="1614.1732" y="-15.4" font-family="sans-serif" font-size="14.00" fill="#000000"> &#160;Providers</text>
<polygon fill="#fb8072" stroke="transparent" points="1686.5,-10 1686.5,-30 1706.5,-30 1706.5,-10 1686.5,-10"/>
<text text-anchor="start" x="1710.2258" y="-15.4" font-family="sans-serif" font-size="14.00" fill="#000000"> &#160;Exports</text>
<g id="clust1" class="cluster">
<title>cluster_PagesModule</title>
<polygon fill="none" stroke="#000000" stroke-dasharray="1,5" points="8,-70 8,-195 3049,-195 3049,-70 8,-70"/>
</g>
<g id="clust2" class="cluster">
<title>cluster_PagesModule_declarations</title>
<polygon fill="none" stroke="#000000" points="16,-78 16,-130 3041,-130 3041,-78 16,-78"/>
</g>
<!-- ConfigComponent -->
<g id="node1" class="node">
<title>ConfigComponent</title>
<polygon fill="#ffffb3" stroke="#000000" points="3033.2204,-122 2912.7796,-122 2912.7796,-86 3033.2204,-86 3033.2204,-122"/>
<text text-anchor="middle" x="2973" y="-99.8" font-family="Times,serif" font-size="14.00" fill="#000000">ConfigComponent</text>
</g>
<!-- PagesModule -->
<g id="node22" class="node">
<title>PagesModule</title>
<polygon fill="#8dd3c7" stroke="#000000" points="1551.2064,-187 1548.2064,-191 1527.2064,-191 1524.2064,-187 1458.7936,-187 1458.7936,-151 1551.2064,-151 1551.2064,-187"/>
<text text-anchor="middle" x="1505" y="-164.8" font-family="Times,serif" font-size="14.00" fill="#000000">PagesModule</text>
</g>
<!-- ConfigComponent&#45;&gt;PagesModule -->
<g id="edge1" class="edge">
<title>ConfigComponent&#45;&gt;PagesModule</title>
<path fill="none" stroke="#000000" d="M2973,-122.1532C2973,-145.7566 2973,-184 2973,-184 2973,-184 1561.3589,-184 1561.3589,-184"/>
<polygon fill="#000000" stroke="#000000" points="1561.3589,-180.5001 1551.3589,-184 1561.3589,-187.5001 1561.3589,-180.5001"/>
</g>
<!-- ContabilidadComponent -->
<g id="node2" class="node">
<title>ContabilidadComponent</title>
<polygon fill="#ffffb3" stroke="#000000" points="2894.661,-122 2741.339,-122 2741.339,-86 2894.661,-86 2894.661,-122"/>
<text text-anchor="middle" x="2818" y="-99.8" font-family="Times,serif" font-size="14.00" fill="#000000">ContabilidadComponent</text>
</g>
<!-- ContabilidadComponent&#45;&gt;PagesModule -->
<g id="edge2" class="edge">
<title>ContabilidadComponent&#45;&gt;PagesModule</title>
<path fill="none" stroke="#000000" d="M2818,-122.2479C2818,-145.0179 2818,-181 2818,-181 2818,-181 1561.3447,-181 1561.3447,-181"/>
<polygon fill="#000000" stroke="#000000" points="1561.3447,-177.5001 1551.3447,-181 1561.3447,-184.5001 1561.3447,-177.5001"/>
</g>
<!-- CuentaComponent -->
<g id="node3" class="node">
<title>CuentaComponent</title>
<polygon fill="#ffffb3" stroke="#000000" points="2723.4888,-122 2602.5112,-122 2602.5112,-86 2723.4888,-86 2723.4888,-122"/>
<text text-anchor="middle" x="2663" y="-99.8" font-family="Times,serif" font-size="14.00" fill="#000000">CuentaComponent</text>
</g>
<!-- CuentaComponent&#45;&gt;PagesModule -->
<g id="edge3" class="edge">
<title>CuentaComponent&#45;&gt;PagesModule</title>
<path fill="none" stroke="#000000" d="M2663,-122.2921C2663,-144.2057 2663,-178 2663,-178 2663,-178 1561.1096,-178 1561.1096,-178"/>
<polygon fill="#000000" stroke="#000000" points="1561.1096,-174.5001 1551.1096,-178 1561.1095,-181.5001 1561.1096,-174.5001"/>
</g>
<!-- CuentasComponent -->
<g id="node4" class="node">
<title>CuentasComponent</title>
<polygon fill="#ffffb3" stroke="#000000" points="2584.4341,-122 2457.5659,-122 2457.5659,-86 2584.4341,-86 2584.4341,-122"/>
<text text-anchor="middle" x="2521" y="-99.8" font-family="Times,serif" font-size="14.00" fill="#000000">CuentasComponent</text>
</g>
<!-- CuentasComponent&#45;&gt;PagesModule -->
<g id="edge4" class="edge">
<title>CuentasComponent&#45;&gt;PagesModule</title>
<path fill="none" stroke="#000000" d="M2521,-122.0267C2521,-142.7672 2521,-174 2521,-174 2521,-174 1561.2955,-174 1561.2955,-174"/>
<polygon fill="#000000" stroke="#000000" points="1561.2955,-170.5001 1551.2955,-174 1561.2955,-177.5001 1561.2955,-170.5001"/>
</g>
<!-- DashboardComponent -->
<g id="node5" class="node">
<title>DashboardComponent</title>
<polygon fill="#ffffb3" stroke="#000000" points="2439.9734,-122 2298.0266,-122 2298.0266,-86 2439.9734,-86 2439.9734,-122"/>
<text text-anchor="middle" x="2369" y="-99.8" font-family="Times,serif" font-size="14.00" fill="#000000">DashboardComponent</text>
</g>
<!-- DashboardComponent&#45;&gt;PagesModule -->
<g id="edge5" class="edge">
<title>DashboardComponent&#45;&gt;PagesModule</title>
<path fill="none" stroke="#000000" d="M2369,-122.308C2369,-142.1455 2369,-171 2369,-171 2369,-171 1561.1469,-171 1561.1469,-171"/>
<polygon fill="#000000" stroke="#000000" points="1561.147,-167.5001 1551.1469,-171 1561.1469,-174.5001 1561.147,-167.5001"/>
</g>
<!-- GrupoComponent -->
<g id="node6" class="node">
<title>GrupoComponent</title>
<polygon fill="#ffffb3" stroke="#000000" points="2279.5996,-122 2162.4004,-122 2162.4004,-86 2279.5996,-86 2279.5996,-122"/>
<text text-anchor="middle" x="2221" y="-99.8" font-family="Times,serif" font-size="14.00" fill="#000000">GrupoComponent</text>
</g>
<!-- GrupoComponent&#45;&gt;PagesModule -->
<g id="edge6" class="edge">
<title>GrupoComponent&#45;&gt;PagesModule</title>
<path fill="none" stroke="#000000" d="M2221,-122.1686C2221,-141.0898 2221,-168 2221,-168 2221,-168 1561.1523,-168 1561.1523,-168"/>
<polygon fill="#000000" stroke="#000000" points="1561.1523,-164.5001 1551.1523,-168 1561.1523,-171.5001 1561.1523,-164.5001"/>
</g>
<!-- GruposComponent -->
<g id="node7" class="node">
<title>GruposComponent</title>
<polygon fill="#ffffb3" stroke="#000000" points="2144.045,-122 2021.955,-122 2021.955,-86 2144.045,-86 2144.045,-122"/>
<text text-anchor="middle" x="2083" y="-99.8" font-family="Times,serif" font-size="14.00" fill="#000000">GruposComponent</text>
</g>
<!-- GruposComponent&#45;&gt;PagesModule -->
<g id="edge7" class="edge">
<title>GruposComponent&#45;&gt;PagesModule</title>
<path fill="none" stroke="#000000" d="M2083,-122.302C2083,-140.2699 2083,-165 2083,-165 2083,-165 1561.3231,-165 1561.3231,-165"/>
<polygon fill="#000000" stroke="#000000" points="1561.3231,-161.5001 1551.3231,-165 1561.3231,-168.5001 1561.3231,-161.5001"/>
</g>
<!-- LoadTableComponent -->
<g id="node8" class="node">
<title>LoadTableComponent</title>
<polygon fill="#ffffb3" stroke="#000000" points="2003.972,-122 1862.028,-122 1862.028,-86 2003.972,-86 2003.972,-122"/>
<text text-anchor="middle" x="1933" y="-99.8" font-family="Times,serif" font-size="14.00" fill="#000000">LoadTableComponent</text>
</g>
<!-- LoadTableComponent&#45;&gt;PagesModule -->
<g id="edge8" class="edge">
<title>LoadTableComponent&#45;&gt;PagesModule</title>
<path fill="none" stroke="#000000" d="M1933,-122.0352C1933,-138.7344 1933,-161 1933,-161 1933,-161 1561.2102,-161 1561.2102,-161"/>
<polygon fill="#000000" stroke="#000000" points="1561.2102,-157.5001 1551.2102,-161 1561.2101,-164.5001 1561.2102,-157.5001"/>
</g>
<!-- NotfoundComponent -->
<g id="node9" class="node">
<title>NotfoundComponent</title>
<polygon fill="#ffffb3" stroke="#000000" points="1844.4902,-122 1709.5098,-122 1709.5098,-86 1844.4902,-86 1844.4902,-122"/>
<text text-anchor="middle" x="1777" y="-99.8" font-family="Times,serif" font-size="14.00" fill="#000000">NotfoundComponent</text>
</g>
<!-- NotfoundComponent&#45;&gt;PagesModule -->
<g id="edge9" class="edge">
<title>NotfoundComponent&#45;&gt;PagesModule</title>
<path fill="none" stroke="#000000" d="M1777,-122.2819C1777,-137.9478 1777,-158 1777,-158 1777,-158 1561.1411,-158 1561.1411,-158"/>
<polygon fill="#000000" stroke="#000000" points="1561.1411,-154.5001 1551.1411,-158 1561.1411,-161.5001 1561.1411,-154.5001"/>
</g>
<!-- RoundceilPipe -->
<g id="node10" class="node">
<title>RoundceilPipe</title>
<polygon fill="#ffffb3" stroke="#000000" points="1691.4358,-122 1592.5642,-122 1592.5642,-86 1691.4358,-86 1691.4358,-122"/>
<text text-anchor="middle" x="1642" y="-99.8" font-family="Times,serif" font-size="14.00" fill="#000000">RoundceilPipe</text>
</g>
<!-- RoundceilPipe&#45;&gt;PagesModule -->
<g id="edge10" class="edge">
<title>RoundceilPipe&#45;&gt;PagesModule</title>
<path fill="none" stroke="#000000" d="M1642,-122.1243C1642,-136.7832 1642,-155 1642,-155 1642,-155 1561.382,-155 1561.382,-155"/>
<polygon fill="#000000" stroke="#000000" points="1561.382,-151.5001 1551.382,-155 1561.3819,-158.5001 1561.382,-151.5001"/>
</g>
<!-- SubcuentaComponent -->
<g id="node11" class="node">
<title>SubcuentaComponent</title>
<polygon fill="#ffffb3" stroke="#000000" points="1574.6498,-122 1435.3502,-122 1435.3502,-86 1574.6498,-86 1574.6498,-122"/>
<text text-anchor="middle" x="1505" y="-99.8" font-family="Times,serif" font-size="14.00" fill="#000000">SubcuentaComponent</text>
</g>
<!-- SubcuentaComponent&#45;&gt;PagesModule -->
<g id="edge11" class="edge">
<title>SubcuentaComponent&#45;&gt;PagesModule</title>
<path fill="none" stroke="#000000" d="M1505,-122.1061C1505,-122.1061 1505,-140.991 1505,-140.991"/>
<polygon fill="#000000" stroke="#000000" points="1501.5001,-140.9909 1505,-150.991 1508.5001,-140.991 1501.5001,-140.9909"/>
</g>
<!-- SubcuentasComponent -->
<g id="node12" class="node">
<title>SubcuentasComponent</title>
<polygon fill="#ffffb3" stroke="#000000" points="1417.594,-122 1272.406,-122 1272.406,-86 1417.594,-86 1417.594,-122"/>
<text text-anchor="middle" x="1345" y="-99.8" font-family="Times,serif" font-size="14.00" fill="#000000">SubcuentasComponent</text>
</g>
<!-- SubcuentasComponent&#45;&gt;PagesModule -->
<g id="edge12" class="edge">
<title>SubcuentasComponent&#45;&gt;PagesModule</title>
<path fill="none" stroke="#000000" d="M1345,-122.1243C1345,-136.7832 1345,-155 1345,-155 1345,-155 1448.7214,-155 1448.7214,-155"/>
<polygon fill="#000000" stroke="#000000" points="1448.7214,-158.5001 1458.7214,-155 1448.7213,-151.5001 1448.7214,-158.5001"/>
</g>
<!-- SubgrupoComponent -->
<g id="node13" class="node">
<title>SubgrupoComponent</title>
<polygon fill="#ffffb3" stroke="#000000" points="1254.7758,-122 1119.2242,-122 1119.2242,-86 1254.7758,-86 1254.7758,-122"/>
<text text-anchor="middle" x="1187" y="-99.8" font-family="Times,serif" font-size="14.00" fill="#000000">SubgrupoComponent</text>
</g>
<!-- SubgrupoComponent&#45;&gt;PagesModule -->
<g id="edge13" class="edge">
<title>SubgrupoComponent&#45;&gt;PagesModule</title>
<path fill="none" stroke="#000000" d="M1187,-122.2819C1187,-137.9478 1187,-158 1187,-158 1187,-158 1448.7601,-158 1448.7601,-158"/>
<polygon fill="#000000" stroke="#000000" points="1448.7601,-161.5001 1458.7601,-158 1448.76,-154.5001 1448.7601,-161.5001"/>
</g>
<!-- SubgruposComponent -->
<g id="node14" class="node">
<title>SubgruposComponent</title>
<polygon fill="#ffffb3" stroke="#000000" points="1101.7204,-122 960.2796,-122 960.2796,-86 1101.7204,-86 1101.7204,-122"/>
<text text-anchor="middle" x="1031" y="-99.8" font-family="Times,serif" font-size="14.00" fill="#000000">SubgruposComponent</text>
</g>
<!-- SubgruposComponent&#45;&gt;PagesModule -->
<g id="edge14" class="edge">
<title>SubgruposComponent&#45;&gt;PagesModule</title>
<path fill="none" stroke="#000000" d="M1031,-122.0352C1031,-138.7344 1031,-161 1031,-161 1031,-161 1448.6878,-161 1448.6878,-161"/>
<polygon fill="#000000" stroke="#000000" points="1448.6879,-164.5001 1458.6878,-161 1448.6878,-157.5001 1448.6879,-164.5001"/>
</g>
<!-- TaxComponent -->
<g id="node15" class="node">
<title>TaxComponent</title>
<polygon fill="#ffffb3" stroke="#000000" points="942.5996,-122 839.4004,-122 839.4004,-86 942.5996,-86 942.5996,-122"/>
<text text-anchor="middle" x="891" y="-99.8" font-family="Times,serif" font-size="14.00" fill="#000000">TaxComponent</text>
</g>
<!-- TaxComponent&#45;&gt;PagesModule -->
<g id="edge15" class="edge">
<title>TaxComponent&#45;&gt;PagesModule</title>
<path fill="none" stroke="#000000" d="M891,-122.302C891,-140.2699 891,-165 891,-165 891,-165 1448.8502,-165 1448.8502,-165"/>
<polygon fill="#000000" stroke="#000000" points="1448.8502,-168.5001 1458.8502,-165 1448.8502,-161.5001 1448.8502,-168.5001"/>
</g>
<!-- TaxformComponent -->
<g id="node16" class="node">
<title>TaxformComponent</title>
<polygon fill="#ffffb3" stroke="#000000" points="821.3118,-122 690.6882,-122 690.6882,-86 821.3118,-86 821.3118,-122"/>
<text text-anchor="middle" x="756" y="-99.8" font-family="Times,serif" font-size="14.00" fill="#000000">TaxformComponent</text>
</g>
<!-- TaxformComponent&#45;&gt;PagesModule -->
<g id="edge16" class="edge">
<title>TaxformComponent&#45;&gt;PagesModule</title>
<path fill="none" stroke="#000000" d="M756,-122.1686C756,-141.0898 756,-168 756,-168 756,-168 1448.7119,-168 1448.7119,-168"/>
<polygon fill="#000000" stroke="#000000" points="1448.712,-171.5001 1458.7119,-168 1448.7119,-164.5001 1448.712,-171.5001"/>
</g>
<!-- TaxporformComponent -->
<g id="node17" class="node">
<title>TaxporformComponent</title>
<polygon fill="#ffffb3" stroke="#000000" points="672.472,-122 523.528,-122 523.528,-86 672.472,-86 672.472,-122"/>
<text text-anchor="middle" x="598" y="-99.8" font-family="Times,serif" font-size="14.00" fill="#000000">TaxporformComponent</text>
</g>
<!-- TaxporformComponent&#45;&gt;PagesModule -->
<g id="edge17" class="edge">
<title>TaxporformComponent&#45;&gt;PagesModule</title>
<path fill="none" stroke="#000000" d="M598,-122.308C598,-142.1455 598,-171 598,-171 598,-171 1448.7748,-171 1448.7748,-171"/>
<polygon fill="#000000" stroke="#000000" points="1448.7748,-174.5001 1458.7748,-171 1448.7748,-167.5001 1448.7748,-174.5001"/>
</g>
<!-- UserComponent -->
<g id="node18" class="node">
<title>UserComponent</title>
<polygon fill="#ffffb3" stroke="#000000" points="505.7591,-122 398.2409,-122 398.2409,-86 505.7591,-86 505.7591,-122"/>
<text text-anchor="middle" x="452" y="-99.8" font-family="Times,serif" font-size="14.00" fill="#000000">UserComponent</text>
</g>
<!-- UserComponent&#45;&gt;PagesModule -->
<g id="edge18" class="edge">
<title>UserComponent&#45;&gt;PagesModule</title>
<path fill="none" stroke="#000000" d="M452,-122.0267C452,-142.7672 452,-174 452,-174 452,-174 1448.7366,-174 1448.7366,-174"/>
<polygon fill="#000000" stroke="#000000" points="1448.7366,-177.5001 1458.7366,-174 1448.7365,-170.5001 1448.7366,-177.5001"/>
</g>
<!-- UsersComponent -->
<g id="node19" class="node">
<title>UsersComponent</title>
<polygon fill="#ffffb3" stroke="#000000" points="380.7036,-122 267.2964,-122 267.2964,-86 380.7036,-86 380.7036,-122"/>
<text text-anchor="middle" x="324" y="-99.8" font-family="Times,serif" font-size="14.00" fill="#000000">UsersComponent</text>
</g>
<!-- UsersComponent&#45;&gt;PagesModule -->
<g id="edge19" class="edge">
<title>UsersComponent&#45;&gt;PagesModule</title>
<path fill="none" stroke="#000000" d="M324,-122.2921C324,-144.2057 324,-178 324,-178 324,-178 1448.7034,-178 1448.7034,-178"/>
<polygon fill="#000000" stroke="#000000" points="1448.7034,-181.5001 1458.7034,-178 1448.7034,-174.5001 1448.7034,-181.5001"/>
</g>
<!-- ViaComponent -->
<g id="node20" class="node">
<title>ViaComponent</title>
<polygon fill="#ffffb3" stroke="#000000" points="249.5452,-122 148.4548,-122 148.4548,-86 249.5452,-86 249.5452,-122"/>
<text text-anchor="middle" x="199" y="-99.8" font-family="Times,serif" font-size="14.00" fill="#000000">ViaComponent</text>
</g>
<!-- ViaComponent&#45;&gt;PagesModule -->
<g id="edge20" class="edge">
<title>ViaComponent&#45;&gt;PagesModule</title>
<path fill="none" stroke="#000000" d="M199,-122.2479C199,-145.0179 199,-181 199,-181 199,-181 1448.5188,-181 1448.5188,-181"/>
<polygon fill="#000000" stroke="#000000" points="1448.5188,-184.5001 1458.5188,-181 1448.5187,-177.5001 1448.5188,-184.5001"/>
</g>
<!-- ViasComponent -->
<g id="node21" class="node">
<title>ViasComponent</title>
<polygon fill="#ffffb3" stroke="#000000" points="130.4888,-122 23.5112,-122 23.5112,-86 130.4888,-86 130.4888,-122"/>
<text text-anchor="middle" x="77" y="-99.8" font-family="Times,serif" font-size="14.00" fill="#000000">ViasComponent</text>
</g>
<!-- ViasComponent&#45;&gt;PagesModule -->
<g id="edge21" class="edge">
<title>ViasComponent&#45;&gt;PagesModule</title>
<path fill="none" stroke="#000000" d="M77,-122.1532C77,-145.7566 77,-184 77,-184 77,-184 1448.7033,-184 1448.7033,-184"/>
<polygon fill="#000000" stroke="#000000" points="1448.7033,-187.5001 1458.7033,-184 1448.7033,-180.5001 1448.7033,-187.5001"/>
</g>
</g>
</svg>
