<?xml version="1.0" encoding="UTF-8" standalone="no"?>
<!DOCTYPE svg PUBLIC "-//W3C//DTD SVG 1.1//EN"
 "http://www.w3.org/Graphics/SVG/1.1/DTD/svg11.dtd">
<!-- Generated by graphviz version 2.40.1 (20161225.0304)
 -->
<!-- Title: dependencies Pages: 1 -->
<svg width="3187pt" height="211pt"
 viewBox="0.00 0.00 3187.00 211.00" xmlns="http://www.w3.org/2000/svg" xmlns:xlink="http://www.w3.org/1999/xlink">
<g id="graph0" class="graph" transform="scale(1 1) rotate(0) translate(4 207)">
<title>dependencies</title>
<polygon fill="#ffffff" stroke="transparent" points="-4,4 -4,-207 3183,-207 3183,4 -4,4"/>
<text text-anchor="start" x="1568.5091" y="-42.4" font-family="sans-serif" font-weight="bold" font-size="14.00" fill="#000000">Legend</text>
<polygon fill="#ffffb3" stroke="transparent" points="1355.5,-10 1355.5,-30 1375.5,-30 1375.5,-10 1355.5,-10"/>
<text text-anchor="start" x="1379.129" y="-15.4" font-family="sans-serif" font-size="14.00" fill="#000000"> &#160;Declarations</text>
<polygon fill="#8dd3c7" stroke="transparent" points="1468.5,-10 1468.5,-30 1488.5,-30 1488.5,-10 1468.5,-10"/>
<text text-anchor="start" x="1492.2251" y="-15.4" font-family="sans-serif" font-size="14.00" fill="#000000"> &#160;Module</text>
<polygon fill="#80b1d3" stroke="transparent" points="1554.5,-10 1554.5,-30 1574.5,-30 1574.5,-10 1554.5,-10"/>
<text text-anchor="start" x="1578.2812" y="-15.4" font-family="sans-serif" font-size="14.00" fill="#000000"> &#160;Bootstrap</text>
<polygon fill="#fdb462" stroke="transparent" points="1651.5,-10 1651.5,-30 1671.5,-30 1671.5,-10 1651.5,-10"/>
<text text-anchor="start" x="1675.1732" y="-15.4" font-family="sans-serif" font-size="14.00" fill="#000000"> &#160;Providers</text>
<polygon fill="#fb8072" stroke="transparent" points="1747.5,-10 1747.5,-30 1767.5,-30 1767.5,-10 1747.5,-10"/>
<text text-anchor="start" x="1771.2258" y="-15.4" font-family="sans-serif" font-size="14.00" fill="#000000"> &#160;Exports</text>
<g id="clust1" class="cluster">
<title>cluster_PagesModule</title>
<polygon fill="none" stroke="#000000" stroke-dasharray="1,5" points="8,-70 8,-195 3171,-195 3171,-70 8,-70"/>
</g>
<g id="clust2" class="cluster">
<title>cluster_PagesModule_declarations</title>
<polygon fill="none" stroke="#000000" points="138,-78 138,-130 3163,-130 3163,-78 138,-78"/>
</g>
<g id="clust24" class="cluster">
<title>cluster_PagesModule_imports</title>
<polygon fill="none" stroke="#000000" points="16,-78 16,-130 130,-130 130,-78 16,-78"/>
</g>
<!-- ConfigComponent -->
<g id="node1" class="node">
<title>ConfigComponent</title>
<polygon fill="#ffffb3" stroke="#000000" points="3155.2204,-122 3034.7796,-122 3034.7796,-86 3155.2204,-86 3155.2204,-122"/>
<text text-anchor="middle" x="3095" y="-99.8" font-family="Times,serif" font-size="14.00" fill="#000000">ConfigComponent</text>
</g>
<!-- PagesModule -->
<g id="node22" class="node">
<title>PagesModule</title>
<polygon fill="#8dd3c7" stroke="#000000" points="1593.2064,-187 1590.2064,-191 1569.2064,-191 1566.2064,-187 1500.7936,-187 1500.7936,-151 1593.2064,-151 1593.2064,-187"/>
<text text-anchor="middle" x="1547" y="-164.8" font-family="Times,serif" font-size="14.00" fill="#000000">PagesModule</text>
</g>
<!-- ConfigComponent&#45;&gt;PagesModule -->
<g id="edge1" class="edge">
<title>ConfigComponent&#45;&gt;PagesModule</title>
<path fill="none" stroke="#000000" d="M3095,-122.1532C3095,-145.7566 3095,-184 3095,-184 3095,-184 1603.3286,-184 1603.3286,-184"/>
<polygon fill="#000000" stroke="#000000" points="1603.3286,-180.5001 1593.3286,-184 1603.3285,-187.5001 1603.3286,-180.5001"/>
</g>
<!-- ContabilidadComponent -->
<g id="node2" class="node">
<title>ContabilidadComponent</title>
<polygon fill="#ffffb3" stroke="#000000" points="3016.661,-122 2863.339,-122 2863.339,-86 3016.661,-86 3016.661,-122"/>
<text text-anchor="middle" x="2940" y="-99.8" font-family="Times,serif" font-size="14.00" fill="#000000">ContabilidadComponent</text>
</g>
<!-- ContabilidadComponent&#45;&gt;PagesModule -->
<g id="edge2" class="edge">
<title>ContabilidadComponent&#45;&gt;PagesModule</title>
<path fill="none" stroke="#000000" d="M2940,-122.2479C2940,-145.0179 2940,-181 2940,-181 2940,-181 1603.3476,-181 1603.3476,-181"/>
<polygon fill="#000000" stroke="#000000" points="1603.3476,-177.5001 1593.3476,-181 1603.3476,-184.5001 1603.3476,-177.5001"/>
</g>
<!-- CuentaComponent -->
<g id="node3" class="node">
<title>CuentaComponent</title>
<polygon fill="#ffffb3" stroke="#000000" points="2845.4888,-122 2724.5112,-122 2724.5112,-86 2845.4888,-86 2845.4888,-122"/>
<text text-anchor="middle" x="2785" y="-99.8" font-family="Times,serif" font-size="14.00" fill="#000000">CuentaComponent</text>
</g>
<!-- CuentaComponent&#45;&gt;PagesModule -->
<g id="edge3" class="edge">
<title>CuentaComponent&#45;&gt;PagesModule</title>
<path fill="none" stroke="#000000" d="M2785,-122.2921C2785,-144.2057 2785,-178 2785,-178 2785,-178 1603.2716,-178 1603.2716,-178"/>
<polygon fill="#000000" stroke="#000000" points="1603.2716,-174.5001 1593.2716,-178 1603.2716,-181.5001 1603.2716,-174.5001"/>
</g>
<!-- CuentasComponent -->
<g id="node4" class="node">
<title>CuentasComponent</title>
<polygon fill="#ffffb3" stroke="#000000" points="2706.4341,-122 2579.5659,-122 2579.5659,-86 2706.4341,-86 2706.4341,-122"/>
<text text-anchor="middle" x="2643" y="-99.8" font-family="Times,serif" font-size="14.00" fill="#000000">CuentasComponent</text>
</g>
<!-- CuentasComponent&#45;&gt;PagesModule -->
<g id="edge4" class="edge">
<title>CuentasComponent&#45;&gt;PagesModule</title>
<path fill="none" stroke="#000000" d="M2643,-122.0267C2643,-142.7672 2643,-174 2643,-174 2643,-174 1603.3937,-174 1603.3937,-174"/>
<polygon fill="#000000" stroke="#000000" points="1603.3937,-170.5001 1593.3937,-174 1603.3937,-177.5001 1603.3937,-170.5001"/>
</g>
<!-- DashboardComponent -->
<g id="node5" class="node">
<title>DashboardComponent</title>
<polygon fill="#ffffb3" stroke="#000000" points="2561.9734,-122 2420.0266,-122 2420.0266,-86 2561.9734,-86 2561.9734,-122"/>
<text text-anchor="middle" x="2491" y="-99.8" font-family="Times,serif" font-size="14.00" fill="#000000">DashboardComponent</text>
</g>
<!-- DashboardComponent&#45;&gt;PagesModule -->
<g id="edge5" class="edge">
<title>DashboardComponent&#45;&gt;PagesModule</title>
<path fill="none" stroke="#000000" d="M2491,-122.308C2491,-142.1455 2491,-171 2491,-171 2491,-171 1603.1701,-171 1603.1701,-171"/>
<polygon fill="#000000" stroke="#000000" points="1603.1702,-167.5001 1593.1701,-171 1603.1701,-174.5001 1603.1702,-167.5001"/>
</g>
<!-- GrupoComponent -->
<g id="node6" class="node">
<title>GrupoComponent</title>
<polygon fill="#ffffb3" stroke="#000000" points="2401.5996,-122 2284.4004,-122 2284.4004,-86 2401.5996,-86 2401.5996,-122"/>
<text text-anchor="middle" x="2343" y="-99.8" font-family="Times,serif" font-size="14.00" fill="#000000">GrupoComponent</text>
</g>
<!-- GrupoComponent&#45;&gt;PagesModule -->
<g id="edge6" class="edge">
<title>GrupoComponent&#45;&gt;PagesModule</title>
<path fill="none" stroke="#000000" d="M2343,-122.1686C2343,-141.0898 2343,-168 2343,-168 2343,-168 1603.2369,-168 1603.2369,-168"/>
<polygon fill="#000000" stroke="#000000" points="1603.237,-164.5001 1593.2369,-168 1603.2369,-171.5001 1603.237,-164.5001"/>
</g>
<!-- GruposComponent -->
<g id="node7" class="node">
<title>GruposComponent</title>
<polygon fill="#ffffb3" stroke="#000000" points="2266.045,-122 2143.955,-122 2143.955,-86 2266.045,-86 2266.045,-122"/>
<text text-anchor="middle" x="2205" y="-99.8" font-family="Times,serif" font-size="14.00" fill="#000000">GruposComponent</text>
</g>
<!-- GruposComponent&#45;&gt;PagesModule -->
<g id="edge7" class="edge">
<title>GruposComponent&#45;&gt;PagesModule</title>
<path fill="none" stroke="#000000" d="M2205,-122.302C2205,-140.2699 2205,-165 2205,-165 2205,-165 1603.2693,-165 1603.2693,-165"/>
<polygon fill="#000000" stroke="#000000" points="1603.2693,-161.5001 1593.2693,-165 1603.2692,-168.5001 1603.2693,-161.5001"/>
</g>
<!-- LoadTableComponent -->
<g id="node8" class="node">
<title>LoadTableComponent</title>
<polygon fill="#ffffb3" stroke="#000000" points="2125.972,-122 1984.028,-122 1984.028,-86 2125.972,-86 2125.972,-122"/>
<text text-anchor="middle" x="2055" y="-99.8" font-family="Times,serif" font-size="14.00" fill="#000000">LoadTableComponent</text>
</g>
<!-- LoadTableComponent&#45;&gt;PagesModule -->
<g id="edge8" class="edge">
<title>LoadTableComponent&#45;&gt;PagesModule</title>
<path fill="none" stroke="#000000" d="M2055,-122.0352C2055,-138.7344 2055,-161 2055,-161 2055,-161 1603.4283,-161 1603.4283,-161"/>
<polygon fill="#000000" stroke="#000000" points="1603.4283,-157.5001 1593.4283,-161 1603.4283,-164.5001 1603.4283,-157.5001"/>
</g>
<!-- NotfoundComponent -->
<g id="node9" class="node">
<title>NotfoundComponent</title>
<polygon fill="#ffffb3" stroke="#000000" points="1966.4902,-122 1831.5098,-122 1831.5098,-86 1966.4902,-86 1966.4902,-122"/>
<text text-anchor="middle" x="1899" y="-99.8" font-family="Times,serif" font-size="14.00" fill="#000000">NotfoundComponent</text>
</g>
<!-- NotfoundComponent&#45;&gt;PagesModule -->
<g id="edge9" class="edge">
<title>NotfoundComponent&#45;&gt;PagesModule</title>
<path fill="none" stroke="#000000" d="M1899,-122.2819C1899,-137.9478 1899,-158 1899,-158 1899,-158 1603.3798,-158 1603.3798,-158"/>
<polygon fill="#000000" stroke="#000000" points="1603.3799,-154.5001 1593.3798,-158 1603.3798,-161.5001 1603.3799,-154.5001"/>
</g>
<!-- RoundceilPipe -->
<g id="node10" class="node">
<title>RoundceilPipe</title>
<polygon fill="#ffffb3" stroke="#000000" points="1813.4358,-122 1714.5642,-122 1714.5642,-86 1813.4358,-86 1813.4358,-122"/>
<text text-anchor="middle" x="1764" y="-99.8" font-family="Times,serif" font-size="14.00" fill="#000000">RoundceilPipe</text>
</g>
<!-- RoundceilPipe&#45;&gt;PagesModule -->
<g id="edge10" class="edge">
<title>RoundceilPipe&#45;&gt;PagesModule</title>
<path fill="none" stroke="#000000" d="M1764,-122.1243C1764,-136.7832 1764,-155 1764,-155 1764,-155 1603.2858,-155 1603.2858,-155"/>
<polygon fill="#000000" stroke="#000000" points="1603.2858,-151.5001 1593.2858,-155 1603.2857,-158.5001 1603.2858,-151.5001"/>
</g>
<!-- SubcuentaComponent -->
<g id="node11" class="node">
<title>SubcuentaComponent</title>
<polygon fill="#ffffb3" stroke="#000000" points="1696.6498,-122 1557.3502,-122 1557.3502,-86 1696.6498,-86 1696.6498,-122"/>
<text text-anchor="middle" x="1627" y="-99.8" font-family="Times,serif" font-size="14.00" fill="#000000">SubcuentaComponent</text>
</g>
<!-- SubcuentaComponent&#45;&gt;PagesModule -->
<g id="edge11" class="edge">
<title>SubcuentaComponent&#45;&gt;PagesModule</title>
<path fill="none" stroke="#000000" d="M1575.1392,-122.1061C1575.1392,-122.1061 1575.1392,-140.991 1575.1392,-140.991"/>
<polygon fill="#000000" stroke="#000000" points="1571.6393,-140.9909 1575.1392,-150.991 1578.6393,-140.991 1571.6393,-140.9909"/>
</g>
<!-- SubcuentasComponent -->
<g id="node12" class="node">
<title>SubcuentasComponent</title>
<polygon fill="#ffffb3" stroke="#000000" points="1539.594,-122 1394.406,-122 1394.406,-86 1539.594,-86 1539.594,-122"/>
<text text-anchor="middle" x="1467" y="-99.8" font-family="Times,serif" font-size="14.00" fill="#000000">SubcuentasComponent</text>
</g>
<!-- SubcuentasComponent&#45;&gt;PagesModule -->
<g id="edge12" class="edge">
<title>SubcuentasComponent&#45;&gt;PagesModule</title>
<path fill="none" stroke="#000000" d="M1520.222,-122.1061C1520.222,-122.1061 1520.222,-140.991 1520.222,-140.991"/>
<polygon fill="#000000" stroke="#000000" points="1516.722,-140.9909 1520.222,-150.991 1523.722,-140.991 1516.722,-140.9909"/>
</g>
<!-- SubgrupoComponent -->
<g id="node13" class="node">
<title>SubgrupoComponent</title>
<polygon fill="#ffffb3" stroke="#000000" points="1376.7758,-122 1241.2242,-122 1241.2242,-86 1376.7758,-86 1376.7758,-122"/>
<text text-anchor="middle" x="1309" y="-99.8" font-family="Times,serif" font-size="14.00" fill="#000000">SubgrupoComponent</text>
</g>
<!-- SubgrupoComponent&#45;&gt;PagesModule -->
<g id="edge13" class="edge">
<title>SubgrupoComponent&#45;&gt;PagesModule</title>
<path fill="none" stroke="#000000" d="M1309,-122.1243C1309,-136.7832 1309,-155 1309,-155 1309,-155 1490.829,-155 1490.829,-155"/>
<polygon fill="#000000" stroke="#000000" points="1490.829,-158.5001 1500.829,-155 1490.829,-151.5001 1490.829,-158.5001"/>
</g>
<!-- SubgruposComponent -->
<g id="node14" class="node">
<title>SubgruposComponent</title>
<polygon fill="#ffffb3" stroke="#000000" points="1223.7204,-122 1082.2796,-122 1082.2796,-86 1223.7204,-86 1223.7204,-122"/>
<text text-anchor="middle" x="1153" y="-99.8" font-family="Times,serif" font-size="14.00" fill="#000000">SubgruposComponent</text>
</g>
<!-- SubgruposComponent&#45;&gt;PagesModule -->
<g id="edge14" class="edge">
<title>SubgruposComponent&#45;&gt;PagesModule</title>
<path fill="none" stroke="#000000" d="M1153,-122.2819C1153,-137.9478 1153,-158 1153,-158 1153,-158 1490.6446,-158 1490.6446,-158"/>
<polygon fill="#000000" stroke="#000000" points="1490.6446,-161.5001 1500.6446,-158 1490.6446,-154.5001 1490.6446,-161.5001"/>
</g>
<!-- TaxComponent -->
<g id="node15" class="node">
<title>TaxComponent</title>
<polygon fill="#ffffb3" stroke="#000000" points="1064.5996,-122 961.4004,-122 961.4004,-86 1064.5996,-86 1064.5996,-122"/>
<text text-anchor="middle" x="1013" y="-99.8" font-family="Times,serif" font-size="14.00" fill="#000000">TaxComponent</text>
</g>
<!-- TaxComponent&#45;&gt;PagesModule -->
<g id="edge15" class="edge">
<title>TaxComponent&#45;&gt;PagesModule</title>
<path fill="none" stroke="#000000" d="M1013,-122.0352C1013,-138.7344 1013,-161 1013,-161 1013,-161 1490.5452,-161 1490.5452,-161"/>
<polygon fill="#000000" stroke="#000000" points="1490.5452,-164.5001 1500.5452,-161 1490.5451,-157.5001 1490.5452,-164.5001"/>
</g>
<!-- TaxformComponent -->
<g id="node16" class="node">
<title>TaxformComponent</title>
<polygon fill="#ffffb3" stroke="#000000" points="943.3118,-122 812.6882,-122 812.6882,-86 943.3118,-86 943.3118,-122"/>
<text text-anchor="middle" x="878" y="-99.8" font-family="Times,serif" font-size="14.00" fill="#000000">TaxformComponent</text>
</g>
<!-- TaxformComponent&#45;&gt;PagesModule -->
<g id="edge16" class="edge">
<title>TaxformComponent&#45;&gt;PagesModule</title>
<path fill="none" stroke="#000000" d="M878,-122.302C878,-140.2699 878,-165 878,-165 878,-165 1490.753,-165 1490.753,-165"/>
<polygon fill="#000000" stroke="#000000" points="1490.753,-168.5001 1500.753,-165 1490.7529,-161.5001 1490.753,-168.5001"/>
</g>
<!-- TaxporformComponent -->
<g id="node17" class="node">
<title>TaxporformComponent</title>
<polygon fill="#ffffb3" stroke="#000000" points="794.472,-122 645.528,-122 645.528,-86 794.472,-86 794.472,-122"/>
<text text-anchor="middle" x="720" y="-99.8" font-family="Times,serif" font-size="14.00" fill="#000000">TaxporformComponent</text>
</g>
<!-- TaxporformComponent&#45;&gt;PagesModule -->
<g id="edge17" class="edge">
<title>TaxporformComponent&#45;&gt;PagesModule</title>
<path fill="none" stroke="#000000" d="M720,-122.1686C720,-141.0898 720,-168 720,-168 720,-168 1490.7648,-168 1490.7648,-168"/>
<polygon fill="#000000" stroke="#000000" points="1490.7649,-171.5001 1500.7648,-168 1490.7648,-164.5001 1490.7649,-171.5001"/>
</g>
<!-- UserComponent -->
<g id="node18" class="node">
<title>UserComponent</title>
<polygon fill="#ffffb3" stroke="#000000" points="627.7591,-122 520.2409,-122 520.2409,-86 627.7591,-86 627.7591,-122"/>
<text text-anchor="middle" x="574" y="-99.8" font-family="Times,serif" font-size="14.00" fill="#000000">UserComponent</text>
</g>
<!-- UserComponent&#45;&gt;PagesModule -->
<g id="edge18" class="edge">
<title>UserComponent&#45;&gt;PagesModule</title>
<path fill="none" stroke="#000000" d="M574,-122.308C574,-142.1455 574,-171 574,-171 574,-171 1490.7248,-171 1490.7248,-171"/>
<polygon fill="#000000" stroke="#000000" points="1490.7248,-174.5001 1500.7248,-171 1490.7247,-167.5001 1490.7248,-174.5001"/>
</g>
<!-- UsersComponent -->
<g id="node19" class="node">
<title>UsersComponent</title>
<polygon fill="#ffffb3" stroke="#000000" points="502.7036,-122 389.2964,-122 389.2964,-86 502.7036,-86 502.7036,-122"/>
<text text-anchor="middle" x="446" y="-99.8" font-family="Times,serif" font-size="14.00" fill="#000000">UsersComponent</text>
</g>
<!-- UsersComponent&#45;&gt;PagesModule -->
<g id="edge19" class="edge">
<title>UsersComponent&#45;&gt;PagesModule</title>
<path fill="none" stroke="#000000" d="M446,-122.0267C446,-142.7672 446,-174 446,-174 446,-174 1490.7445,-174 1490.7445,-174"/>
<polygon fill="#000000" stroke="#000000" points="1490.7445,-177.5001 1500.7445,-174 1490.7444,-170.5001 1490.7445,-177.5001"/>
</g>
<!-- ViaComponent -->
<g id="node20" class="node">
<title>ViaComponent</title>
<polygon fill="#ffffb3" stroke="#000000" points="371.5452,-122 270.4548,-122 270.4548,-86 371.5452,-86 371.5452,-122"/>
<text text-anchor="middle" x="321" y="-99.8" font-family="Times,serif" font-size="14.00" fill="#000000">ViaComponent</text>
</g>
<!-- ViaComponent&#45;&gt;PagesModule -->
<g id="edge20" class="edge">
<title>ViaComponent&#45;&gt;PagesModule</title>
<path fill="none" stroke="#000000" d="M321,-122.2921C321,-144.2057 321,-178 321,-178 321,-178 1490.8073,-178 1490.8073,-178"/>
<polygon fill="#000000" stroke="#000000" points="1490.8074,-181.5001 1500.8073,-178 1490.8073,-174.5001 1490.8074,-181.5001"/>
</g>
<!-- ViasComponent -->
<g id="node21" class="node">
<title>ViasComponent</title>
<polygon fill="#ffffb3" stroke="#000000" points="252.4888,-122 145.5112,-122 145.5112,-86 252.4888,-86 252.4888,-122"/>
<text text-anchor="middle" x="199" y="-99.8" font-family="Times,serif" font-size="14.00" fill="#000000">ViasComponent</text>
</g>
<!-- ViasComponent&#45;&gt;PagesModule -->
<g id="edge21" class="edge">
<title>ViasComponent&#45;&gt;PagesModule</title>
<path fill="none" stroke="#000000" d="M199,-122.2479C199,-145.0179 199,-181 199,-181 199,-181 1490.5988,-181 1490.5988,-181"/>
<polygon fill="#000000" stroke="#000000" points="1490.5988,-184.5001 1500.5988,-181 1490.5988,-177.5001 1490.5988,-184.5001"/>
</g>
<!-- ConfigModule -->
<g id="node23" class="node">
<title>ConfigModule</title>
<polygon fill="#8dd3c7" stroke="#000000" points="122.4386,-122 119.4386,-126 98.4386,-126 95.4386,-122 23.5614,-122 23.5614,-86 122.4386,-86 122.4386,-122"/>
<text text-anchor="middle" x="73" y="-99.8" font-family="Times,serif" font-size="14.00" fill="#000000">ConfigModule</text>
</g>
<!-- ConfigModule&#45;&gt;PagesModule -->
<g id="edge22" class="edge">
<title>ConfigModule&#45;&gt;PagesModule</title>
<path fill="none" stroke="#000000" d="M73,-122.1532C73,-145.7566 73,-184 73,-184 73,-184 1490.8615,-184 1490.8615,-184"/>
<polygon fill="#000000" stroke="#000000" points="1490.8616,-187.5001 1500.8615,-184 1490.8615,-180.5001 1490.8616,-187.5001"/>
</g>
</g>
</svg>
