<?xml version="1.0" encoding="UTF-8" standalone="no"?>
<!DOCTYPE svg PUBLIC "-//W3C//DTD SVG 1.1//EN"
 "http://www.w3.org/Graphics/SVG/1.1/DTD/svg11.dtd">
<!-- Generated by graphviz version 2.47.3 (20210619.1520)
 -->
<!-- Title: dependencies Pages: 1 -->
<svg width="972pt" height="247pt"
 viewBox="0.00 0.00 972.00 246.80" xmlns="http://www.w3.org/2000/svg" xmlns:xlink="http://www.w3.org/1999/xlink">
<g id="graph0" class="graph" transform="scale(1 1) rotate(0) translate(4 242.8)">
<title>dependencies</title>
<polygon fill="white" stroke="transparent" points="-4,4 -4,-242.8 968,-242.8 968,4 -4,4"/>
<text text-anchor="middle" x="482" y="-8.2" font-family="sans-serif" font-size="14.00">dependencies</text>
<g id="clust1" class="cluster">
<title>cluster_AppModule</title>
<polygon fill="none" stroke="black" stroke-dasharray="1,5" points="8,-32.8 8,-230.8 956,-230.8 956,-32.8 8,-32.8"/>
</g>
<g id="clust2" class="cluster">
<title>cluster_AppModule_declarations</title>
<polygon fill="none" stroke="black" points="562,-40.8 562,-92.8 948,-92.8 948,-40.8 562,-40.8"/>
</g>
<g id="clust9" class="cluster">
<title>cluster_AppModule_providers</title>
<polygon fill="none" stroke="black" points="374,-40.8 374,-92.8 554,-92.8 554,-40.8 374,-40.8"/>
</g>
<g id="clust6" class="cluster">
<title>cluster_AppModule_imports</title>
<polygon fill="none" stroke="black" points="16,-40.8 16,-92.8 366,-92.8 366,-40.8 16,-40.8"/>
</g>
<g id="clust8" class="cluster">
<title>cluster_AppModule_bootstrap</title>
<polygon fill="none" stroke="black" points="402,-170.8 402,-222.8 526,-222.8 526,-170.8 402,-170.8"/>
</g>
<!-- AppComponent -->
<g id="node1" class="node">
<title>AppComponent</title>
<polygon fill="#ffffb3" stroke="black" points="939.94,-84.8 834.06,-84.8 834.06,-48.8 939.94,-48.8 939.94,-84.8"/>
<text text-anchor="middle" x="887" y="-62.6" font-family="Times,serif" font-size="14.00">AppComponent</text>
</g>
<!-- AppModule -->
<g id="node4" class="node">
<title>AppModule</title>
<polygon fill="#8dd3c7" stroke="black" points="505.66,-149.8 502.66,-153.8 481.66,-153.8 478.66,-149.8 422.34,-149.8 422.34,-113.8 505.66,-113.8 505.66,-149.8"/>
<text text-anchor="middle" x="464" y="-127.6" font-family="Times,serif" font-size="14.00">AppModule</text>
</g>
<!-- AppComponent&#45;&gt;AppModule -->
<g id="edge1" class="edge">
<title>AppComponent&#45;&gt;AppModule</title>
<path fill="none" stroke="black" d="M887,-85.09C887,-107.01 887,-140.8 887,-140.8 887,-140.8 515.72,-140.8 515.72,-140.8"/>
<polygon fill="black" stroke="black" points="515.72,-137.3 505.72,-140.8 515.72,-144.3 515.72,-137.3"/>
</g>
<!-- LoginComponent -->
<g id="node2" class="node">
<title>LoginComponent</title>
<polygon fill="#ffffb3" stroke="black" points="816.28,-84.8 701.72,-84.8 701.72,-48.8 816.28,-48.8 816.28,-84.8"/>
<text text-anchor="middle" x="759" y="-62.6" font-family="Times,serif" font-size="14.00">LoginComponent</text>
</g>
<!-- LoginComponent&#45;&gt;AppModule -->
<g id="edge2" class="edge">
<title>LoginComponent&#45;&gt;AppModule</title>
<path fill="none" stroke="black" d="M759,-84.91C759,-104.14 759,-131.8 759,-131.8 759,-131.8 515.95,-131.8 515.95,-131.8"/>
<polygon fill="black" stroke="black" points="515.95,-128.3 505.95,-131.8 515.95,-135.3 515.95,-128.3"/>
</g>
<!-- PagesComponent -->
<g id="node3" class="node">
<title>PagesComponent</title>
<polygon fill="#ffffb3" stroke="black" points="683.99,-84.8 570.01,-84.8 570.01,-48.8 683.99,-48.8 683.99,-84.8"/>
<text text-anchor="middle" x="627" y="-62.6" font-family="Times,serif" font-size="14.00">PagesComponent</text>
</g>
<!-- PagesComponent&#45;&gt;AppModule -->
<g id="edge3" class="edge">
<title>PagesComponent&#45;&gt;AppModule</title>
<path fill="none" stroke="black" d="M627,-84.83C627,-101.2 627,-122.8 627,-122.8 627,-122.8 515.98,-122.8 515.98,-122.8"/>
<polygon fill="black" stroke="black" points="515.98,-119.3 505.98,-122.8 515.98,-126.3 515.98,-119.3"/>
</g>
<!-- AppComponent  -->
<g id="node8" class="node">
<title>AppComponent </title>
<polygon fill="#80b1d3" stroke="black" points="518.44,-214.8 409.56,-214.8 409.56,-178.8 518.44,-178.8 518.44,-214.8"/>
<text text-anchor="middle" x="464" y="-192.6" font-family="Times,serif" font-size="14.00">AppComponent </text>
</g>
<!-- AppModule&#45;&gt;AppComponent  -->
<g id="edge7" class="edge">
<title>AppModule&#45;&gt;AppComponent </title>
<path fill="none" stroke="black" stroke-dasharray="1,5" d="M464,-149.91C464,-149.91 464,-168.79 464,-168.79"/>
<polygon fill="black" stroke="black" points="460.5,-168.79 464,-178.79 467.5,-168.79 460.5,-168.79"/>
</g>
<!-- PagesModule -->
<g id="node5" class="node">
<title>PagesModule</title>
<polygon fill="#8dd3c7" stroke="black" points="358.21,-84.8 355.21,-88.8 334.21,-88.8 331.21,-84.8 265.79,-84.8 265.79,-48.8 358.21,-48.8 358.21,-84.8"/>
<text text-anchor="middle" x="312" y="-62.6" font-family="Times,serif" font-size="14.00">PagesModule</text>
</g>
<!-- PagesModule&#45;&gt;AppModule -->
<g id="edge4" class="edge">
<title>PagesModule&#45;&gt;AppModule</title>
<path fill="none" stroke="black" d="M312,-84.83C312,-101.2 312,-122.8 312,-122.8 312,-122.8 412.06,-122.8 412.06,-122.8"/>
<polygon fill="black" stroke="black" points="412.06,-126.3 422.06,-122.8 412.06,-119.3 412.06,-126.3"/>
</g>
<!-- ServicesModule -->
<g id="node6" class="node">
<title>ServicesModule</title>
<polygon fill="#8dd3c7" stroke="black" points="247.47,-84.8 244.47,-88.8 223.47,-88.8 220.47,-84.8 140.53,-84.8 140.53,-48.8 247.47,-48.8 247.47,-84.8"/>
<text text-anchor="middle" x="194" y="-62.6" font-family="Times,serif" font-size="14.00">ServicesModule</text>
</g>
<!-- ServicesModule&#45;&gt;AppModule -->
<g id="edge5" class="edge">
<title>ServicesModule&#45;&gt;AppModule</title>
<path fill="none" stroke="black" d="M194,-84.91C194,-104.14 194,-131.8 194,-131.8 194,-131.8 412.11,-131.8 412.11,-131.8"/>
<polygon fill="black" stroke="black" points="412.11,-135.3 422.11,-131.8 412.11,-128.3 412.11,-135.3"/>
</g>
<!-- SharedModule -->
<g id="node7" class="node">
<title>SharedModule</title>
<polygon fill="#8dd3c7" stroke="black" points="122.42,-84.8 119.42,-88.8 98.42,-88.8 95.42,-84.8 23.58,-84.8 23.58,-48.8 122.42,-48.8 122.42,-84.8"/>
<text text-anchor="middle" x="73" y="-62.6" font-family="Times,serif" font-size="14.00">SharedModule</text>
</g>
<!-- SharedModule&#45;&gt;AppModule -->
<g id="edge6" class="edge">
<title>SharedModule&#45;&gt;AppModule</title>
<path fill="none" stroke="black" d="M73,-85.09C73,-107.01 73,-140.8 73,-140.8 73,-140.8 412.16,-140.8 412.16,-140.8"/>
<polygon fill="black" stroke="black" points="412.16,-144.3 422.16,-140.8 412.16,-137.3 412.16,-144.3"/>
</g>
<!-- InterceptorService -->
<g id="node9" class="node">
<title>InterceptorService</title>
<ellipse fill="#fdb462" stroke="black" cx="464" cy="-66.8" rx="82.2" ry="18"/>
<text text-anchor="middle" x="464" y="-62.6" font-family="Times,serif" font-size="14.00">InterceptorService</text>
</g>
<!-- InterceptorService&#45;&gt;AppModule -->
<g id="edge8" class="edge">
<title>InterceptorService&#45;&gt;AppModule</title>
<path fill="none" stroke="black" d="M464,-84.91C464,-84.91 464,-103.79 464,-103.79"/>
<polygon fill="black" stroke="black" points="460.5,-103.79 464,-113.79 467.5,-103.79 460.5,-103.79"/>
</g>
</g>
</svg>
