<?xml version="1.0" encoding="UTF-8" standalone="no"?>
<!DOCTYPE svg PUBLIC "-//W3C//DTD SVG 1.1//EN"
 "http://www.w3.org/Graphics/SVG/1.1/DTD/svg11.dtd">
<!-- Generated by graphviz version 2.47.3 (20210619.1520)
 -->
<!-- Title: dependencies Pages: 1 -->
<svg width="1839pt" height="174pt"
 viewBox="0.00 0.00 1839.00 173.80" xmlns="http://www.w3.org/2000/svg" xmlns:xlink="http://www.w3.org/1999/xlink">
<g id="graph0" class="graph" transform="scale(1 1) rotate(0) translate(4 169.8)">
<title>dependencies</title>
<polygon fill="white" stroke="transparent" points="-4,4 -4,-169.8 1835,-169.8 1835,4 -4,4"/>
<text text-anchor="middle" x="915.5" y="-8.2" font-family="sans-serif" font-size="14.00">dependencies</text>
<g id="clust1" class="cluster">
<title>cluster_ServicesModule</title>
<polygon fill="none" stroke="black" stroke-dasharray="1,5" points="8,-32.8 8,-157.8 1823,-157.8 1823,-32.8 8,-32.8"/>
</g>
<g id="clust6" class="cluster">
<title>cluster_ServicesModule_providers</title>
<polygon fill="none" stroke="black" points="16,-40.8 16,-92.8 1815,-92.8 1815,-40.8 16,-40.8"/>
</g>
<!-- ColorThemeService -->
<g id="node1" class="node">
<title>ColorThemeService</title>
<ellipse fill="#fdb462" stroke="black" cx="1718" cy="-66.8" rx="88.6" ry="18"/>
<text text-anchor="middle" x="1718" y="-62.6" font-family="Times,serif" font-size="14.00">ColorThemeService</text>
</g>
<!-- ServicesModule -->
<g id="node12" class="node">
<title>ServicesModule</title>
<polygon fill="#8dd3c7" stroke="black" points="914.47,-149.8 911.47,-153.8 890.47,-153.8 887.47,-149.8 807.53,-149.8 807.53,-113.8 914.47,-113.8 914.47,-149.8"/>
<text text-anchor="middle" x="861" y="-127.6" font-family="Times,serif" font-size="14.00">ServicesModule</text>
</g>
<!-- ColorThemeService&#45;&gt;ServicesModule -->
<g id="edge1" class="edge">
<title>ColorThemeService&#45;&gt;ServicesModule</title>
<path fill="none" stroke="black" d="M1718,-84.89C1718,-107.93 1718,-144.8 1718,-144.8 1718,-144.8 924.61,-144.8 924.61,-144.8"/>
<polygon fill="black" stroke="black" points="924.61,-141.3 914.61,-144.8 924.61,-148.3 924.61,-141.3"/>
</g>
<!-- ConfigService -->
<g id="node2" class="node">
<title>ConfigService</title>
<ellipse fill="#fdb462" stroke="black" cx="1544" cy="-66.8" rx="66.63" ry="18"/>
<text text-anchor="middle" x="1544" y="-62.6" font-family="Times,serif" font-size="14.00">ConfigService</text>
</g>
<!-- ConfigService&#45;&gt;ServicesModule -->
<g id="edge2" class="edge">
<title>ConfigService&#45;&gt;ServicesModule</title>
<path fill="none" stroke="black" d="M1544,-85.08C1544,-106.12 1544,-137.8 1544,-137.8 1544,-137.8 924.59,-137.8 924.59,-137.8"/>
<polygon fill="black" stroke="black" points="924.59,-134.3 914.59,-137.8 924.59,-141.3 924.59,-134.3"/>
</g>
<!-- CuentasService -->
<g id="node3" class="node">
<title>CuentasService</title>
<ellipse fill="#fdb462" stroke="black" cx="1388" cy="-66.8" rx="71.2" ry="18"/>
<text text-anchor="middle" x="1388" y="-62.6" font-family="Times,serif" font-size="14.00">CuentasService</text>
</g>
<!-- CuentasService&#45;&gt;ServicesModule -->
<g id="edge3" class="edge">
<title>CuentasService&#45;&gt;ServicesModule</title>
<path fill="none" stroke="black" d="M1388,-84.91C1388,-104.14 1388,-131.8 1388,-131.8 1388,-131.8 924.92,-131.8 924.92,-131.8"/>
<polygon fill="black" stroke="black" points="924.92,-128.3 914.92,-131.8 924.92,-135.3 924.92,-128.3"/>
</g>
<!-- GruposService -->
<g id="node4" class="node">
<title>GruposService</title>
<ellipse fill="#fdb462" stroke="black" cx="1230" cy="-66.8" rx="68.34" ry="18"/>
<text text-anchor="middle" x="1230" y="-62.6" font-family="Times,serif" font-size="14.00">GruposService</text>
</g>
<!-- GruposService&#45;&gt;ServicesModule -->
<g id="edge4" class="edge">
<title>GruposService&#45;&gt;ServicesModule</title>
<path fill="none" stroke="black" d="M1230,-84.82C1230,-102.17 1230,-125.8 1230,-125.8 1230,-125.8 924.66,-125.8 924.66,-125.8"/>
<polygon fill="black" stroke="black" points="924.66,-122.3 914.66,-125.8 924.66,-129.3 924.66,-122.3"/>
</g>
<!-- MenuSidebarService -->
<g id="node5" class="node">
<title>MenuSidebarService</title>
<ellipse fill="#fdb462" stroke="black" cx="1052" cy="-66.8" rx="92.03" ry="18"/>
<text text-anchor="middle" x="1052" y="-62.6" font-family="Times,serif" font-size="14.00">MenuSidebarService</text>
</g>
<!-- MenuSidebarService&#45;&gt;ServicesModule -->
<g id="edge5" class="edge">
<title>MenuSidebarService&#45;&gt;ServicesModule</title>
<path fill="none" stroke="black" d="M1052,-85.04C1052,-100.37 1052,-119.8 1052,-119.8 1052,-119.8 924.71,-119.8 924.71,-119.8"/>
<polygon fill="black" stroke="black" points="924.71,-116.3 914.71,-119.8 924.71,-123.3 924.71,-116.3"/>
</g>
<!-- SubgruposService -->
<g id="node6" class="node">
<title>SubgruposService</title>
<ellipse fill="#fdb462" stroke="black" cx="861" cy="-66.8" rx="81.1" ry="18"/>
<text text-anchor="middle" x="861" y="-62.6" font-family="Times,serif" font-size="14.00">SubgruposService</text>
</g>
<!-- SubgruposService&#45;&gt;ServicesModule -->
<g id="edge6" class="edge">
<title>SubgruposService&#45;&gt;ServicesModule</title>
<path fill="none" stroke="black" d="M861,-84.91C861,-84.91 861,-103.79 861,-103.79"/>
<polygon fill="black" stroke="black" points="857.5,-103.79 861,-113.79 864.5,-103.79 857.5,-103.79"/>
</g>
<!-- SweetAlertService -->
<g id="node7" class="node">
<title>SweetAlertService</title>
<ellipse fill="#fdb462" stroke="black" cx="678" cy="-66.8" rx="83.36" ry="18"/>
<text text-anchor="middle" x="678" y="-62.6" font-family="Times,serif" font-size="14.00">SweetAlertService</text>
</g>
<!-- SweetAlertService&#45;&gt;ServicesModule -->
<g id="edge7" class="edge">
<title>SweetAlertService&#45;&gt;ServicesModule</title>
<path fill="none" stroke="black" d="M678,-85.04C678,-100.37 678,-119.8 678,-119.8 678,-119.8 797.08,-119.8 797.08,-119.8"/>
<polygon fill="black" stroke="black" points="797.08,-123.3 807.08,-119.8 797.08,-116.3 797.08,-123.3"/>
</g>
<!-- TaxesService -->
<g id="node8" class="node">
<title>TaxesService</title>
<ellipse fill="#fdb462" stroke="black" cx="514" cy="-66.8" rx="63.1" ry="18"/>
<text text-anchor="middle" x="514" y="-62.6" font-family="Times,serif" font-size="14.00">TaxesService</text>
</g>
<!-- TaxesService&#45;&gt;ServicesModule -->
<g id="edge8" class="edge">
<title>TaxesService&#45;&gt;ServicesModule</title>
<path fill="none" stroke="black" d="M514,-84.82C514,-102.17 514,-125.8 514,-125.8 514,-125.8 797.16,-125.8 797.16,-125.8"/>
<polygon fill="black" stroke="black" points="797.16,-129.3 807.16,-125.8 797.16,-122.3 797.16,-129.3"/>
</g>
<!-- UserService -->
<g id="node9" class="node">
<title>UserService</title>
<ellipse fill="#fdb462" stroke="black" cx="375" cy="-66.8" rx="58.44" ry="18"/>
<text text-anchor="middle" x="375" y="-62.6" font-family="Times,serif" font-size="14.00">UserService</text>
</g>
<!-- UserService&#45;&gt;ServicesModule -->
<g id="edge9" class="edge">
<title>UserService&#45;&gt;ServicesModule</title>
<path fill="none" stroke="black" d="M375,-84.91C375,-104.14 375,-131.8 375,-131.8 375,-131.8 797.13,-131.8 797.13,-131.8"/>
<polygon fill="black" stroke="black" points="797.13,-135.3 807.13,-131.8 797.13,-128.3 797.13,-135.3"/>
</g>
<!-- UsuarioService -->
<g id="node10" class="node">
<title>UsuarioService</title>
<ellipse fill="#fdb462" stroke="black" cx="228" cy="-66.8" rx="70.62" ry="18"/>
<text text-anchor="middle" x="228" y="-62.6" font-family="Times,serif" font-size="14.00">UsuarioService</text>
</g>
<!-- UsuarioService&#45;&gt;ServicesModule -->
<g id="edge10" class="edge">
<title>UsuarioService&#45;&gt;ServicesModule</title>
<path fill="none" stroke="black" d="M228,-85.08C228,-106.12 228,-137.8 228,-137.8 228,-137.8 797.3,-137.8 797.3,-137.8"/>
<polygon fill="black" stroke="black" points="797.3,-141.3 807.3,-137.8 797.3,-134.3 797.3,-141.3"/>
</g>
<!-- ViasService -->
<g id="node11" class="node">
<title>ViasService</title>
<ellipse fill="#fdb462" stroke="black" cx="82" cy="-66.8" rx="57.88" ry="18"/>
<text text-anchor="middle" x="82" y="-62.6" font-family="Times,serif" font-size="14.00">ViasService</text>
</g>
<!-- ViasService&#45;&gt;ServicesModule -->
<g id="edge11" class="edge">
<title>ViasService&#45;&gt;ServicesModule</title>
<path fill="none" stroke="black" d="M82,-84.89C82,-107.93 82,-144.8 82,-144.8 82,-144.8 797.46,-144.8 797.46,-144.8"/>
<polygon fill="black" stroke="black" points="797.46,-148.3 807.46,-144.8 797.46,-141.3 797.46,-148.3"/>
</g>
</g>
</svg>
