<?xml version="1.0" encoding="UTF-8" standalone="no"?>
<!DOCTYPE svg PUBLIC "-//W3C//DTD SVG 1.1//EN"
 "http://www.w3.org/Graphics/SVG/1.1/DTD/svg11.dtd">
<!-- Generated by graphviz version 2.40.1 (20161225.0304)
 -->
<!-- Title: dependencies Pages: 1 -->
<svg width="1217pt" height="211pt"
 viewBox="0.00 0.00 1217.00 211.00" xmlns="http://www.w3.org/2000/svg" xmlns:xlink="http://www.w3.org/1999/xlink">
<g id="graph0" class="graph" transform="scale(1 1) rotate(0) translate(4 207)">
<title>dependencies</title>
<polygon fill="#ffffff" stroke="transparent" points="-4,4 -4,-207 1213,-207 1213,4 -4,4"/>
<text text-anchor="start" x="583.5091" y="-42.4" font-family="sans-serif" font-weight="bold" font-size="14.00" fill="#000000">Legend</text>
<polygon fill="#ffffb3" stroke="transparent" points="370.5,-10 370.5,-30 390.5,-30 390.5,-10 370.5,-10"/>
<text text-anchor="start" x="394.129" y="-15.4" font-family="sans-serif" font-size="14.00" fill="#000000"> &#160;Declarations</text>
<polygon fill="#8dd3c7" stroke="transparent" points="483.5,-10 483.5,-30 503.5,-30 503.5,-10 483.5,-10"/>
<text text-anchor="start" x="507.2251" y="-15.4" font-family="sans-serif" font-size="14.00" fill="#000000"> &#160;Module</text>
<polygon fill="#80b1d3" stroke="transparent" points="569.5,-10 569.5,-30 589.5,-30 589.5,-10 569.5,-10"/>
<text text-anchor="start" x="593.2812" y="-15.4" font-family="sans-serif" font-size="14.00" fill="#000000"> &#160;Bootstrap</text>
<polygon fill="#fdb462" stroke="transparent" points="666.5,-10 666.5,-30 686.5,-30 686.5,-10 666.5,-10"/>
<text text-anchor="start" x="690.1732" y="-15.4" font-family="sans-serif" font-size="14.00" fill="#000000"> &#160;Providers</text>
<polygon fill="#fb8072" stroke="transparent" points="762.5,-10 762.5,-30 782.5,-30 782.5,-10 762.5,-10"/>
<text text-anchor="start" x="786.2258" y="-15.4" font-family="sans-serif" font-size="14.00" fill="#000000"> &#160;Exports</text>
<g id="clust1" class="cluster">
<title>cluster_ServicesModule</title>
<polygon fill="none" stroke="#000000" stroke-dasharray="1,5" points="8,-70 8,-195 1201,-195 1201,-70 8,-70"/>
</g>
<g id="clust6" class="cluster">
<title>cluster_ServicesModule_providers</title>
<polygon fill="none" stroke="#000000" points="16,-78 16,-130 1193,-130 1193,-78 16,-78"/>
</g>
<!-- ColorThemeService -->
<g id="node1" class="node">
<title>ColorThemeService</title>
<ellipse fill="#fdb462" stroke="#000000" cx="1096" cy="-104" rx="88.6024" ry="18"/>
<text text-anchor="middle" x="1096" y="-99.8" font-family="Times,serif" font-size="14.00" fill="#000000">ColorThemeService</text>
</g>
<!-- ServicesModule -->
<g id="node8" class="node">
<title>ServicesModule</title>
<polygon fill="#8dd3c7" stroke="#000000" points="644.472,-187 641.472,-191 620.472,-191 617.472,-187 537.528,-187 537.528,-151 644.472,-151 644.472,-187"/>
<text text-anchor="middle" x="591" y="-164.8" font-family="Times,serif" font-size="14.00" fill="#000000">ServicesModule</text>
</g>
<!-- ColorThemeService&#45;&gt;ServicesModule -->
<g id="edge1" class="edge">
<title>ColorThemeService&#45;&gt;ServicesModule</title>
<path fill="none" stroke="#000000" d="M1096,-122.2921C1096,-144.2057 1096,-178 1096,-178 1096,-178 654.5657,-178 654.5657,-178"/>
<polygon fill="#000000" stroke="#000000" points="654.5658,-174.5001 644.5657,-178 654.5657,-181.5001 654.5658,-174.5001"/>
</g>
<!-- ConfigService -->
<g id="node2" class="node">
<title>ConfigService</title>
<ellipse fill="#fdb462" stroke="#000000" cx="922" cy="-104" rx="66.6325" ry="18"/>
<text text-anchor="middle" x="922" y="-99.8" font-family="Times,serif" font-size="14.00" fill="#000000">ConfigService</text>
</g>
<!-- ConfigService&#45;&gt;ServicesModule -->
<g id="edge2" class="edge">
<title>ConfigService&#45;&gt;ServicesModule</title>
<path fill="none" stroke="#000000" d="M922,-122.1061C922,-141.3391 922,-169 922,-169 922,-169 654.5487,-169 654.5487,-169"/>
<polygon fill="#000000" stroke="#000000" points="654.5488,-165.5001 644.5487,-169 654.5487,-172.5001 654.5488,-165.5001"/>
</g>
<!-- GruposService -->
<g id="node3" class="node">
<title>GruposService</title>
<ellipse fill="#fdb462" stroke="#000000" cx="769" cy="-104" rx="68.3382" ry="18"/>
<text text-anchor="middle" x="769" y="-99.8" font-family="Times,serif" font-size="14.00" fill="#000000">GruposService</text>
</g>
<!-- GruposService&#45;&gt;ServicesModule -->
<g id="edge3" class="edge">
<title>GruposService&#45;&gt;ServicesModule</title>
<path fill="none" stroke="#000000" d="M769,-122.027C769,-138.3976 769,-160 769,-160 769,-160 654.8889,-160 654.8889,-160"/>
<polygon fill="#000000" stroke="#000000" points="654.889,-156.5001 644.8889,-160 654.8889,-163.5001 654.889,-156.5001"/>
</g>
<!-- MenuSidebarService -->
<g id="node4" class="node">
<title>MenuSidebarService</title>
<ellipse fill="#fdb462" stroke="#000000" cx="591" cy="-104" rx="92.0335" ry="18"/>
<text text-anchor="middle" x="591" y="-99.8" font-family="Times,serif" font-size="14.00" fill="#000000">MenuSidebarService</text>
</g>
<!-- MenuSidebarService&#45;&gt;ServicesModule -->
<g id="edge4" class="edge">
<title>MenuSidebarService&#45;&gt;ServicesModule</title>
<path fill="none" stroke="#000000" d="M591,-122.1061C591,-122.1061 591,-140.991 591,-140.991"/>
<polygon fill="#000000" stroke="#000000" points="587.5001,-140.9909 591,-150.991 594.5001,-140.991 587.5001,-140.9909"/>
</g>
<!-- SubgruposService -->
<g id="node5" class="node">
<title>SubgruposService</title>
<ellipse fill="#fdb462" stroke="#000000" cx="400" cy="-104" rx="81.1033" ry="18"/>
<text text-anchor="middle" x="400" y="-99.8" font-family="Times,serif" font-size="14.00" fill="#000000">SubgruposService</text>
</g>
<!-- SubgruposService&#45;&gt;ServicesModule -->
<g id="edge5" class="edge">
<title>SubgruposService&#45;&gt;ServicesModule</title>
<path fill="none" stroke="#000000" d="M400,-122.027C400,-138.3976 400,-160 400,-160 400,-160 527.2876,-160 527.2876,-160"/>
<polygon fill="#000000" stroke="#000000" points="527.2876,-163.5001 537.2876,-160 527.2875,-156.5001 527.2876,-163.5001"/>
</g>
<!-- UserService -->
<g id="node6" class="node">
<title>UserService</title>
<ellipse fill="#fdb462" stroke="#000000" cx="242" cy="-104" rx="58.4415" ry="18"/>
<text text-anchor="middle" x="242" y="-99.8" font-family="Times,serif" font-size="14.00" fill="#000000">UserService</text>
</g>
<!-- UserService&#45;&gt;ServicesModule -->
<g id="edge6" class="edge">
<title>UserService&#45;&gt;ServicesModule</title>
<path fill="none" stroke="#000000" d="M242,-122.1061C242,-141.3391 242,-169 242,-169 242,-169 527.2336,-169 527.2336,-169"/>
<polygon fill="#000000" stroke="#000000" points="527.2336,-172.5001 537.2336,-169 527.2336,-165.5001 527.2336,-172.5001"/>
</g>
<!-- UsuarioService -->
<g id="node7" class="node">
<title>UsuarioService</title>
<ellipse fill="#fdb462" stroke="#000000" cx="95" cy="-104" rx="70.622" ry="18"/>
<text text-anchor="middle" x="95" y="-99.8" font-family="Times,serif" font-size="14.00" fill="#000000">UsuarioService</text>
</g>
<!-- UsuarioService&#45;&gt;ServicesModule -->
<g id="edge7" class="edge">
<title>UsuarioService&#45;&gt;ServicesModule</title>
<path fill="none" stroke="#000000" d="M95,-122.2921C95,-144.2057 95,-178 95,-178 95,-178 527.448,-178 527.448,-178"/>
<polygon fill="#000000" stroke="#000000" points="527.4481,-181.5001 537.448,-178 527.448,-174.5001 527.4481,-181.5001"/>
</g>
</g>
</svg>
