<?xml version="1.0" encoding="UTF-8" standalone="no"?>
<!DOCTYPE svg PUBLIC "-//W3C//DTD SVG 1.1//EN"
 "http://www.w3.org/Graphics/SVG/1.1/DTD/svg11.dtd">
<!-- Generated by graphviz version 2.40.1 (20161225.0304)
 -->
<!-- Title: dependencies Pages: 1 -->
<svg width="1036pt" height="211pt"
 viewBox="0.00 0.00 1036.00 211.00" xmlns="http://www.w3.org/2000/svg" xmlns:xlink="http://www.w3.org/1999/xlink">
<g id="graph0" class="graph" transform="scale(1 1) rotate(0) translate(4 207)">
<title>dependencies</title>
<polygon fill="#ffffff" stroke="transparent" points="-4,4 -4,-207 1032,-207 1032,4 -4,4"/>
<text text-anchor="start" x="493.0091" y="-42.4" font-family="sans-serif" font-weight="bold" font-size="14.00" fill="#000000">Legend</text>
<polygon fill="#ffffb3" stroke="transparent" points="280,-10 280,-30 300,-30 300,-10 280,-10"/>
<text text-anchor="start" x="303.629" y="-15.4" font-family="sans-serif" font-size="14.00" fill="#000000"> &#160;Declarations</text>
<polygon fill="#8dd3c7" stroke="transparent" points="393,-10 393,-30 413,-30 413,-10 393,-10"/>
<text text-anchor="start" x="416.7251" y="-15.4" font-family="sans-serif" font-size="14.00" fill="#000000"> &#160;Module</text>
<polygon fill="#80b1d3" stroke="transparent" points="479,-10 479,-30 499,-30 499,-10 479,-10"/>
<text text-anchor="start" x="502.7812" y="-15.4" font-family="sans-serif" font-size="14.00" fill="#000000"> &#160;Bootstrap</text>
<polygon fill="#fdb462" stroke="transparent" points="576,-10 576,-30 596,-30 596,-10 576,-10"/>
<text text-anchor="start" x="599.6732" y="-15.4" font-family="sans-serif" font-size="14.00" fill="#000000"> &#160;Providers</text>
<polygon fill="#fb8072" stroke="transparent" points="672,-10 672,-30 692,-30 692,-10 672,-10"/>
<text text-anchor="start" x="695.7258" y="-15.4" font-family="sans-serif" font-size="14.00" fill="#000000"> &#160;Exports</text>
<g id="clust1" class="cluster">
<title>cluster_ServicesModule</title>
<polygon fill="none" stroke="#000000" stroke-dasharray="1,5" points="8,-70 8,-195 1020,-195 1020,-70 8,-70"/>
</g>
<g id="clust6" class="cluster">
<title>cluster_ServicesModule_providers</title>
<polygon fill="none" stroke="#000000" points="16,-78 16,-130 1012,-130 1012,-78 16,-78"/>
</g>
<!-- ColorThemeService -->
<g id="node1" class="node">
<title>ColorThemeService</title>
<ellipse fill="#fdb462" stroke="#000000" cx="915" cy="-104" rx="88.6024" ry="18"/>
<text text-anchor="middle" x="915" y="-99.8" font-family="Times,serif" font-size="14.00" fill="#000000">ColorThemeService</text>
</g>
<!-- ServicesModule -->
<g id="node7" class="node">
<title>ServicesModule</title>
<polygon fill="#8dd3c7" stroke="#000000" points="552.472,-187 549.472,-191 528.472,-191 525.472,-187 445.528,-187 445.528,-151 552.472,-151 552.472,-187"/>
<text text-anchor="middle" x="499" y="-164.8" font-family="Times,serif" font-size="14.00" fill="#000000">ServicesModule</text>
</g>
<!-- ColorThemeService&#45;&gt;ServicesModule -->
<g id="edge1" class="edge">
<title>ColorThemeService&#45;&gt;ServicesModule</title>
<path fill="none" stroke="#000000" d="M915,-122.2843C915,-143.3211 915,-175 915,-175 915,-175 562.5331,-175 562.5331,-175"/>
<polygon fill="#000000" stroke="#000000" points="562.5331,-171.5001 552.5331,-175 562.5331,-178.5001 562.5331,-171.5001"/>
</g>
<!-- ConfigService -->
<g id="node2" class="node">
<title>ConfigService</title>
<ellipse fill="#fdb462" stroke="#000000" cx="741" cy="-104" rx="66.6325" ry="18"/>
<text text-anchor="middle" x="741" y="-99.8" font-family="Times,serif" font-size="14.00" fill="#000000">ConfigService</text>
</g>
<!-- ConfigService&#45;&gt;ServicesModule -->
<g id="edge2" class="edge">
<title>ConfigService&#45;&gt;ServicesModule</title>
<path fill="none" stroke="#000000" d="M741,-122.0225C741,-139.3734 741,-163 741,-163 741,-163 562.7076,-163 562.7076,-163"/>
<polygon fill="#000000" stroke="#000000" points="562.7077,-159.5001 552.7076,-163 562.7076,-166.5001 562.7077,-159.5001"/>
</g>
<!-- GruposService -->
<g id="node3" class="node">
<title>GruposService</title>
<ellipse fill="#fdb462" stroke="#000000" cx="588" cy="-104" rx="68.3382" ry="18"/>
<text text-anchor="middle" x="588" y="-99.8" font-family="Times,serif" font-size="14.00" fill="#000000">GruposService</text>
</g>
<!-- GruposService&#45;&gt;ServicesModule -->
<g id="edge3" class="edge">
<title>GruposService&#45;&gt;ServicesModule</title>
<path fill="none" stroke="#000000" d="M536.0335,-115.922C536.0335,-115.922 536.0335,-140.7669 536.0335,-140.7669"/>
<polygon fill="#000000" stroke="#000000" points="532.5336,-140.7669 536.0335,-150.7669 539.5336,-140.7669 532.5336,-140.7669"/>
</g>
<!-- MenuSidebarService -->
<g id="node4" class="node">
<title>MenuSidebarService</title>
<ellipse fill="#fdb462" stroke="#000000" cx="410" cy="-104" rx="92.0335" ry="18"/>
<text text-anchor="middle" x="410" y="-99.8" font-family="Times,serif" font-size="14.00" fill="#000000">MenuSidebarService</text>
</g>
<!-- MenuSidebarService&#45;&gt;ServicesModule -->
<g id="edge4" class="edge">
<title>MenuSidebarService&#45;&gt;ServicesModule</title>
<path fill="none" stroke="#000000" d="M473.7654,-117.1537C473.7654,-117.1537 473.7654,-140.6938 473.7654,-140.6938"/>
<polygon fill="#000000" stroke="#000000" points="470.2655,-140.6938 473.7654,-150.6938 477.2655,-140.6939 470.2655,-140.6938"/>
</g>
<!-- UserService -->
<g id="node5" class="node">
<title>UserService</title>
<ellipse fill="#fdb462" stroke="#000000" cx="242" cy="-104" rx="58.4415" ry="18"/>
<text text-anchor="middle" x="242" y="-99.8" font-family="Times,serif" font-size="14.00" fill="#000000">UserService</text>
</g>
<!-- UserService&#45;&gt;ServicesModule -->
<g id="edge5" class="edge">
<title>UserService&#45;&gt;ServicesModule</title>
<path fill="none" stroke="#000000" d="M242,-122.0225C242,-139.3734 242,-163 242,-163 242,-163 435.4372,-163 435.4372,-163"/>
<polygon fill="#000000" stroke="#000000" points="435.4372,-166.5001 445.4372,-163 435.4372,-159.5001 435.4372,-166.5001"/>
</g>
<!-- UsuarioService -->
<g id="node6" class="node">
<title>UsuarioService</title>
<ellipse fill="#fdb462" stroke="#000000" cx="95" cy="-104" rx="70.622" ry="18"/>
<text text-anchor="middle" x="95" y="-99.8" font-family="Times,serif" font-size="14.00" fill="#000000">UsuarioService</text>
</g>
<!-- UsuarioService&#45;&gt;ServicesModule -->
<g id="edge6" class="edge">
<title>UsuarioService&#45;&gt;ServicesModule</title>
<path fill="none" stroke="#000000" d="M95,-122.2843C95,-143.3211 95,-175 95,-175 95,-175 435.3519,-175 435.3519,-175"/>
<polygon fill="#000000" stroke="#000000" points="435.352,-178.5001 445.3519,-175 435.3519,-171.5001 435.352,-178.5001"/>
</g>
</g>
</svg>
