<?xml version="1.0" encoding="UTF-8" standalone="no"?>
<!DOCTYPE svg PUBLIC "-//W3C//DTD SVG 1.1//EN"
 "http://www.w3.org/Graphics/SVG/1.1/DTD/svg11.dtd">
<!-- Generated by graphviz version 2.40.1 (20161225.0304)
 -->
<!-- Title: dependencies Pages: 1 -->
<svg width="1654pt" height="211pt"
 viewBox="0.00 0.00 1654.00 211.00" xmlns="http://www.w3.org/2000/svg" xmlns:xlink="http://www.w3.org/1999/xlink">
<g id="graph0" class="graph" transform="scale(1 1) rotate(0) translate(4 207)">
<title>dependencies</title>
<polygon fill="#ffffff" stroke="transparent" points="-4,4 -4,-207 1650,-207 1650,4 -4,4"/>
<text text-anchor="start" x="802.0091" y="-42.4" font-family="sans-serif" font-weight="bold" font-size="14.00" fill="#000000">Legend</text>
<polygon fill="#ffffb3" stroke="transparent" points="589,-10 589,-30 609,-30 609,-10 589,-10"/>
<text text-anchor="start" x="612.629" y="-15.4" font-family="sans-serif" font-size="14.00" fill="#000000"> &#160;Declarations</text>
<polygon fill="#8dd3c7" stroke="transparent" points="702,-10 702,-30 722,-30 722,-10 702,-10"/>
<text text-anchor="start" x="725.7251" y="-15.4" font-family="sans-serif" font-size="14.00" fill="#000000"> &#160;Module</text>
<polygon fill="#80b1d3" stroke="transparent" points="788,-10 788,-30 808,-30 808,-10 788,-10"/>
<text text-anchor="start" x="811.7812" y="-15.4" font-family="sans-serif" font-size="14.00" fill="#000000"> &#160;Bootstrap</text>
<polygon fill="#fdb462" stroke="transparent" points="885,-10 885,-30 905,-30 905,-10 885,-10"/>
<text text-anchor="start" x="908.6732" y="-15.4" font-family="sans-serif" font-size="14.00" fill="#000000"> &#160;Providers</text>
<polygon fill="#fb8072" stroke="transparent" points="981,-10 981,-30 1001,-30 1001,-10 981,-10"/>
<text text-anchor="start" x="1004.7258" y="-15.4" font-family="sans-serif" font-size="14.00" fill="#000000"> &#160;Exports</text>
<g id="clust1" class="cluster">
<title>cluster_ServicesModule</title>
<polygon fill="none" stroke="#000000" stroke-dasharray="1,5" points="8,-70 8,-195 1638,-195 1638,-70 8,-70"/>
</g>
<g id="clust6" class="cluster">
<title>cluster_ServicesModule_providers</title>
<polygon fill="none" stroke="#000000" points="16,-78 16,-130 1630,-130 1630,-78 16,-78"/>
</g>
<!-- ColorThemeService -->
<g id="node1" class="node">
<title>ColorThemeService</title>
<ellipse fill="#fdb462" stroke="#000000" cx="1533" cy="-104" rx="88.6024" ry="18"/>
<text text-anchor="middle" x="1533" y="-99.8" font-family="Times,serif" font-size="14.00" fill="#000000">ColorThemeService</text>
</g>
<!-- ServicesModule -->
<g id="node11" class="node">
<title>ServicesModule</title>
<polygon fill="#8dd3c7" stroke="#000000" points="824.472,-187 821.472,-191 800.472,-191 797.472,-187 717.528,-187 717.528,-151 824.472,-151 824.472,-187"/>
<text text-anchor="middle" x="771" y="-164.8" font-family="Times,serif" font-size="14.00" fill="#000000">ServicesModule</text>
</g>
<!-- ColorThemeService&#45;&gt;ServicesModule -->
<g id="edge1" class="edge">
<title>ColorThemeService&#45;&gt;ServicesModule</title>
<path fill="none" stroke="#000000" d="M1533,-122.0109C1533,-144.4852 1533,-180 1533,-180 1533,-180 834.5824,-180 834.5824,-180"/>
<polygon fill="#000000" stroke="#000000" points="834.5824,-176.5001 824.5824,-180 834.5823,-183.5001 834.5824,-176.5001"/>
</g>
<!-- ConfigService -->
<g id="node2" class="node">
<title>ConfigService</title>
<ellipse fill="#fdb462" stroke="#000000" cx="1359" cy="-104" rx="66.6325" ry="18"/>
<text text-anchor="middle" x="1359" y="-99.8" font-family="Times,serif" font-size="14.00" fill="#000000">ConfigService</text>
</g>
<!-- ConfigService&#45;&gt;ServicesModule -->
<g id="edge2" class="edge">
<title>ConfigService&#45;&gt;ServicesModule</title>
<path fill="none" stroke="#000000" d="M1359,-122.1289C1359,-142.5724 1359,-173 1359,-173 1359,-173 834.4787,-173 834.4787,-173"/>
<polygon fill="#000000" stroke="#000000" points="834.4788,-169.5001 824.4787,-173 834.4787,-176.5001 834.4788,-169.5001"/>
</g>
<!-- CuentasService -->
<g id="node3" class="node">
<title>CuentasService</title>
<ellipse fill="#fdb462" stroke="#000000" cx="1203" cy="-104" rx="71.2036" ry="18"/>
<text text-anchor="middle" x="1203" y="-99.8" font-family="Times,serif" font-size="14.00" fill="#000000">CuentasService</text>
</g>
<!-- CuentasService&#45;&gt;ServicesModule -->
<g id="edge3" class="edge">
<title>CuentasService&#45;&gt;ServicesModule</title>
<path fill="none" stroke="#000000" d="M1203,-122.2667C1203,-140.5552 1203,-166 1203,-166 1203,-166 834.8396,-166 834.8396,-166"/>
<polygon fill="#000000" stroke="#000000" points="834.8397,-162.5001 824.8396,-166 834.8396,-169.5001 834.8397,-162.5001"/>
</g>
<!-- GruposService -->
<g id="node4" class="node">
<title>GruposService</title>
<ellipse fill="#fdb462" stroke="#000000" cx="1045" cy="-104" rx="68.3382" ry="18"/>
<text text-anchor="middle" x="1045" y="-99.8" font-family="Times,serif" font-size="14.00" fill="#000000">GruposService</text>
</g>
<!-- GruposService&#45;&gt;ServicesModule -->
<g id="edge4" class="edge">
<title>GruposService&#45;&gt;ServicesModule</title>
<path fill="none" stroke="#000000" d="M1045,-122.0091C1045,-138.0494 1045,-159 1045,-159 1045,-159 834.4804,-159 834.4804,-159"/>
<polygon fill="#000000" stroke="#000000" points="834.4804,-155.5001 824.4804,-159 834.4804,-162.5001 834.4804,-155.5001"/>
</g>
<!-- MenuSidebarService -->
<g id="node5" class="node">
<title>MenuSidebarService</title>
<ellipse fill="#fdb462" stroke="#000000" cx="867" cy="-104" rx="92.0335" ry="18"/>
<text text-anchor="middle" x="867" y="-99.8" font-family="Times,serif" font-size="14.00" fill="#000000">MenuSidebarService</text>
</g>
<!-- MenuSidebarService&#45;&gt;ServicesModule -->
<g id="edge5" class="edge">
<title>MenuSidebarService&#45;&gt;ServicesModule</title>
<path fill="none" stroke="#000000" d="M799.7346,-116.5327C799.7346,-116.5327 799.7346,-140.8507 799.7346,-140.8507"/>
<polygon fill="#000000" stroke="#000000" points="796.2347,-140.8506 799.7346,-150.8507 803.2347,-140.8507 796.2347,-140.8506"/>
</g>
<!-- SubgruposService -->
<g id="node6" class="node">
<title>SubgruposService</title>
<ellipse fill="#fdb462" stroke="#000000" cx="676" cy="-104" rx="81.1033" ry="18"/>
<text text-anchor="middle" x="676" y="-99.8" font-family="Times,serif" font-size="14.00" fill="#000000">SubgruposService</text>
</g>
<!-- SubgruposService&#45;&gt;ServicesModule -->
<g id="edge6" class="edge">
<title>SubgruposService&#45;&gt;ServicesModule</title>
<path fill="none" stroke="#000000" d="M737.4077,-115.922C737.4077,-115.922 737.4077,-140.7669 737.4077,-140.7669"/>
<polygon fill="#000000" stroke="#000000" points="733.9078,-140.7669 737.4077,-150.7669 740.9078,-140.7669 733.9078,-140.7669"/>
</g>
<!-- TaxesService -->
<g id="node7" class="node">
<title>TaxesService</title>
<ellipse fill="#fdb462" stroke="#000000" cx="514" cy="-104" rx="63.0977" ry="18"/>
<text text-anchor="middle" x="514" y="-99.8" font-family="Times,serif" font-size="14.00" fill="#000000">TaxesService</text>
</g>
<!-- TaxesService&#45;&gt;ServicesModule -->
<g id="edge7" class="edge">
<title>TaxesService&#45;&gt;ServicesModule</title>
<path fill="none" stroke="#000000" d="M514,-122.0091C514,-138.0494 514,-159 514,-159 514,-159 707.4372,-159 707.4372,-159"/>
<polygon fill="#000000" stroke="#000000" points="707.4372,-162.5001 717.4372,-159 707.4372,-155.5001 707.4372,-162.5001"/>
</g>
<!-- UserService -->
<g id="node8" class="node">
<title>UserService</title>
<ellipse fill="#fdb462" stroke="#000000" cx="375" cy="-104" rx="58.4415" ry="18"/>
<text text-anchor="middle" x="375" y="-99.8" font-family="Times,serif" font-size="14.00" fill="#000000">UserService</text>
</g>
<!-- UserService&#45;&gt;ServicesModule -->
<g id="edge8" class="edge">
<title>UserService&#45;&gt;ServicesModule</title>
<path fill="none" stroke="#000000" d="M375,-122.2667C375,-140.5552 375,-166 375,-166 375,-166 707.1816,-166 707.1816,-166"/>
<polygon fill="#000000" stroke="#000000" points="707.1816,-169.5001 717.1816,-166 707.1815,-162.5001 707.1816,-169.5001"/>
</g>
<!-- UsuarioService -->
<g id="node9" class="node">
<title>UsuarioService</title>
<ellipse fill="#fdb462" stroke="#000000" cx="228" cy="-104" rx="70.622" ry="18"/>
<text text-anchor="middle" x="228" y="-99.8" font-family="Times,serif" font-size="14.00" fill="#000000">UsuarioService</text>
</g>
<!-- UsuarioService&#45;&gt;ServicesModule -->
<g id="edge9" class="edge">
<title>UsuarioService&#45;&gt;ServicesModule</title>
<path fill="none" stroke="#000000" d="M228,-122.1289C228,-142.5724 228,-173 228,-173 228,-173 707.449,-173 707.449,-173"/>
<polygon fill="#000000" stroke="#000000" points="707.449,-176.5001 717.449,-173 707.449,-169.5001 707.449,-176.5001"/>
</g>
<!-- ViasService -->
<g id="node10" class="node">
<title>ViasService</title>
<ellipse fill="#fdb462" stroke="#000000" cx="82" cy="-104" rx="57.879" ry="18"/>
<text text-anchor="middle" x="82" y="-99.8" font-family="Times,serif" font-size="14.00" fill="#000000">ViasService</text>
</g>
<!-- ViasService&#45;&gt;ServicesModule -->
<g id="edge10" class="edge">
<title>ViasService&#45;&gt;ServicesModule</title>
<path fill="none" stroke="#000000" d="M82,-122.0109C82,-144.4852 82,-180 82,-180 82,-180 707.5086,-180 707.5086,-180"/>
<polygon fill="#000000" stroke="#000000" points="707.5087,-183.5001 717.5086,-180 707.5086,-176.5001 707.5087,-183.5001"/>
</g>
</g>
</svg>
