<?xml version="1.0" encoding="UTF-8" standalone="no"?>
<!DOCTYPE svg PUBLIC "-//W3C//DTD SVG 1.1//EN"
 "http://www.w3.org/Graphics/SVG/1.1/DTD/svg11.dtd">
<!-- Generated by graphviz version 2.40.1 (20161225.0304)
 -->
<!-- Title: dependencies Pages: 1 -->
<svg width="5345pt" height="363pt"
 viewBox="0.00 0.00 5345.00 363.00" xmlns="http://www.w3.org/2000/svg" xmlns:xlink="http://www.w3.org/1999/xlink">
<g id="graph0" class="graph" transform="scale(1 1) rotate(0) translate(4 359)">
<title>dependencies</title>
<polygon fill="#ffffff" stroke="transparent" points="-4,4 -4,-359 5341,-359 5341,4 -4,4"/>
<text text-anchor="start" x="2647.5091" y="-42.4" font-family="sans-serif" font-weight="bold" font-size="14.00" fill="#000000">Legend</text>
<polygon fill="#ffffb3" stroke="transparent" points="2434.5,-10 2434.5,-30 2454.5,-30 2454.5,-10 2434.5,-10"/>
<text text-anchor="start" x="2458.129" y="-15.4" font-family="sans-serif" font-size="14.00" fill="#000000"> &#160;Declarations</text>
<polygon fill="#8dd3c7" stroke="transparent" points="2547.5,-10 2547.5,-30 2567.5,-30 2567.5,-10 2547.5,-10"/>
<text text-anchor="start" x="2571.2251" y="-15.4" font-family="sans-serif" font-size="14.00" fill="#000000"> &#160;Module</text>
<polygon fill="#80b1d3" stroke="transparent" points="2633.5,-10 2633.5,-30 2653.5,-30 2653.5,-10 2633.5,-10"/>
<text text-anchor="start" x="2657.2812" y="-15.4" font-family="sans-serif" font-size="14.00" fill="#000000"> &#160;Bootstrap</text>
<polygon fill="#fdb462" stroke="transparent" points="2730.5,-10 2730.5,-30 2750.5,-30 2750.5,-10 2730.5,-10"/>
<text text-anchor="start" x="2754.1732" y="-15.4" font-family="sans-serif" font-size="14.00" fill="#000000"> &#160;Providers</text>
<polygon fill="#fb8072" stroke="transparent" points="2826.5,-10 2826.5,-30 2846.5,-30 2846.5,-10 2826.5,-10"/>
<text text-anchor="start" x="2850.2258" y="-15.4" font-family="sans-serif" font-size="14.00" fill="#000000"> &#160;Exports</text>
<g id="clust1" class="cluster">
<title>cluster_AppModule</title>
<polygon fill="none" stroke="#000000" stroke-dasharray="1,5" points="2170,-146 2170,-347 3118,-347 3118,-146 2170,-146"/>
</g>
<g id="clust2" class="cluster">
<title>cluster_AppModule_declarations</title>
<polygon fill="none" stroke="#000000" points="2724,-154 2724,-206 3110,-206 3110,-154 2724,-154"/>
</g>
<g id="clust6" class="cluster">
<title>cluster_AppModule_imports</title>
<polygon fill="none" stroke="#000000" points="2366,-154 2366,-206 2716,-206 2716,-154 2366,-154"/>
</g>
<g id="clust8" class="cluster">
<title>cluster_AppModule_bootstrap</title>
<polygon fill="none" stroke="#000000" points="2600,-287 2600,-339 2724,-339 2724,-287 2600,-287"/>
</g>
<g id="clust9" class="cluster">
<title>cluster_AppModule_providers</title>
<polygon fill="none" stroke="#000000" points="2178,-154 2178,-206 2358,-206 2358,-154 2178,-154"/>
</g>
<g id="clust10" class="cluster">
<title>cluster_PagesModule</title>
<polygon fill="none" stroke="#000000" stroke-dasharray="1,5" points="2455,-70 2455,-138 5085,-138 5085,-70 2455,-70"/>
</g>
<g id="clust11" class="cluster">
<title>cluster_PagesModule_declarations</title>
<polygon fill="none" stroke="#000000" points="2463,-78 2463,-130 5077,-130 5077,-78 2463,-78"/>
</g>
<g id="clust34" class="cluster">
<title>cluster_PipesModule</title>
<polygon fill="none" stroke="#000000" stroke-dasharray="1,5" points="5093,-70 5093,-279 5329,-279 5329,-70 5093,-70"/>
</g>
<g id="clust35" class="cluster">
<title>cluster_PipesModule_declarations</title>
<polygon fill="none" stroke="#000000" points="5112,-78 5112,-130 5208,-130 5208,-78 5112,-78"/>
</g>
<g id="clust39" class="cluster">
<title>cluster_PipesModule_exports</title>
<polygon fill="none" stroke="#000000" points="5101,-219 5101,-271 5321,-271 5321,-219 5101,-219"/>
</g>
<g id="clust42" class="cluster">
<title>cluster_ServicesModule</title>
<polygon fill="none" stroke="#000000" stroke-dasharray="1,5" points="950,-70 950,-138 2447,-138 2447,-70 950,-70"/>
</g>
<g id="clust47" class="cluster">
<title>cluster_ServicesModule_providers</title>
<polygon fill="none" stroke="#000000" points="958,-78 958,-130 2439,-130 2439,-78 958,-78"/>
</g>
<g id="clust48" class="cluster">
<title>cluster_SharedModule</title>
<polygon fill="none" stroke="#000000" stroke-dasharray="1,5" points="8,-70 8,-138 942,-138 942,-70 8,-70"/>
</g>
<g id="clust49" class="cluster">
<title>cluster_SharedModule_declarations</title>
<polygon fill="none" stroke="#000000" points="312,-78 312,-130 934,-130 934,-78 312,-78"/>
</g>
<g id="clust55" class="cluster">
<title>cluster_SharedModule_exports</title>
<polygon fill="none" stroke="#000000" points="16,-78 16,-130 304,-130 304,-78 16,-78"/>
</g>
<!-- AppComponent -->
<g id="node1" class="node">
<title>AppComponent</title>
<polygon fill="#ffffb3" stroke="#000000" points="3101.9399,-198 2996.0601,-198 2996.0601,-162 3101.9399,-162 3101.9399,-198"/>
<text text-anchor="middle" x="3049" y="-175.8" font-family="Times,serif" font-size="14.00" fill="#000000">AppComponent</text>
</g>
<!-- AppModule -->
<g id="node4" class="node">
<title>AppModule</title>
<polygon fill="#8dd3c7" stroke="#000000" points="2703.6571,-263 2700.6571,-267 2679.6571,-267 2676.6571,-263 2620.3429,-263 2620.3429,-227 2703.6571,-227 2703.6571,-263"/>
<text text-anchor="middle" x="2662" y="-240.8" font-family="Times,serif" font-size="14.00" fill="#000000">AppModule</text>
</g>
<!-- AppComponent&#45;&gt;AppModule -->
<g id="edge1" class="edge">
<title>AppComponent&#45;&gt;AppModule</title>
<path fill="none" stroke="#000000" d="M3049,-198.2921C3049,-220.2057 3049,-254 3049,-254 3049,-254 2713.7835,-254 2713.7835,-254"/>
<polygon fill="#000000" stroke="#000000" points="2713.7835,-250.5001 2703.7835,-254 2713.7834,-257.5001 2713.7835,-250.5001"/>
</g>
<!-- LoginComponent -->
<g id="node2" class="node">
<title>LoginComponent</title>
<polygon fill="#ffffb3" stroke="#000000" points="2978.2758,-198 2863.7242,-198 2863.7242,-162 2978.2758,-162 2978.2758,-198"/>
<text text-anchor="middle" x="2921" y="-175.8" font-family="Times,serif" font-size="14.00" fill="#000000">LoginComponent</text>
</g>
<!-- LoginComponent&#45;&gt;AppModule -->
<g id="edge2" class="edge">
<title>LoginComponent&#45;&gt;AppModule</title>
<path fill="none" stroke="#000000" d="M2921,-198.1061C2921,-217.3391 2921,-245 2921,-245 2921,-245 2713.9007,-245 2713.9007,-245"/>
<polygon fill="#000000" stroke="#000000" points="2713.9007,-241.5001 2703.9007,-245 2713.9006,-248.5001 2713.9007,-241.5001"/>
</g>
<!-- PagesComponent -->
<g id="node3" class="node">
<title>PagesComponent</title>
<polygon fill="#ffffb3" stroke="#000000" points="2845.9888,-198 2732.0112,-198 2732.0112,-162 2845.9888,-162 2845.9888,-198"/>
<text text-anchor="middle" x="2789" y="-175.8" font-family="Times,serif" font-size="14.00" fill="#000000">PagesComponent</text>
</g>
<!-- PagesComponent&#45;&gt;AppModule -->
<g id="edge3" class="edge">
<title>PagesComponent&#45;&gt;AppModule</title>
<path fill="none" stroke="#000000" d="M2789,-198.027C2789,-214.3976 2789,-236 2789,-236 2789,-236 2713.9365,-236 2713.9365,-236"/>
<polygon fill="#000000" stroke="#000000" points="2713.9366,-232.5001 2703.9365,-236 2713.9365,-239.5001 2713.9366,-232.5001"/>
</g>
<!-- AppComponent  -->
<g id="node8" class="node">
<title>AppComponent </title>
<polygon fill="#80b1d3" stroke="#000000" points="2716.439,-331 2607.561,-331 2607.561,-295 2716.439,-295 2716.439,-331"/>
<text text-anchor="middle" x="2662" y="-308.8" font-family="Times,serif" font-size="14.00" fill="#000000">AppComponent </text>
</g>
<!-- AppModule&#45;&gt;AppComponent  -->
<g id="edge7" class="edge">
<title>AppModule&#45;&gt;AppComponent </title>
<path fill="none" stroke="#000000" stroke-dasharray="1,5" d="M2662,-263.2228C2662,-263.2228 2662,-284.7269 2662,-284.7269"/>
<polygon fill="#000000" stroke="#000000" points="2658.5001,-284.7269 2662,-294.7269 2665.5001,-284.727 2658.5001,-284.7269"/>
</g>
<!-- PagesModule -->
<g id="node5" class="node">
<title>PagesModule</title>
<polygon fill="#8dd3c7" stroke="#000000" points="2708.2064,-198 2705.2064,-202 2684.2064,-202 2681.2064,-198 2615.7936,-198 2615.7936,-162 2708.2064,-162 2708.2064,-198"/>
<text text-anchor="middle" x="2662" y="-175.8" font-family="Times,serif" font-size="14.00" fill="#000000">PagesModule</text>
</g>
<!-- PagesModule&#45;&gt;AppModule -->
<g id="edge4" class="edge">
<title>PagesModule&#45;&gt;AppModule</title>
<path fill="none" stroke="#000000" d="M2662,-198.1061C2662,-198.1061 2662,-216.991 2662,-216.991"/>
<polygon fill="#000000" stroke="#000000" points="2658.5001,-216.9909 2662,-226.991 2665.5001,-216.991 2658.5001,-216.9909"/>
</g>
<!-- ServicesModule -->
<g id="node6" class="node">
<title>ServicesModule</title>
<polygon fill="#8dd3c7" stroke="#000000" points="2597.472,-198 2594.472,-202 2573.472,-202 2570.472,-198 2490.528,-198 2490.528,-162 2597.472,-162 2597.472,-198"/>
<text text-anchor="middle" x="2544" y="-175.8" font-family="Times,serif" font-size="14.00" fill="#000000">ServicesModule</text>
</g>
<!-- ServicesModule&#45;&gt;AppModule -->
<g id="edge5" class="edge">
<title>ServicesModule&#45;&gt;AppModule</title>
<path fill="none" stroke="#000000" d="M2544,-198.027C2544,-214.3976 2544,-236 2544,-236 2544,-236 2610.0654,-236 2610.0654,-236"/>
<polygon fill="#000000" stroke="#000000" points="2610.0654,-239.5001 2620.0654,-236 2610.0653,-232.5001 2610.0654,-239.5001"/>
</g>
<!-- SharedModule -->
<g id="node7" class="node">
<title>SharedModule</title>
<polygon fill="#8dd3c7" stroke="#000000" points="2472.4231,-198 2469.4231,-202 2448.4231,-202 2445.4231,-198 2373.5769,-198 2373.5769,-162 2472.4231,-162 2472.4231,-198"/>
<text text-anchor="middle" x="2423" y="-175.8" font-family="Times,serif" font-size="14.00" fill="#000000">SharedModule</text>
</g>
<!-- SharedModule&#45;&gt;AppModule -->
<g id="edge6" class="edge">
<title>SharedModule&#45;&gt;AppModule</title>
<path fill="none" stroke="#000000" d="M2423,-198.1061C2423,-217.3391 2423,-245 2423,-245 2423,-245 2610.0959,-245 2610.0959,-245"/>
<polygon fill="#000000" stroke="#000000" points="2610.0959,-248.5001 2620.0959,-245 2610.0959,-241.5001 2610.0959,-248.5001"/>
</g>
<!-- NavbarComponent  -->
<g id="node45" class="node">
<title>NavbarComponent </title>
<polygon fill="#fb8072" stroke="#000000" points="296.0288,-122 169.9712,-122 169.9712,-86 296.0288,-86 296.0288,-122"/>
<text text-anchor="middle" x="233" y="-99.8" font-family="Times,serif" font-size="14.00" fill="#000000">NavbarComponent </text>
</g>
<!-- SharedModule&#45;&gt;NavbarComponent  -->
<g id="edge44" class="edge">
<title>SharedModule&#45;&gt;NavbarComponent </title>
<path fill="none" stroke="#000000" stroke-dasharray="5,2" d="M2388.0419,-161.8701C2388.0419,-151.6855 2388.0419,-141 2388.0419,-141 2388.0419,-141 233,-141 233,-141 233,-141 233,-132.0664 233,-132.0664"/>
<polygon fill="#000000" stroke="#000000" points="236.5001,-132.0664 233,-122.0664 229.5001,-132.0665 236.5001,-132.0664"/>
</g>
<!-- SidebarComponent  -->
<g id="node46" class="node">
<title>SidebarComponent </title>
<polygon fill="#fb8072" stroke="#000000" points="151.596,-122 24.404,-122 24.404,-86 151.596,-86 151.596,-122"/>
<text text-anchor="middle" x="88" y="-99.8" font-family="Times,serif" font-size="14.00" fill="#000000">SidebarComponent </text>
</g>
<!-- SharedModule&#45;&gt;SidebarComponent  -->
<g id="edge45" class="edge">
<title>SharedModule&#45;&gt;SidebarComponent </title>
<path fill="none" stroke="#000000" stroke-dasharray="5,2" d="M2380.9154,-161.8903C2380.9154,-152.103 2380.9154,-142 2380.9154,-142 2380.9154,-142 88,-142 88,-142 88,-142 88,-132.1097 88,-132.1097"/>
<polygon fill="#000000" stroke="#000000" points="91.5001,-132.1096 88,-122.1097 84.5001,-132.1097 91.5001,-132.1096"/>
</g>
<!-- InterceptorService -->
<g id="node9" class="node">
<title>InterceptorService</title>
<ellipse fill="#fdb462" stroke="#000000" cx="2268" cy="-180" rx="82.1986" ry="18"/>
<text text-anchor="middle" x="2268" y="-175.8" font-family="Times,serif" font-size="14.00" fill="#000000">InterceptorService</text>
</g>
<!-- InterceptorService&#45;&gt;AppModule -->
<g id="edge8" class="edge">
<title>InterceptorService&#45;&gt;AppModule</title>
<path fill="none" stroke="#000000" d="M2268,-198.2921C2268,-220.2057 2268,-254 2268,-254 2268,-254 2610.2081,-254 2610.2081,-254"/>
<polygon fill="#000000" stroke="#000000" points="2610.2081,-257.5001 2620.2081,-254 2610.2081,-250.5001 2610.2081,-257.5001"/>
</g>
<!-- ConfigComponent -->
<g id="node10" class="node">
<title>ConfigComponent</title>
<polygon fill="#ffffb3" stroke="#000000" points="4953.2204,-122 4832.7796,-122 4832.7796,-86 4953.2204,-86 4953.2204,-122"/>
<text text-anchor="middle" x="4893" y="-99.8" font-family="Times,serif" font-size="14.00" fill="#000000">ConfigComponent</text>
</g>
<!-- ConfigComponent&#45;&gt;PagesModule -->
<g id="edge9" class="edge">
<title>ConfigComponent&#45;&gt;PagesModule</title>
<path fill="none" stroke="#000000" d="M4893,-122.027C4893,-138.3976 4893,-160 4893,-160 4893,-160 2698.3972,-160 2698.3972,-160 2698.3972,-160 2698.3972,-160.1846 2698.3972,-160.1846"/>
<polygon fill="#000000" stroke="#000000" points="2694.8978,-151.8455 2698.3972,-161.8457 2701.8978,-151.8459 2694.8978,-151.8455"/>
</g>
<!-- ContabilidadComponent -->
<g id="node11" class="node">
<title>ContabilidadComponent</title>
<polygon fill="#ffffb3" stroke="#000000" points="4814.661,-122 4661.339,-122 4661.339,-86 4814.661,-86 4814.661,-122"/>
<text text-anchor="middle" x="4738" y="-99.8" font-family="Times,serif" font-size="14.00" fill="#000000">ContabilidadComponent</text>
</g>
<!-- ContabilidadComponent&#45;&gt;PagesModule -->
<g id="edge10" class="edge">
<title>ContabilidadComponent&#45;&gt;PagesModule</title>
<path fill="none" stroke="#000000" d="M4738,-122.0091C4738,-138.0494 4738,-159 4738,-159 4738,-159 2693.5442,-159 2693.5442,-159 2693.5442,-159 2693.5442,-159.292 2693.5442,-159.292"/>
<polygon fill="#000000" stroke="#000000" points="2690.0446,-151.9198 2693.5442,-161.92 2697.0446,-151.9201 2690.0446,-151.9198"/>
</g>
<!-- CuentaComponent -->
<g id="node12" class="node">
<title>CuentaComponent</title>
<polygon fill="#ffffb3" stroke="#000000" points="4643.4888,-122 4522.5112,-122 4522.5112,-86 4643.4888,-86 4643.4888,-122"/>
<text text-anchor="middle" x="4583" y="-99.8" font-family="Times,serif" font-size="14.00" fill="#000000">CuentaComponent</text>
</g>
<!-- CuentaComponent&#45;&gt;PagesModule -->
<g id="edge11" class="edge">
<title>CuentaComponent&#45;&gt;PagesModule</title>
<path fill="none" stroke="#000000" d="M4583,-122.2819C4583,-137.9478 4583,-158 4583,-158 4583,-158 2688.6913,-158 2688.6913,-158 2688.6913,-158 2688.6913,-158.3832 2688.6913,-158.3832"/>
<polygon fill="#000000" stroke="#000000" points="2685.1916,-151.832 2688.6913,-161.8321 2692.1916,-151.8322 2685.1916,-151.832"/>
</g>
<!-- CuentasComponent -->
<g id="node13" class="node">
<title>CuentasComponent</title>
<polygon fill="#ffffb3" stroke="#000000" points="4504.4341,-122 4377.5659,-122 4377.5659,-86 4504.4341,-86 4504.4341,-122"/>
<text text-anchor="middle" x="4441" y="-99.8" font-family="Times,serif" font-size="14.00" fill="#000000">CuentasComponent</text>
</g>
<!-- CuentasComponent&#45;&gt;PagesModule -->
<g id="edge12" class="edge">
<title>CuentasComponent&#45;&gt;PagesModule</title>
<path fill="none" stroke="#000000" d="M4441,-122.1871C4441,-137.1824 4441,-156 4441,-156 4441,-156 2683.8383,-156 2683.8383,-156 2683.8383,-156 2683.8383,-156.581 2683.8383,-156.581"/>
<polygon fill="#000000" stroke="#000000" points="2680.3385,-151.8097 2683.8383,-161.8097 2687.3385,-151.8098 2680.3385,-151.8097"/>
</g>
<!-- DashboardComponent -->
<g id="node14" class="node">
<title>DashboardComponent</title>
<polygon fill="#ffffb3" stroke="#000000" points="4359.9734,-122 4218.0266,-122 4218.0266,-86 4359.9734,-86 4359.9734,-122"/>
<text text-anchor="middle" x="4289" y="-99.8" font-family="Times,serif" font-size="14.00" fill="#000000">DashboardComponent</text>
</g>
<!-- DashboardComponent&#45;&gt;PagesModule -->
<g id="edge13" class="edge">
<title>DashboardComponent&#45;&gt;PagesModule</title>
<path fill="none" stroke="#000000" d="M4289,-122.1243C4289,-136.7832 4289,-155 4289,-155 4289,-155 2678.9854,-155 2678.9854,-155 2678.9854,-155 2678.9854,-155.6831 2678.9854,-155.6831"/>
<polygon fill="#000000" stroke="#000000" points="2675.4855,-151.8313 2678.9854,-161.8314 2682.4855,-151.8314 2675.4855,-151.8313"/>
</g>
<!-- GrupoComponent -->
<g id="node15" class="node">
<title>GrupoComponent</title>
<polygon fill="#ffffb3" stroke="#000000" points="4199.5996,-122 4082.4004,-122 4082.4004,-86 4199.5996,-86 4199.5996,-122"/>
<text text-anchor="middle" x="4141" y="-99.8" font-family="Times,serif" font-size="14.00" fill="#000000">GrupoComponent</text>
</g>
<!-- GrupoComponent&#45;&gt;PagesModule -->
<g id="edge14" class="edge">
<title>GrupoComponent&#45;&gt;PagesModule</title>
<path fill="none" stroke="#000000" d="M4141,-122.0511C4141,-136.373 4141,-154 4141,-154 4141,-154 2674.1324,-154 2674.1324,-154 2674.1324,-154 2674.1324,-154.7942 2674.1324,-154.7942"/>
<polygon fill="#000000" stroke="#000000" points="2670.6325,-151.9421 2674.1324,-161.9421 2677.6325,-151.9422 2670.6325,-151.9421"/>
</g>
<!-- GruposComponent -->
<g id="node16" class="node">
<title>GruposComponent</title>
<polygon fill="#ffffb3" stroke="#000000" points="4064.045,-122 3941.955,-122 3941.955,-86 4064.045,-86 4064.045,-122"/>
<text text-anchor="middle" x="4003" y="-99.8" font-family="Times,serif" font-size="14.00" fill="#000000">GruposComponent</text>
</g>
<!-- GruposComponent&#45;&gt;PagesModule -->
<g id="edge15" class="edge">
<title>GruposComponent&#45;&gt;PagesModule</title>
<path fill="none" stroke="#000000" d="M4003,-122.2458C4003,-136.1772 4003,-153 4003,-153 4003,-153 2669.2794,-153 2669.2794,-153 2669.2794,-153 2669.2794,-153.8841 2669.2794,-153.8841"/>
<polygon fill="#000000" stroke="#000000" points="2665.7796,-151.8408 2669.2794,-161.8408 2672.7796,-151.8409 2665.7796,-151.8408"/>
</g>
<!-- LoadTableComponent -->
<g id="node17" class="node">
<title>LoadTableComponent</title>
<polygon fill="#ffffb3" stroke="#000000" points="3923.972,-122 3782.028,-122 3782.028,-86 3923.972,-86 3923.972,-122"/>
<text text-anchor="middle" x="3853" y="-99.8" font-family="Times,serif" font-size="14.00" fill="#000000">LoadTableComponent</text>
</g>
<!-- LoadTableComponent&#45;&gt;PagesModule -->
<g id="edge16" class="edge">
<title>LoadTableComponent&#45;&gt;PagesModule</title>
<path fill="none" stroke="#000000" d="M3853,-122.1467C3853,-135.7395 3853,-152 3853,-152 3853,-152 2664.4265,-152 2664.4265,-152 2664.4265,-152 2664.4265,-152.9793 2664.4265,-152.9793"/>
<polygon fill="#000000" stroke="#000000" points="2660.9266,-151.793 2664.4265,-161.793 2667.9266,-151.7931 2660.9266,-151.793"/>
</g>
<!-- NotfoundComponent -->
<g id="node18" class="node">
<title>NotfoundComponent</title>
<polygon fill="#ffffb3" stroke="#000000" points="3764.4902,-122 3629.5098,-122 3629.5098,-86 3764.4902,-86 3764.4902,-122"/>
<text text-anchor="middle" x="3697" y="-99.8" font-family="Times,serif" font-size="14.00" fill="#000000">NotfoundComponent</text>
</g>
<!-- NotfoundComponent&#45;&gt;PagesModule -->
<g id="edge17" class="edge">
<title>NotfoundComponent&#45;&gt;PagesModule</title>
<path fill="none" stroke="#000000" d="M3697,-122.1804C3697,-135.0382 3697,-150 3697,-150 3697,-150 2659.5735,-150 2659.5735,-150 2659.5735,-150 2659.5735,-151.8568 2659.5735,-151.8568"/>
<polygon fill="#000000" stroke="#000000" points="2656.0736,-151.8568 2659.5735,-161.8568 2663.0736,-151.8568 2656.0736,-151.8568"/>
</g>
<!-- RoundceilPipe -->
<g id="node19" class="node">
<title>RoundceilPipe</title>
<polygon fill="#ffffb3" stroke="#000000" points="5069.4358,-122 4970.5642,-122 4970.5642,-86 5069.4358,-86 5069.4358,-122"/>
<text text-anchor="middle" x="5020" y="-99.8" font-family="Times,serif" font-size="14.00" fill="#000000">RoundceilPipe</text>
</g>
<!-- RoundceilPipe&#45;&gt;PagesModule -->
<g id="edge18" class="edge">
<title>RoundceilPipe&#45;&gt;PagesModule</title>
<path fill="none" stroke="#000000" d="M5003.5942,-122.0352C5003.5942,-138.7344 5003.5942,-161 5003.5942,-161 5003.5942,-161 2703.2501,-161 2703.2501,-161 2703.2501,-161 2703.2501,-161.0816 2703.2501,-161.0816"/>
<polygon fill="#000000" stroke="#000000" points="2699.7515,-151.8159 2703.2501,-161.8164 2706.7515,-151.8169 2699.7515,-151.8159"/>
</g>
<!-- PipesModule -->
<g id="node29" class="node">
<title>PipesModule</title>
<polygon fill="#8dd3c7" stroke="#000000" points="5204.8823,-198 5201.8823,-202 5180.8823,-202 5177.8823,-198 5115.1177,-198 5115.1177,-162 5204.8823,-162 5204.8823,-198"/>
<text text-anchor="middle" x="5160" y="-175.8" font-family="Times,serif" font-size="14.00" fill="#000000">PipesModule</text>
</g>
<!-- RoundceilPipe&#45;&gt;PipesModule -->
<g id="edge28" class="edge">
<title>RoundceilPipe&#45;&gt;PipesModule</title>
<path fill="none" stroke="#000000" d="M5036.4058,-122.0109C5036.4058,-144.4852 5036.4058,-180 5036.4058,-180 5036.4058,-180 5105.03,-180 5105.03,-180"/>
<polygon fill="#000000" stroke="#000000" points="5105.0301,-183.5001 5115.03,-180 5105.03,-176.5001 5105.0301,-183.5001"/>
</g>
<!-- SubcuentaComponent -->
<g id="node20" class="node">
<title>SubcuentaComponent</title>
<polygon fill="#ffffb3" stroke="#000000" points="3480.6498,-122 3341.3502,-122 3341.3502,-86 3480.6498,-86 3480.6498,-122"/>
<text text-anchor="middle" x="3411" y="-99.8" font-family="Times,serif" font-size="14.00" fill="#000000">SubcuentaComponent</text>
</g>
<!-- SubcuentaComponent&#45;&gt;PagesModule -->
<g id="edge19" class="edge">
<title>SubcuentaComponent&#45;&gt;PagesModule</title>
<path fill="none" stroke="#000000" d="M3411,-122.1505C3411,-134.2708 3411,-148 3411,-148 3411,-148 2649.8676,-148 2649.8676,-148 2649.8676,-148 2649.8676,-151.7566 2649.8676,-151.7566"/>
<polygon fill="#000000" stroke="#000000" points="2646.3677,-151.7566 2649.8676,-161.7566 2653.3677,-151.7566 2646.3677,-151.7566"/>
</g>
<!-- SubcuentasComponent -->
<g id="node21" class="node">
<title>SubcuentasComponent</title>
<polygon fill="#ffffb3" stroke="#000000" points="3323.594,-122 3178.406,-122 3178.406,-86 3323.594,-86 3323.594,-122"/>
<text text-anchor="middle" x="3251" y="-99.8" font-family="Times,serif" font-size="14.00" fill="#000000">SubcuentasComponent</text>
</g>
<!-- SubcuentasComponent&#45;&gt;PagesModule -->
<g id="edge20" class="edge">
<title>SubcuentasComponent&#45;&gt;PagesModule</title>
<path fill="none" stroke="#000000" d="M3251,-122.4854C3251,-134.1399 3251,-147 3251,-147 3251,-147 2645.0146,-147 2645.0146,-147 2645.0146,-147 2645.0146,-151.9551 2645.0146,-151.9551"/>
<polygon fill="#000000" stroke="#000000" points="2641.5147,-151.9551 2645.0146,-161.9551 2648.5147,-151.9552 2641.5147,-151.9551"/>
</g>
<!-- SubgrupoComponent -->
<g id="node22" class="node">
<title>SubgrupoComponent</title>
<polygon fill="#ffffb3" stroke="#000000" points="3160.7758,-122 3025.2242,-122 3025.2242,-86 3160.7758,-86 3160.7758,-122"/>
<text text-anchor="middle" x="3093" y="-99.8" font-family="Times,serif" font-size="14.00" fill="#000000">SubgrupoComponent</text>
</g>
<!-- SubgrupoComponent&#45;&gt;PagesModule -->
<g id="edge21" class="edge">
<title>SubgrupoComponent&#45;&gt;PagesModule</title>
<path fill="none" stroke="#000000" d="M3063.4159,-122.0555C3063.4159,-133.439 3063.4159,-146 3063.4159,-146 3063.4159,-146 2640.1617,-146 2640.1617,-146 2640.1617,-146 2640.1617,-151.8056 2640.1617,-151.8056"/>
<polygon fill="#000000" stroke="#000000" points="2636.6618,-151.8055 2640.1617,-161.8056 2643.6618,-151.8056 2636.6618,-151.8055"/>
</g>
<!-- SubgruposComponent -->
<g id="node23" class="node">
<title>SubgruposComponent</title>
<polygon fill="#ffffb3" stroke="#000000" points="3007.7204,-122 2866.2796,-122 2866.2796,-86 3007.7204,-86 3007.7204,-122"/>
<text text-anchor="middle" x="2937" y="-99.8" font-family="Times,serif" font-size="14.00" fill="#000000">SubgruposComponent</text>
</g>
<!-- SubgruposComponent&#45;&gt;PagesModule -->
<g id="edge22" class="edge">
<title>SubgruposComponent&#45;&gt;PagesModule</title>
<path fill="none" stroke="#000000" d="M2922.3889,-122.1274C2922.3889,-132.7109 2922.3889,-144 2922.3889,-144 2922.3889,-144 2635.3087,-144 2635.3087,-144 2635.3087,-144 2635.3087,-151.5782 2635.3087,-151.5782"/>
<polygon fill="#000000" stroke="#000000" points="2631.8088,-151.5781 2635.3087,-161.5782 2638.8088,-151.5782 2631.8088,-151.5781"/>
</g>
<!-- TaxComponent -->
<g id="node24" class="node">
<title>TaxComponent</title>
<polygon fill="#ffffb3" stroke="#000000" points="2848.5996,-122 2745.4004,-122 2745.4004,-86 2848.5996,-86 2848.5996,-122"/>
<text text-anchor="middle" x="2797" y="-99.8" font-family="Times,serif" font-size="14.00" fill="#000000">TaxComponent</text>
</g>
<!-- TaxComponent&#45;&gt;PagesModule -->
<g id="edge23" class="edge">
<title>TaxComponent&#45;&gt;PagesModule</title>
<path fill="none" stroke="#000000" d="M2795.7223,-122.1299C2795.7223,-132.3145 2795.7223,-143 2795.7223,-143 2795.7223,-143 2630.4558,-143 2630.4558,-143 2630.4558,-143 2630.4558,-151.9336 2630.4558,-151.9336"/>
<polygon fill="#000000" stroke="#000000" points="2626.9559,-151.9335 2630.4558,-161.9336 2633.9559,-151.9336 2626.9559,-151.9335"/>
</g>
<!-- TaxformComponent -->
<g id="node25" class="node">
<title>TaxformComponent</title>
<polygon fill="#ffffb3" stroke="#000000" points="2727.3118,-122 2596.6882,-122 2596.6882,-86 2727.3118,-86 2727.3118,-122"/>
<text text-anchor="middle" x="2662" y="-99.8" font-family="Times,serif" font-size="14.00" fill="#000000">TaxformComponent</text>
</g>
<!-- TaxformComponent&#45;&gt;PagesModule -->
<g id="edge24" class="edge">
<title>TaxformComponent&#45;&gt;PagesModule</title>
<path fill="none" stroke="#000000" d="M2625.6028,-122.0109C2625.6028,-122.0109 2625.6028,-151.855 2625.6028,-151.855"/>
<polygon fill="#000000" stroke="#000000" points="2622.1029,-151.8549 2625.6028,-161.855 2629.1029,-151.855 2622.1029,-151.8549"/>
</g>
<!-- UserComponent -->
<g id="node26" class="node">
<title>UserComponent</title>
<polygon fill="#ffffb3" stroke="#000000" points="2578.7591,-122 2471.2409,-122 2471.2409,-86 2578.7591,-86 2578.7591,-122"/>
<text text-anchor="middle" x="2525" y="-99.8" font-family="Times,serif" font-size="14.00" fill="#000000">UserComponent</text>
</g>
<!-- UserComponent&#45;&gt;PagesModule -->
<g id="edge25" class="edge">
<title>UserComponent&#45;&gt;PagesModule</title>
<path fill="none" stroke="#000000" d="M2570.8462,-122.1543C2570.8462,-123.2969 2570.8462,-124 2570.8462,-124 2570.8462,-124 2620.7499,-124 2620.7499,-124 2620.7499,-124 2620.7499,-151.973 2620.7499,-151.973"/>
<polygon fill="#000000" stroke="#000000" points="2617.25,-151.973 2620.7499,-161.973 2624.25,-151.973 2617.25,-151.973"/>
</g>
<!-- UsersComponent -->
<g id="node27" class="node">
<title>UsersComponent</title>
<polygon fill="#ffffb3" stroke="#000000" points="3611.7036,-122 3498.2964,-122 3498.2964,-86 3611.7036,-86 3611.7036,-122"/>
<text text-anchor="middle" x="3555" y="-99.8" font-family="Times,serif" font-size="14.00" fill="#000000">UsersComponent</text>
</g>
<!-- UsersComponent&#45;&gt;PagesModule -->
<g id="edge26" class="edge">
<title>UsersComponent&#45;&gt;PagesModule</title>
<path fill="none" stroke="#000000" d="M3555,-122.0439C3555,-134.5633 3555,-149 3555,-149 3555,-149 2654.7206,-149 2654.7206,-149 2654.7206,-149 2654.7206,-151.9672 2654.7206,-151.9672"/>
<polygon fill="#000000" stroke="#000000" points="2651.2207,-151.9671 2654.7206,-161.9672 2658.2207,-151.9672 2651.2207,-151.9671"/>
</g>
<!-- CuentaPipe -->
<g id="node28" class="node">
<title>CuentaPipe</title>
<polygon fill="#ffffb3" stroke="#000000" points="5200.0455,-122 5119.9545,-122 5119.9545,-86 5200.0455,-86 5200.0455,-122"/>
<text text-anchor="middle" x="5160" y="-99.8" font-family="Times,serif" font-size="14.00" fill="#000000">CuentaPipe</text>
</g>
<!-- CuentaPipe&#45;&gt;PipesModule -->
<g id="edge27" class="edge">
<title>CuentaPipe&#45;&gt;PipesModule</title>
<path fill="none" stroke="#000000" d="M5160,-122.0109C5160,-122.0109 5160,-151.855 5160,-151.855"/>
<polygon fill="#000000" stroke="#000000" points="5156.5001,-151.8549 5160,-161.855 5163.5001,-151.855 5156.5001,-151.8549"/>
</g>
<!-- CuentaPipe  -->
<g id="node30" class="node">
<title>CuentaPipe </title>
<polygon fill="#fb8072" stroke="#000000" points="5313.0442,-263 5228.9558,-263 5228.9558,-227 5313.0442,-227 5313.0442,-263"/>
<text text-anchor="middle" x="5271" y="-240.8" font-family="Times,serif" font-size="14.00" fill="#000000">CuentaPipe </text>
</g>
<!-- PipesModule&#45;&gt;CuentaPipe  -->
<g id="edge29" class="edge">
<title>PipesModule&#45;&gt;CuentaPipe </title>
<path fill="none" stroke="#000000" stroke-dasharray="5,2" d="M5205.1479,-180C5235.8789,-180 5271,-180 5271,-180 5271,-180 5271,-216.8939 5271,-216.8939"/>
<polygon fill="#000000" stroke="#000000" points="5267.5001,-216.8938 5271,-226.8939 5274.5001,-216.8939 5267.5001,-216.8938"/>
</g>
<!-- RoundceilPipe  -->
<g id="node31" class="node">
<title>RoundceilPipe </title>
<polygon fill="#fb8072" stroke="#000000" points="5210.9348,-263 5109.0652,-263 5109.0652,-227 5210.9348,-227 5210.9348,-263"/>
<text text-anchor="middle" x="5160" y="-240.8" font-family="Times,serif" font-size="14.00" fill="#000000">RoundceilPipe </text>
</g>
<!-- PipesModule&#45;&gt;RoundceilPipe  -->
<g id="edge30" class="edge">
<title>PipesModule&#45;&gt;RoundceilPipe </title>
<path fill="none" stroke="#000000" stroke-dasharray="5,2" d="M5160,-198.1061C5160,-198.1061 5160,-216.991 5160,-216.991"/>
<polygon fill="#000000" stroke="#000000" points="5156.5001,-216.9909 5160,-226.991 5163.5001,-216.991 5156.5001,-216.9909"/>
</g>
<!-- ColorThemeService -->
<g id="node32" class="node">
<title>ColorThemeService</title>
<ellipse fill="#fdb462" stroke="#000000" cx="2342" cy="-104" rx="88.6024" ry="18"/>
<text text-anchor="middle" x="2342" y="-99.8" font-family="Times,serif" font-size="14.00" fill="#000000">ColorThemeService</text>
</g>
<!-- ColorThemeService&#45;&gt;ServicesModule -->
<g id="edge31" class="edge">
<title>ColorThemeService&#45;&gt;ServicesModule</title>
<path fill="none" stroke="#000000" d="M2423.6745,-111.1096C2423.6745,-117.2019 2423.6745,-125 2423.6745,-125 2423.6745,-125 2562.813,-125 2562.813,-125 2562.813,-125 2562.813,-151.9909 2562.813,-151.9909"/>
<polygon fill="#000000" stroke="#000000" points="2559.3131,-151.9909 2562.813,-161.9909 2566.3131,-151.991 2559.3131,-151.9909"/>
</g>
<!-- ConfigService -->
<g id="node33" class="node">
<title>ConfigService</title>
<ellipse fill="#fdb462" stroke="#000000" cx="2168" cy="-104" rx="66.6325" ry="18"/>
<text text-anchor="middle" x="2168" y="-99.8" font-family="Times,serif" font-size="14.00" fill="#000000">ConfigService</text>
</g>
<!-- ConfigService&#45;&gt;ServicesModule -->
<g id="edge32" class="edge">
<title>ConfigService&#45;&gt;ServicesModule</title>
<path fill="none" stroke="#000000" d="M2210.2334,-118.0575C2210.2334,-122.3691 2210.2334,-126 2210.2334,-126 2210.2334,-126 2554.7797,-126 2554.7797,-126 2554.7797,-126 2554.7797,-151.7181 2554.7797,-151.7181"/>
<polygon fill="#000000" stroke="#000000" points="2551.2798,-151.718 2554.7797,-161.7181 2558.2798,-151.7181 2551.2798,-151.718"/>
</g>
<!-- CuentasService -->
<g id="node34" class="node">
<title>CuentasService</title>
<ellipse fill="#fdb462" stroke="#000000" cx="2012" cy="-104" rx="71.2036" ry="18"/>
<text text-anchor="middle" x="2012" y="-99.8" font-family="Times,serif" font-size="14.00" fill="#000000">CuentasService</text>
</g>
<!-- CuentasService&#45;&gt;ServicesModule -->
<g id="edge33" class="edge">
<title>CuentasService&#45;&gt;ServicesModule</title>
<path fill="none" stroke="#000000" d="M2012,-122.1223C2012,-124.9729 2012,-127 2012,-127 2012,-127 2546.7465,-127 2546.7465,-127 2546.7465,-127 2546.7465,-151.7604 2546.7465,-151.7604"/>
<polygon fill="#000000" stroke="#000000" points="2543.2466,-151.7604 2546.7465,-161.7604 2550.2466,-151.7604 2543.2466,-151.7604"/>
</g>
<!-- GruposService -->
<g id="node35" class="node">
<title>GruposService</title>
<ellipse fill="#fdb462" stroke="#000000" cx="1854" cy="-104" rx="68.3382" ry="18"/>
<text text-anchor="middle" x="1854" y="-99.8" font-family="Times,serif" font-size="14.00" fill="#000000">GruposService</text>
</g>
<!-- GruposService&#45;&gt;ServicesModule -->
<g id="edge34" class="edge">
<title>GruposService&#45;&gt;ServicesModule</title>
<path fill="none" stroke="#000000" d="M1854,-122.1686C1854,-126.0459 1854,-129 1854,-129 1854,-129 2538.7133,-129 2538.7133,-129 2538.7133,-129 2538.7133,-151.8757 2538.7133,-151.8757"/>
<polygon fill="#000000" stroke="#000000" points="2535.2134,-151.8757 2538.7133,-161.8757 2542.2134,-151.8757 2535.2134,-151.8757"/>
</g>
<!-- MenuSidebarService -->
<g id="node36" class="node">
<title>MenuSidebarService</title>
<ellipse fill="#fdb462" stroke="#000000" cx="1676" cy="-104" rx="92.0335" ry="18"/>
<text text-anchor="middle" x="1676" y="-99.8" font-family="Times,serif" font-size="14.00" fill="#000000">MenuSidebarService</text>
</g>
<!-- MenuSidebarService&#45;&gt;ServicesModule -->
<g id="edge35" class="edge">
<title>MenuSidebarService&#45;&gt;ServicesModule</title>
<path fill="none" stroke="#000000" d="M1676,-122.0579C1676,-126.4945 1676,-130 1676,-130 1676,-130 2530.6801,-130 2530.6801,-130 2530.6801,-130 2530.6801,-151.9489 2530.6801,-151.9489"/>
<polygon fill="#000000" stroke="#000000" points="2527.1802,-151.9488 2530.6801,-161.9489 2534.1802,-151.9489 2527.1802,-151.9488"/>
</g>
<!-- SubgruposService -->
<g id="node37" class="node">
<title>SubgruposService</title>
<ellipse fill="#fdb462" stroke="#000000" cx="1485" cy="-104" rx="81.1033" ry="18"/>
<text text-anchor="middle" x="1485" y="-99.8" font-family="Times,serif" font-size="14.00" fill="#000000">SubgruposService</text>
</g>
<!-- SubgruposService&#45;&gt;ServicesModule -->
<g id="edge36" class="edge">
<title>SubgruposService&#45;&gt;ServicesModule</title>
<path fill="none" stroke="#000000" d="M1485,-122.1592C1485,-127.0433 1485,-131 1485,-131 1485,-131 2522.6469,-131 2522.6469,-131 2522.6469,-131 2522.6469,-151.7542 2522.6469,-151.7542"/>
<polygon fill="#000000" stroke="#000000" points="2519.147,-151.7542 2522.6469,-161.7542 2526.147,-151.7542 2519.147,-151.7542"/>
</g>
<!-- TaxesService -->
<g id="node38" class="node">
<title>TaxesService</title>
<ellipse fill="#fdb462" stroke="#000000" cx="1323" cy="-104" rx="63.0977" ry="18"/>
<text text-anchor="middle" x="1323" y="-99.8" font-family="Times,serif" font-size="14.00" fill="#000000">TaxesService</text>
</g>
<!-- TaxesService&#45;&gt;ServicesModule -->
<g id="edge37" class="edge">
<title>TaxesService&#45;&gt;ServicesModule</title>
<path fill="none" stroke="#000000" d="M1323,-122.207C1323,-127.5549 1323,-132 1323,-132 1323,-132 2514.6137,-132 2514.6137,-132 2514.6137,-132 2514.6137,-151.8533 2514.6137,-151.8533"/>
<polygon fill="#000000" stroke="#000000" points="2511.1138,-151.8532 2514.6137,-161.8533 2518.1138,-151.8533 2511.1138,-151.8532"/>
</g>
<!-- UserService -->
<g id="node39" class="node">
<title>UserService</title>
<ellipse fill="#fdb462" stroke="#000000" cx="1184" cy="-104" rx="58.4415" ry="18"/>
<text text-anchor="middle" x="1184" y="-99.8" font-family="Times,serif" font-size="14.00" fill="#000000">UserService</text>
</g>
<!-- UserService&#45;&gt;ServicesModule -->
<g id="edge38" class="edge">
<title>UserService&#45;&gt;ServicesModule</title>
<path fill="none" stroke="#000000" d="M1184,-122.2015C1184,-128.028 1184,-133 1184,-133 1184,-133 2506.5804,-133 2506.5804,-133 2506.5804,-133 2506.5804,-151.963 2506.5804,-151.963"/>
<polygon fill="#000000" stroke="#000000" points="2503.0805,-151.963 2506.5804,-161.963 2510.0805,-151.963 2503.0805,-151.963"/>
</g>
<!-- UsuarioService -->
<g id="node40" class="node">
<title>UsuarioService</title>
<ellipse fill="#fdb462" stroke="#000000" cx="1037" cy="-104" rx="70.622" ry="18"/>
<text text-anchor="middle" x="1037" y="-99.8" font-family="Times,serif" font-size="14.00" fill="#000000">UsuarioService</text>
</g>
<!-- UsuarioService&#45;&gt;ServicesModule -->
<g id="edge39" class="edge">
<title>UsuarioService&#45;&gt;ServicesModule</title>
<path fill="none" stroke="#000000" d="M1037,-122.0328C1037,-128.8526 1037,-135 1037,-135 1037,-135 2498.5472,-135 2498.5472,-135 2498.5472,-135 2498.5472,-151.9561 2498.5472,-151.9561"/>
<polygon fill="#000000" stroke="#000000" points="2495.0473,-151.956 2498.5472,-161.9561 2502.0473,-151.9561 2495.0473,-151.956"/>
</g>
<!-- ColorthemeComponent -->
<g id="node41" class="node">
<title>ColorthemeComponent</title>
<polygon fill="#ffffb3" stroke="#000000" points="925.9312,-122 778.0688,-122 778.0688,-86 925.9312,-86 925.9312,-122"/>
<text text-anchor="middle" x="852" y="-99.8" font-family="Times,serif" font-size="14.00" fill="#000000">ColorthemeComponent</text>
</g>
<!-- ColorthemeComponent&#45;&gt;SharedModule -->
<g id="edge40" class="edge">
<title>ColorthemeComponent&#45;&gt;SharedModule</title>
<path fill="none" stroke="#000000" d="M852,-122.2434C852,-129.4297 852,-136 852,-136 852,-136 2416.548,-136 2416.548,-136 2416.548,-136 2416.548,-151.8495 2416.548,-151.8495"/>
<polygon fill="#000000" stroke="#000000" points="2413.0481,-151.8494 2416.548,-161.8495 2420.0481,-151.8495 2413.0481,-151.8494"/>
</g>
<!-- NavbarComponent -->
<g id="node42" class="node">
<title>NavbarComponent</title>
<polygon fill="#ffffb3" stroke="#000000" points="760.0297,-122 637.9703,-122 637.9703,-86 760.0297,-86 760.0297,-122"/>
<text text-anchor="middle" x="699" y="-99.8" font-family="Times,serif" font-size="14.00" fill="#000000">NavbarComponent</text>
</g>
<!-- NavbarComponent&#45;&gt;SharedModule -->
<g id="edge41" class="edge">
<title>NavbarComponent&#45;&gt;SharedModule</title>
<path fill="none" stroke="#000000" d="M699,-122.0449C699,-129.749 699,-137 699,-137 699,-137 2409.4215,-137 2409.4215,-137 2409.4215,-137 2409.4215,-151.5146 2409.4215,-151.5146"/>
<polygon fill="#000000" stroke="#000000" points="2405.9216,-151.5145 2409.4215,-161.5146 2412.9216,-151.5146 2405.9216,-151.5145"/>
</g>
<!-- SidebarComponent -->
<g id="node43" class="node">
<title>SidebarComponent</title>
<polygon fill="#ffffb3" stroke="#000000" points="620.0954,-122 495.9046,-122 495.9046,-86 620.0954,-86 620.0954,-122"/>
<text text-anchor="middle" x="558" y="-99.8" font-family="Times,serif" font-size="14.00" fill="#000000">SidebarComponent</text>
</g>
<!-- SidebarComponent&#45;&gt;SharedModule -->
<g id="edge42" class="edge">
<title>SidebarComponent&#45;&gt;SharedModule</title>
<path fill="none" stroke="#000000" d="M558,-122.1944C558,-130.2782 558,-138 558,-138 558,-138 2402.2949,-138 2402.2949,-138 2402.2949,-138 2402.2949,-151.9445 2402.2949,-151.9445"/>
<polygon fill="#000000" stroke="#000000" points="2398.795,-151.9444 2402.2949,-161.9445 2405.795,-151.9445 2398.795,-151.9444"/>
</g>
<!-- SidebarfooterComponent -->
<g id="node44" class="node">
<title>SidebarfooterComponent</title>
<polygon fill="#ffffb3" stroke="#000000" points="477.5225,-122 320.4775,-122 320.4775,-86 477.5225,-86 477.5225,-122"/>
<text text-anchor="middle" x="399" y="-99.8" font-family="Times,serif" font-size="14.00" fill="#000000">SidebarfooterComponent</text>
</g>
<!-- SidebarfooterComponent&#45;&gt;SharedModule -->
<g id="edge43" class="edge">
<title>SidebarfooterComponent&#45;&gt;SharedModule</title>
<path fill="none" stroke="#000000" d="M399,-122.32C399,-130.7883 399,-139 399,-139 399,-139 2395.1684,-139 2395.1684,-139 2395.1684,-139 2395.1684,-151.8975 2395.1684,-151.8975"/>
<polygon fill="#000000" stroke="#000000" points="2391.6685,-151.8974 2395.1684,-161.8975 2398.6685,-151.8975 2391.6685,-151.8974"/>
</g>
</g>
</svg>
