<?xml version="1.0" encoding="UTF-8" standalone="no"?>
<!DOCTYPE svg PUBLIC "-//W3C//DTD SVG 1.1//EN"
 "http://www.w3.org/Graphics/SVG/1.1/DTD/svg11.dtd">
<!-- Generated by graphviz version 2.40.1 (20161225.0304)
 -->
<!-- Title: dependencies Pages: 1 -->
<svg width="6057pt" height="434pt"
 viewBox="0.00 0.00 6057.00 434.00" xmlns="http://www.w3.org/2000/svg" xmlns:xlink="http://www.w3.org/1999/xlink">
<g id="graph0" class="graph" transform="scale(1 1) rotate(0) translate(4 430)">
<title>dependencies</title>
<polygon fill="#ffffff" stroke="transparent" points="-4,4 -4,-430 6053,-430 6053,4 -4,4"/>
<text text-anchor="start" x="3003.5091" y="-42.4" font-family="sans-serif" font-weight="bold" font-size="14.00" fill="#000000">Legend</text>
<polygon fill="#ffffb3" stroke="transparent" points="2790.5,-10 2790.5,-30 2810.5,-30 2810.5,-10 2790.5,-10"/>
<text text-anchor="start" x="2814.129" y="-15.4" font-family="sans-serif" font-size="14.00" fill="#000000"> &#160;Declarations</text>
<polygon fill="#8dd3c7" stroke="transparent" points="2903.5,-10 2903.5,-30 2923.5,-30 2923.5,-10 2903.5,-10"/>
<text text-anchor="start" x="2927.2251" y="-15.4" font-family="sans-serif" font-size="14.00" fill="#000000"> &#160;Module</text>
<polygon fill="#80b1d3" stroke="transparent" points="2989.5,-10 2989.5,-30 3009.5,-30 3009.5,-10 2989.5,-10"/>
<text text-anchor="start" x="3013.2812" y="-15.4" font-family="sans-serif" font-size="14.00" fill="#000000"> &#160;Bootstrap</text>
<polygon fill="#fdb462" stroke="transparent" points="3086.5,-10 3086.5,-30 3106.5,-30 3106.5,-10 3086.5,-10"/>
<text text-anchor="start" x="3110.1732" y="-15.4" font-family="sans-serif" font-size="14.00" fill="#000000"> &#160;Providers</text>
<polygon fill="#fb8072" stroke="transparent" points="3182.5,-10 3182.5,-30 3202.5,-30 3202.5,-10 3182.5,-10"/>
<text text-anchor="start" x="3206.2258" y="-15.4" font-family="sans-serif" font-size="14.00" fill="#000000"> &#160;Exports</text>
<g id="clust1" class="cluster">
<title>cluster_AppModule</title>
<polygon fill="none" stroke="#000000" stroke-dasharray="1,5" points="2488,-214 2488,-418 3435,-418 3435,-214 2488,-214"/>
</g>
<g id="clust2" class="cluster">
<title>cluster_AppModule_declarations</title>
<polygon fill="none" stroke="#000000" points="3041,-222 3041,-274 3427,-274 3427,-222 3041,-222"/>
</g>
<g id="clust6" class="cluster">
<title>cluster_AppModule_imports</title>
<polygon fill="none" stroke="#000000" points="2684,-222 2684,-274 3033,-274 3033,-222 2684,-222"/>
</g>
<g id="clust8" class="cluster">
<title>cluster_AppModule_bootstrap</title>
<polygon fill="none" stroke="#000000" points="2917,-358 2917,-410 3041,-410 3041,-358 2917,-358"/>
</g>
<g id="clust9" class="cluster">
<title>cluster_AppModule_providers</title>
<polygon fill="none" stroke="#000000" points="2496,-222 2496,-274 2676,-274 2676,-222 2496,-222"/>
</g>
<g id="clust10" class="cluster">
<title>cluster_ConfigModule</title>
<polygon fill="none" stroke="#000000" stroke-dasharray="1,5" points="5879,-70 5879,-282 6041,-282 6041,-70 5879,-70"/>
</g>
<g id="clust11" class="cluster">
<title>cluster_ConfigModule_declarations</title>
<polygon fill="none" stroke="#000000" points="5888,-78 5888,-130 6030,-130 6030,-78 5888,-78"/>
</g>
<g id="clust14" class="cluster">
<title>cluster_ConfigModule_exports</title>
<polygon fill="none" stroke="#000000" points="5887,-222 5887,-274 6033,-274 6033,-222 5887,-222"/>
</g>
<g id="clust17" class="cluster">
<title>cluster_PagesModule</title>
<polygon fill="none" stroke="#000000" stroke-dasharray="1,5" points="2586,-138 2586,-206 5627,-206 5627,-138 2586,-138"/>
</g>
<g id="clust18" class="cluster">
<title>cluster_PagesModule_declarations</title>
<polygon fill="none" stroke="#000000" points="2594,-146 2594,-198 5619,-198 5619,-146 2594,-146"/>
</g>
<g id="clust44" class="cluster">
<title>cluster_PipesModule</title>
<polygon fill="none" stroke="#000000" stroke-dasharray="1,5" points="5635,-138 5635,-350 5871,-350 5871,-138 5635,-138"/>
</g>
<g id="clust45" class="cluster">
<title>cluster_PipesModule_declarations</title>
<polygon fill="none" stroke="#000000" points="5654,-146 5654,-198 5750,-198 5750,-146 5654,-146"/>
</g>
<g id="clust49" class="cluster">
<title>cluster_PipesModule_exports</title>
<polygon fill="none" stroke="#000000" points="5643,-290 5643,-342 5863,-342 5863,-290 5643,-290"/>
</g>
<g id="clust52" class="cluster">
<title>cluster_ServicesModule</title>
<polygon fill="none" stroke="#000000" stroke-dasharray="1,5" points="8,-138 8,-206 1637,-206 1637,-138 8,-138"/>
</g>
<g id="clust57" class="cluster">
<title>cluster_ServicesModule_providers</title>
<polygon fill="none" stroke="#000000" points="16,-146 16,-198 1629,-198 1629,-146 16,-146"/>
</g>
<g id="clust58" class="cluster">
<title>cluster_SharedModule</title>
<polygon fill="none" stroke="#000000" stroke-dasharray="1,5" points="1645,-138 1645,-206 2578,-206 2578,-138 1645,-138"/>
</g>
<g id="clust59" class="cluster">
<title>cluster_SharedModule_declarations</title>
<polygon fill="none" stroke="#000000" points="1949,-146 1949,-198 2570,-198 2570,-146 1949,-146"/>
</g>
<g id="clust65" class="cluster">
<title>cluster_SharedModule_exports</title>
<polygon fill="none" stroke="#000000" points="1653,-146 1653,-198 1941,-198 1941,-146 1653,-146"/>
</g>
<!-- AppComponent -->
<g id="node1" class="node">
<title>AppComponent</title>
<polygon fill="#ffffb3" stroke="#000000" points="3418.9399,-266 3313.0601,-266 3313.0601,-230 3418.9399,-230 3418.9399,-266"/>
<text text-anchor="middle" x="3366" y="-243.8" font-family="Times,serif" font-size="14.00" fill="#000000">AppComponent</text>
</g>
<!-- AppModule -->
<g id="node4" class="node">
<title>AppModule</title>
<polygon fill="#8dd3c7" stroke="#000000" points="3020.6571,-334 3017.6571,-338 2996.6571,-338 2993.6571,-334 2937.3429,-334 2937.3429,-298 3020.6571,-298 3020.6571,-334"/>
<text text-anchor="middle" x="2979" y="-311.8" font-family="Times,serif" font-size="14.00" fill="#000000">AppModule</text>
</g>
<!-- AppComponent&#45;&gt;AppModule -->
<g id="edge1" class="edge">
<title>AppComponent&#45;&gt;AppModule</title>
<path fill="none" stroke="#000000" d="M3366,-266.2479C3366,-289.0179 3366,-325 3366,-325 3366,-325 3030.7835,-325 3030.7835,-325"/>
<polygon fill="#000000" stroke="#000000" points="3030.7835,-321.5001 3020.7835,-325 3030.7834,-328.5001 3030.7835,-321.5001"/>
</g>
<!-- LoginComponent -->
<g id="node2" class="node">
<title>LoginComponent</title>
<polygon fill="#ffffb3" stroke="#000000" points="3295.2758,-266 3180.7242,-266 3180.7242,-230 3295.2758,-230 3295.2758,-266"/>
<text text-anchor="middle" x="3238" y="-243.8" font-family="Times,serif" font-size="14.00" fill="#000000">LoginComponent</text>
</g>
<!-- LoginComponent&#45;&gt;AppModule -->
<g id="edge2" class="edge">
<title>LoginComponent&#45;&gt;AppModule</title>
<path fill="none" stroke="#000000" d="M3238,-266.2228C3238,-286.3652 3238,-316 3238,-316 3238,-316 3030.9007,-316 3030.9007,-316"/>
<polygon fill="#000000" stroke="#000000" points="3030.9007,-312.5001 3020.9007,-316 3030.9006,-319.5001 3030.9007,-312.5001"/>
</g>
<!-- PagesComponent -->
<g id="node3" class="node">
<title>PagesComponent</title>
<polygon fill="#ffffb3" stroke="#000000" points="3162.9888,-266 3049.0112,-266 3049.0112,-230 3162.9888,-230 3162.9888,-266"/>
<text text-anchor="middle" x="3106" y="-243.8" font-family="Times,serif" font-size="14.00" fill="#000000">PagesComponent</text>
</g>
<!-- PagesComponent&#45;&gt;AppModule -->
<g id="edge3" class="edge">
<title>PagesComponent&#45;&gt;AppModule</title>
<path fill="none" stroke="#000000" d="M3106,-266.0225C3106,-283.3734 3106,-307 3106,-307 3106,-307 3030.9365,-307 3030.9365,-307"/>
<polygon fill="#000000" stroke="#000000" points="3030.9366,-303.5001 3020.9365,-307 3030.9365,-310.5001 3030.9366,-303.5001"/>
</g>
<!-- AppComponent  -->
<g id="node8" class="node">
<title>AppComponent </title>
<polygon fill="#80b1d3" stroke="#000000" points="3033.439,-402 2924.561,-402 2924.561,-366 3033.439,-366 3033.439,-402"/>
<text text-anchor="middle" x="2979" y="-379.8" font-family="Times,serif" font-size="14.00" fill="#000000">AppComponent </text>
</g>
<!-- AppModule&#45;&gt;AppComponent  -->
<g id="edge7" class="edge">
<title>AppModule&#45;&gt;AppComponent </title>
<path fill="none" stroke="#000000" stroke-dasharray="1,5" d="M2979,-334.2228C2979,-334.2228 2979,-355.7269 2979,-355.7269"/>
<polygon fill="#000000" stroke="#000000" points="2975.5001,-355.7269 2979,-365.7269 2982.5001,-355.727 2975.5001,-355.7269"/>
</g>
<!-- PagesModule -->
<g id="node5" class="node">
<title>PagesModule</title>
<polygon fill="#8dd3c7" stroke="#000000" points="3025.2064,-266 3022.2064,-270 3001.2064,-270 2998.2064,-266 2932.7936,-266 2932.7936,-230 3025.2064,-230 3025.2064,-266"/>
<text text-anchor="middle" x="2979" y="-243.8" font-family="Times,serif" font-size="14.00" fill="#000000">PagesModule</text>
</g>
<!-- PagesModule&#45;&gt;AppModule -->
<g id="edge4" class="edge">
<title>PagesModule&#45;&gt;AppModule</title>
<path fill="none" stroke="#000000" d="M2979,-266.2228C2979,-266.2228 2979,-287.7269 2979,-287.7269"/>
<polygon fill="#000000" stroke="#000000" points="2975.5001,-287.7269 2979,-297.7269 2982.5001,-287.727 2975.5001,-287.7269"/>
</g>
<!-- ServicesModule -->
<g id="node6" class="node">
<title>ServicesModule</title>
<polygon fill="#8dd3c7" stroke="#000000" points="2798.472,-266 2795.472,-270 2774.472,-270 2771.472,-266 2691.528,-266 2691.528,-230 2798.472,-230 2798.472,-266"/>
<text text-anchor="middle" x="2745" y="-243.8" font-family="Times,serif" font-size="14.00" fill="#000000">ServicesModule</text>
</g>
<!-- ServicesModule&#45;&gt;AppModule -->
<g id="edge5" class="edge">
<title>ServicesModule&#45;&gt;AppModule</title>
<path fill="none" stroke="#000000" d="M2745,-266.2228C2745,-286.3652 2745,-316 2745,-316 2745,-316 2927.1655,-316 2927.1655,-316"/>
<polygon fill="#000000" stroke="#000000" points="2927.1655,-319.5001 2937.1655,-316 2927.1655,-312.5001 2927.1655,-319.5001"/>
</g>
<!-- SharedModule -->
<g id="node7" class="node">
<title>SharedModule</title>
<polygon fill="#8dd3c7" stroke="#000000" points="2915.4231,-266 2912.4231,-270 2891.4231,-270 2888.4231,-266 2816.5769,-266 2816.5769,-230 2915.4231,-230 2915.4231,-266"/>
<text text-anchor="middle" x="2866" y="-243.8" font-family="Times,serif" font-size="14.00" fill="#000000">SharedModule</text>
</g>
<!-- SharedModule&#45;&gt;AppModule -->
<g id="edge6" class="edge">
<title>SharedModule&#45;&gt;AppModule</title>
<path fill="none" stroke="#000000" d="M2866,-266.0225C2866,-283.3734 2866,-307 2866,-307 2866,-307 2927.244,-307 2927.244,-307"/>
<polygon fill="#000000" stroke="#000000" points="2927.2441,-310.5001 2937.244,-307 2927.244,-303.5001 2927.2441,-310.5001"/>
</g>
<!-- NavbarComponent  -->
<g id="node52" class="node">
<title>NavbarComponent </title>
<polygon fill="#fb8072" stroke="#000000" points="1933.0288,-190 1806.9712,-190 1806.9712,-154 1933.0288,-154 1933.0288,-190"/>
<text text-anchor="middle" x="1870" y="-167.8" font-family="Times,serif" font-size="14.00" fill="#000000">NavbarComponent </text>
</g>
<!-- SharedModule&#45;&gt;NavbarComponent  -->
<g id="edge51" class="edge">
<title>SharedModule&#45;&gt;NavbarComponent </title>
<path fill="none" stroke="#000000" stroke-dasharray="5,2" d="M2821.2421,-229.8568C2821.2421,-223.5389 2821.2421,-218 2821.2421,-218 2821.2421,-218 1870,-218 1870,-218 1870,-218 1870,-200.1804 1870,-200.1804"/>
<polygon fill="#000000" stroke="#000000" points="1873.5001,-200.1804 1870,-190.1804 1866.5001,-200.1805 1873.5001,-200.1804"/>
</g>
<!-- SidebarComponent  -->
<g id="node53" class="node">
<title>SidebarComponent </title>
<polygon fill="#fb8072" stroke="#000000" points="1788.596,-190 1661.404,-190 1661.404,-154 1788.596,-154 1788.596,-190"/>
<text text-anchor="middle" x="1725" y="-167.8" font-family="Times,serif" font-size="14.00" fill="#000000">SidebarComponent </text>
</g>
<!-- SharedModule&#45;&gt;SidebarComponent  -->
<g id="edge52" class="edge">
<title>SharedModule&#45;&gt;SidebarComponent </title>
<path fill="none" stroke="#000000" stroke-dasharray="5,2" d="M2819.0155,-229.7985C2819.0155,-223.972 2819.0155,-219 2819.0155,-219 2819.0155,-219 1725,-219 1725,-219 1725,-219 1725,-200.037 1725,-200.037"/>
<polygon fill="#000000" stroke="#000000" points="1728.5001,-200.037 1725,-190.037 1721.5001,-200.037 1728.5001,-200.037"/>
</g>
<!-- InterceptorService -->
<g id="node9" class="node">
<title>InterceptorService</title>
<ellipse fill="#fdb462" stroke="#000000" cx="2586" cy="-248" rx="82.1986" ry="18"/>
<text text-anchor="middle" x="2586" y="-243.8" font-family="Times,serif" font-size="14.00" fill="#000000">InterceptorService</text>
</g>
<!-- InterceptorService&#45;&gt;AppModule -->
<g id="edge8" class="edge">
<title>InterceptorService&#45;&gt;AppModule</title>
<path fill="none" stroke="#000000" d="M2586,-266.2479C2586,-289.0179 2586,-325 2586,-325 2586,-325 2927.3142,-325 2927.3142,-325"/>
<polygon fill="#000000" stroke="#000000" points="2927.3142,-328.5001 2937.3142,-325 2927.3141,-321.5001 2927.3142,-328.5001"/>
</g>
<!-- GeneralComponent -->
<g id="node10" class="node">
<title>GeneralComponent</title>
<polygon fill="#ffffb3" stroke="#000000" points="6021.6345,-122 5896.3655,-122 5896.3655,-86 6021.6345,-86 6021.6345,-122"/>
<text text-anchor="middle" x="5959" y="-99.8" font-family="Times,serif" font-size="14.00" fill="#000000">GeneralComponent</text>
</g>
<!-- ConfigModule -->
<g id="node11" class="node">
<title>ConfigModule</title>
<polygon fill="#8dd3c7" stroke="#000000" points="6008.4386,-190 6005.4386,-194 5984.4386,-194 5981.4386,-190 5909.5614,-190 5909.5614,-154 6008.4386,-154 6008.4386,-190"/>
<text text-anchor="middle" x="5959" y="-167.8" font-family="Times,serif" font-size="14.00" fill="#000000">ConfigModule</text>
</g>
<!-- GeneralComponent&#45;&gt;ConfigModule -->
<g id="edge9" class="edge">
<title>GeneralComponent&#45;&gt;ConfigModule</title>
<path fill="none" stroke="#000000" d="M5959,-122.2228C5959,-122.2228 5959,-143.7269 5959,-143.7269"/>
<polygon fill="#000000" stroke="#000000" points="5955.5001,-143.7269 5959,-153.7269 5962.5001,-143.727 5955.5001,-143.7269"/>
</g>
<!-- ConfigModule&#45;&gt;PagesModule -->
<g id="edge32" class="edge">
<title>ConfigModule&#45;&gt;PagesModule</title>
<path fill="none" stroke="#000000" d="M5942.5937,-190.1097C5942.5937,-199.897 5942.5937,-210 5942.5937,-210 5942.5937,-210 3022.7236,-210 3022.7236,-210 3022.7236,-210 3022.7236,-219.8903 3022.7236,-219.8903"/>
<polygon fill="#000000" stroke="#000000" points="3019.2237,-219.8903 3022.7236,-229.8903 3026.2237,-219.8904 3019.2237,-219.8903"/>
</g>
<!-- GeneralComponent  -->
<g id="node12" class="node">
<title>GeneralComponent </title>
<polygon fill="#fb8072" stroke="#000000" points="6024.6341,-266 5895.3659,-266 5895.3659,-230 6024.6341,-230 6024.6341,-266"/>
<text text-anchor="middle" x="5960" y="-243.8" font-family="Times,serif" font-size="14.00" fill="#000000">GeneralComponent </text>
</g>
<!-- ConfigModule&#45;&gt;GeneralComponent  -->
<g id="edge10" class="edge">
<title>ConfigModule&#45;&gt;GeneralComponent </title>
<path fill="none" stroke="#000000" stroke-dasharray="5,2" d="M5975.4063,-190.0109C5975.4063,-190.0109 5975.4063,-219.855 5975.4063,-219.855"/>
<polygon fill="#000000" stroke="#000000" points="5971.9064,-219.8549 5975.4063,-229.855 5978.9064,-219.855 5971.9064,-219.8549"/>
</g>
<!-- ConfigComponent -->
<g id="node13" class="node">
<title>ConfigComponent</title>
<polygon fill="#ffffb3" stroke="#000000" points="5495.2204,-190 5374.7796,-190 5374.7796,-154 5495.2204,-154 5495.2204,-190"/>
<text text-anchor="middle" x="5435" y="-167.8" font-family="Times,serif" font-size="14.00" fill="#000000">ConfigComponent</text>
</g>
<!-- ConfigComponent&#45;&gt;PagesModule -->
<g id="edge11" class="edge">
<title>ConfigComponent&#45;&gt;PagesModule</title>
<path fill="none" stroke="#000000" d="M5435,-190.4218C5435,-199.2791 5435,-208 5435,-208 5435,-208 3017.9647,-208 3017.9647,-208 3017.9647,-208 3017.9647,-219.8726 3017.9647,-219.8726"/>
<polygon fill="#000000" stroke="#000000" points="3014.4648,-219.8725 3017.9647,-229.8726 3021.4648,-219.8726 3014.4648,-219.8725"/>
</g>
<!-- ContabilidadComponent -->
<g id="node14" class="node">
<title>ContabilidadComponent</title>
<polygon fill="#ffffb3" stroke="#000000" points="5356.661,-190 5203.339,-190 5203.339,-154 5356.661,-154 5356.661,-190"/>
<text text-anchor="middle" x="5280" y="-167.8" font-family="Times,serif" font-size="14.00" fill="#000000">ContabilidadComponent</text>
</g>
<!-- ContabilidadComponent&#45;&gt;PagesModule -->
<g id="edge12" class="edge">
<title>ContabilidadComponent&#45;&gt;PagesModule</title>
<path fill="none" stroke="#000000" d="M5280,-190.32C5280,-198.7883 5280,-207 5280,-207 5280,-207 3015.5853,-207 3015.5853,-207 3015.5853,-207 3015.5853,-219.8975 3015.5853,-219.8975"/>
<polygon fill="#000000" stroke="#000000" points="3012.0854,-219.8974 3015.5853,-229.8975 3019.0854,-219.8975 3012.0854,-219.8974"/>
</g>
<!-- CuentaComponent -->
<g id="node15" class="node">
<title>CuentaComponent</title>
<polygon fill="#ffffb3" stroke="#000000" points="5185.4888,-190 5064.5112,-190 5064.5112,-154 5185.4888,-154 5185.4888,-190"/>
<text text-anchor="middle" x="5125" y="-167.8" font-family="Times,serif" font-size="14.00" fill="#000000">CuentaComponent</text>
</g>
<!-- CuentaComponent&#45;&gt;PagesModule -->
<g id="edge13" class="edge">
<title>CuentaComponent&#45;&gt;PagesModule</title>
<path fill="none" stroke="#000000" d="M5125,-190.1944C5125,-198.2782 5125,-206 5125,-206 5125,-206 3013.2058,-206 3013.2058,-206 3013.2058,-206 3013.2058,-219.9445 3013.2058,-219.9445"/>
<polygon fill="#000000" stroke="#000000" points="3009.7059,-219.9444 3013.2058,-229.9445 3016.7059,-219.9445 3009.7059,-219.9444"/>
</g>
<!-- CuentasComponent -->
<g id="node16" class="node">
<title>CuentasComponent</title>
<polygon fill="#ffffb3" stroke="#000000" points="5046.4341,-190 4919.5659,-190 4919.5659,-154 5046.4341,-154 5046.4341,-190"/>
<text text-anchor="middle" x="4983" y="-167.8" font-family="Times,serif" font-size="14.00" fill="#000000">CuentasComponent</text>
</g>
<!-- CuentasComponent&#45;&gt;PagesModule -->
<g id="edge14" class="edge">
<title>CuentasComponent&#45;&gt;PagesModule</title>
<path fill="none" stroke="#000000" d="M4983,-190.0449C4983,-197.749 4983,-205 4983,-205 4983,-205 3010.8264,-205 3010.8264,-205 3010.8264,-205 3010.8264,-219.5146 3010.8264,-219.5146"/>
<polygon fill="#000000" stroke="#000000" points="3007.3265,-219.5145 3010.8264,-229.5146 3014.3265,-219.5146 3007.3265,-219.5145"/>
</g>
<!-- DashboardComponent -->
<g id="node17" class="node">
<title>DashboardComponent</title>
<polygon fill="#ffffb3" stroke="#000000" points="4901.9734,-190 4760.0266,-190 4760.0266,-154 4901.9734,-154 4901.9734,-190"/>
<text text-anchor="middle" x="4831" y="-167.8" font-family="Times,serif" font-size="14.00" fill="#000000">DashboardComponent</text>
</g>
<!-- DashboardComponent&#45;&gt;PagesModule -->
<g id="edge15" class="edge">
<title>DashboardComponent&#45;&gt;PagesModule</title>
<path fill="none" stroke="#000000" d="M4831,-190.0328C4831,-196.8526 4831,-203 4831,-203 4831,-203 3008.4469,-203 3008.4469,-203 3008.4469,-203 3008.4469,-219.9561 3008.4469,-219.9561"/>
<polygon fill="#000000" stroke="#000000" points="3004.947,-219.956 3008.4469,-229.9561 3011.947,-219.9561 3004.947,-219.956"/>
</g>
<!-- GrupoComponent -->
<g id="node18" class="node">
<title>GrupoComponent</title>
<polygon fill="#ffffb3" stroke="#000000" points="4741.5996,-190 4624.4004,-190 4624.4004,-154 4741.5996,-154 4741.5996,-190"/>
<text text-anchor="middle" x="4683" y="-167.8" font-family="Times,serif" font-size="14.00" fill="#000000">GrupoComponent</text>
</g>
<!-- GrupoComponent&#45;&gt;PagesModule -->
<g id="edge16" class="edge">
<title>GrupoComponent&#45;&gt;PagesModule</title>
<path fill="none" stroke="#000000" d="M4683,-190.1432C4683,-196.4611 4683,-202 4683,-202 4683,-202 3006.0675,-202 3006.0675,-202 3006.0675,-202 3006.0675,-219.8196 3006.0675,-219.8196"/>
<polygon fill="#000000" stroke="#000000" points="3002.5676,-219.8195 3006.0675,-229.8196 3009.5676,-219.8196 3002.5676,-219.8195"/>
</g>
<!-- GruposComponent -->
<g id="node19" class="node">
<title>GruposComponent</title>
<polygon fill="#ffffb3" stroke="#000000" points="4606.045,-190 4483.955,-190 4483.955,-154 4606.045,-154 4606.045,-190"/>
<text text-anchor="middle" x="4545" y="-167.8" font-family="Times,serif" font-size="14.00" fill="#000000">GruposComponent</text>
</g>
<!-- GruposComponent&#45;&gt;PagesModule -->
<g id="edge17" class="edge">
<title>GruposComponent&#45;&gt;PagesModule</title>
<path fill="none" stroke="#000000" d="M4545,-190.2015C4545,-196.028 4545,-201 4545,-201 4545,-201 3003.688,-201 3003.688,-201 3003.688,-201 3003.688,-219.963 3003.688,-219.963"/>
<polygon fill="#000000" stroke="#000000" points="3000.1881,-219.963 3003.688,-229.963 3007.1881,-219.963 3000.1881,-219.963"/>
</g>
<!-- LoadTableComponent -->
<g id="node20" class="node">
<title>LoadTableComponent</title>
<polygon fill="#ffffb3" stroke="#000000" points="4465.972,-190 4324.028,-190 4324.028,-154 4465.972,-154 4465.972,-190"/>
<text text-anchor="middle" x="4395" y="-167.8" font-family="Times,serif" font-size="14.00" fill="#000000">LoadTableComponent</text>
</g>
<!-- LoadTableComponent&#45;&gt;PagesModule -->
<g id="edge18" class="edge">
<title>LoadTableComponent&#45;&gt;PagesModule</title>
<path fill="none" stroke="#000000" d="M4395,-190.207C4395,-195.5549 4395,-200 4395,-200 4395,-200 3001.3085,-200 3001.3085,-200 3001.3085,-200 3001.3085,-219.8533 3001.3085,-219.8533"/>
<polygon fill="#000000" stroke="#000000" points="2997.8086,-219.8532 3001.3085,-229.8533 3004.8086,-219.8533 2997.8086,-219.8532"/>
</g>
<!-- NotfoundComponent -->
<g id="node21" class="node">
<title>NotfoundComponent</title>
<polygon fill="#ffffb3" stroke="#000000" points="4306.4902,-190 4171.5098,-190 4171.5098,-154 4306.4902,-154 4306.4902,-190"/>
<text text-anchor="middle" x="4239" y="-167.8" font-family="Times,serif" font-size="14.00" fill="#000000">NotfoundComponent</text>
</g>
<!-- NotfoundComponent&#45;&gt;PagesModule -->
<g id="edge19" class="edge">
<title>NotfoundComponent&#45;&gt;PagesModule</title>
<path fill="none" stroke="#000000" d="M4239,-190.1592C4239,-195.0433 4239,-199 4239,-199 4239,-199 2998.9291,-199 2998.9291,-199 2998.9291,-199 2998.9291,-219.7542 2998.9291,-219.7542"/>
<polygon fill="#000000" stroke="#000000" points="2995.4292,-219.7542 2998.9291,-229.7542 3002.4292,-219.7542 2995.4292,-219.7542"/>
</g>
<!-- RoundceilPipe -->
<g id="node22" class="node">
<title>RoundceilPipe</title>
<polygon fill="#ffffb3" stroke="#000000" points="5611.4358,-190 5512.5642,-190 5512.5642,-154 5611.4358,-154 5611.4358,-190"/>
<text text-anchor="middle" x="5562" y="-167.8" font-family="Times,serif" font-size="14.00" fill="#000000">RoundceilPipe</text>
</g>
<!-- RoundceilPipe&#45;&gt;PagesModule -->
<g id="edge20" class="edge">
<title>RoundceilPipe&#45;&gt;PagesModule</title>
<path fill="none" stroke="#000000" d="M5545.5942,-190.0664C5545.5942,-199.4587 5545.5942,-209 5545.5942,-209 5545.5942,-209 3020.3442,-209 3020.3442,-209 3020.3442,-209 3020.3442,-219.8701 3020.3442,-219.8701"/>
<polygon fill="#000000" stroke="#000000" points="3016.8443,-219.8701 3020.3442,-229.8701 3023.8443,-219.8701 3016.8443,-219.8701"/>
</g>
<!-- PipesModule -->
<g id="node35" class="node">
<title>PipesModule</title>
<polygon fill="#8dd3c7" stroke="#000000" points="5746.8823,-266 5743.8823,-270 5722.8823,-270 5719.8823,-266 5657.1177,-266 5657.1177,-230 5746.8823,-230 5746.8823,-266"/>
<text text-anchor="middle" x="5702" y="-243.8" font-family="Times,serif" font-size="14.00" fill="#000000">PipesModule</text>
</g>
<!-- RoundceilPipe&#45;&gt;PipesModule -->
<g id="edge34" class="edge">
<title>RoundceilPipe&#45;&gt;PipesModule</title>
<path fill="none" stroke="#000000" d="M5578.4058,-190.0109C5578.4058,-212.4852 5578.4058,-248 5578.4058,-248 5578.4058,-248 5647.03,-248 5647.03,-248"/>
<polygon fill="#000000" stroke="#000000" points="5647.0301,-251.5001 5657.03,-248 5647.03,-244.5001 5647.0301,-251.5001"/>
</g>
<!-- SubcuentaComponent -->
<g id="node23" class="node">
<title>SubcuentaComponent</title>
<polygon fill="#ffffb3" stroke="#000000" points="4028.6498,-190 3889.3502,-190 3889.3502,-154 4028.6498,-154 4028.6498,-190"/>
<text text-anchor="middle" x="3959" y="-167.8" font-family="Times,serif" font-size="14.00" fill="#000000">SubcuentaComponent</text>
</g>
<!-- SubcuentaComponent&#45;&gt;PagesModule -->
<g id="edge21" class="edge">
<title>SubcuentaComponent&#45;&gt;PagesModule</title>
<path fill="none" stroke="#000000" d="M3959,-190.1686C3959,-194.0459 3959,-197 3959,-197 3959,-197 2994.1702,-197 2994.1702,-197 2994.1702,-197 2994.1702,-219.8757 2994.1702,-219.8757"/>
<polygon fill="#000000" stroke="#000000" points="2990.6703,-219.8757 2994.1702,-229.8757 2997.6703,-219.8757 2990.6703,-219.8757"/>
</g>
<!-- SubcuentasComponent -->
<g id="node24" class="node">
<title>SubcuentasComponent</title>
<polygon fill="#ffffb3" stroke="#000000" points="3871.594,-190 3726.406,-190 3726.406,-154 3871.594,-154 3871.594,-190"/>
<text text-anchor="middle" x="3799" y="-167.8" font-family="Times,serif" font-size="14.00" fill="#000000">SubcuentasComponent</text>
</g>
<!-- SubcuentasComponent&#45;&gt;PagesModule -->
<g id="edge22" class="edge">
<title>SubcuentasComponent&#45;&gt;PagesModule</title>
<path fill="none" stroke="#000000" d="M3799,-190.1903C3799,-193.5376 3799,-196 3799,-196 3799,-196 2991.7907,-196 2991.7907,-196 2991.7907,-196 2991.7907,-219.8129 2991.7907,-219.8129"/>
<polygon fill="#000000" stroke="#000000" points="2988.2908,-219.8129 2991.7907,-229.8129 2995.2908,-219.813 2988.2908,-219.8129"/>
</g>
<!-- SubgrupoComponent -->
<g id="node25" class="node">
<title>SubgrupoComponent</title>
<polygon fill="#ffffb3" stroke="#000000" points="3708.7758,-190 3573.2242,-190 3573.2242,-154 3708.7758,-154 3708.7758,-190"/>
<text text-anchor="middle" x="3641" y="-167.8" font-family="Times,serif" font-size="14.00" fill="#000000">SubgrupoComponent</text>
</g>
<!-- SubgrupoComponent&#45;&gt;PagesModule -->
<g id="edge23" class="edge">
<title>SubgrupoComponent&#45;&gt;PagesModule</title>
<path fill="none" stroke="#000000" d="M3641,-190.1223C3641,-192.9729 3641,-195 3641,-195 3641,-195 2989.4113,-195 2989.4113,-195 2989.4113,-195 2989.4113,-219.7604 2989.4113,-219.7604"/>
<polygon fill="#000000" stroke="#000000" points="2985.9114,-219.7604 2989.4113,-229.7604 2992.9114,-219.7604 2985.9114,-219.7604"/>
</g>
<!-- SubgruposComponent -->
<g id="node26" class="node">
<title>SubgruposComponent</title>
<polygon fill="#ffffb3" stroke="#000000" points="3555.7204,-190 3414.2796,-190 3414.2796,-154 3555.7204,-154 3555.7204,-190"/>
<text text-anchor="middle" x="3485" y="-167.8" font-family="Times,serif" font-size="14.00" fill="#000000">SubgruposComponent</text>
</g>
<!-- SubgruposComponent&#45;&gt;PagesModule -->
<g id="edge24" class="edge">
<title>SubgruposComponent&#45;&gt;PagesModule</title>
<path fill="none" stroke="#000000" d="M3487.1648,-190.1679C3487.1648,-192.4478 3487.1648,-194 3487.1648,-194 3487.1648,-194 2987.0318,-194 2987.0318,-194 2987.0318,-194 2987.0318,-219.7181 2987.0318,-219.7181"/>
<polygon fill="#000000" stroke="#000000" points="2983.5319,-219.718 2987.0318,-229.7181 2990.5319,-219.7181 2983.5319,-219.718"/>
</g>
<!-- TaxComponent -->
<g id="node27" class="node">
<title>TaxComponent</title>
<polygon fill="#ffffb3" stroke="#000000" points="3396.5996,-190 3293.4004,-190 3293.4004,-154 3396.5996,-154 3396.5996,-190"/>
<text text-anchor="middle" x="3345" y="-167.8" font-family="Times,serif" font-size="14.00" fill="#000000">TaxComponent</text>
</g>
<!-- TaxComponent&#45;&gt;PagesModule -->
<g id="edge25" class="edge">
<title>TaxComponent&#45;&gt;PagesModule</title>
<path fill="none" stroke="#000000" d="M3304.3341,-190.08C3304.3341,-191.8464 3304.3341,-193 3304.3341,-193 3304.3341,-193 2984.6524,-193 2984.6524,-193 2984.6524,-193 2984.6524,-219.9909 2984.6524,-219.9909"/>
<polygon fill="#000000" stroke="#000000" points="2981.1525,-219.9909 2984.6524,-229.9909 2988.1525,-219.991 2981.1525,-219.9909"/>
</g>
<!-- TaxformComponent -->
<g id="node28" class="node">
<title>TaxformComponent</title>
<polygon fill="#ffffb3" stroke="#000000" points="3275.3118,-190 3144.6882,-190 3144.6882,-154 3275.3118,-154 3275.3118,-190"/>
<text text-anchor="middle" x="3210" y="-167.8" font-family="Times,serif" font-size="14.00" fill="#000000">TaxformComponent</text>
</g>
<!-- TaxformComponent&#45;&gt;PagesModule -->
<g id="edge26" class="edge">
<title>TaxformComponent&#45;&gt;PagesModule</title>
<path fill="none" stroke="#000000" d="M3153.9194,-190.1543C3153.9194,-191.2969 3153.9194,-192 3153.9194,-192 3153.9194,-192 2982.2729,-192 2982.2729,-192 2982.2729,-192 2982.2729,-219.973 2982.2729,-219.973"/>
<polygon fill="#000000" stroke="#000000" points="2978.773,-219.973 2982.2729,-229.973 2985.773,-219.973 2978.773,-219.973"/>
</g>
<!-- TaxporformComponent -->
<g id="node29" class="node">
<title>TaxporformComponent</title>
<polygon fill="#ffffb3" stroke="#000000" points="3126.472,-190 2977.528,-190 2977.528,-154 3126.472,-154 3126.472,-190"/>
<text text-anchor="middle" x="3052" y="-167.8" font-family="Times,serif" font-size="14.00" fill="#000000">TaxporformComponent</text>
</g>
<!-- TaxporformComponent&#45;&gt;PagesModule -->
<g id="edge27" class="edge">
<title>TaxporformComponent&#45;&gt;PagesModule</title>
<path fill="none" stroke="#000000" d="M2979.8935,-190.0109C2979.8935,-190.0109 2979.8935,-219.855 2979.8935,-219.855"/>
<polygon fill="#000000" stroke="#000000" points="2976.3936,-219.8549 2979.8935,-229.855 2983.3936,-219.855 2976.3936,-219.8549"/>
</g>
<!-- UserComponent -->
<g id="node30" class="node">
<title>UserComponent</title>
<polygon fill="#ffffb3" stroke="#000000" points="2959.7591,-190 2852.2409,-190 2852.2409,-154 2959.7591,-154 2959.7591,-190"/>
<text text-anchor="middle" x="2906" y="-167.8" font-family="Times,serif" font-size="14.00" fill="#000000">UserComponent</text>
</g>
<!-- UserComponent&#45;&gt;PagesModule -->
<g id="edge28" class="edge">
<title>UserComponent&#45;&gt;PagesModule</title>
<path fill="none" stroke="#000000" d="M2953.1338,-190.0109C2953.1338,-190.0109 2953.1338,-219.855 2953.1338,-219.855"/>
<polygon fill="#000000" stroke="#000000" points="2949.6339,-219.8549 2953.1338,-229.855 2956.6339,-219.855 2949.6339,-219.8549"/>
</g>
<!-- UsersComponent -->
<g id="node31" class="node">
<title>UsersComponent</title>
<polygon fill="#ffffb3" stroke="#000000" points="2834.7036,-190 2721.2964,-190 2721.2964,-154 2834.7036,-154 2834.7036,-190"/>
<text text-anchor="middle" x="2778" y="-167.8" font-family="Times,serif" font-size="14.00" fill="#000000">UsersComponent</text>
</g>
<!-- UsersComponent&#45;&gt;PagesModule -->
<g id="edge29" class="edge">
<title>UsersComponent&#45;&gt;PagesModule</title>
<path fill="none" stroke="#000000" d="M2832.3751,-190.1299C2832.3751,-200.3145 2832.3751,-211 2832.3751,-211 2832.3751,-211 2946.3881,-211 2946.3881,-211 2946.3881,-211 2946.3881,-219.9336 2946.3881,-219.9336"/>
<polygon fill="#000000" stroke="#000000" points="2942.8882,-219.9335 2946.3881,-229.9336 2949.8882,-219.9336 2942.8882,-219.9335"/>
</g>
<!-- ViaComponent -->
<g id="node32" class="node">
<title>ViaComponent</title>
<polygon fill="#ffffb3" stroke="#000000" points="2703.5452,-190 2602.4548,-190 2602.4548,-154 2703.5452,-154 2703.5452,-190"/>
<text text-anchor="middle" x="2653" y="-167.8" font-family="Times,serif" font-size="14.00" fill="#000000">ViaComponent</text>
</g>
<!-- ViaComponent&#45;&gt;PagesModule -->
<g id="edge30" class="edge">
<title>ViaComponent&#45;&gt;PagesModule</title>
<path fill="none" stroke="#000000" d="M2697.6431,-190.1274C2697.6431,-200.7109 2697.6431,-212 2697.6431,-212 2697.6431,-212 2939.6425,-212 2939.6425,-212 2939.6425,-212 2939.6425,-219.5782 2939.6425,-219.5782"/>
<polygon fill="#000000" stroke="#000000" points="2936.1426,-219.5781 2939.6425,-229.5782 2943.1426,-219.5782 2936.1426,-219.5781"/>
</g>
<!-- ViasComponent -->
<g id="node33" class="node">
<title>ViasComponent</title>
<polygon fill="#ffffb3" stroke="#000000" points="4153.4888,-190 4046.5112,-190 4046.5112,-154 4153.4888,-154 4153.4888,-190"/>
<text text-anchor="middle" x="4100" y="-167.8" font-family="Times,serif" font-size="14.00" fill="#000000">ViasComponent</text>
</g>
<!-- ViasComponent&#45;&gt;PagesModule -->
<g id="edge31" class="edge">
<title>ViasComponent&#45;&gt;PagesModule</title>
<path fill="none" stroke="#000000" d="M4100,-190.0579C4100,-194.4945 4100,-198 4100,-198 4100,-198 2996.5496,-198 2996.5496,-198 2996.5496,-198 2996.5496,-219.9489 2996.5496,-219.9489"/>
<polygon fill="#000000" stroke="#000000" points="2993.0497,-219.9488 2996.5496,-229.9489 3000.0497,-219.9489 2993.0497,-219.9488"/>
</g>
<!-- CuentaPipe -->
<g id="node34" class="node">
<title>CuentaPipe</title>
<polygon fill="#ffffb3" stroke="#000000" points="5742.0455,-190 5661.9545,-190 5661.9545,-154 5742.0455,-154 5742.0455,-190"/>
<text text-anchor="middle" x="5702" y="-167.8" font-family="Times,serif" font-size="14.00" fill="#000000">CuentaPipe</text>
</g>
<!-- CuentaPipe&#45;&gt;PipesModule -->
<g id="edge33" class="edge">
<title>CuentaPipe&#45;&gt;PipesModule</title>
<path fill="none" stroke="#000000" d="M5702,-190.0109C5702,-190.0109 5702,-219.855 5702,-219.855"/>
<polygon fill="#000000" stroke="#000000" points="5698.5001,-219.8549 5702,-229.855 5705.5001,-219.855 5698.5001,-219.8549"/>
</g>
<!-- CuentaPipe  -->
<g id="node36" class="node">
<title>CuentaPipe </title>
<polygon fill="#fb8072" stroke="#000000" points="5855.0442,-334 5770.9558,-334 5770.9558,-298 5855.0442,-298 5855.0442,-334"/>
<text text-anchor="middle" x="5813" y="-311.8" font-family="Times,serif" font-size="14.00" fill="#000000">CuentaPipe </text>
</g>
<!-- PipesModule&#45;&gt;CuentaPipe  -->
<g id="edge35" class="edge">
<title>PipesModule&#45;&gt;CuentaPipe </title>
<path fill="none" stroke="#000000" stroke-dasharray="5,2" d="M5747.1479,-248C5777.8789,-248 5813,-248 5813,-248 5813,-248 5813,-287.7772 5813,-287.7772"/>
<polygon fill="#000000" stroke="#000000" points="5809.5001,-287.7772 5813,-297.7772 5816.5001,-287.7773 5809.5001,-287.7772"/>
</g>
<!-- RoundceilPipe  -->
<g id="node37" class="node">
<title>RoundceilPipe </title>
<polygon fill="#fb8072" stroke="#000000" points="5752.9348,-334 5651.0652,-334 5651.0652,-298 5752.9348,-298 5752.9348,-334"/>
<text text-anchor="middle" x="5702" y="-311.8" font-family="Times,serif" font-size="14.00" fill="#000000">RoundceilPipe </text>
</g>
<!-- PipesModule&#45;&gt;RoundceilPipe  -->
<g id="edge36" class="edge">
<title>PipesModule&#45;&gt;RoundceilPipe </title>
<path fill="none" stroke="#000000" stroke-dasharray="5,2" d="M5702,-266.2228C5702,-266.2228 5702,-287.7269 5702,-287.7269"/>
<polygon fill="#000000" stroke="#000000" points="5698.5001,-287.7269 5702,-297.7269 5705.5001,-287.727 5698.5001,-287.7269"/>
</g>
<!-- ColorThemeService -->
<g id="node38" class="node">
<title>ColorThemeService</title>
<ellipse fill="#fdb462" stroke="#000000" cx="265" cy="-172" rx="88.6024" ry="18"/>
<text text-anchor="middle" x="265" y="-167.8" font-family="Times,serif" font-size="14.00" fill="#000000">ColorThemeService</text>
</g>
<!-- ColorThemeService&#45;&gt;ServicesModule -->
<g id="edge37" class="edge">
<title>ColorThemeService&#45;&gt;ServicesModule</title>
<path fill="none" stroke="#000000" d="M265,-190.0091C265,-206.0494 265,-227 265,-227 265,-227 2736.8158,-227 2736.8158,-227 2736.8158,-227 2736.8158,-227.292 2736.8158,-227.292"/>
<polygon fill="#000000" stroke="#000000" points="2733.3162,-219.9198 2736.8158,-229.92 2740.3162,-219.9201 2733.3162,-219.9198"/>
</g>
<!-- ConfigService -->
<g id="node39" class="node">
<title>ConfigService</title>
<ellipse fill="#fdb462" stroke="#000000" cx="91" cy="-172" rx="66.6325" ry="18"/>
<text text-anchor="middle" x="91" y="-167.8" font-family="Times,serif" font-size="14.00" fill="#000000">ConfigService</text>
</g>
<!-- ConfigService&#45;&gt;ServicesModule -->
<g id="edge38" class="edge">
<title>ConfigService&#45;&gt;ServicesModule</title>
<path fill="none" stroke="#000000" d="M91,-190.027C91,-206.3976 91,-228 91,-228 91,-228 2729.1071,-228 2729.1071,-228 2729.1071,-228 2729.1071,-228.1846 2729.1071,-228.1846"/>
<polygon fill="#000000" stroke="#000000" points="2725.6077,-219.8455 2729.1071,-229.8457 2732.6077,-219.8459 2725.6077,-219.8455"/>
</g>
<!-- CuentasService -->
<g id="node40" class="node">
<title>CuentasService</title>
<ellipse fill="#fdb462" stroke="#000000" cx="1550" cy="-172" rx="71.2036" ry="18"/>
<text text-anchor="middle" x="1550" y="-167.8" font-family="Times,serif" font-size="14.00" fill="#000000">CuentasService</text>
</g>
<!-- CuentasService&#45;&gt;ServicesModule -->
<g id="edge39" class="edge">
<title>CuentasService&#45;&gt;ServicesModule</title>
<path fill="none" stroke="#000000" d="M1550,-190.0352C1550,-206.7344 1550,-229 1550,-229 1550,-229 2712.5852,-229 2712.5852,-229 2712.5852,-229 2712.5852,-229.0816 2712.5852,-229.0816"/>
<polygon fill="#000000" stroke="#000000" points="2709.0866,-219.8159 2712.5852,-229.8164 2716.0866,-219.8169 2709.0866,-219.8159"/>
</g>
<!-- GruposService -->
<g id="node41" class="node">
<title>GruposService</title>
<ellipse fill="#fdb462" stroke="#000000" cx="1392" cy="-172" rx="68.3382" ry="18"/>
<text text-anchor="middle" x="1392" y="-167.8" font-family="Times,serif" font-size="14.00" fill="#000000">GruposService</text>
</g>
<!-- GruposService&#45;&gt;ServicesModule -->
<g id="edge40" class="edge">
<title>GruposService&#45;&gt;ServicesModule</title>
<path fill="none" stroke="#000000" d="M1392,-190.1467C1392,-203.7395 1392,-220 1392,-220 1392,-220 2790.7772,-220 2790.7772,-220 2790.7772,-220 2790.7772,-220.9793 2790.7772,-220.9793"/>
<polygon fill="#000000" stroke="#000000" points="2787.2773,-219.793 2790.7772,-229.793 2794.2773,-219.7931 2787.2773,-219.793"/>
</g>
<!-- MenuSidebarService -->
<g id="node42" class="node">
<title>MenuSidebarService</title>
<ellipse fill="#fdb462" stroke="#000000" cx="1214" cy="-172" rx="92.0335" ry="18"/>
<text text-anchor="middle" x="1214" y="-167.8" font-family="Times,serif" font-size="14.00" fill="#000000">MenuSidebarService</text>
</g>
<!-- MenuSidebarService&#45;&gt;ServicesModule -->
<g id="edge41" class="edge">
<title>MenuSidebarService&#45;&gt;ServicesModule</title>
<path fill="none" stroke="#000000" d="M1214,-190.2458C1214,-204.1772 1214,-221 1214,-221 1214,-221 2783.0685,-221 2783.0685,-221 2783.0685,-221 2783.0685,-221.8841 2783.0685,-221.8841"/>
<polygon fill="#000000" stroke="#000000" points="2779.5686,-219.8408 2783.0685,-229.8408 2786.5686,-219.8409 2779.5686,-219.8408"/>
</g>
<!-- SubgruposService -->
<g id="node43" class="node">
<title>SubgruposService</title>
<ellipse fill="#fdb462" stroke="#000000" cx="1023" cy="-172" rx="81.1033" ry="18"/>
<text text-anchor="middle" x="1023" y="-167.8" font-family="Times,serif" font-size="14.00" fill="#000000">SubgruposService</text>
</g>
<!-- SubgruposService&#45;&gt;ServicesModule -->
<g id="edge42" class="edge">
<title>SubgruposService&#45;&gt;ServicesModule</title>
<path fill="none" stroke="#000000" d="M1023,-190.0511C1023,-204.373 1023,-222 1023,-222 1023,-222 2775.3597,-222 2775.3597,-222 2775.3597,-222 2775.3597,-222.7942 2775.3597,-222.7942"/>
<polygon fill="#000000" stroke="#000000" points="2771.8598,-219.9421 2775.3597,-229.9421 2778.8598,-219.9422 2771.8598,-219.9421"/>
</g>
<!-- TaxesService -->
<g id="node44" class="node">
<title>TaxesService</title>
<ellipse fill="#fdb462" stroke="#000000" cx="861" cy="-172" rx="63.0977" ry="18"/>
<text text-anchor="middle" x="861" y="-167.8" font-family="Times,serif" font-size="14.00" fill="#000000">TaxesService</text>
</g>
<!-- TaxesService&#45;&gt;ServicesModule -->
<g id="edge43" class="edge">
<title>TaxesService&#45;&gt;ServicesModule</title>
<path fill="none" stroke="#000000" d="M861,-190.1243C861,-204.7832 861,-223 861,-223 861,-223 2767.6509,-223 2767.6509,-223 2767.6509,-223 2767.6509,-223.6831 2767.6509,-223.6831"/>
<polygon fill="#000000" stroke="#000000" points="2764.1511,-219.8313 2767.6509,-229.8314 2771.1511,-219.8314 2764.1511,-219.8313"/>
</g>
<!-- UserService -->
<g id="node45" class="node">
<title>UserService</title>
<ellipse fill="#fdb462" stroke="#000000" cx="722" cy="-172" rx="58.4415" ry="18"/>
<text text-anchor="middle" x="722" y="-167.8" font-family="Times,serif" font-size="14.00" fill="#000000">UserService</text>
</g>
<!-- UserService&#45;&gt;ServicesModule -->
<g id="edge44" class="edge">
<title>UserService&#45;&gt;ServicesModule</title>
<path fill="none" stroke="#000000" d="M722,-190.1871C722,-205.1824 722,-224 722,-224 722,-224 2759.9422,-224 2759.9422,-224 2759.9422,-224 2759.9422,-224.581 2759.9422,-224.581"/>
<polygon fill="#000000" stroke="#000000" points="2756.4423,-219.8097 2759.9422,-229.8097 2763.4423,-219.8098 2756.4423,-219.8097"/>
</g>
<!-- UsuarioService -->
<g id="node46" class="node">
<title>UsuarioService</title>
<ellipse fill="#fdb462" stroke="#000000" cx="575" cy="-172" rx="70.622" ry="18"/>
<text text-anchor="middle" x="575" y="-167.8" font-family="Times,serif" font-size="14.00" fill="#000000">UsuarioService</text>
</g>
<!-- UsuarioService&#45;&gt;ServicesModule -->
<g id="edge45" class="edge">
<title>UsuarioService&#45;&gt;ServicesModule</title>
<path fill="none" stroke="#000000" d="M575,-190.2396C575,-205.5706 575,-225 575,-225 575,-225 2752.2334,-225 2752.2334,-225 2752.2334,-225 2752.2334,-225.4878 2752.2334,-225.4878"/>
<polygon fill="#000000" stroke="#000000" points="2748.7336,-219.8776 2752.2334,-229.8777 2755.7336,-219.8778 2748.7336,-219.8776"/>
</g>
<!-- ViasService -->
<g id="node47" class="node">
<title>ViasService</title>
<ellipse fill="#fdb462" stroke="#000000" cx="429" cy="-172" rx="57.879" ry="18"/>
<text text-anchor="middle" x="429" y="-167.8" font-family="Times,serif" font-size="14.00" fill="#000000">ViasService</text>
</g>
<!-- ViasService&#45;&gt;ServicesModule -->
<g id="edge46" class="edge">
<title>ViasService&#45;&gt;ServicesModule</title>
<path fill="none" stroke="#000000" d="M429,-190.2819C429,-205.9478 429,-226 429,-226 429,-226 2744.5246,-226 2744.5246,-226 2744.5246,-226 2744.5246,-226.3832 2744.5246,-226.3832"/>
<polygon fill="#000000" stroke="#000000" points="2741.0249,-219.832 2744.5246,-229.8321 2748.0249,-219.8322 2741.0249,-219.832"/>
</g>
<!-- ColorthemeComponent -->
<g id="node48" class="node">
<title>ColorthemeComponent</title>
<polygon fill="#ffffb3" stroke="#000000" points="2244.9312,-190 2097.0688,-190 2097.0688,-154 2244.9312,-154 2244.9312,-190"/>
<text text-anchor="middle" x="2171" y="-167.8" font-family="Times,serif" font-size="14.00" fill="#000000">ColorthemeComponent</text>
</g>
<!-- ColorthemeComponent&#45;&gt;SharedModule -->
<g id="edge47" class="edge">
<title>ColorthemeComponent&#45;&gt;SharedModule</title>
<path fill="none" stroke="#000000" d="M2171,-190.4854C2171,-202.1399 2171,-215 2171,-215 2171,-215 2825.6953,-215 2825.6953,-215 2825.6953,-215 2825.6953,-219.9551 2825.6953,-219.9551"/>
<polygon fill="#000000" stroke="#000000" points="2822.1954,-219.9551 2825.6953,-229.9551 2829.1954,-219.9552 2822.1954,-219.9551"/>
</g>
<!-- NavbarComponent -->
<g id="node49" class="node">
<title>NavbarComponent</title>
<polygon fill="#ffffb3" stroke="#000000" points="2079.0297,-190 1956.9703,-190 1956.9703,-154 2079.0297,-154 2079.0297,-190"/>
<text text-anchor="middle" x="2018" y="-167.8" font-family="Times,serif" font-size="14.00" fill="#000000">NavbarComponent</text>
</g>
<!-- NavbarComponent&#45;&gt;SharedModule -->
<g id="edge48" class="edge">
<title>NavbarComponent&#45;&gt;SharedModule</title>
<path fill="none" stroke="#000000" d="M2018,-190.1505C2018,-202.2708 2018,-216 2018,-216 2018,-216 2823.4687,-216 2823.4687,-216 2823.4687,-216 2823.4687,-219.7566 2823.4687,-219.7566"/>
<polygon fill="#000000" stroke="#000000" points="2819.9688,-219.7566 2823.4687,-229.7566 2826.9688,-219.7566 2819.9688,-219.7566"/>
</g>
<!-- SidebarComponent -->
<g id="node50" class="node">
<title>SidebarComponent</title>
<polygon fill="#ffffb3" stroke="#000000" points="2562.0954,-190 2437.9046,-190 2437.9046,-154 2562.0954,-154 2562.0954,-190"/>
<text text-anchor="middle" x="2500" y="-167.8" font-family="Times,serif" font-size="14.00" fill="#000000">SidebarComponent</text>
</g>
<!-- SidebarComponent&#45;&gt;SharedModule -->
<g id="edge49" class="edge">
<title>SidebarComponent&#45;&gt;SharedModule</title>
<path fill="none" stroke="#000000" d="M2532.8493,-190.1025C2532.8493,-201.0859 2532.8493,-213 2532.8493,-213 2532.8493,-213 2830.1485,-213 2830.1485,-213 2830.1485,-213 2830.1485,-219.68 2830.1485,-219.68"/>
<polygon fill="#000000" stroke="#000000" points="2826.6486,-219.6799 2830.1485,-229.68 2833.6486,-219.68 2826.6486,-219.6799"/>
</g>
<!-- SidebarfooterComponent -->
<g id="node51" class="node">
<title>SidebarfooterComponent</title>
<polygon fill="#ffffb3" stroke="#000000" points="2419.5225,-190 2262.4775,-190 2262.4775,-154 2419.5225,-154 2419.5225,-190"/>
<text text-anchor="middle" x="2341" y="-167.8" font-family="Times,serif" font-size="14.00" fill="#000000">SidebarfooterComponent</text>
</g>
<!-- SidebarfooterComponent&#45;&gt;SharedModule -->
<g id="edge50" class="edge">
<title>SidebarfooterComponent&#45;&gt;SharedModule</title>
<path fill="none" stroke="#000000" d="M2341,-190.0555C2341,-201.439 2341,-214 2341,-214 2341,-214 2827.9219,-214 2827.9219,-214 2827.9219,-214 2827.9219,-219.8056 2827.9219,-219.8056"/>
<polygon fill="#000000" stroke="#000000" points="2824.422,-219.8055 2827.9219,-229.8056 2831.422,-219.8056 2824.422,-219.8055"/>
</g>
</g>
</svg>
