<?xml version="1.0" encoding="UTF-8" standalone="no"?>
<!DOCTYPE svg PUBLIC "-//W3C//DTD SVG 1.1//EN"
 "http://www.w3.org/Graphics/SVG/1.1/DTD/svg11.dtd">
<!-- Generated by graphviz version 2.47.3 (20210619.1520)
 -->
<!-- Title: dependencies Pages: 1 -->
<svg width="6169pt" height="399pt"
 viewBox="0.00 0.00 6169.00 398.80" xmlns="http://www.w3.org/2000/svg" xmlns:xlink="http://www.w3.org/1999/xlink">
<g id="graph0" class="graph" transform="scale(1 1) rotate(0) translate(4 394.8)">
<title>dependencies</title>
<polygon fill="white" stroke="transparent" points="-4,4 -4,-394.8 6165,-394.8 6165,4 -4,4"/>
<text text-anchor="middle" x="3080.5" y="-8.2" font-family="sans-serif" font-size="14.00">dependencies</text>
<g id="clust17" class="cluster">
<title>cluster_PagesModule</title>
<polygon fill="none" stroke="black" stroke-dasharray="1,5" points="98,-108.8 98,-244.8 3144,-244.8 3144,-108.8 98,-108.8"/>
</g>
<g id="clust18" class="cluster">
<title>cluster_PagesModule_declarations</title>
<polygon fill="none" stroke="black" points="228,-116.8 228,-168.8 3136,-168.8 3136,-116.8 228,-116.8"/>
</g>
<g id="clust39" class="cluster">
<title>cluster_PagesModule_imports</title>
<polygon fill="none" stroke="black" points="106,-116.8 106,-168.8 220,-168.8 220,-116.8 106,-116.8"/>
</g>
<g id="clust10" class="cluster">
<title>cluster_ConfigModule</title>
<polygon fill="none" stroke="black" stroke-dasharray="1,5" points="8,-32.8 8,-100.8 320,-100.8 320,-32.8 8,-32.8"/>
</g>
<g id="clust14" class="cluster">
<title>cluster_ConfigModule_exports</title>
<polygon fill="none" stroke="black" points="166,-40.8 166,-92.8 312,-92.8 312,-40.8 166,-40.8"/>
</g>
<g id="clust11" class="cluster">
<title>cluster_ConfigModule_declarations</title>
<polygon fill="none" stroke="black" points="16,-40.8 16,-92.8 158,-92.8 158,-40.8 16,-40.8"/>
</g>
<g id="clust43" class="cluster">
<title>cluster_PipesModule</title>
<polygon fill="none" stroke="black" stroke-dasharray="1,5" points="5917,-32.8 5917,-252.8 6153,-252.8 6153,-32.8 5917,-32.8"/>
</g>
<g id="clust44" class="cluster">
<title>cluster_PipesModule_declarations</title>
<polygon fill="none" stroke="black" points="5929,-40.8 5929,-92.8 6141,-92.8 6141,-40.8 5929,-40.8"/>
</g>
<g id="clust48" class="cluster">
<title>cluster_PipesModule_exports</title>
<polygon fill="none" stroke="black" points="5925,-192.8 5925,-244.8 6145,-244.8 6145,-192.8 5925,-192.8"/>
</g>
<g id="clust1" class="cluster">
<title>cluster_AppModule</title>
<polygon fill="none" stroke="black" stroke-dasharray="1,5" points="3619,-184.8 3619,-382.8 4456,-382.8 4456,-184.8 3619,-184.8"/>
</g>
<g id="clust6" class="cluster">
<title>cluster_AppModule_imports</title>
<polygon fill="none" stroke="black" points="4209,-192.8 4209,-244.8 4448,-244.8 4448,-192.8 4209,-192.8"/>
</g>
<g id="clust8" class="cluster">
<title>cluster_AppModule_bootstrap</title>
<polygon fill="none" stroke="black" points="3890,-322.8 3890,-374.8 4014,-374.8 4014,-322.8 3890,-322.8"/>
</g>
<g id="clust9" class="cluster">
<title>cluster_AppModule_providers</title>
<polygon fill="none" stroke="black" points="4021,-192.8 4021,-244.8 4201,-244.8 4201,-192.8 4021,-192.8"/>
</g>
<g id="clust2" class="cluster">
<title>cluster_AppModule_declarations</title>
<polygon fill="none" stroke="black" points="3627,-192.8 3627,-244.8 4013,-244.8 4013,-192.8 3627,-192.8"/>
</g>
<g id="clust57" class="cluster">
<title>cluster_SharedModule</title>
<polygon fill="none" stroke="black" stroke-dasharray="1,5" points="3152,-108.8 3152,-176.8 4086,-176.8 4086,-108.8 3152,-108.8"/>
</g>
<g id="clust64" class="cluster">
<title>cluster_SharedModule_exports</title>
<polygon fill="none" stroke="black" points="3790,-116.8 3790,-168.8 4078,-168.8 4078,-116.8 3790,-116.8"/>
</g>
<g id="clust58" class="cluster">
<title>cluster_SharedModule_declarations</title>
<polygon fill="none" stroke="black" points="3160,-116.8 3160,-168.8 3782,-168.8 3782,-116.8 3160,-116.8"/>
</g>
<g id="clust51" class="cluster">
<title>cluster_ServicesModule</title>
<polygon fill="none" stroke="black" stroke-dasharray="1,5" points="4094,-108.8 4094,-176.8 5909,-176.8 5909,-108.8 4094,-108.8"/>
</g>
<g id="clust56" class="cluster">
<title>cluster_ServicesModule_providers</title>
<polygon fill="none" stroke="black" points="4102,-116.8 4102,-168.8 5901,-168.8 5901,-116.8 4102,-116.8"/>
</g>
<!-- AppComponent -->
<g id="node1" class="node">
<title>AppComponent</title>
<polygon fill="#ffffb3" stroke="black" points="4004.94,-236.8 3899.06,-236.8 3899.06,-200.8 4004.94,-200.8 4004.94,-236.8"/>
<text text-anchor="middle" x="3952" y="-214.6" font-family="Times,serif" font-size="14.00">AppComponent</text>
</g>
<!-- AppModule -->
<g id="node4" class="node">
<title>AppModule</title>
<polygon fill="#8dd3c7" stroke="black" points="3993.66,-301.8 3990.66,-305.8 3969.66,-305.8 3966.66,-301.8 3910.34,-301.8 3910.34,-265.8 3993.66,-265.8 3993.66,-301.8"/>
<text text-anchor="middle" x="3952" y="-279.6" font-family="Times,serif" font-size="14.00">AppModule</text>
</g>
<!-- AppComponent&#45;&gt;AppModule -->
<g id="edge1" class="edge">
<title>AppComponent&#45;&gt;AppModule</title>
<path fill="none" stroke="black" d="M3952,-236.91C3952,-236.91 3952,-255.79 3952,-255.79"/>
<polygon fill="black" stroke="black" points="3948.5,-255.79 3952,-265.79 3955.5,-255.79 3948.5,-255.79"/>
</g>
<!-- LoginComponent -->
<g id="node2" class="node">
<title>LoginComponent</title>
<polygon fill="#ffffb3" stroke="black" points="3881.28,-236.8 3766.72,-236.8 3766.72,-200.8 3881.28,-200.8 3881.28,-236.8"/>
<text text-anchor="middle" x="3824" y="-214.6" font-family="Times,serif" font-size="14.00">LoginComponent</text>
</g>
<!-- LoginComponent&#45;&gt;AppModule -->
<g id="edge2" class="edge">
<title>LoginComponent&#45;&gt;AppModule</title>
<path fill="none" stroke="black" d="M3824,-236.83C3824,-253.2 3824,-274.8 3824,-274.8 3824,-274.8 3900.09,-274.8 3900.09,-274.8"/>
<polygon fill="black" stroke="black" points="3900.09,-278.3 3910.09,-274.8 3900.09,-271.3 3900.09,-278.3"/>
</g>
<!-- PagesComponent -->
<g id="node3" class="node">
<title>PagesComponent</title>
<polygon fill="#ffffb3" stroke="black" points="3748.99,-236.8 3635.01,-236.8 3635.01,-200.8 3748.99,-200.8 3748.99,-236.8"/>
<text text-anchor="middle" x="3692" y="-214.6" font-family="Times,serif" font-size="14.00">PagesComponent</text>
</g>
<!-- PagesComponent&#45;&gt;AppModule -->
<g id="edge3" class="edge">
<title>PagesComponent&#45;&gt;AppModule</title>
<path fill="none" stroke="black" d="M3692,-236.91C3692,-256.14 3692,-283.8 3692,-283.8 3692,-283.8 3900.23,-283.8 3900.23,-283.8"/>
<polygon fill="black" stroke="black" points="3900.23,-287.3 3910.23,-283.8 3900.23,-280.3 3900.23,-287.3"/>
</g>
<!-- AppComponent  -->
<g id="node8" class="node">
<title>AppComponent </title>
<polygon fill="#80b1d3" stroke="black" points="4006.44,-366.8 3897.56,-366.8 3897.56,-330.8 4006.44,-330.8 4006.44,-366.8"/>
<text text-anchor="middle" x="3952" y="-344.6" font-family="Times,serif" font-size="14.00">AppComponent </text>
</g>
<!-- AppModule&#45;&gt;AppComponent  -->
<g id="edge7" class="edge">
<title>AppModule&#45;&gt;AppComponent </title>
<path fill="none" stroke="black" stroke-dasharray="1,5" d="M3952,-301.91C3952,-301.91 3952,-320.79 3952,-320.79"/>
<polygon fill="black" stroke="black" points="3948.5,-320.79 3952,-330.79 3955.5,-320.79 3948.5,-320.79"/>
</g>
<!-- PagesModule -->
<g id="node5" class="node">
<title>PagesModule</title>
<polygon fill="#8dd3c7" stroke="black" points="1683.21,-236.8 1680.21,-240.8 1659.21,-240.8 1656.21,-236.8 1590.79,-236.8 1590.79,-200.8 1683.21,-200.8 1683.21,-236.8"/>
<text text-anchor="middle" x="1637" y="-214.6" font-family="Times,serif" font-size="14.00">PagesModule</text>
</g>
<!-- PagesModule&#45;&gt;AppModule -->
<g id="edge4" class="edge">
<title>PagesModule&#45;&gt;AppModule</title>
<path fill="none" stroke="black" d="M1637,-237.09C1637,-259.01 1637,-292.8 1637,-292.8 1637,-292.8 3900.34,-292.8 3900.34,-292.8"/>
<polygon fill="black" stroke="black" points="3900.34,-296.3 3910.34,-292.8 3900.34,-289.3 3900.34,-296.3"/>
</g>
<!-- ServicesModule -->
<g id="node6" class="node">
<title>ServicesModule</title>
<polygon fill="#8dd3c7" stroke="black" points="4440.47,-236.8 4437.47,-240.8 4416.47,-240.8 4413.47,-236.8 4333.53,-236.8 4333.53,-200.8 4440.47,-200.8 4440.47,-236.8"/>
<text text-anchor="middle" x="4387" y="-214.6" font-family="Times,serif" font-size="14.00">ServicesModule</text>
</g>
<!-- ServicesModule&#45;&gt;AppModule -->
<g id="edge5" class="edge">
<title>ServicesModule&#45;&gt;AppModule</title>
<path fill="none" stroke="black" d="M4387,-237.09C4387,-259.01 4387,-292.8 4387,-292.8 4387,-292.8 4003.71,-292.8 4003.71,-292.8"/>
<polygon fill="black" stroke="black" points="4003.71,-289.3 3993.71,-292.8 4003.71,-296.3 4003.71,-289.3"/>
</g>
<!-- SharedModule -->
<g id="node7" class="node">
<title>SharedModule</title>
<polygon fill="#8dd3c7" stroke="black" points="4315.42,-236.8 4312.42,-240.8 4291.42,-240.8 4288.42,-236.8 4216.58,-236.8 4216.58,-200.8 4315.42,-200.8 4315.42,-236.8"/>
<text text-anchor="middle" x="4266" y="-214.6" font-family="Times,serif" font-size="14.00">SharedModule</text>
</g>
<!-- SharedModule&#45;&gt;AppModule -->
<g id="edge6" class="edge">
<title>SharedModule&#45;&gt;AppModule</title>
<path fill="none" stroke="black" d="M4266,-236.91C4266,-256.14 4266,-283.8 4266,-283.8 4266,-283.8 4003.7,-283.8 4003.7,-283.8"/>
<polygon fill="black" stroke="black" points="4003.7,-280.3 3993.7,-283.8 4003.7,-287.3 4003.7,-280.3"/>
</g>
<!-- NavbarComponent  -->
<g id="node53" class="node">
<title>NavbarComponent </title>
<polygon fill="#fb8072" stroke="black" points="4070.03,-160.8 3943.97,-160.8 3943.97,-124.8 4070.03,-124.8 4070.03,-160.8"/>
<text text-anchor="middle" x="4007" y="-138.6" font-family="Times,serif" font-size="14.00">NavbarComponent </text>
</g>
<!-- SharedModule&#45;&gt;NavbarComponent  -->
<g id="edge51" class="edge">
<title>SharedModule&#45;&gt;NavbarComponent </title>
<path fill="none" stroke="black" stroke-dasharray="5,2" d="M4221.24,-200.59C4221.24,-195.25 4221.24,-190.8 4221.24,-190.8 4221.24,-190.8 4049.33,-190.8 4049.33,-190.8 4049.33,-190.8 4049.33,-170.95 4049.33,-170.95"/>
<polygon fill="black" stroke="black" points="4052.83,-170.95 4049.33,-160.95 4045.83,-170.95 4052.83,-170.95"/>
</g>
<!-- SidebarComponent  -->
<g id="node54" class="node">
<title>SidebarComponent </title>
<polygon fill="#fb8072" stroke="black" points="3925.6,-160.8 3798.4,-160.8 3798.4,-124.8 3925.6,-124.8 3925.6,-160.8"/>
<text text-anchor="middle" x="3862" y="-138.6" font-family="Times,serif" font-size="14.00">SidebarComponent </text>
</g>
<!-- SharedModule&#45;&gt;SidebarComponent  -->
<g id="edge52" class="edge">
<title>SharedModule&#45;&gt;SidebarComponent </title>
<path fill="none" stroke="black" stroke-dasharray="5,2" d="M4219.01,-200.68C4219.01,-197.83 4219.01,-195.8 4219.01,-195.8 4219.01,-195.8 3912.54,-195.8 3912.54,-195.8 3912.54,-195.8 3912.54,-171.04 3912.54,-171.04"/>
<polygon fill="black" stroke="black" points="3916.04,-171.04 3912.54,-161.04 3909.04,-171.04 3916.04,-171.04"/>
</g>
<!-- InterceptorService -->
<g id="node9" class="node">
<title>InterceptorService</title>
<ellipse fill="#fdb462" stroke="black" cx="4111" cy="-218.8" rx="82.2" ry="18"/>
<text text-anchor="middle" x="4111" y="-214.6" font-family="Times,serif" font-size="14.00">InterceptorService</text>
</g>
<!-- InterceptorService&#45;&gt;AppModule -->
<g id="edge8" class="edge">
<title>InterceptorService&#45;&gt;AppModule</title>
<path fill="none" stroke="black" d="M4111,-236.83C4111,-253.2 4111,-274.8 4111,-274.8 4111,-274.8 4003.78,-274.8 4003.78,-274.8"/>
<polygon fill="black" stroke="black" points="4003.78,-271.3 3993.78,-274.8 4003.78,-278.3 4003.78,-271.3"/>
</g>
<!-- GeneralComponent -->
<g id="node10" class="node">
<title>GeneralComponent</title>
<polygon fill="#ffffb3" stroke="black" points="149.63,-84.8 24.37,-84.8 24.37,-48.8 149.63,-48.8 149.63,-84.8"/>
<text text-anchor="middle" x="87" y="-62.6" font-family="Times,serif" font-size="14.00">GeneralComponent</text>
</g>
<!-- ConfigModule -->
<g id="node11" class="node">
<title>ConfigModule</title>
<polygon fill="#8dd3c7" stroke="black" points="212.44,-160.8 209.44,-164.8 188.44,-164.8 185.44,-160.8 113.56,-160.8 113.56,-124.8 212.44,-124.8 212.44,-160.8"/>
<text text-anchor="middle" x="163" y="-138.6" font-family="Times,serif" font-size="14.00">ConfigModule</text>
</g>
<!-- GeneralComponent&#45;&gt;ConfigModule -->
<g id="edge9" class="edge">
<title>GeneralComponent&#45;&gt;ConfigModule</title>
<path fill="none" stroke="black" d="M131.8,-84.81C131.8,-84.81 131.8,-114.65 131.8,-114.65"/>
<polygon fill="black" stroke="black" points="128.3,-114.65 131.8,-124.65 135.3,-114.65 128.3,-114.65"/>
</g>
<!-- ConfigModule&#45;&gt;PagesModule -->
<g id="edge31" class="edge">
<title>ConfigModule&#45;&gt;PagesModule</title>
<path fill="none" stroke="black" d="M163,-161.22C163,-187.81 163,-233.8 163,-233.8 163,-233.8 1580.86,-233.8 1580.86,-233.8"/>
<polygon fill="black" stroke="black" points="1580.86,-237.3 1590.86,-233.8 1580.86,-230.3 1580.86,-237.3"/>
</g>
<!-- GeneralComponent  -->
<g id="node12" class="node">
<title>GeneralComponent </title>
<polygon fill="#fb8072" stroke="black" points="303.63,-84.8 174.37,-84.8 174.37,-48.8 303.63,-48.8 303.63,-84.8"/>
<text text-anchor="middle" x="239" y="-62.6" font-family="Times,serif" font-size="14.00">GeneralComponent </text>
</g>
<!-- ConfigModule&#45;&gt;GeneralComponent  -->
<g id="edge10" class="edge">
<title>ConfigModule&#45;&gt;GeneralComponent </title>
<path fill="none" stroke="black" stroke-dasharray="5,2" d="M193.33,-124.79C193.33,-124.79 193.33,-94.95 193.33,-94.95"/>
<polygon fill="black" stroke="black" points="196.83,-94.95 193.33,-84.95 189.83,-94.95 196.83,-94.95"/>
</g>
<!-- ConfigComponent -->
<g id="node13" class="node">
<title>ConfigComponent</title>
<polygon fill="#ffffb3" stroke="black" points="3128.22,-160.8 3007.78,-160.8 3007.78,-124.8 3128.22,-124.8 3128.22,-160.8"/>
<text text-anchor="middle" x="3068" y="-138.6" font-family="Times,serif" font-size="14.00">ConfigComponent</text>
</g>
<!-- ConfigComponent&#45;&gt;PagesModule -->
<g id="edge11" class="edge">
<title>ConfigComponent&#45;&gt;PagesModule</title>
<path fill="none" stroke="black" d="M3068,-161.22C3068,-187.81 3068,-233.8 3068,-233.8 3068,-233.8 1693.39,-233.8 1693.39,-233.8"/>
<polygon fill="black" stroke="black" points="1693.39,-230.3 1683.39,-233.8 1693.39,-237.3 1693.39,-230.3"/>
</g>
<!-- ContabilidadComponent -->
<g id="node14" class="node">
<title>ContabilidadComponent</title>
<polygon fill="#ffffb3" stroke="black" points="2989.66,-160.8 2836.34,-160.8 2836.34,-124.8 2989.66,-124.8 2989.66,-160.8"/>
<text text-anchor="middle" x="2913" y="-138.6" font-family="Times,serif" font-size="14.00">ContabilidadComponent</text>
</g>
<!-- ContabilidadComponent&#45;&gt;PagesModule -->
<g id="edge12" class="edge">
<title>ContabilidadComponent&#45;&gt;PagesModule</title>
<path fill="none" stroke="black" d="M2913,-160.83C2913,-186.31 2913,-229.8 2913,-229.8 2913,-229.8 1693.17,-229.8 1693.17,-229.8"/>
<polygon fill="black" stroke="black" points="1693.17,-226.3 1683.17,-229.8 1693.17,-233.3 1693.17,-226.3"/>
</g>
<!-- CuentaComponent -->
<g id="node15" class="node">
<title>CuentaComponent</title>
<polygon fill="#ffffb3" stroke="black" points="2818.49,-160.8 2697.51,-160.8 2697.51,-124.8 2818.49,-124.8 2818.49,-160.8"/>
<text text-anchor="middle" x="2758" y="-138.6" font-family="Times,serif" font-size="14.00">CuentaComponent</text>
</g>
<!-- CuentaComponent&#45;&gt;PagesModule -->
<g id="edge13" class="edge">
<title>CuentaComponent&#45;&gt;PagesModule</title>
<path fill="none" stroke="black" d="M2758,-161.03C2758,-185.73 2758,-226.8 2758,-226.8 2758,-226.8 1693.39,-226.8 1693.39,-226.8"/>
<polygon fill="black" stroke="black" points="1693.39,-223.3 1683.39,-226.8 1693.39,-230.3 1693.39,-223.3"/>
</g>
<!-- CuentasComponent -->
<g id="node16" class="node">
<title>CuentasComponent</title>
<polygon fill="#ffffb3" stroke="black" points="2679.43,-160.8 2552.57,-160.8 2552.57,-124.8 2679.43,-124.8 2679.43,-160.8"/>
<text text-anchor="middle" x="2616" y="-138.6" font-family="Times,serif" font-size="14.00">CuentasComponent</text>
</g>
<!-- CuentasComponent&#45;&gt;PagesModule -->
<g id="edge14" class="edge">
<title>CuentasComponent&#45;&gt;PagesModule</title>
<path fill="none" stroke="black" d="M2616,-160.95C2616,-184.56 2616,-222.8 2616,-222.8 2616,-222.8 1693.23,-222.8 1693.23,-222.8"/>
<polygon fill="black" stroke="black" points="1693.23,-219.3 1683.23,-222.8 1693.23,-226.3 1693.23,-219.3"/>
</g>
<!-- DashboardComponent -->
<g id="node17" class="node">
<title>DashboardComponent</title>
<polygon fill="#ffffb3" stroke="black" points="2534.97,-160.8 2393.03,-160.8 2393.03,-124.8 2534.97,-124.8 2534.97,-160.8"/>
<text text-anchor="middle" x="2464" y="-138.6" font-family="Times,serif" font-size="14.00">DashboardComponent</text>
</g>
<!-- DashboardComponent&#45;&gt;PagesModule -->
<g id="edge15" class="edge">
<title>DashboardComponent&#45;&gt;PagesModule</title>
<path fill="none" stroke="black" d="M2464,-160.81C2464,-183.29 2464,-218.8 2464,-218.8 2464,-218.8 1693.24,-218.8 1693.24,-218.8"/>
<polygon fill="black" stroke="black" points="1693.24,-215.3 1683.24,-218.8 1693.24,-222.3 1693.24,-215.3"/>
</g>
<!-- GrupoComponent -->
<g id="node18" class="node">
<title>GrupoComponent</title>
<polygon fill="#ffffb3" stroke="black" points="2374.6,-160.8 2257.4,-160.8 2257.4,-124.8 2374.6,-124.8 2374.6,-160.8"/>
<text text-anchor="middle" x="2316" y="-138.6" font-family="Times,serif" font-size="14.00">GrupoComponent</text>
</g>
<!-- GrupoComponent&#45;&gt;PagesModule -->
<g id="edge16" class="edge">
<title>GrupoComponent&#45;&gt;PagesModule</title>
<path fill="none" stroke="black" d="M2316,-160.84C2316,-182.46 2316,-215.8 2316,-215.8 2316,-215.8 1693.14,-215.8 1693.14,-215.8"/>
<polygon fill="black" stroke="black" points="1693.14,-212.3 1683.14,-215.8 1693.14,-219.3 1693.14,-212.3"/>
</g>
<!-- GruposComponent -->
<g id="node19" class="node">
<title>GruposComponent</title>
<polygon fill="#ffffb3" stroke="black" points="2239.05,-160.8 2116.95,-160.8 2116.95,-124.8 2239.05,-124.8 2239.05,-160.8"/>
<text text-anchor="middle" x="2178" y="-138.6" font-family="Times,serif" font-size="14.00">GruposComponent</text>
</g>
<!-- GruposComponent&#45;&gt;PagesModule -->
<g id="edge17" class="edge">
<title>GruposComponent&#45;&gt;PagesModule</title>
<path fill="none" stroke="black" d="M2178,-160.93C2178,-181.37 2178,-211.8 2178,-211.8 2178,-211.8 1693.13,-211.8 1693.13,-211.8"/>
<polygon fill="black" stroke="black" points="1693.13,-208.3 1683.13,-211.8 1693.13,-215.3 1693.13,-208.3"/>
</g>
<!-- LoadTableComponent -->
<g id="node20" class="node">
<title>LoadTableComponent</title>
<polygon fill="#ffffb3" stroke="black" points="2098.97,-160.8 1957.03,-160.8 1957.03,-124.8 2098.97,-124.8 2098.97,-160.8"/>
<text text-anchor="middle" x="2028" y="-138.6" font-family="Times,serif" font-size="14.00">LoadTableComponent</text>
</g>
<!-- LoadTableComponent&#45;&gt;PagesModule -->
<g id="edge18" class="edge">
<title>LoadTableComponent&#45;&gt;PagesModule</title>
<path fill="none" stroke="black" d="M2028,-160.83C2028,-180.38 2028,-208.8 2028,-208.8 2028,-208.8 1693.39,-208.8 1693.39,-208.8"/>
<polygon fill="black" stroke="black" points="1693.39,-205.3 1683.39,-208.8 1693.39,-212.3 1693.39,-205.3"/>
</g>
<!-- NotfoundComponent -->
<g id="node21" class="node">
<title>NotfoundComponent</title>
<polygon fill="#ffffb3" stroke="black" points="1939.49,-160.8 1804.51,-160.8 1804.51,-124.8 1939.49,-124.8 1939.49,-160.8"/>
<text text-anchor="middle" x="1872" y="-138.6" font-family="Times,serif" font-size="14.00">NotfoundComponent</text>
</g>
<!-- NotfoundComponent&#45;&gt;PagesModule -->
<g id="edge19" class="edge">
<title>NotfoundComponent&#45;&gt;PagesModule</title>
<path fill="none" stroke="black" d="M1872,-161.07C1872,-179.36 1872,-204.8 1872,-204.8 1872,-204.8 1693.15,-204.8 1693.15,-204.8"/>
<polygon fill="black" stroke="black" points="1693.15,-201.3 1683.15,-204.8 1693.15,-208.3 1693.15,-201.3"/>
</g>
<!-- SubcuentaComponent -->
<g id="node22" class="node">
<title>SubcuentaComponent</title>
<polygon fill="#ffffb3" stroke="black" points="1786.65,-160.8 1647.35,-160.8 1647.35,-124.8 1786.65,-124.8 1786.65,-160.8"/>
<text text-anchor="middle" x="1717" y="-138.6" font-family="Times,serif" font-size="14.00">SubcuentaComponent</text>
</g>
<!-- SubcuentaComponent&#45;&gt;PagesModule -->
<g id="edge20" class="edge">
<title>SubcuentaComponent&#45;&gt;PagesModule</title>
<path fill="none" stroke="black" d="M1665.14,-160.81C1665.14,-160.81 1665.14,-190.65 1665.14,-190.65"/>
<polygon fill="black" stroke="black" points="1661.64,-190.65 1665.14,-200.65 1668.64,-190.65 1661.64,-190.65"/>
</g>
<!-- SubcuentasComponent -->
<g id="node23" class="node">
<title>SubcuentasComponent</title>
<polygon fill="#ffffb3" stroke="black" points="1629.59,-160.8 1484.41,-160.8 1484.41,-124.8 1629.59,-124.8 1629.59,-160.8"/>
<text text-anchor="middle" x="1557" y="-138.6" font-family="Times,serif" font-size="14.00">SubcuentasComponent</text>
</g>
<!-- SubcuentasComponent&#45;&gt;PagesModule -->
<g id="edge21" class="edge">
<title>SubcuentasComponent&#45;&gt;PagesModule</title>
<path fill="none" stroke="black" d="M1610.22,-160.81C1610.22,-160.81 1610.22,-190.65 1610.22,-190.65"/>
<polygon fill="black" stroke="black" points="1606.72,-190.65 1610.22,-200.65 1613.72,-190.65 1606.72,-190.65"/>
</g>
<!-- SubgrupoComponent -->
<g id="node24" class="node">
<title>SubgrupoComponent</title>
<polygon fill="#ffffb3" stroke="black" points="1466.78,-160.8 1331.22,-160.8 1331.22,-124.8 1466.78,-124.8 1466.78,-160.8"/>
<text text-anchor="middle" x="1399" y="-138.6" font-family="Times,serif" font-size="14.00">SubgrupoComponent</text>
</g>
<!-- SubgrupoComponent&#45;&gt;PagesModule -->
<g id="edge22" class="edge">
<title>SubgrupoComponent&#45;&gt;PagesModule</title>
<path fill="none" stroke="black" d="M1399,-161.07C1399,-179.36 1399,-204.8 1399,-204.8 1399,-204.8 1580.83,-204.8 1580.83,-204.8"/>
<polygon fill="black" stroke="black" points="1580.83,-208.3 1590.83,-204.8 1580.83,-201.3 1580.83,-208.3"/>
</g>
<!-- SubgruposComponent -->
<g id="node25" class="node">
<title>SubgruposComponent</title>
<polygon fill="#ffffb3" stroke="black" points="1313.72,-160.8 1172.28,-160.8 1172.28,-124.8 1313.72,-124.8 1313.72,-160.8"/>
<text text-anchor="middle" x="1243" y="-138.6" font-family="Times,serif" font-size="14.00">SubgruposComponent</text>
</g>
<!-- SubgruposComponent&#45;&gt;PagesModule -->
<g id="edge23" class="edge">
<title>SubgruposComponent&#45;&gt;PagesModule</title>
<path fill="none" stroke="black" d="M1243,-160.91C1243,-180.14 1243,-207.8 1243,-207.8 1243,-207.8 1580.64,-207.8 1580.64,-207.8"/>
<polygon fill="black" stroke="black" points="1580.64,-211.3 1590.64,-207.8 1580.64,-204.3 1580.64,-211.3"/>
</g>
<!-- TaxComponent -->
<g id="node26" class="node">
<title>TaxComponent</title>
<polygon fill="#ffffb3" stroke="black" points="1154.6,-160.8 1051.4,-160.8 1051.4,-124.8 1154.6,-124.8 1154.6,-160.8"/>
<text text-anchor="middle" x="1103" y="-138.6" font-family="Times,serif" font-size="14.00">TaxComponent</text>
</g>
<!-- TaxComponent&#45;&gt;PagesModule -->
<g id="edge24" class="edge">
<title>TaxComponent&#45;&gt;PagesModule</title>
<path fill="none" stroke="black" d="M1103,-161.02C1103,-181.17 1103,-210.8 1103,-210.8 1103,-210.8 1580.55,-210.8 1580.55,-210.8"/>
<polygon fill="black" stroke="black" points="1580.55,-214.3 1590.55,-210.8 1580.55,-207.3 1580.55,-214.3"/>
</g>
<!-- TaxformComponent -->
<g id="node27" class="node">
<title>TaxformComponent</title>
<polygon fill="#ffffb3" stroke="black" points="1033.31,-160.8 902.69,-160.8 902.69,-124.8 1033.31,-124.8 1033.31,-160.8"/>
<text text-anchor="middle" x="968" y="-138.6" font-family="Times,serif" font-size="14.00">TaxformComponent</text>
</g>
<!-- TaxformComponent&#45;&gt;PagesModule -->
<g id="edge25" class="edge">
<title>TaxformComponent&#45;&gt;PagesModule</title>
<path fill="none" stroke="black" d="M968,-160.97C968,-182.3 968,-214.8 968,-214.8 968,-214.8 1580.75,-214.8 1580.75,-214.8"/>
<polygon fill="black" stroke="black" points="1580.75,-218.3 1590.75,-214.8 1580.75,-211.3 1580.75,-218.3"/>
</g>
<!-- TaxporformComponent -->
<g id="node28" class="node">
<title>TaxporformComponent</title>
<polygon fill="#ffffb3" stroke="black" points="884.47,-160.8 735.53,-160.8 735.53,-124.8 884.47,-124.8 884.47,-160.8"/>
<text text-anchor="middle" x="810" y="-138.6" font-family="Times,serif" font-size="14.00">TaxporformComponent</text>
</g>
<!-- TaxporformComponent&#45;&gt;PagesModule -->
<g id="edge26" class="edge">
<title>TaxporformComponent&#45;&gt;PagesModule</title>
<path fill="none" stroke="black" d="M810,-160.96C810,-183.15 810,-217.8 810,-217.8 810,-217.8 1580.76,-217.8 1580.76,-217.8"/>
<polygon fill="black" stroke="black" points="1580.76,-221.3 1590.76,-217.8 1580.76,-214.3 1580.76,-221.3"/>
</g>
<!-- UserComponent -->
<g id="node29" class="node">
<title>UserComponent</title>
<polygon fill="#ffffb3" stroke="black" points="717.76,-160.8 610.24,-160.8 610.24,-124.8 717.76,-124.8 717.76,-160.8"/>
<text text-anchor="middle" x="664" y="-138.6" font-family="Times,serif" font-size="14.00">UserComponent</text>
</g>
<!-- UserComponent&#45;&gt;PagesModule -->
<g id="edge27" class="edge">
<title>UserComponent&#45;&gt;PagesModule</title>
<path fill="none" stroke="black" d="M664,-160.89C664,-183.93 664,-220.8 664,-220.8 664,-220.8 1580.72,-220.8 1580.72,-220.8"/>
<polygon fill="black" stroke="black" points="1580.72,-224.3 1590.72,-220.8 1580.72,-217.3 1580.72,-224.3"/>
</g>
<!-- UsersComponent -->
<g id="node30" class="node">
<title>UsersComponent</title>
<polygon fill="#ffffb3" stroke="black" points="592.7,-160.8 479.3,-160.8 479.3,-124.8 592.7,-124.8 592.7,-160.8"/>
<text text-anchor="middle" x="536" y="-138.6" font-family="Times,serif" font-size="14.00">UsersComponent</text>
</g>
<!-- UsersComponent&#45;&gt;PagesModule -->
<g id="edge28" class="edge">
<title>UsersComponent&#45;&gt;PagesModule</title>
<path fill="none" stroke="black" d="M536,-161.18C536,-185.08 536,-223.8 536,-223.8 536,-223.8 1580.74,-223.8 1580.74,-223.8"/>
<polygon fill="black" stroke="black" points="1580.74,-227.3 1590.74,-223.8 1580.74,-220.3 1580.74,-227.3"/>
</g>
<!-- ViaComponent -->
<g id="node31" class="node">
<title>ViaComponent</title>
<polygon fill="#ffffb3" stroke="black" points="461.55,-160.8 360.45,-160.8 360.45,-124.8 461.55,-124.8 461.55,-160.8"/>
<text text-anchor="middle" x="411" y="-138.6" font-family="Times,serif" font-size="14.00">ViaComponent</text>
</g>
<!-- ViaComponent&#45;&gt;PagesModule -->
<g id="edge29" class="edge">
<title>ViaComponent&#45;&gt;PagesModule</title>
<path fill="none" stroke="black" d="M411,-160.83C411,-185.78 411,-227.8 411,-227.8 411,-227.8 1580.81,-227.8 1580.81,-227.8"/>
<polygon fill="black" stroke="black" points="1580.81,-231.3 1590.81,-227.8 1580.81,-224.3 1580.81,-231.3"/>
</g>
<!-- ViasComponent -->
<g id="node32" class="node">
<title>ViasComponent</title>
<polygon fill="#ffffb3" stroke="black" points="342.49,-160.8 235.51,-160.8 235.51,-124.8 342.49,-124.8 342.49,-160.8"/>
<text text-anchor="middle" x="289" y="-138.6" font-family="Times,serif" font-size="14.00">ViasComponent</text>
</g>
<!-- ViasComponent&#45;&gt;PagesModule -->
<g id="edge30" class="edge">
<title>ViasComponent&#45;&gt;PagesModule</title>
<path fill="none" stroke="black" d="M289,-161.03C289,-186.81 289,-230.8 289,-230.8 289,-230.8 1580.6,-230.8 1580.6,-230.8"/>
<polygon fill="black" stroke="black" points="1580.6,-234.3 1590.6,-230.8 1580.6,-227.3 1580.6,-234.3"/>
</g>
<!-- CuentaPipe -->
<g id="node33" class="node">
<title>CuentaPipe</title>
<polygon fill="#ffffb3" stroke="black" points="6133.05,-84.8 6052.95,-84.8 6052.95,-48.8 6133.05,-48.8 6133.05,-84.8"/>
<text text-anchor="middle" x="6093" y="-62.6" font-family="Times,serif" font-size="14.00">CuentaPipe</text>
</g>
<!-- PipesModule -->
<g id="node35" class="node">
<title>PipesModule</title>
<polygon fill="#8dd3c7" stroke="black" points="6031.88,-160.8 6028.88,-164.8 6007.88,-164.8 6004.88,-160.8 5942.12,-160.8 5942.12,-124.8 6031.88,-124.8 6031.88,-160.8"/>
<text text-anchor="middle" x="5987" y="-138.6" font-family="Times,serif" font-size="14.00">PipesModule</text>
</g>
<!-- CuentaPipe&#45;&gt;PipesModule -->
<g id="edge32" class="edge">
<title>CuentaPipe&#45;&gt;PipesModule</title>
<path fill="none" stroke="black" d="M6106.51,-84.83C6106.51,-105.57 6106.51,-136.8 6106.51,-136.8 6106.51,-136.8 6042.18,-136.8 6042.18,-136.8"/>
<polygon fill="black" stroke="black" points="6042.18,-133.3 6032.18,-136.8 6042.18,-140.3 6042.18,-133.3"/>
</g>
<!-- RoundceilPipe -->
<g id="node34" class="node">
<title>RoundceilPipe</title>
<polygon fill="#ffffb3" stroke="black" points="6035.44,-84.8 5936.56,-84.8 5936.56,-48.8 6035.44,-48.8 6035.44,-84.8"/>
<text text-anchor="middle" x="5986" y="-62.6" font-family="Times,serif" font-size="14.00">RoundceilPipe</text>
</g>
<!-- RoundceilPipe&#45;&gt;PipesModule -->
<g id="edge33" class="edge">
<title>RoundceilPipe&#45;&gt;PipesModule</title>
<path fill="none" stroke="black" d="M5987,-84.81C5987,-84.81 5987,-114.65 5987,-114.65"/>
<polygon fill="black" stroke="black" points="5983.5,-114.65 5987,-124.65 5990.5,-114.65 5983.5,-114.65"/>
</g>
<!-- CuentaPipe  -->
<g id="node36" class="node">
<title>CuentaPipe </title>
<polygon fill="#fb8072" stroke="black" points="6137.04,-236.8 6052.96,-236.8 6052.96,-200.8 6137.04,-200.8 6137.04,-236.8"/>
<text text-anchor="middle" x="6095" y="-214.6" font-family="Times,serif" font-size="14.00">CuentaPipe </text>
</g>
<!-- PipesModule&#45;&gt;CuentaPipe  -->
<g id="edge34" class="edge">
<title>PipesModule&#45;&gt;CuentaPipe </title>
<path fill="none" stroke="black" stroke-dasharray="5,2" d="M6032.01,-148.8C6055.64,-148.8 6079.74,-148.8 6079.74,-148.8 6079.74,-148.8 6079.74,-190.77 6079.74,-190.77"/>
<polygon fill="black" stroke="black" points="6076.24,-190.77 6079.74,-200.77 6083.24,-190.77 6076.24,-190.77"/>
</g>
<!-- RoundceilPipe  -->
<g id="node37" class="node">
<title>RoundceilPipe </title>
<polygon fill="#fb8072" stroke="black" points="6034.93,-236.8 5933.07,-236.8 5933.07,-200.8 6034.93,-200.8 6034.93,-236.8"/>
<text text-anchor="middle" x="5984" y="-214.6" font-family="Times,serif" font-size="14.00">RoundceilPipe </text>
</g>
<!-- PipesModule&#45;&gt;RoundceilPipe  -->
<g id="edge35" class="edge">
<title>PipesModule&#45;&gt;RoundceilPipe </title>
<path fill="none" stroke="black" stroke-dasharray="5,2" d="M5987,-160.81C5987,-160.81 5987,-190.65 5987,-190.65"/>
<polygon fill="black" stroke="black" points="5983.5,-190.65 5987,-200.65 5990.5,-190.65 5983.5,-190.65"/>
</g>
<!-- ColorThemeService -->
<g id="node38" class="node">
<title>ColorThemeService</title>
<ellipse fill="#fdb462" stroke="black" cx="5804" cy="-142.8" rx="88.6" ry="18"/>
<text text-anchor="middle" x="5804" y="-138.6" font-family="Times,serif" font-size="14.00">ColorThemeService</text>
</g>
<!-- ColorThemeService&#45;&gt;ServicesModule -->
<g id="edge36" class="edge">
<title>ColorThemeService&#45;&gt;ServicesModule</title>
<path fill="none" stroke="black" d="M5804,-161.01C5804,-187.31 5804,-232.8 5804,-232.8 5804,-232.8 4450.82,-232.8 4450.82,-232.8"/>
<polygon fill="black" stroke="black" points="4450.82,-229.3 4440.82,-232.8 4450.82,-236.3 4450.82,-229.3"/>
</g>
<!-- ConfigService -->
<g id="node39" class="node">
<title>ConfigService</title>
<ellipse fill="#fdb462" stroke="black" cx="5630" cy="-142.8" rx="66.63" ry="18"/>
<text text-anchor="middle" x="5630" y="-138.6" font-family="Times,serif" font-size="14.00">ConfigService</text>
</g>
<!-- ConfigService&#45;&gt;ServicesModule -->
<g id="edge37" class="edge">
<title>ConfigService&#45;&gt;ServicesModule</title>
<path fill="none" stroke="black" d="M5630,-161.04C5630,-186.28 5630,-228.8 5630,-228.8 5630,-228.8 4450.81,-228.8 4450.81,-228.8"/>
<polygon fill="black" stroke="black" points="4450.81,-225.3 4440.81,-228.8 4450.81,-232.3 4450.81,-225.3"/>
</g>
<!-- CuentasService -->
<g id="node40" class="node">
<title>CuentasService</title>
<ellipse fill="#fdb462" stroke="black" cx="5474" cy="-142.8" rx="71.2" ry="18"/>
<text text-anchor="middle" x="5474" y="-138.6" font-family="Times,serif" font-size="14.00">CuentasService</text>
</g>
<!-- CuentasService&#45;&gt;ServicesModule -->
<g id="edge38" class="edge">
<title>CuentasService&#45;&gt;ServicesModule</title>
<path fill="none" stroke="black" d="M5474,-161C5474,-185.16 5474,-224.8 5474,-224.8 5474,-224.8 4450.53,-224.8 4450.53,-224.8"/>
<polygon fill="black" stroke="black" points="4450.53,-221.3 4440.53,-224.8 4450.53,-228.3 4450.53,-221.3"/>
</g>
<!-- GruposService -->
<g id="node41" class="node">
<title>GruposService</title>
<ellipse fill="#fdb462" stroke="black" cx="5316" cy="-142.8" rx="68.34" ry="18"/>
<text text-anchor="middle" x="5316" y="-138.6" font-family="Times,serif" font-size="14.00">GruposService</text>
</g>
<!-- GruposService&#45;&gt;ServicesModule -->
<g id="edge39" class="edge">
<title>GruposService&#45;&gt;ServicesModule</title>
<path fill="none" stroke="black" d="M5316,-160.89C5316,-183.93 5316,-220.8 5316,-220.8 5316,-220.8 4450.62,-220.8 4450.62,-220.8"/>
<polygon fill="black" stroke="black" points="4450.62,-217.3 4440.62,-220.8 4450.62,-224.3 4450.62,-217.3"/>
</g>
<!-- MenuSidebarService -->
<g id="node42" class="node">
<title>MenuSidebarService</title>
<ellipse fill="#fdb462" stroke="black" cx="5138" cy="-142.8" rx="92.03" ry="18"/>
<text text-anchor="middle" x="5138" y="-138.6" font-family="Times,serif" font-size="14.00">MenuSidebarService</text>
</g>
<!-- MenuSidebarService&#45;&gt;ServicesModule -->
<g id="edge40" class="edge">
<title>MenuSidebarService&#45;&gt;ServicesModule</title>
<path fill="none" stroke="black" d="M5138,-161.09C5138,-183.01 5138,-216.8 5138,-216.8 5138,-216.8 4450.71,-216.8 4450.71,-216.8"/>
<polygon fill="black" stroke="black" points="4450.71,-213.3 4440.71,-216.8 4450.71,-220.3 4450.71,-213.3"/>
</g>
<!-- SubgruposService -->
<g id="node43" class="node">
<title>SubgruposService</title>
<ellipse fill="#fdb462" stroke="black" cx="4947" cy="-142.8" rx="81.1" ry="18"/>
<text text-anchor="middle" x="4947" y="-138.6" font-family="Times,serif" font-size="14.00">SubgruposService</text>
</g>
<!-- SubgruposService&#45;&gt;ServicesModule -->
<g id="edge41" class="edge">
<title>SubgruposService&#45;&gt;ServicesModule</title>
<path fill="none" stroke="black" d="M4947,-160.83C4947,-181.57 4947,-212.8 4947,-212.8 4947,-212.8 4450.7,-212.8 4450.7,-212.8"/>
<polygon fill="black" stroke="black" points="4450.7,-209.3 4440.7,-212.8 4450.7,-216.3 4450.7,-209.3"/>
</g>
<!-- SweetAlertService -->
<g id="node44" class="node">
<title>SweetAlertService</title>
<ellipse fill="#fdb462" stroke="black" cx="4764" cy="-142.8" rx="83.36" ry="18"/>
<text text-anchor="middle" x="4764" y="-138.6" font-family="Times,serif" font-size="14.00">SweetAlertService</text>
</g>
<!-- SweetAlertService&#45;&gt;ServicesModule -->
<g id="edge42" class="edge">
<title>SweetAlertService&#45;&gt;ServicesModule</title>
<path fill="none" stroke="black" d="M4764,-160.83C4764,-180.38 4764,-208.8 4764,-208.8 4764,-208.8 4450.61,-208.8 4450.61,-208.8"/>
<polygon fill="black" stroke="black" points="4450.61,-205.3 4440.61,-208.8 4450.61,-212.3 4450.61,-205.3"/>
</g>
<!-- TaxesService -->
<g id="node45" class="node">
<title>TaxesService</title>
<ellipse fill="#fdb462" stroke="black" cx="4600" cy="-142.8" rx="63.1" ry="18"/>
<text text-anchor="middle" x="4600" y="-138.6" font-family="Times,serif" font-size="14.00">TaxesService</text>
</g>
<!-- TaxesService&#45;&gt;ServicesModule -->
<g id="edge43" class="edge">
<title>TaxesService&#45;&gt;ServicesModule</title>
<path fill="none" stroke="black" d="M4600,-161.07C4600,-179.36 4600,-204.8 4600,-204.8 4600,-204.8 4450.47,-204.8 4450.47,-204.8"/>
<polygon fill="black" stroke="black" points="4450.47,-201.3 4440.47,-204.8 4450.47,-208.3 4450.47,-201.3"/>
</g>
<!-- UserService -->
<g id="node46" class="node">
<title>UserService</title>
<ellipse fill="#fdb462" stroke="black" cx="4461" cy="-142.8" rx="58.44" ry="18"/>
<text text-anchor="middle" x="4461" y="-138.6" font-family="Times,serif" font-size="14.00">UserService</text>
</g>
<!-- UserService&#45;&gt;ServicesModule -->
<g id="edge44" class="edge">
<title>UserService&#45;&gt;ServicesModule</title>
<path fill="none" stroke="black" d="M4421.63,-156.39C4421.63,-156.39 4421.63,-190.76 4421.63,-190.76"/>
<polygon fill="black" stroke="black" points="4418.13,-190.76 4421.63,-200.76 4425.13,-190.76 4418.13,-190.76"/>
</g>
<!-- UsuarioService -->
<g id="node47" class="node">
<title>UsuarioService</title>
<ellipse fill="#fdb462" stroke="black" cx="4314" cy="-142.8" rx="70.62" ry="18"/>
<text text-anchor="middle" x="4314" y="-138.6" font-family="Times,serif" font-size="14.00">UsuarioService</text>
</g>
<!-- UsuarioService&#45;&gt;ServicesModule -->
<g id="edge45" class="edge">
<title>UsuarioService&#45;&gt;ServicesModule</title>
<path fill="none" stroke="black" d="M4367.55,-154.68C4367.55,-154.68 4367.55,-190.79 4367.55,-190.79"/>
<polygon fill="black" stroke="black" points="4364.05,-190.79 4367.55,-200.79 4371.05,-190.79 4364.05,-190.79"/>
</g>
<!-- ViasService -->
<g id="node48" class="node">
<title>ViasService</title>
<ellipse fill="#fdb462" stroke="black" cx="4168" cy="-142.8" rx="57.88" ry="18"/>
<text text-anchor="middle" x="4168" y="-138.6" font-family="Times,serif" font-size="14.00">ViasService</text>
</g>
<!-- ViasService&#45;&gt;ServicesModule -->
<g id="edge46" class="edge">
<title>ViasService&#45;&gt;ServicesModule</title>
<path fill="none" stroke="black" d="M4223.46,-148.13C4223.46,-154.93 4223.46,-165.8 4223.46,-165.8 4223.46,-165.8 4350.53,-165.8 4350.53,-165.8 4350.53,-165.8 4350.53,-190.56 4350.53,-190.56"/>
<polygon fill="black" stroke="black" points="4347.03,-190.56 4350.53,-200.56 4354.03,-190.56 4347.03,-190.56"/>
</g>
<!-- ColorthemeComponent -->
<g id="node49" class="node">
<title>ColorthemeComponent</title>
<polygon fill="#ffffb3" stroke="black" points="3773.93,-160.8 3626.07,-160.8 3626.07,-124.8 3773.93,-124.8 3773.93,-160.8"/>
<text text-anchor="middle" x="3700" y="-138.6" font-family="Times,serif" font-size="14.00">ColorthemeComponent</text>
</g>
<!-- ColorthemeComponent&#45;&gt;SharedModule -->
<g id="edge47" class="edge">
<title>ColorthemeComponent&#45;&gt;SharedModule</title>
<path fill="none" stroke="black" d="M3770.16,-161.01C3770.16,-166.35 3770.16,-170.8 3770.16,-170.8 3770.16,-170.8 4239.89,-170.8 4239.89,-170.8 4239.89,-170.8 4239.89,-190.65 4239.89,-190.65"/>
<polygon fill="black" stroke="black" points="4236.39,-190.65 4239.89,-200.65 4243.39,-190.65 4236.39,-190.65"/>
</g>
<!-- NavbarComponent -->
<g id="node50" class="node">
<title>NavbarComponent</title>
<polygon fill="#ffffb3" stroke="black" points="3608.03,-160.8 3485.97,-160.8 3485.97,-124.8 3608.03,-124.8 3608.03,-160.8"/>
<text text-anchor="middle" x="3547" y="-138.6" font-family="Times,serif" font-size="14.00">NavbarComponent</text>
</g>
<!-- NavbarComponent&#45;&gt;SharedModule -->
<g id="edge48" class="edge">
<title>NavbarComponent&#45;&gt;SharedModule</title>
<path fill="none" stroke="black" d="M3547,-160.84C3547,-168.55 3547,-175.8 3547,-175.8 3547,-175.8 4236.34,-175.8 4236.34,-175.8 4236.34,-175.8 4236.34,-190.31 4236.34,-190.31"/>
<polygon fill="black" stroke="black" points="4232.84,-190.31 4236.34,-200.31 4239.84,-190.31 4232.84,-190.31"/>
</g>
<!-- SidebarComponent -->
<g id="node51" class="node">
<title>SidebarComponent</title>
<polygon fill="#ffffb3" stroke="black" points="3468.1,-160.8 3343.9,-160.8 3343.9,-124.8 3468.1,-124.8 3468.1,-160.8"/>
<text text-anchor="middle" x="3406" y="-138.6" font-family="Times,serif" font-size="14.00">SidebarComponent</text>
</g>
<!-- SidebarComponent&#45;&gt;SharedModule -->
<g id="edge49" class="edge">
<title>SidebarComponent&#45;&gt;SharedModule</title>
<path fill="none" stroke="black" d="M3406,-160.91C3406,-170.7 3406,-180.8 3406,-180.8 3406,-180.8 4232.79,-180.8 4232.79,-180.8 4232.79,-180.8 4232.79,-190.69 4232.79,-190.69"/>
<polygon fill="black" stroke="black" points="4229.29,-190.69 4232.79,-200.69 4236.29,-190.69 4229.29,-190.69"/>
</g>
<!-- SidebarfooterComponent -->
<g id="node52" class="node">
<title>SidebarfooterComponent</title>
<polygon fill="#ffffb3" stroke="black" points="3325.52,-160.8 3168.48,-160.8 3168.48,-124.8 3325.52,-124.8 3325.52,-160.8"/>
<text text-anchor="middle" x="3247" y="-138.6" font-family="Times,serif" font-size="14.00">SidebarfooterComponent</text>
</g>
<!-- SidebarfooterComponent&#45;&gt;SharedModule -->
<g id="edge50" class="edge">
<title>SidebarfooterComponent&#45;&gt;SharedModule</title>
<path fill="none" stroke="black" d="M3247,-161.29C3247,-172.94 3247,-185.8 3247,-185.8 3247,-185.8 4229.24,-185.8 4229.24,-185.8 4229.24,-185.8 4229.24,-190.76 4229.24,-190.76"/>
<polygon fill="black" stroke="black" points="4225.74,-190.76 4229.24,-200.76 4232.74,-190.76 4225.74,-190.76"/>
</g>
</g>
</svg>
