<?xml version="1.0" encoding="UTF-8" standalone="no"?>
<!DOCTYPE svg PUBLIC "-//W3C//DTD SVG 1.1//EN"
 "http://www.w3.org/Graphics/SVG/1.1/DTD/svg11.dtd">
<!-- Generated by graphviz version 2.40.1 (20161225.0304)
 -->
<!-- Title: dependencies Pages: 1 -->
<svg width="5889pt" height="363pt"
 viewBox="0.00 0.00 5889.00 363.00" xmlns="http://www.w3.org/2000/svg" xmlns:xlink="http://www.w3.org/1999/xlink">
<g id="graph0" class="graph" transform="scale(1 1) rotate(0) translate(4 359)">
<title>dependencies</title>
<polygon fill="#ffffff" stroke="transparent" points="-4,4 -4,-359 5885,-359 5885,4 -4,4"/>
<text text-anchor="start" x="2919.5091" y="-42.4" font-family="sans-serif" font-weight="bold" font-size="14.00" fill="#000000">Legend</text>
<polygon fill="#ffffb3" stroke="transparent" points="2706.5,-10 2706.5,-30 2726.5,-30 2726.5,-10 2706.5,-10"/>
<text text-anchor="start" x="2730.129" y="-15.4" font-family="sans-serif" font-size="14.00" fill="#000000"> &#160;Declarations</text>
<polygon fill="#8dd3c7" stroke="transparent" points="2819.5,-10 2819.5,-30 2839.5,-30 2839.5,-10 2819.5,-10"/>
<text text-anchor="start" x="2843.2251" y="-15.4" font-family="sans-serif" font-size="14.00" fill="#000000"> &#160;Module</text>
<polygon fill="#80b1d3" stroke="transparent" points="2905.5,-10 2905.5,-30 2925.5,-30 2925.5,-10 2905.5,-10"/>
<text text-anchor="start" x="2929.2812" y="-15.4" font-family="sans-serif" font-size="14.00" fill="#000000"> &#160;Bootstrap</text>
<polygon fill="#fdb462" stroke="transparent" points="3002.5,-10 3002.5,-30 3022.5,-30 3022.5,-10 3002.5,-10"/>
<text text-anchor="start" x="3026.1732" y="-15.4" font-family="sans-serif" font-size="14.00" fill="#000000"> &#160;Providers</text>
<polygon fill="#fb8072" stroke="transparent" points="3098.5,-10 3098.5,-30 3118.5,-30 3118.5,-10 3098.5,-10"/>
<text text-anchor="start" x="3122.2258" y="-15.4" font-family="sans-serif" font-size="14.00" fill="#000000"> &#160;Exports</text>
<g id="clust1" class="cluster">
<title>cluster_AppModule</title>
<polygon fill="none" stroke="#000000" stroke-dasharray="1,5" points="2416,-146 2416,-347 3364,-347 3364,-146 2416,-146"/>
</g>
<g id="clust2" class="cluster">
<title>cluster_AppModule_declarations</title>
<polygon fill="none" stroke="#000000" points="2970,-154 2970,-206 3356,-206 3356,-154 2970,-154"/>
</g>
<g id="clust6" class="cluster">
<title>cluster_AppModule_imports</title>
<polygon fill="none" stroke="#000000" points="2612,-154 2612,-206 2962,-206 2962,-154 2612,-154"/>
</g>
<g id="clust8" class="cluster">
<title>cluster_AppModule_bootstrap</title>
<polygon fill="none" stroke="#000000" points="2846,-287 2846,-339 2970,-339 2970,-287 2846,-287"/>
</g>
<g id="clust9" class="cluster">
<title>cluster_AppModule_providers</title>
<polygon fill="none" stroke="#000000" points="2424,-154 2424,-206 2604,-206 2604,-154 2424,-154"/>
</g>
<g id="clust10" class="cluster">
<title>cluster_PagesModule</title>
<polygon fill="none" stroke="#000000" stroke-dasharray="1,5" points="2588,-70 2588,-138 5629,-138 5629,-70 2588,-70"/>
</g>
<g id="clust11" class="cluster">
<title>cluster_PagesModule_declarations</title>
<polygon fill="none" stroke="#000000" points="2596,-78 2596,-130 5621,-130 5621,-78 2596,-78"/>
</g>
<g id="clust37" class="cluster">
<title>cluster_PipesModule</title>
<polygon fill="none" stroke="#000000" stroke-dasharray="1,5" points="5637,-70 5637,-279 5873,-279 5873,-70 5637,-70"/>
</g>
<g id="clust38" class="cluster">
<title>cluster_PipesModule_declarations</title>
<polygon fill="none" stroke="#000000" points="5656,-78 5656,-130 5752,-130 5752,-78 5656,-78"/>
</g>
<g id="clust42" class="cluster">
<title>cluster_PipesModule_exports</title>
<polygon fill="none" stroke="#000000" points="5645,-219 5645,-271 5865,-271 5865,-219 5645,-219"/>
</g>
<g id="clust45" class="cluster">
<title>cluster_ServicesModule</title>
<polygon fill="none" stroke="#000000" stroke-dasharray="1,5" points="950,-70 950,-138 2580,-138 2580,-70 950,-70"/>
</g>
<g id="clust50" class="cluster">
<title>cluster_ServicesModule_providers</title>
<polygon fill="none" stroke="#000000" points="958,-78 958,-130 2572,-130 2572,-78 958,-78"/>
</g>
<g id="clust51" class="cluster">
<title>cluster_SharedModule</title>
<polygon fill="none" stroke="#000000" stroke-dasharray="1,5" points="8,-70 8,-138 942,-138 942,-70 8,-70"/>
</g>
<g id="clust52" class="cluster">
<title>cluster_SharedModule_declarations</title>
<polygon fill="none" stroke="#000000" points="312,-78 312,-130 934,-130 934,-78 312,-78"/>
</g>
<g id="clust58" class="cluster">
<title>cluster_SharedModule_exports</title>
<polygon fill="none" stroke="#000000" points="16,-78 16,-130 304,-130 304,-78 16,-78"/>
</g>
<!-- AppComponent -->
<g id="node1" class="node">
<title>AppComponent</title>
<polygon fill="#ffffb3" stroke="#000000" points="3347.9399,-198 3242.0601,-198 3242.0601,-162 3347.9399,-162 3347.9399,-198"/>
<text text-anchor="middle" x="3295" y="-175.8" font-family="Times,serif" font-size="14.00" fill="#000000">AppComponent</text>
</g>
<!-- AppModule -->
<g id="node4" class="node">
<title>AppModule</title>
<polygon fill="#8dd3c7" stroke="#000000" points="2949.6571,-263 2946.6571,-267 2925.6571,-267 2922.6571,-263 2866.3429,-263 2866.3429,-227 2949.6571,-227 2949.6571,-263"/>
<text text-anchor="middle" x="2908" y="-240.8" font-family="Times,serif" font-size="14.00" fill="#000000">AppModule</text>
</g>
<!-- AppComponent&#45;&gt;AppModule -->
<g id="edge1" class="edge">
<title>AppComponent&#45;&gt;AppModule</title>
<path fill="none" stroke="#000000" d="M3295,-198.2921C3295,-220.2057 3295,-254 3295,-254 3295,-254 2959.7835,-254 2959.7835,-254"/>
<polygon fill="#000000" stroke="#000000" points="2959.7835,-250.5001 2949.7835,-254 2959.7834,-257.5001 2959.7835,-250.5001"/>
</g>
<!-- LoginComponent -->
<g id="node2" class="node">
<title>LoginComponent</title>
<polygon fill="#ffffb3" stroke="#000000" points="3224.2758,-198 3109.7242,-198 3109.7242,-162 3224.2758,-162 3224.2758,-198"/>
<text text-anchor="middle" x="3167" y="-175.8" font-family="Times,serif" font-size="14.00" fill="#000000">LoginComponent</text>
</g>
<!-- LoginComponent&#45;&gt;AppModule -->
<g id="edge2" class="edge">
<title>LoginComponent&#45;&gt;AppModule</title>
<path fill="none" stroke="#000000" d="M3167,-198.1061C3167,-217.3391 3167,-245 3167,-245 3167,-245 2959.9007,-245 2959.9007,-245"/>
<polygon fill="#000000" stroke="#000000" points="2959.9007,-241.5001 2949.9007,-245 2959.9006,-248.5001 2959.9007,-241.5001"/>
</g>
<!-- PagesComponent -->
<g id="node3" class="node">
<title>PagesComponent</title>
<polygon fill="#ffffb3" stroke="#000000" points="3091.9888,-198 2978.0112,-198 2978.0112,-162 3091.9888,-162 3091.9888,-198"/>
<text text-anchor="middle" x="3035" y="-175.8" font-family="Times,serif" font-size="14.00" fill="#000000">PagesComponent</text>
</g>
<!-- PagesComponent&#45;&gt;AppModule -->
<g id="edge3" class="edge">
<title>PagesComponent&#45;&gt;AppModule</title>
<path fill="none" stroke="#000000" d="M3035,-198.027C3035,-214.3976 3035,-236 3035,-236 3035,-236 2959.9365,-236 2959.9365,-236"/>
<polygon fill="#000000" stroke="#000000" points="2959.9366,-232.5001 2949.9365,-236 2959.9365,-239.5001 2959.9366,-232.5001"/>
</g>
<!-- AppComponent  -->
<g id="node8" class="node">
<title>AppComponent </title>
<polygon fill="#80b1d3" stroke="#000000" points="2962.439,-331 2853.561,-331 2853.561,-295 2962.439,-295 2962.439,-331"/>
<text text-anchor="middle" x="2908" y="-308.8" font-family="Times,serif" font-size="14.00" fill="#000000">AppComponent </text>
</g>
<!-- AppModule&#45;&gt;AppComponent  -->
<g id="edge7" class="edge">
<title>AppModule&#45;&gt;AppComponent </title>
<path fill="none" stroke="#000000" stroke-dasharray="1,5" d="M2908,-263.2228C2908,-263.2228 2908,-284.7269 2908,-284.7269"/>
<polygon fill="#000000" stroke="#000000" points="2904.5001,-284.7269 2908,-294.7269 2911.5001,-284.727 2904.5001,-284.7269"/>
</g>
<!-- PagesModule -->
<g id="node5" class="node">
<title>PagesModule</title>
<polygon fill="#8dd3c7" stroke="#000000" points="2954.2064,-198 2951.2064,-202 2930.2064,-202 2927.2064,-198 2861.7936,-198 2861.7936,-162 2954.2064,-162 2954.2064,-198"/>
<text text-anchor="middle" x="2908" y="-175.8" font-family="Times,serif" font-size="14.00" fill="#000000">PagesModule</text>
</g>
<!-- PagesModule&#45;&gt;AppModule -->
<g id="edge4" class="edge">
<title>PagesModule&#45;&gt;AppModule</title>
<path fill="none" stroke="#000000" d="M2908,-198.1061C2908,-198.1061 2908,-216.991 2908,-216.991"/>
<polygon fill="#000000" stroke="#000000" points="2904.5001,-216.9909 2908,-226.991 2911.5001,-216.991 2904.5001,-216.9909"/>
</g>
<!-- ServicesModule -->
<g id="node6" class="node">
<title>ServicesModule</title>
<polygon fill="#8dd3c7" stroke="#000000" points="2843.472,-198 2840.472,-202 2819.472,-202 2816.472,-198 2736.528,-198 2736.528,-162 2843.472,-162 2843.472,-198"/>
<text text-anchor="middle" x="2790" y="-175.8" font-family="Times,serif" font-size="14.00" fill="#000000">ServicesModule</text>
</g>
<!-- ServicesModule&#45;&gt;AppModule -->
<g id="edge5" class="edge">
<title>ServicesModule&#45;&gt;AppModule</title>
<path fill="none" stroke="#000000" d="M2790,-198.027C2790,-214.3976 2790,-236 2790,-236 2790,-236 2856.0654,-236 2856.0654,-236"/>
<polygon fill="#000000" stroke="#000000" points="2856.0654,-239.5001 2866.0654,-236 2856.0653,-232.5001 2856.0654,-239.5001"/>
</g>
<!-- SharedModule -->
<g id="node7" class="node">
<title>SharedModule</title>
<polygon fill="#8dd3c7" stroke="#000000" points="2718.4231,-198 2715.4231,-202 2694.4231,-202 2691.4231,-198 2619.5769,-198 2619.5769,-162 2718.4231,-162 2718.4231,-198"/>
<text text-anchor="middle" x="2669" y="-175.8" font-family="Times,serif" font-size="14.00" fill="#000000">SharedModule</text>
</g>
<!-- SharedModule&#45;&gt;AppModule -->
<g id="edge6" class="edge">
<title>SharedModule&#45;&gt;AppModule</title>
<path fill="none" stroke="#000000" d="M2669,-198.1061C2669,-217.3391 2669,-245 2669,-245 2669,-245 2856.0959,-245 2856.0959,-245"/>
<polygon fill="#000000" stroke="#000000" points="2856.0959,-248.5001 2866.0959,-245 2856.0959,-241.5001 2856.0959,-248.5001"/>
</g>
<!-- NavbarComponent  -->
<g id="node49" class="node">
<title>NavbarComponent </title>
<polygon fill="#fb8072" stroke="#000000" points="296.0288,-122 169.9712,-122 169.9712,-86 296.0288,-86 296.0288,-122"/>
<text text-anchor="middle" x="233" y="-99.8" font-family="Times,serif" font-size="14.00" fill="#000000">NavbarComponent </text>
</g>
<!-- SharedModule&#45;&gt;NavbarComponent  -->
<g id="edge48" class="edge">
<title>SharedModule&#45;&gt;NavbarComponent </title>
<path fill="none" stroke="#000000" stroke-dasharray="5,2" d="M2641.2847,-161.8457C2641.2847,-160.7031 2641.2847,-160 2641.2847,-160 2641.2847,-160 233,-160 233,-160 233,-160 233,-132.027 233,-132.027"/>
<polygon fill="#000000" stroke="#000000" points="236.5001,-132.027 233,-122.027 229.5001,-132.027 236.5001,-132.027"/>
</g>
<!-- SidebarComponent  -->
<g id="node50" class="node">
<title>SidebarComponent </title>
<polygon fill="#fb8072" stroke="#000000" points="151.596,-122 24.404,-122 24.404,-86 151.596,-86 151.596,-122"/>
<text text-anchor="middle" x="88" y="-99.8" font-family="Times,serif" font-size="14.00" fill="#000000">SidebarComponent </text>
</g>
<!-- SharedModule&#45;&gt;SidebarComponent  -->
<g id="edge49" class="edge">
<title>SharedModule&#45;&gt;SidebarComponent </title>
<path fill="none" stroke="#000000" stroke-dasharray="5,2" d="M2630.5368,-161.8164C2630.5368,-161.2969 2630.5368,-161 2630.5368,-161 2630.5368,-161 88,-161 88,-161 88,-161 88,-132.0352 88,-132.0352"/>
<polygon fill="#000000" stroke="#000000" points="91.5001,-132.0351 88,-122.0352 84.5001,-132.0352 91.5001,-132.0351"/>
</g>
<!-- InterceptorService -->
<g id="node9" class="node">
<title>InterceptorService</title>
<ellipse fill="#fdb462" stroke="#000000" cx="2514" cy="-180" rx="82.1986" ry="18"/>
<text text-anchor="middle" x="2514" y="-175.8" font-family="Times,serif" font-size="14.00" fill="#000000">InterceptorService</text>
</g>
<!-- InterceptorService&#45;&gt;AppModule -->
<g id="edge8" class="edge">
<title>InterceptorService&#45;&gt;AppModule</title>
<path fill="none" stroke="#000000" d="M2514,-198.2921C2514,-220.2057 2514,-254 2514,-254 2514,-254 2856.2081,-254 2856.2081,-254"/>
<polygon fill="#000000" stroke="#000000" points="2856.2081,-257.5001 2866.2081,-254 2856.2081,-250.5001 2856.2081,-257.5001"/>
</g>
<!-- ConfigComponent -->
<g id="node10" class="node">
<title>ConfigComponent</title>
<polygon fill="#ffffb3" stroke="#000000" points="5497.2204,-122 5376.7796,-122 5376.7796,-86 5497.2204,-86 5497.2204,-122"/>
<text text-anchor="middle" x="5437" y="-99.8" font-family="Times,serif" font-size="14.00" fill="#000000">ConfigComponent</text>
</g>
<!-- ConfigComponent&#45;&gt;PagesModule -->
<g id="edge9" class="edge">
<title>ConfigComponent&#45;&gt;PagesModule</title>
<path fill="none" stroke="#000000" d="M5437,-122.0664C5437,-131.4587 5437,-141 5437,-141 5437,-141 2944.8825,-141 2944.8825,-141 2944.8825,-141 2944.8825,-151.8701 2944.8825,-151.8701"/>
<polygon fill="#000000" stroke="#000000" points="2941.3826,-151.8701 2944.8825,-161.8701 2948.3826,-151.8701 2941.3826,-151.8701"/>
</g>
<!-- ContabilidadComponent -->
<g id="node11" class="node">
<title>ContabilidadComponent</title>
<polygon fill="#ffffb3" stroke="#000000" points="5358.661,-122 5205.339,-122 5205.339,-86 5358.661,-86 5358.661,-122"/>
<text text-anchor="middle" x="5282" y="-99.8" font-family="Times,serif" font-size="14.00" fill="#000000">ContabilidadComponent</text>
</g>
<!-- ContabilidadComponent&#45;&gt;PagesModule -->
<g id="edge10" class="edge">
<title>ContabilidadComponent&#45;&gt;PagesModule</title>
<path fill="none" stroke="#000000" d="M5282,-122.4218C5282,-131.2791 5282,-140 5282,-140 5282,-140 2940.2722,-140 2940.2722,-140 2940.2722,-140 2940.2722,-151.8726 2940.2722,-151.8726"/>
<polygon fill="#000000" stroke="#000000" points="2936.7723,-151.8725 2940.2722,-161.8726 2943.7723,-151.8726 2936.7723,-151.8725"/>
</g>
<!-- CuentaComponent -->
<g id="node12" class="node">
<title>CuentaComponent</title>
<polygon fill="#ffffb3" stroke="#000000" points="5187.4888,-122 5066.5112,-122 5066.5112,-86 5187.4888,-86 5187.4888,-122"/>
<text text-anchor="middle" x="5127" y="-99.8" font-family="Times,serif" font-size="14.00" fill="#000000">CuentaComponent</text>
</g>
<!-- CuentaComponent&#45;&gt;PagesModule -->
<g id="edge11" class="edge">
<title>CuentaComponent&#45;&gt;PagesModule</title>
<path fill="none" stroke="#000000" d="M5127,-122.1944C5127,-130.2782 5127,-138 5127,-138 5127,-138 2935.6619,-138 2935.6619,-138 2935.6619,-138 2935.6619,-151.9445 2935.6619,-151.9445"/>
<polygon fill="#000000" stroke="#000000" points="2932.162,-151.9444 2935.6619,-161.9445 2939.162,-151.9445 2932.162,-151.9444"/>
</g>
<!-- CuentasComponent -->
<g id="node13" class="node">
<title>CuentasComponent</title>
<polygon fill="#ffffb3" stroke="#000000" points="5048.4341,-122 4921.5659,-122 4921.5659,-86 5048.4341,-86 5048.4341,-122"/>
<text text-anchor="middle" x="4985" y="-99.8" font-family="Times,serif" font-size="14.00" fill="#000000">CuentasComponent</text>
</g>
<!-- CuentasComponent&#45;&gt;PagesModule -->
<g id="edge12" class="edge">
<title>CuentasComponent&#45;&gt;PagesModule</title>
<path fill="none" stroke="#000000" d="M4985,-122.0449C4985,-129.749 4985,-137 4985,-137 4985,-137 2931.0516,-137 2931.0516,-137 2931.0516,-137 2931.0516,-151.5146 2931.0516,-151.5146"/>
<polygon fill="#000000" stroke="#000000" points="2927.5516,-151.5145 2931.0516,-161.5146 2934.5516,-151.5146 2927.5516,-151.5145"/>
</g>
<!-- DashboardComponent -->
<g id="node14" class="node">
<title>DashboardComponent</title>
<polygon fill="#ffffb3" stroke="#000000" points="4903.9734,-122 4762.0266,-122 4762.0266,-86 4903.9734,-86 4903.9734,-122"/>
<text text-anchor="middle" x="4833" y="-99.8" font-family="Times,serif" font-size="14.00" fill="#000000">DashboardComponent</text>
</g>
<!-- DashboardComponent&#45;&gt;PagesModule -->
<g id="edge13" class="edge">
<title>DashboardComponent&#45;&gt;PagesModule</title>
<path fill="none" stroke="#000000" d="M4833,-122.2434C4833,-129.4297 4833,-136 4833,-136 4833,-136 2926.4412,-136 2926.4412,-136 2926.4412,-136 2926.4412,-151.8495 2926.4412,-151.8495"/>
<polygon fill="#000000" stroke="#000000" points="2922.9413,-151.8494 2926.4412,-161.8495 2929.9413,-151.8495 2922.9413,-151.8494"/>
</g>
<!-- GrupoComponent -->
<g id="node15" class="node">
<title>GrupoComponent</title>
<polygon fill="#ffffb3" stroke="#000000" points="4743.5996,-122 4626.4004,-122 4626.4004,-86 4743.5996,-86 4743.5996,-122"/>
<text text-anchor="middle" x="4685" y="-99.8" font-family="Times,serif" font-size="14.00" fill="#000000">GrupoComponent</text>
</g>
<!-- GrupoComponent&#45;&gt;PagesModule -->
<g id="edge14" class="edge">
<title>GrupoComponent&#45;&gt;PagesModule</title>
<path fill="none" stroke="#000000" d="M4685,-122.0328C4685,-128.8526 4685,-135 4685,-135 4685,-135 2921.8309,-135 2921.8309,-135 2921.8309,-135 2921.8309,-151.9561 2921.8309,-151.9561"/>
<polygon fill="#000000" stroke="#000000" points="2918.331,-151.956 2921.8309,-161.9561 2925.331,-151.9561 2918.331,-151.956"/>
</g>
<!-- GruposComponent -->
<g id="node16" class="node">
<title>GruposComponent</title>
<polygon fill="#ffffb3" stroke="#000000" points="4608.045,-122 4485.955,-122 4485.955,-86 4608.045,-86 4608.045,-122"/>
<text text-anchor="middle" x="4547" y="-99.8" font-family="Times,serif" font-size="14.00" fill="#000000">GruposComponent</text>
</g>
<!-- GruposComponent&#45;&gt;PagesModule -->
<g id="edge15" class="edge">
<title>GruposComponent&#45;&gt;PagesModule</title>
<path fill="none" stroke="#000000" d="M4547,-122.1432C4547,-128.4611 4547,-134 4547,-134 4547,-134 2917.2206,-134 2917.2206,-134 2917.2206,-134 2917.2206,-151.8196 2917.2206,-151.8196"/>
<polygon fill="#000000" stroke="#000000" points="2913.7207,-151.8195 2917.2206,-161.8196 2920.7207,-151.8196 2913.7207,-151.8195"/>
</g>
<!-- LoadTableComponent -->
<g id="node17" class="node">
<title>LoadTableComponent</title>
<polygon fill="#ffffb3" stroke="#000000" points="4467.972,-122 4326.028,-122 4326.028,-86 4467.972,-86 4467.972,-122"/>
<text text-anchor="middle" x="4397" y="-99.8" font-family="Times,serif" font-size="14.00" fill="#000000">LoadTableComponent</text>
</g>
<!-- LoadTableComponent&#45;&gt;PagesModule -->
<g id="edge16" class="edge">
<title>LoadTableComponent&#45;&gt;PagesModule</title>
<path fill="none" stroke="#000000" d="M4397,-122.2015C4397,-128.028 4397,-133 4397,-133 4397,-133 2912.6103,-133 2912.6103,-133 2912.6103,-133 2912.6103,-151.963 2912.6103,-151.963"/>
<polygon fill="#000000" stroke="#000000" points="2909.1104,-151.963 2912.6103,-161.963 2916.1104,-151.963 2909.1104,-151.963"/>
</g>
<!-- NotfoundComponent -->
<g id="node18" class="node">
<title>NotfoundComponent</title>
<polygon fill="#ffffb3" stroke="#000000" points="4308.4902,-122 4173.5098,-122 4173.5098,-86 4308.4902,-86 4308.4902,-122"/>
<text text-anchor="middle" x="4241" y="-99.8" font-family="Times,serif" font-size="14.00" fill="#000000">NotfoundComponent</text>
</g>
<!-- NotfoundComponent&#45;&gt;PagesModule -->
<g id="edge17" class="edge">
<title>NotfoundComponent&#45;&gt;PagesModule</title>
<path fill="none" stroke="#000000" d="M4241,-122.207C4241,-127.5549 4241,-132 4241,-132 4241,-132 2908,-132 2908,-132 2908,-132 2908,-151.8533 2908,-151.8533"/>
<polygon fill="#000000" stroke="#000000" points="2904.5001,-151.8532 2908,-161.8533 2911.5001,-151.8533 2904.5001,-151.8532"/>
</g>
<!-- RoundceilPipe -->
<g id="node19" class="node">
<title>RoundceilPipe</title>
<polygon fill="#ffffb3" stroke="#000000" points="5613.4358,-122 5514.5642,-122 5514.5642,-86 5613.4358,-86 5613.4358,-122"/>
<text text-anchor="middle" x="5564" y="-99.8" font-family="Times,serif" font-size="14.00" fill="#000000">RoundceilPipe</text>
</g>
<!-- RoundceilPipe&#45;&gt;PagesModule -->
<g id="edge18" class="edge">
<title>RoundceilPipe&#45;&gt;PagesModule</title>
<path fill="none" stroke="#000000" d="M5547.5942,-122.1097C5547.5942,-131.897 5547.5942,-142 5547.5942,-142 5547.5942,-142 2949.4928,-142 2949.4928,-142 2949.4928,-142 2949.4928,-151.8903 2949.4928,-151.8903"/>
<polygon fill="#000000" stroke="#000000" points="2945.9929,-151.8903 2949.4928,-161.8903 2952.9929,-151.8904 2945.9929,-151.8903"/>
</g>
<!-- PipesModule -->
<g id="node32" class="node">
<title>PipesModule</title>
<polygon fill="#8dd3c7" stroke="#000000" points="5748.8823,-198 5745.8823,-202 5724.8823,-202 5721.8823,-198 5659.1177,-198 5659.1177,-162 5748.8823,-162 5748.8823,-198"/>
<text text-anchor="middle" x="5704" y="-175.8" font-family="Times,serif" font-size="14.00" fill="#000000">PipesModule</text>
</g>
<!-- RoundceilPipe&#45;&gt;PipesModule -->
<g id="edge31" class="edge">
<title>RoundceilPipe&#45;&gt;PipesModule</title>
<path fill="none" stroke="#000000" d="M5580.4058,-122.0109C5580.4058,-144.4852 5580.4058,-180 5580.4058,-180 5580.4058,-180 5649.03,-180 5649.03,-180"/>
<polygon fill="#000000" stroke="#000000" points="5649.0301,-183.5001 5659.03,-180 5649.03,-176.5001 5649.0301,-183.5001"/>
</g>
<!-- SubcuentaComponent -->
<g id="node20" class="node">
<title>SubcuentaComponent</title>
<polygon fill="#ffffb3" stroke="#000000" points="4030.6498,-122 3891.3502,-122 3891.3502,-86 4030.6498,-86 4030.6498,-122"/>
<text text-anchor="middle" x="3961" y="-99.8" font-family="Times,serif" font-size="14.00" fill="#000000">SubcuentaComponent</text>
</g>
<!-- SubcuentaComponent&#45;&gt;PagesModule -->
<g id="edge19" class="edge">
<title>SubcuentaComponent&#45;&gt;PagesModule</title>
<path fill="none" stroke="#000000" d="M3961,-122.1686C3961,-126.0459 3961,-129 3961,-129 3961,-129 2898.7794,-129 2898.7794,-129 2898.7794,-129 2898.7794,-151.8757 2898.7794,-151.8757"/>
<polygon fill="#000000" stroke="#000000" points="2895.2795,-151.8757 2898.7794,-161.8757 2902.2795,-151.8757 2895.2795,-151.8757"/>
</g>
<!-- SubcuentasComponent -->
<g id="node21" class="node">
<title>SubcuentasComponent</title>
<polygon fill="#ffffb3" stroke="#000000" points="3873.594,-122 3728.406,-122 3728.406,-86 3873.594,-86 3873.594,-122"/>
<text text-anchor="middle" x="3801" y="-99.8" font-family="Times,serif" font-size="14.00" fill="#000000">SubcuentasComponent</text>
</g>
<!-- SubcuentasComponent&#45;&gt;PagesModule -->
<g id="edge20" class="edge">
<title>SubcuentasComponent&#45;&gt;PagesModule</title>
<path fill="none" stroke="#000000" d="M3801,-122.1903C3801,-125.5376 3801,-128 3801,-128 3801,-128 2894.1691,-128 2894.1691,-128 2894.1691,-128 2894.1691,-151.8129 2894.1691,-151.8129"/>
<polygon fill="#000000" stroke="#000000" points="2890.6692,-151.8129 2894.1691,-161.8129 2897.6692,-151.813 2890.6692,-151.8129"/>
</g>
<!-- SubgrupoComponent -->
<g id="node22" class="node">
<title>SubgrupoComponent</title>
<polygon fill="#ffffb3" stroke="#000000" points="3710.7758,-122 3575.2242,-122 3575.2242,-86 3710.7758,-86 3710.7758,-122"/>
<text text-anchor="middle" x="3643" y="-99.8" font-family="Times,serif" font-size="14.00" fill="#000000">SubgrupoComponent</text>
</g>
<!-- SubgrupoComponent&#45;&gt;PagesModule -->
<g id="edge21" class="edge">
<title>SubgrupoComponent&#45;&gt;PagesModule</title>
<path fill="none" stroke="#000000" d="M3643,-122.1223C3643,-124.9729 3643,-127 3643,-127 3643,-127 2889.5588,-127 2889.5588,-127 2889.5588,-127 2889.5588,-151.7604 2889.5588,-151.7604"/>
<polygon fill="#000000" stroke="#000000" points="2886.0589,-151.7604 2889.5588,-161.7604 2893.0589,-151.7604 2886.0589,-151.7604"/>
</g>
<!-- SubgruposComponent -->
<g id="node23" class="node">
<title>SubgruposComponent</title>
<polygon fill="#ffffb3" stroke="#000000" points="3557.7204,-122 3416.2796,-122 3416.2796,-86 3557.7204,-86 3557.7204,-122"/>
<text text-anchor="middle" x="3487" y="-99.8" font-family="Times,serif" font-size="14.00" fill="#000000">SubgruposComponent</text>
</g>
<!-- SubgruposComponent&#45;&gt;PagesModule -->
<g id="edge22" class="edge">
<title>SubgruposComponent&#45;&gt;PagesModule</title>
<path fill="none" stroke="#000000" d="M3487,-122.1679C3487,-124.4478 3487,-126 3487,-126 3487,-126 2884.9485,-126 2884.9485,-126 2884.9485,-126 2884.9485,-151.7181 2884.9485,-151.7181"/>
<polygon fill="#000000" stroke="#000000" points="2881.4485,-151.718 2884.9485,-161.7181 2888.4485,-151.7181 2881.4485,-151.718"/>
</g>
<!-- TaxComponent -->
<g id="node24" class="node">
<title>TaxComponent</title>
<polygon fill="#ffffb3" stroke="#000000" points="3398.5996,-122 3295.4004,-122 3295.4004,-86 3398.5996,-86 3398.5996,-122"/>
<text text-anchor="middle" x="3347" y="-99.8" font-family="Times,serif" font-size="14.00" fill="#000000">TaxComponent</text>
</g>
<!-- TaxComponent&#45;&gt;PagesModule -->
<g id="edge23" class="edge">
<title>TaxComponent&#45;&gt;PagesModule</title>
<path fill="none" stroke="#000000" d="M3321.5849,-122.08C3321.5849,-123.8464 3321.5849,-125 3321.5849,-125 3321.5849,-125 2880.3381,-125 2880.3381,-125 2880.3381,-125 2880.3381,-151.9909 2880.3381,-151.9909"/>
<polygon fill="#000000" stroke="#000000" points="2876.8382,-151.9909 2880.3381,-161.9909 2883.8382,-151.991 2876.8382,-151.9909"/>
</g>
<!-- TaxformComponent -->
<g id="node25" class="node">
<title>TaxformComponent</title>
<polygon fill="#ffffb3" stroke="#000000" points="3277.3118,-122 3146.6882,-122 3146.6882,-86 3277.3118,-86 3277.3118,-122"/>
<text text-anchor="middle" x="3212" y="-99.8" font-family="Times,serif" font-size="14.00" fill="#000000">TaxformComponent</text>
</g>
<!-- TaxformComponent&#45;&gt;PagesModule -->
<g id="edge24" class="edge">
<title>TaxformComponent&#45;&gt;PagesModule</title>
<path fill="none" stroke="#000000" d="M3185.6161,-122.1543C3185.6161,-123.2969 3185.6161,-124 3185.6161,-124 3185.6161,-124 2875.7278,-124 2875.7278,-124 2875.7278,-124 2875.7278,-151.973 2875.7278,-151.973"/>
<polygon fill="#000000" stroke="#000000" points="2872.2279,-151.973 2875.7278,-161.973 2879.2279,-151.973 2872.2279,-151.973"/>
</g>
<!-- TaxporformComponent -->
<g id="node26" class="node">
<title>TaxporformComponent</title>
<polygon fill="#ffffb3" stroke="#000000" points="3128.472,-122 2979.528,-122 2979.528,-86 3128.472,-86 3128.472,-122"/>
<text text-anchor="middle" x="3054" y="-99.8" font-family="Times,serif" font-size="14.00" fill="#000000">TaxporformComponent</text>
</g>
<!-- TaxporformComponent&#45;&gt;PagesModule -->
<g id="edge25" class="edge">
<title>TaxporformComponent&#45;&gt;PagesModule</title>
<path fill="none" stroke="#000000" d="M2979.5216,-104C2973.8278,-104 2970.2376,-104 2970.2376,-104 2970.2376,-104 2970.2376,-180 2970.2376,-180 2970.2376,-180 2964.2098,-180 2964.2098,-180"/>
<polygon fill="#000000" stroke="#000000" points="2964.2099,-176.5001 2954.2098,-180 2964.2098,-183.5001 2964.2099,-176.5001"/>
</g>
<!-- UserComponent -->
<g id="node27" class="node">
<title>UserComponent</title>
<polygon fill="#ffffb3" stroke="#000000" points="2961.7591,-122 2854.2409,-122 2854.2409,-86 2961.7591,-86 2961.7591,-122"/>
<text text-anchor="middle" x="2908" y="-99.8" font-family="Times,serif" font-size="14.00" fill="#000000">UserComponent</text>
</g>
<!-- UserComponent&#45;&gt;PagesModule -->
<g id="edge26" class="edge">
<title>UserComponent&#45;&gt;PagesModule</title>
<path fill="none" stroke="#000000" d="M2871.1175,-122.0109C2871.1175,-122.0109 2871.1175,-151.855 2871.1175,-151.855"/>
<polygon fill="#000000" stroke="#000000" points="2867.6176,-151.8549 2871.1175,-161.855 2874.6176,-151.855 2867.6176,-151.8549"/>
</g>
<!-- UsersComponent -->
<g id="node28" class="node">
<title>UsersComponent</title>
<polygon fill="#ffffb3" stroke="#000000" points="2836.7036,-122 2723.2964,-122 2723.2964,-86 2836.7036,-86 2836.7036,-122"/>
<text text-anchor="middle" x="2780" y="-99.8" font-family="Times,serif" font-size="14.00" fill="#000000">UsersComponent</text>
</g>
<!-- UsersComponent&#45;&gt;PagesModule -->
<g id="edge27" class="edge">
<title>UsersComponent&#45;&gt;PagesModule</title>
<path fill="none" stroke="#000000" d="M2836.8868,-104C2843.8157,-104 2848.5083,-104 2848.5083,-104 2848.5083,-104 2848.5083,-180 2848.5083,-180 2848.5083,-180 2851.7114,-180 2851.7114,-180"/>
<polygon fill="#000000" stroke="#000000" points="2851.7114,-183.5001 2861.7114,-180 2851.7114,-176.5001 2851.7114,-183.5001"/>
</g>
<!-- ViaComponent -->
<g id="node29" class="node">
<title>ViaComponent</title>
<polygon fill="#ffffb3" stroke="#000000" points="2705.5452,-122 2604.4548,-122 2604.4548,-86 2705.5452,-86 2705.5452,-122"/>
<text text-anchor="middle" x="2655" y="-99.8" font-family="Times,serif" font-size="14.00" fill="#000000">ViaComponent</text>
</g>
<!-- ViaComponent&#45;&gt;PagesModule -->
<g id="edge28" class="edge">
<title>ViaComponent&#45;&gt;PagesModule</title>
<path fill="none" stroke="#000000" d="M2695.0242,-122.1299C2695.0242,-132.3145 2695.0242,-143 2695.0242,-143 2695.0242,-143 2866.5072,-143 2866.5072,-143 2866.5072,-143 2866.5072,-151.9336 2866.5072,-151.9336"/>
<polygon fill="#000000" stroke="#000000" points="2863.0073,-151.9335 2866.5072,-161.9336 2870.0073,-151.9336 2863.0073,-151.9335"/>
</g>
<!-- ViasComponent -->
<g id="node30" class="node">
<title>ViasComponent</title>
<polygon fill="#ffffb3" stroke="#000000" points="4155.4888,-122 4048.5112,-122 4048.5112,-86 4155.4888,-86 4155.4888,-122"/>
<text text-anchor="middle" x="4102" y="-99.8" font-family="Times,serif" font-size="14.00" fill="#000000">ViasComponent</text>
</g>
<!-- ViasComponent&#45;&gt;PagesModule -->
<g id="edge29" class="edge">
<title>ViasComponent&#45;&gt;PagesModule</title>
<path fill="none" stroke="#000000" d="M4102,-122.0579C4102,-126.4945 4102,-130 4102,-130 4102,-130 2903.3897,-130 2903.3897,-130 2903.3897,-130 2903.3897,-151.9489 2903.3897,-151.9489"/>
<polygon fill="#000000" stroke="#000000" points="2899.8898,-151.9488 2903.3897,-161.9489 2906.8898,-151.9489 2899.8898,-151.9488"/>
</g>
<!-- CuentaPipe -->
<g id="node31" class="node">
<title>CuentaPipe</title>
<polygon fill="#ffffb3" stroke="#000000" points="5744.0455,-122 5663.9545,-122 5663.9545,-86 5744.0455,-86 5744.0455,-122"/>
<text text-anchor="middle" x="5704" y="-99.8" font-family="Times,serif" font-size="14.00" fill="#000000">CuentaPipe</text>
</g>
<!-- CuentaPipe&#45;&gt;PipesModule -->
<g id="edge30" class="edge">
<title>CuentaPipe&#45;&gt;PipesModule</title>
<path fill="none" stroke="#000000" d="M5704,-122.0109C5704,-122.0109 5704,-151.855 5704,-151.855"/>
<polygon fill="#000000" stroke="#000000" points="5700.5001,-151.8549 5704,-161.855 5707.5001,-151.855 5700.5001,-151.8549"/>
</g>
<!-- CuentaPipe  -->
<g id="node33" class="node">
<title>CuentaPipe </title>
<polygon fill="#fb8072" stroke="#000000" points="5857.0442,-263 5772.9558,-263 5772.9558,-227 5857.0442,-227 5857.0442,-263"/>
<text text-anchor="middle" x="5815" y="-240.8" font-family="Times,serif" font-size="14.00" fill="#000000">CuentaPipe </text>
</g>
<!-- PipesModule&#45;&gt;CuentaPipe  -->
<g id="edge32" class="edge">
<title>PipesModule&#45;&gt;CuentaPipe </title>
<path fill="none" stroke="#000000" stroke-dasharray="5,2" d="M5749.1479,-180C5779.8789,-180 5815,-180 5815,-180 5815,-180 5815,-216.8939 5815,-216.8939"/>
<polygon fill="#000000" stroke="#000000" points="5811.5001,-216.8938 5815,-226.8939 5818.5001,-216.8939 5811.5001,-216.8938"/>
</g>
<!-- RoundceilPipe  -->
<g id="node34" class="node">
<title>RoundceilPipe </title>
<polygon fill="#fb8072" stroke="#000000" points="5754.9348,-263 5653.0652,-263 5653.0652,-227 5754.9348,-227 5754.9348,-263"/>
<text text-anchor="middle" x="5704" y="-240.8" font-family="Times,serif" font-size="14.00" fill="#000000">RoundceilPipe </text>
</g>
<!-- PipesModule&#45;&gt;RoundceilPipe  -->
<g id="edge33" class="edge">
<title>PipesModule&#45;&gt;RoundceilPipe </title>
<path fill="none" stroke="#000000" stroke-dasharray="5,2" d="M5704,-198.1061C5704,-198.1061 5704,-216.991 5704,-216.991"/>
<polygon fill="#000000" stroke="#000000" points="5700.5001,-216.9909 5704,-226.991 5707.5001,-216.991 5700.5001,-216.9909"/>
</g>
<!-- ColorThemeService -->
<g id="node35" class="node">
<title>ColorThemeService</title>
<ellipse fill="#fdb462" stroke="#000000" cx="2475" cy="-104" rx="88.6024" ry="18"/>
<text text-anchor="middle" x="2475" y="-99.8" font-family="Times,serif" font-size="14.00" fill="#000000">ColorThemeService</text>
</g>
<!-- ColorThemeService&#45;&gt;ServicesModule -->
<g id="edge34" class="edge">
<title>ColorThemeService&#45;&gt;ServicesModule</title>
<path fill="none" stroke="#000000" d="M2497.7259,-121.661C2497.7259,-132.3765 2497.7259,-144 2497.7259,-144 2497.7259,-144 2827.5028,-144 2827.5028,-144 2827.5028,-144 2827.5028,-151.5782 2827.5028,-151.5782"/>
<polygon fill="#000000" stroke="#000000" points="2824.0029,-151.5781 2827.5028,-161.5782 2831.0029,-151.5782 2824.0029,-151.5781"/>
</g>
<!-- ConfigService -->
<g id="node36" class="node">
<title>ConfigService</title>
<ellipse fill="#fdb462" stroke="#000000" cx="2301" cy="-104" rx="66.6325" ry="18"/>
<text text-anchor="middle" x="2301" y="-99.8" font-family="Times,serif" font-size="14.00" fill="#000000">ConfigService</text>
</g>
<!-- ConfigService&#45;&gt;ServicesModule -->
<g id="edge35" class="edge">
<title>ConfigService&#45;&gt;ServicesModule</title>
<path fill="none" stroke="#000000" d="M2301,-122.1025C2301,-133.0859 2301,-145 2301,-145 2301,-145 2818.4039,-145 2818.4039,-145 2818.4039,-145 2818.4039,-151.68 2818.4039,-151.68"/>
<polygon fill="#000000" stroke="#000000" points="2814.904,-151.6799 2818.4039,-161.68 2821.904,-151.68 2814.904,-151.6799"/>
</g>
<!-- CuentasService -->
<g id="node37" class="node">
<title>CuentasService</title>
<ellipse fill="#fdb462" stroke="#000000" cx="2145" cy="-104" rx="71.2036" ry="18"/>
<text text-anchor="middle" x="2145" y="-99.8" font-family="Times,serif" font-size="14.00" fill="#000000">CuentasService</text>
</g>
<!-- CuentasService&#45;&gt;ServicesModule -->
<g id="edge36" class="edge">
<title>CuentasService&#45;&gt;ServicesModule</title>
<path fill="none" stroke="#000000" d="M2145,-122.0555C2145,-133.439 2145,-146 2145,-146 2145,-146 2809.3051,-146 2809.3051,-146 2809.3051,-146 2809.3051,-151.8056 2809.3051,-151.8056"/>
<polygon fill="#000000" stroke="#000000" points="2805.8052,-151.8055 2809.3051,-161.8056 2812.8052,-151.8056 2805.8052,-151.8055"/>
</g>
<!-- GruposService -->
<g id="node38" class="node">
<title>GruposService</title>
<ellipse fill="#fdb462" stroke="#000000" cx="1987" cy="-104" rx="68.3382" ry="18"/>
<text text-anchor="middle" x="1987" y="-99.8" font-family="Times,serif" font-size="14.00" fill="#000000">GruposService</text>
</g>
<!-- GruposService&#45;&gt;ServicesModule -->
<g id="edge37" class="edge">
<title>GruposService&#45;&gt;ServicesModule</title>
<path fill="none" stroke="#000000" d="M1987,-122.1505C1987,-134.2708 1987,-148 1987,-148 1987,-148 2800.2062,-148 2800.2062,-148 2800.2062,-148 2800.2062,-151.7566 2800.2062,-151.7566"/>
<polygon fill="#000000" stroke="#000000" points="2796.7063,-151.7566 2800.2062,-161.7566 2803.7063,-151.7566 2796.7063,-151.7566"/>
</g>
<!-- MenuSidebarService -->
<g id="node39" class="node">
<title>MenuSidebarService</title>
<ellipse fill="#fdb462" stroke="#000000" cx="1809" cy="-104" rx="92.0335" ry="18"/>
<text text-anchor="middle" x="1809" y="-99.8" font-family="Times,serif" font-size="14.00" fill="#000000">MenuSidebarService</text>
</g>
<!-- MenuSidebarService&#45;&gt;ServicesModule -->
<g id="edge38" class="edge">
<title>MenuSidebarService&#45;&gt;ServicesModule</title>
<path fill="none" stroke="#000000" d="M1809,-122.0439C1809,-134.5633 1809,-149 1809,-149 1809,-149 2791.1073,-149 2791.1073,-149 2791.1073,-149 2791.1073,-151.9672 2791.1073,-151.9672"/>
<polygon fill="#000000" stroke="#000000" points="2787.6074,-151.9671 2791.1073,-161.9672 2794.6074,-151.9672 2787.6074,-151.9671"/>
</g>
<!-- SubgruposService -->
<g id="node40" class="node">
<title>SubgruposService</title>
<ellipse fill="#fdb462" stroke="#000000" cx="1618" cy="-104" rx="81.1033" ry="18"/>
<text text-anchor="middle" x="1618" y="-99.8" font-family="Times,serif" font-size="14.00" fill="#000000">SubgruposService</text>
</g>
<!-- SubgruposService&#45;&gt;ServicesModule -->
<g id="edge39" class="edge">
<title>SubgruposService&#45;&gt;ServicesModule</title>
<path fill="none" stroke="#000000" d="M1618,-122.1804C1618,-135.0382 1618,-150 1618,-150 1618,-150 2782.0084,-150 2782.0084,-150 2782.0084,-150 2782.0084,-151.8568 2782.0084,-151.8568"/>
<polygon fill="#000000" stroke="#000000" points="2778.5085,-151.8568 2782.0084,-161.8568 2785.5085,-151.8568 2778.5085,-151.8568"/>
</g>
<!-- TaxesService -->
<g id="node41" class="node">
<title>TaxesService</title>
<ellipse fill="#fdb462" stroke="#000000" cx="1456" cy="-104" rx="63.0977" ry="18"/>
<text text-anchor="middle" x="1456" y="-99.8" font-family="Times,serif" font-size="14.00" fill="#000000">TaxesService</text>
</g>
<!-- TaxesService&#45;&gt;ServicesModule -->
<g id="edge40" class="edge">
<title>TaxesService&#45;&gt;ServicesModule</title>
<path fill="none" stroke="#000000" d="M1456,-122.037C1456,-135.2913 1456,-151 1456,-151 1456,-151 2772.9095,-151 2772.9095,-151 2772.9095,-151 2772.9095,-152.0799 2772.9095,-152.0799"/>
<polygon fill="#000000" stroke="#000000" points="2769.4096,-151.7985 2772.9095,-161.7985 2776.4096,-151.7986 2769.4096,-151.7985"/>
</g>
<!-- UserService -->
<g id="node42" class="node">
<title>UserService</title>
<ellipse fill="#fdb462" stroke="#000000" cx="1317" cy="-104" rx="58.4415" ry="18"/>
<text text-anchor="middle" x="1317" y="-99.8" font-family="Times,serif" font-size="14.00" fill="#000000">UserService</text>
</g>
<!-- UserService&#45;&gt;ServicesModule -->
<g id="edge41" class="edge">
<title>UserService&#45;&gt;ServicesModule</title>
<path fill="none" stroke="#000000" d="M1317,-122.1467C1317,-135.7395 1317,-152 1317,-152 1317,-152 2763.8106,-152 2763.8106,-152 2763.8106,-152 2763.8106,-152.9793 2763.8106,-152.9793"/>
<polygon fill="#000000" stroke="#000000" points="2760.3108,-151.793 2763.8106,-161.793 2767.3108,-151.7931 2760.3108,-151.793"/>
</g>
<!-- UsuarioService -->
<g id="node43" class="node">
<title>UsuarioService</title>
<ellipse fill="#fdb462" stroke="#000000" cx="1170" cy="-104" rx="70.622" ry="18"/>
<text text-anchor="middle" x="1170" y="-99.8" font-family="Times,serif" font-size="14.00" fill="#000000">UsuarioService</text>
</g>
<!-- UsuarioService&#45;&gt;ServicesModule -->
<g id="edge42" class="edge">
<title>UsuarioService&#45;&gt;ServicesModule</title>
<path fill="none" stroke="#000000" d="M1170,-122.2458C1170,-136.1772 1170,-153 1170,-153 1170,-153 2754.7118,-153 2754.7118,-153 2754.7118,-153 2754.7118,-153.8841 2754.7118,-153.8841"/>
<polygon fill="#000000" stroke="#000000" points="2751.2119,-151.8408 2754.7118,-161.8408 2758.2119,-151.8409 2751.2119,-151.8408"/>
</g>
<!-- ViasService -->
<g id="node44" class="node">
<title>ViasService</title>
<ellipse fill="#fdb462" stroke="#000000" cx="1024" cy="-104" rx="57.879" ry="18"/>
<text text-anchor="middle" x="1024" y="-99.8" font-family="Times,serif" font-size="14.00" fill="#000000">ViasService</text>
</g>
<!-- ViasService&#45;&gt;ServicesModule -->
<g id="edge43" class="edge">
<title>ViasService&#45;&gt;ServicesModule</title>
<path fill="none" stroke="#000000" d="M1024,-122.0511C1024,-136.373 1024,-154 1024,-154 1024,-154 2745.6129,-154 2745.6129,-154 2745.6129,-154 2745.6129,-154.7942 2745.6129,-154.7942"/>
<polygon fill="#000000" stroke="#000000" points="2742.113,-151.9421 2745.6129,-161.9421 2749.113,-151.9422 2742.113,-151.9421"/>
</g>
<!-- ColorthemeComponent -->
<g id="node45" class="node">
<title>ColorthemeComponent</title>
<polygon fill="#ffffb3" stroke="#000000" points="925.9312,-122 778.0688,-122 778.0688,-86 925.9312,-86 925.9312,-122"/>
<text text-anchor="middle" x="852" y="-99.8" font-family="Times,serif" font-size="14.00" fill="#000000">ColorthemeComponent</text>
</g>
<!-- ColorthemeComponent&#45;&gt;SharedModule -->
<g id="edge44" class="edge">
<title>ColorthemeComponent&#45;&gt;SharedModule</title>
<path fill="none" stroke="#000000" d="M852,-122.1871C852,-137.1824 852,-156 852,-156 852,-156 2684.2763,-156 2684.2763,-156 2684.2763,-156 2684.2763,-156.581 2684.2763,-156.581"/>
<polygon fill="#000000" stroke="#000000" points="2680.7765,-151.8097 2684.2763,-161.8097 2687.7765,-151.8098 2680.7765,-151.8097"/>
</g>
<!-- NavbarComponent -->
<g id="node46" class="node">
<title>NavbarComponent</title>
<polygon fill="#ffffb3" stroke="#000000" points="760.0297,-122 637.9703,-122 637.9703,-86 760.0297,-86 760.0297,-122"/>
<text text-anchor="middle" x="699" y="-99.8" font-family="Times,serif" font-size="14.00" fill="#000000">NavbarComponent</text>
</g>
<!-- NavbarComponent&#45;&gt;SharedModule -->
<g id="edge45" class="edge">
<title>NavbarComponent&#45;&gt;SharedModule</title>
<path fill="none" stroke="#000000" d="M699,-122.2396C699,-137.5706 699,-157 699,-157 699,-157 2673.5284,-157 2673.5284,-157 2673.5284,-157 2673.5284,-157.4878 2673.5284,-157.4878"/>
<polygon fill="#000000" stroke="#000000" points="2670.0286,-151.8776 2673.5284,-161.8777 2677.0286,-151.8778 2670.0286,-151.8776"/>
</g>
<!-- SidebarComponent -->
<g id="node47" class="node">
<title>SidebarComponent</title>
<polygon fill="#ffffb3" stroke="#000000" points="620.0954,-122 495.9046,-122 495.9046,-86 620.0954,-86 620.0954,-122"/>
<text text-anchor="middle" x="558" y="-99.8" font-family="Times,serif" font-size="14.00" fill="#000000">SidebarComponent</text>
</g>
<!-- SidebarComponent&#45;&gt;SharedModule -->
<g id="edge46" class="edge">
<title>SidebarComponent&#45;&gt;SharedModule</title>
<path fill="none" stroke="#000000" d="M558,-122.2819C558,-137.9478 558,-158 558,-158 558,-158 2662.7805,-158 2662.7805,-158 2662.7805,-158 2662.7805,-158.3832 2662.7805,-158.3832"/>
<polygon fill="#000000" stroke="#000000" points="2659.2808,-151.832 2662.7805,-161.8321 2666.2808,-151.8322 2659.2808,-151.832"/>
</g>
<!-- SidebarfooterComponent -->
<g id="node48" class="node">
<title>SidebarfooterComponent</title>
<polygon fill="#ffffb3" stroke="#000000" points="477.5225,-122 320.4775,-122 320.4775,-86 477.5225,-86 477.5225,-122"/>
<text text-anchor="middle" x="399" y="-99.8" font-family="Times,serif" font-size="14.00" fill="#000000">SidebarfooterComponent</text>
</g>
<!-- SidebarfooterComponent&#45;&gt;SharedModule -->
<g id="edge47" class="edge">
<title>SidebarfooterComponent&#45;&gt;SharedModule</title>
<path fill="none" stroke="#000000" d="M399,-122.0091C399,-138.0494 399,-159 399,-159 399,-159 2652.0326,-159 2652.0326,-159 2652.0326,-159 2652.0326,-159.292 2652.0326,-159.292"/>
<polygon fill="#000000" stroke="#000000" points="2648.533,-151.9198 2652.0326,-161.92 2655.533,-151.9201 2648.533,-151.9198"/>
</g>
</g>
</svg>
