<?xml version="1.0" encoding="UTF-8" standalone="no"?>
<!DOCTYPE svg PUBLIC "-//W3C//DTD SVG 1.1//EN"
 "http://www.w3.org/Graphics/SVG/1.1/DTD/svg11.dtd">
<!-- Generated by graphviz version 2.40.1 (20161225.0304)
 -->
<!-- Title: dependencies Pages: 1 -->
<svg width="3602pt" height="363pt"
 viewBox="0.00 0.00 3602.00 363.00" xmlns="http://www.w3.org/2000/svg" xmlns:xlink="http://www.w3.org/1999/xlink">
<g id="graph0" class="graph" transform="scale(1 1) rotate(0) translate(4 359)">
<title>dependencies</title>
<polygon fill="#ffffff" stroke="transparent" points="-4,4 -4,-359 3598,-359 3598,4 -4,4"/>
<text text-anchor="start" x="1776.0091" y="-42.4" font-family="sans-serif" font-weight="bold" font-size="14.00" fill="#000000">Legend</text>
<polygon fill="#ffffb3" stroke="transparent" points="1563,-10 1563,-30 1583,-30 1583,-10 1563,-10"/>
<text text-anchor="start" x="1586.629" y="-15.4" font-family="sans-serif" font-size="14.00" fill="#000000"> &#160;Declarations</text>
<polygon fill="#8dd3c7" stroke="transparent" points="1676,-10 1676,-30 1696,-30 1696,-10 1676,-10"/>
<text text-anchor="start" x="1699.7251" y="-15.4" font-family="sans-serif" font-size="14.00" fill="#000000"> &#160;Module</text>
<polygon fill="#80b1d3" stroke="transparent" points="1762,-10 1762,-30 1782,-30 1782,-10 1762,-10"/>
<text text-anchor="start" x="1785.7812" y="-15.4" font-family="sans-serif" font-size="14.00" fill="#000000"> &#160;Bootstrap</text>
<polygon fill="#fdb462" stroke="transparent" points="1859,-10 1859,-30 1879,-30 1879,-10 1859,-10"/>
<text text-anchor="start" x="1882.6732" y="-15.4" font-family="sans-serif" font-size="14.00" fill="#000000"> &#160;Providers</text>
<polygon fill="#fb8072" stroke="transparent" points="1955,-10 1955,-30 1975,-30 1975,-10 1955,-10"/>
<text text-anchor="start" x="1978.7258" y="-15.4" font-family="sans-serif" font-size="14.00" fill="#000000"> &#160;Exports</text>
<g id="clust1" class="cluster">
<title>cluster_AppModule</title>
<polygon fill="none" stroke="#000000" stroke-dasharray="1,5" points="1490,-146 1490,-347 2438,-347 2438,-146 1490,-146"/>
</g>
<g id="clust2" class="cluster">
<title>cluster_AppModule_declarations</title>
<polygon fill="none" stroke="#000000" points="2044,-154 2044,-206 2430,-206 2430,-154 2044,-154"/>
</g>
<g id="clust6" class="cluster">
<title>cluster_AppModule_imports</title>
<polygon fill="none" stroke="#000000" points="1686,-154 1686,-206 2036,-206 2036,-154 1686,-154"/>
</g>
<g id="clust8" class="cluster">
<title>cluster_AppModule_bootstrap</title>
<polygon fill="none" stroke="#000000" points="1920,-287 1920,-339 2044,-339 2044,-287 1920,-287"/>
</g>
<g id="clust9" class="cluster">
<title>cluster_AppModule_providers</title>
<polygon fill="none" stroke="#000000" points="1498,-154 1498,-206 1678,-206 1678,-154 1498,-154"/>
</g>
<g id="clust10" class="cluster">
<title>cluster_PagesModule</title>
<polygon fill="none" stroke="#000000" stroke-dasharray="1,5" points="2151,-70 2151,-138 3584,-138 3584,-70 2151,-70"/>
</g>
<g id="clust11" class="cluster">
<title>cluster_PagesModule_declarations</title>
<polygon fill="none" stroke="#000000" points="2159,-78 2159,-130 3576,-130 3576,-78 2159,-78"/>
</g>
<g id="clust26" class="cluster">
<title>cluster_PipesModule</title>
<polygon fill="none" stroke="#000000" stroke-dasharray="1,5" points="3452,-154 3452,-279 3586,-279 3586,-154 3452,-154"/>
</g>
<g id="clust30" class="cluster">
<title>cluster_PipesModule_exports</title>
<polygon fill="none" stroke="#000000" points="3460,-219 3460,-271 3578,-271 3578,-219 3460,-219"/>
</g>
<g id="clust33" class="cluster">
<title>cluster_ServicesModule</title>
<polygon fill="none" stroke="#000000" stroke-dasharray="1,5" points="950,-70 950,-138 2143,-138 2143,-70 950,-70"/>
</g>
<g id="clust38" class="cluster">
<title>cluster_ServicesModule_providers</title>
<polygon fill="none" stroke="#000000" points="958,-78 958,-130 2135,-130 2135,-78 958,-78"/>
</g>
<g id="clust39" class="cluster">
<title>cluster_SharedModule</title>
<polygon fill="none" stroke="#000000" stroke-dasharray="1,5" points="8,-70 8,-138 942,-138 942,-70 8,-70"/>
</g>
<g id="clust40" class="cluster">
<title>cluster_SharedModule_declarations</title>
<polygon fill="none" stroke="#000000" points="312,-78 312,-130 934,-130 934,-78 312,-78"/>
</g>
<g id="clust46" class="cluster">
<title>cluster_SharedModule_exports</title>
<polygon fill="none" stroke="#000000" points="16,-78 16,-130 304,-130 304,-78 16,-78"/>
</g>
<!-- AppComponent -->
<g id="node1" class="node">
<title>AppComponent</title>
<polygon fill="#ffffb3" stroke="#000000" points="2421.9399,-198 2316.0601,-198 2316.0601,-162 2421.9399,-162 2421.9399,-198"/>
<text text-anchor="middle" x="2369" y="-175.8" font-family="Times,serif" font-size="14.00" fill="#000000">AppComponent</text>
</g>
<!-- AppModule -->
<g id="node4" class="node">
<title>AppModule</title>
<polygon fill="#8dd3c7" stroke="#000000" points="2023.6571,-263 2020.6571,-267 1999.6571,-267 1996.6571,-263 1940.3429,-263 1940.3429,-227 2023.6571,-227 2023.6571,-263"/>
<text text-anchor="middle" x="1982" y="-240.8" font-family="Times,serif" font-size="14.00" fill="#000000">AppModule</text>
</g>
<!-- AppComponent&#45;&gt;AppModule -->
<g id="edge1" class="edge">
<title>AppComponent&#45;&gt;AppModule</title>
<path fill="none" stroke="#000000" d="M2369,-198.2921C2369,-220.2057 2369,-254 2369,-254 2369,-254 2033.7835,-254 2033.7835,-254"/>
<polygon fill="#000000" stroke="#000000" points="2033.7835,-250.5001 2023.7835,-254 2033.7834,-257.5001 2033.7835,-250.5001"/>
</g>
<!-- LoginComponent -->
<g id="node2" class="node">
<title>LoginComponent</title>
<polygon fill="#ffffb3" stroke="#000000" points="2298.2758,-198 2183.7242,-198 2183.7242,-162 2298.2758,-162 2298.2758,-198"/>
<text text-anchor="middle" x="2241" y="-175.8" font-family="Times,serif" font-size="14.00" fill="#000000">LoginComponent</text>
</g>
<!-- LoginComponent&#45;&gt;AppModule -->
<g id="edge2" class="edge">
<title>LoginComponent&#45;&gt;AppModule</title>
<path fill="none" stroke="#000000" d="M2241,-198.1061C2241,-217.3391 2241,-245 2241,-245 2241,-245 2033.9007,-245 2033.9007,-245"/>
<polygon fill="#000000" stroke="#000000" points="2033.9007,-241.5001 2023.9007,-245 2033.9006,-248.5001 2033.9007,-241.5001"/>
</g>
<!-- PagesComponent -->
<g id="node3" class="node">
<title>PagesComponent</title>
<polygon fill="#ffffb3" stroke="#000000" points="2165.9888,-198 2052.0112,-198 2052.0112,-162 2165.9888,-162 2165.9888,-198"/>
<text text-anchor="middle" x="2109" y="-175.8" font-family="Times,serif" font-size="14.00" fill="#000000">PagesComponent</text>
</g>
<!-- PagesComponent&#45;&gt;AppModule -->
<g id="edge3" class="edge">
<title>PagesComponent&#45;&gt;AppModule</title>
<path fill="none" stroke="#000000" d="M2109,-198.027C2109,-214.3976 2109,-236 2109,-236 2109,-236 2033.9365,-236 2033.9365,-236"/>
<polygon fill="#000000" stroke="#000000" points="2033.9366,-232.5001 2023.9365,-236 2033.9365,-239.5001 2033.9366,-232.5001"/>
</g>
<!-- AppComponent  -->
<g id="node8" class="node">
<title>AppComponent </title>
<polygon fill="#80b1d3" stroke="#000000" points="2036.439,-331 1927.561,-331 1927.561,-295 2036.439,-295 2036.439,-331"/>
<text text-anchor="middle" x="1982" y="-308.8" font-family="Times,serif" font-size="14.00" fill="#000000">AppComponent </text>
</g>
<!-- AppModule&#45;&gt;AppComponent  -->
<g id="edge7" class="edge">
<title>AppModule&#45;&gt;AppComponent </title>
<path fill="none" stroke="#000000" stroke-dasharray="1,5" d="M1982,-263.2228C1982,-263.2228 1982,-284.7269 1982,-284.7269"/>
<polygon fill="#000000" stroke="#000000" points="1978.5001,-284.7269 1982,-294.7269 1985.5001,-284.727 1978.5001,-284.7269"/>
</g>
<!-- PagesModule -->
<g id="node5" class="node">
<title>PagesModule</title>
<polygon fill="#8dd3c7" stroke="#000000" points="2028.2064,-198 2025.2064,-202 2004.2064,-202 2001.2064,-198 1935.7936,-198 1935.7936,-162 2028.2064,-162 2028.2064,-198"/>
<text text-anchor="middle" x="1982" y="-175.8" font-family="Times,serif" font-size="14.00" fill="#000000">PagesModule</text>
</g>
<!-- PagesModule&#45;&gt;AppModule -->
<g id="edge4" class="edge">
<title>PagesModule&#45;&gt;AppModule</title>
<path fill="none" stroke="#000000" d="M1982,-198.1061C1982,-198.1061 1982,-216.991 1982,-216.991"/>
<polygon fill="#000000" stroke="#000000" points="1978.5001,-216.9909 1982,-226.991 1985.5001,-216.991 1978.5001,-216.9909"/>
</g>
<!-- ServicesModule -->
<g id="node6" class="node">
<title>ServicesModule</title>
<polygon fill="#8dd3c7" stroke="#000000" points="1917.472,-198 1914.472,-202 1893.472,-202 1890.472,-198 1810.528,-198 1810.528,-162 1917.472,-162 1917.472,-198"/>
<text text-anchor="middle" x="1864" y="-175.8" font-family="Times,serif" font-size="14.00" fill="#000000">ServicesModule</text>
</g>
<!-- ServicesModule&#45;&gt;AppModule -->
<g id="edge5" class="edge">
<title>ServicesModule&#45;&gt;AppModule</title>
<path fill="none" stroke="#000000" d="M1864,-198.027C1864,-214.3976 1864,-236 1864,-236 1864,-236 1930.0654,-236 1930.0654,-236"/>
<polygon fill="#000000" stroke="#000000" points="1930.0654,-239.5001 1940.0654,-236 1930.0653,-232.5001 1930.0654,-239.5001"/>
</g>
<!-- SharedModule -->
<g id="node7" class="node">
<title>SharedModule</title>
<polygon fill="#8dd3c7" stroke="#000000" points="1792.4231,-198 1789.4231,-202 1768.4231,-202 1765.4231,-198 1693.5769,-198 1693.5769,-162 1792.4231,-162 1792.4231,-198"/>
<text text-anchor="middle" x="1743" y="-175.8" font-family="Times,serif" font-size="14.00" fill="#000000">SharedModule</text>
</g>
<!-- SharedModule&#45;&gt;AppModule -->
<g id="edge6" class="edge">
<title>SharedModule&#45;&gt;AppModule</title>
<path fill="none" stroke="#000000" d="M1743,-198.1061C1743,-217.3391 1743,-245 1743,-245 1743,-245 1930.0959,-245 1930.0959,-245"/>
<polygon fill="#000000" stroke="#000000" points="1930.0959,-248.5001 1940.0959,-245 1930.0959,-241.5001 1930.0959,-248.5001"/>
</g>
<!-- NavbarComponent  -->
<g id="node33" class="node">
<title>NavbarComponent </title>
<polygon fill="#fb8072" stroke="#000000" points="296.0288,-122 169.9712,-122 169.9712,-86 296.0288,-86 296.0288,-122"/>
<text text-anchor="middle" x="233" y="-99.8" font-family="Times,serif" font-size="14.00" fill="#000000">NavbarComponent </text>
</g>
<!-- SharedModule&#45;&gt;NavbarComponent  -->
<g id="edge32" class="edge">
<title>SharedModule&#45;&gt;NavbarComponent </title>
<path fill="none" stroke="#000000" stroke-dasharray="5,2" d="M1715.1964,-161.92C1715.1964,-160.1536 1715.1964,-159 1715.1964,-159 1715.1964,-159 233,-159 233,-159 233,-159 233,-132.0091 233,-132.0091"/>
<polygon fill="#000000" stroke="#000000" points="236.5001,-132.009 233,-122.0091 229.5001,-132.0091 236.5001,-132.009"/>
</g>
<!-- SidebarComponent  -->
<g id="node34" class="node">
<title>SidebarComponent </title>
<polygon fill="#fb8072" stroke="#000000" points="151.596,-122 24.404,-122 24.404,-86 151.596,-86 151.596,-122"/>
<text text-anchor="middle" x="88" y="-99.8" font-family="Times,serif" font-size="14.00" fill="#000000">SidebarComponent </text>
</g>
<!-- SharedModule&#45;&gt;SidebarComponent  -->
<g id="edge33" class="edge">
<title>SharedModule&#45;&gt;SidebarComponent </title>
<path fill="none" stroke="#000000" stroke-dasharray="5,2" d="M1704.4927,-161.8164C1704.4927,-161.2969 1704.4927,-161 1704.4927,-161 1704.4927,-161 88,-161 88,-161 88,-161 88,-132.0352 88,-132.0352"/>
<polygon fill="#000000" stroke="#000000" points="91.5001,-132.0351 88,-122.0352 84.5001,-132.0352 91.5001,-132.0351"/>
</g>
<!-- InterceptorService -->
<g id="node9" class="node">
<title>InterceptorService</title>
<ellipse fill="#fdb462" stroke="#000000" cx="1588" cy="-180" rx="82.1986" ry="18"/>
<text text-anchor="middle" x="1588" y="-175.8" font-family="Times,serif" font-size="14.00" fill="#000000">InterceptorService</text>
</g>
<!-- InterceptorService&#45;&gt;AppModule -->
<g id="edge8" class="edge">
<title>InterceptorService&#45;&gt;AppModule</title>
<path fill="none" stroke="#000000" d="M1588,-198.2921C1588,-220.2057 1588,-254 1588,-254 1588,-254 1930.2081,-254 1930.2081,-254"/>
<polygon fill="#000000" stroke="#000000" points="1930.2081,-257.5001 1940.2081,-254 1930.2081,-250.5001 1930.2081,-257.5001"/>
</g>
<!-- ConfigComponent -->
<g id="node10" class="node">
<title>ConfigComponent</title>
<polygon fill="#ffffb3" stroke="#000000" points="3452.2204,-122 3331.7796,-122 3331.7796,-86 3452.2204,-86 3452.2204,-122"/>
<text text-anchor="middle" x="3392" y="-99.8" font-family="Times,serif" font-size="14.00" fill="#000000">ConfigComponent</text>
</g>
<!-- ConfigComponent&#45;&gt;PagesModule -->
<g id="edge9" class="edge">
<title>ConfigComponent&#45;&gt;PagesModule</title>
<path fill="none" stroke="#000000" d="M3392,-122.4218C3392,-131.2791 3392,-140 3392,-140 3392,-140 2014.9524,-140 2014.9524,-140 2014.9524,-140 2014.9524,-151.8726 2014.9524,-151.8726"/>
<polygon fill="#000000" stroke="#000000" points="2011.4525,-151.8725 2014.9524,-161.8726 2018.4525,-151.8726 2011.4525,-151.8725"/>
</g>
<!-- DashboardComponent -->
<g id="node11" class="node">
<title>DashboardComponent</title>
<polygon fill="#ffffb3" stroke="#000000" points="3313.9734,-122 3172.0266,-122 3172.0266,-86 3313.9734,-86 3313.9734,-122"/>
<text text-anchor="middle" x="3243" y="-99.8" font-family="Times,serif" font-size="14.00" fill="#000000">DashboardComponent</text>
</g>
<!-- DashboardComponent&#45;&gt;PagesModule -->
<g id="edge10" class="edge">
<title>DashboardComponent&#45;&gt;PagesModule</title>
<path fill="none" stroke="#000000" d="M3243,-122.1944C3243,-130.2782 3243,-138 3243,-138 3243,-138 2008.3771,-138 2008.3771,-138 2008.3771,-138 2008.3771,-151.9445 2008.3771,-151.9445"/>
<polygon fill="#000000" stroke="#000000" points="2004.8772,-151.9444 2008.3771,-161.9445 2011.8772,-151.9445 2004.8772,-151.9444"/>
</g>
<!-- GrupoComponent -->
<g id="node12" class="node">
<title>GrupoComponent</title>
<polygon fill="#ffffb3" stroke="#000000" points="3153.5996,-122 3036.4004,-122 3036.4004,-86 3153.5996,-86 3153.5996,-122"/>
<text text-anchor="middle" x="3095" y="-99.8" font-family="Times,serif" font-size="14.00" fill="#000000">GrupoComponent</text>
</g>
<!-- GrupoComponent&#45;&gt;PagesModule -->
<g id="edge11" class="edge">
<title>GrupoComponent&#45;&gt;PagesModule</title>
<path fill="none" stroke="#000000" d="M3095,-122.2434C3095,-129.4297 3095,-136 3095,-136 3095,-136 2001.8017,-136 2001.8017,-136 2001.8017,-136 2001.8017,-151.8495 2001.8017,-151.8495"/>
<polygon fill="#000000" stroke="#000000" points="1998.3018,-151.8494 2001.8017,-161.8495 2005.3018,-151.8495 1998.3018,-151.8494"/>
</g>
<!-- GruposComponent -->
<g id="node13" class="node">
<title>GruposComponent</title>
<polygon fill="#ffffb3" stroke="#000000" points="3018.045,-122 2895.955,-122 2895.955,-86 3018.045,-86 3018.045,-122"/>
<text text-anchor="middle" x="2957" y="-99.8" font-family="Times,serif" font-size="14.00" fill="#000000">GruposComponent</text>
</g>
<!-- GruposComponent&#45;&gt;PagesModule -->
<g id="edge12" class="edge">
<title>GruposComponent&#45;&gt;PagesModule</title>
<path fill="none" stroke="#000000" d="M2957,-122.0328C2957,-128.8526 2957,-135 2957,-135 2957,-135 1995.2264,-135 1995.2264,-135 1995.2264,-135 1995.2264,-151.9561 1995.2264,-151.9561"/>
<polygon fill="#000000" stroke="#000000" points="1991.7265,-151.956 1995.2264,-161.9561 1998.7265,-151.9561 1991.7265,-151.956"/>
</g>
<!-- LoadTableComponent -->
<g id="node14" class="node">
<title>LoadTableComponent</title>
<polygon fill="#ffffb3" stroke="#000000" points="2877.972,-122 2736.028,-122 2736.028,-86 2877.972,-86 2877.972,-122"/>
<text text-anchor="middle" x="2807" y="-99.8" font-family="Times,serif" font-size="14.00" fill="#000000">LoadTableComponent</text>
</g>
<!-- LoadTableComponent&#45;&gt;PagesModule -->
<g id="edge13" class="edge">
<title>LoadTableComponent&#45;&gt;PagesModule</title>
<path fill="none" stroke="#000000" d="M2807,-122.2015C2807,-128.028 2807,-133 2807,-133 2807,-133 1988.6511,-133 1988.6511,-133 1988.6511,-133 1988.6511,-151.963 1988.6511,-151.963"/>
<polygon fill="#000000" stroke="#000000" points="1985.1512,-151.963 1988.6511,-161.963 1992.1512,-151.963 1985.1512,-151.963"/>
</g>
<!-- RoundceilPipe -->
<g id="node15" class="node">
<title>RoundceilPipe</title>
<polygon fill="#ffffb3" stroke="#000000" points="3568.4358,-122 3469.5642,-122 3469.5642,-86 3568.4358,-86 3568.4358,-122"/>
<text text-anchor="middle" x="3519" y="-99.8" font-family="Times,serif" font-size="14.00" fill="#000000">RoundceilPipe</text>
</g>
<!-- RoundceilPipe&#45;&gt;PagesModule -->
<g id="edge14" class="edge">
<title>RoundceilPipe&#45;&gt;PagesModule</title>
<path fill="none" stroke="#000000" d="M3504.0196,-122.1097C3504.0196,-131.897 3504.0196,-142 3504.0196,-142 3504.0196,-142 2021.5278,-142 2021.5278,-142 2021.5278,-142 2021.5278,-151.8903 2021.5278,-151.8903"/>
<polygon fill="#000000" stroke="#000000" points="2018.0279,-151.8903 2021.5278,-161.8903 2025.0279,-151.8904 2018.0279,-151.8903"/>
</g>
<!-- PipesModule -->
<g id="node20" class="node">
<title>PipesModule</title>
<polygon fill="#8dd3c7" stroke="#000000" points="3563.8823,-198 3560.8823,-202 3539.8823,-202 3536.8823,-198 3474.1177,-198 3474.1177,-162 3563.8823,-162 3563.8823,-198"/>
<text text-anchor="middle" x="3519" y="-175.8" font-family="Times,serif" font-size="14.00" fill="#000000">PipesModule</text>
</g>
<!-- RoundceilPipe&#45;&gt;PipesModule -->
<g id="edge19" class="edge">
<title>RoundceilPipe&#45;&gt;PipesModule</title>
<path fill="none" stroke="#000000" d="M3533.9804,-122.0109C3533.9804,-122.0109 3533.9804,-151.855 3533.9804,-151.855"/>
<polygon fill="#000000" stroke="#000000" points="3530.4805,-151.8549 3533.9804,-161.855 3537.4805,-151.855 3530.4805,-151.8549"/>
</g>
<!-- SubgrupoComponent -->
<g id="node16" class="node">
<title>SubgrupoComponent</title>
<polygon fill="#ffffb3" stroke="#000000" points="2586.7758,-122 2451.2242,-122 2451.2242,-86 2586.7758,-86 2586.7758,-122"/>
<text text-anchor="middle" x="2519" y="-99.8" font-family="Times,serif" font-size="14.00" fill="#000000">SubgrupoComponent</text>
</g>
<!-- SubgrupoComponent&#45;&gt;PagesModule -->
<g id="edge15" class="edge">
<title>SubgrupoComponent&#45;&gt;PagesModule</title>
<path fill="none" stroke="#000000" d="M2519,-122.1686C2519,-126.0459 2519,-129 2519,-129 2519,-129 1975.5004,-129 1975.5004,-129 1975.5004,-129 1975.5004,-151.8757 1975.5004,-151.8757"/>
<polygon fill="#000000" stroke="#000000" points="1972.0005,-151.8757 1975.5004,-161.8757 1979.0005,-151.8757 1972.0005,-151.8757"/>
</g>
<!-- SubgruposComponent -->
<g id="node17" class="node">
<title>SubgruposComponent</title>
<polygon fill="#ffffb3" stroke="#000000" points="2433.7204,-122 2292.2796,-122 2292.2796,-86 2433.7204,-86 2433.7204,-122"/>
<text text-anchor="middle" x="2363" y="-99.8" font-family="Times,serif" font-size="14.00" fill="#000000">SubgruposComponent</text>
</g>
<!-- SubgruposComponent&#45;&gt;PagesModule -->
<g id="edge16" class="edge">
<title>SubgruposComponent&#45;&gt;PagesModule</title>
<path fill="none" stroke="#000000" d="M2307.3341,-122.1903C2307.3341,-125.5376 2307.3341,-128 2307.3341,-128 2307.3341,-128 1968.925,-128 1968.925,-128 1968.925,-128 1968.925,-151.8129 1968.925,-151.8129"/>
<polygon fill="#000000" stroke="#000000" points="1965.4251,-151.8129 1968.925,-161.8129 1972.4251,-151.813 1965.4251,-151.8129"/>
</g>
<!-- UserComponent -->
<g id="node18" class="node">
<title>UserComponent</title>
<polygon fill="#ffffb3" stroke="#000000" points="2274.7591,-122 2167.2409,-122 2167.2409,-86 2274.7591,-86 2274.7591,-122"/>
<text text-anchor="middle" x="2221" y="-99.8" font-family="Times,serif" font-size="14.00" fill="#000000">UserComponent</text>
</g>
<!-- UserComponent&#45;&gt;PagesModule -->
<g id="edge17" class="edge">
<title>UserComponent&#45;&gt;PagesModule</title>
<path fill="none" stroke="#000000" d="M2175.3664,-122.1679C2175.3664,-124.4478 2175.3664,-126 2175.3664,-126 2175.3664,-126 1962.3497,-126 1962.3497,-126 1962.3497,-126 1962.3497,-151.7181 1962.3497,-151.7181"/>
<polygon fill="#000000" stroke="#000000" points="1958.8498,-151.718 1962.3497,-161.7181 1965.8498,-151.7181 1958.8498,-151.718"/>
</g>
<!-- UsersComponent -->
<g id="node19" class="node">
<title>UsersComponent</title>
<polygon fill="#ffffb3" stroke="#000000" points="2717.7036,-122 2604.2964,-122 2604.2964,-86 2717.7036,-86 2717.7036,-122"/>
<text text-anchor="middle" x="2661" y="-99.8" font-family="Times,serif" font-size="14.00" fill="#000000">UsersComponent</text>
</g>
<!-- UsersComponent&#45;&gt;PagesModule -->
<g id="edge18" class="edge">
<title>UsersComponent&#45;&gt;PagesModule</title>
<path fill="none" stroke="#000000" d="M2661,-122.1592C2661,-127.0433 2661,-131 2661,-131 2661,-131 1982.0757,-131 1982.0757,-131 1982.0757,-131 1982.0757,-151.7542 1982.0757,-151.7542"/>
<polygon fill="#000000" stroke="#000000" points="1978.5758,-151.7542 1982.0757,-161.7542 1985.5758,-151.7542 1978.5758,-151.7542"/>
</g>
<!-- RoundceilPipe  -->
<g id="node21" class="node">
<title>RoundceilPipe </title>
<polygon fill="#fb8072" stroke="#000000" points="3569.9348,-263 3468.0652,-263 3468.0652,-227 3569.9348,-227 3569.9348,-263"/>
<text text-anchor="middle" x="3519" y="-240.8" font-family="Times,serif" font-size="14.00" fill="#000000">RoundceilPipe </text>
</g>
<!-- PipesModule&#45;&gt;RoundceilPipe  -->
<g id="edge20" class="edge">
<title>PipesModule&#45;&gt;RoundceilPipe </title>
<path fill="none" stroke="#000000" stroke-dasharray="5,2" d="M3519,-198.1061C3519,-198.1061 3519,-216.991 3519,-216.991"/>
<polygon fill="#000000" stroke="#000000" points="3515.5001,-216.9909 3519,-226.991 3522.5001,-216.991 3515.5001,-216.9909"/>
</g>
<!-- ColorThemeService -->
<g id="node22" class="node">
<title>ColorThemeService</title>
<ellipse fill="#fdb462" stroke="#000000" cx="2038" cy="-104" rx="88.6024" ry="18"/>
<text text-anchor="middle" x="2038" y="-99.8" font-family="Times,serif" font-size="14.00" fill="#000000">ColorThemeService</text>
</g>
<!-- ColorThemeService&#45;&gt;ServicesModule -->
<g id="edge21" class="edge">
<title>ColorThemeService&#45;&gt;ServicesModule</title>
<path fill="none" stroke="#000000" d="M1955.7744,-111.2205C1955.7744,-116.9492 1955.7744,-124 1955.7744,-124 1955.7744,-124 1904.1145,-124 1904.1145,-124 1904.1145,-124 1904.1145,-151.973 1904.1145,-151.973"/>
<polygon fill="#000000" stroke="#000000" points="1900.6146,-151.973 1904.1145,-161.973 1907.6146,-151.973 1900.6146,-151.973"/>
</g>
<!-- ConfigService -->
<g id="node23" class="node">
<title>ConfigService</title>
<ellipse fill="#fdb462" stroke="#000000" cx="1864" cy="-104" rx="66.6325" ry="18"/>
<text text-anchor="middle" x="1864" y="-99.8" font-family="Times,serif" font-size="14.00" fill="#000000">ConfigService</text>
</g>
<!-- ConfigService&#45;&gt;ServicesModule -->
<g id="edge22" class="edge">
<title>ConfigService&#45;&gt;ServicesModule</title>
<path fill="none" stroke="#000000" d="M1890.743,-120.8669C1890.743,-120.8669 1890.743,-151.8535 1890.743,-151.8535"/>
<polygon fill="#000000" stroke="#000000" points="1887.2431,-151.8534 1890.743,-161.8535 1894.2431,-151.8535 1887.2431,-151.8534"/>
</g>
<!-- GruposService -->
<g id="node24" class="node">
<title>GruposService</title>
<ellipse fill="#fdb462" stroke="#000000" cx="1711" cy="-104" rx="68.3382" ry="18"/>
<text text-anchor="middle" x="1711" y="-99.8" font-family="Times,serif" font-size="14.00" fill="#000000">GruposService</text>
</g>
<!-- GruposService&#45;&gt;ServicesModule -->
<g id="edge23" class="edge">
<title>GruposService&#45;&gt;ServicesModule</title>
<path fill="none" stroke="#000000" d="M1768.7153,-113.8413C1768.7153,-125.3948 1768.7153,-143 1768.7153,-143 1768.7153,-143 1877.3715,-143 1877.3715,-143 1877.3715,-143 1877.3715,-151.9336 1877.3715,-151.9336"/>
<polygon fill="#000000" stroke="#000000" points="1873.8716,-151.9335 1877.3715,-161.9336 1880.8716,-151.9336 1873.8716,-151.9335"/>
</g>
<!-- MenuSidebarService -->
<g id="node25" class="node">
<title>MenuSidebarService</title>
<ellipse fill="#fdb462" stroke="#000000" cx="1533" cy="-104" rx="92.0335" ry="18"/>
<text text-anchor="middle" x="1533" y="-99.8" font-family="Times,serif" font-size="14.00" fill="#000000">MenuSidebarService</text>
</g>
<!-- MenuSidebarService&#45;&gt;ServicesModule -->
<g id="edge24" class="edge">
<title>MenuSidebarService&#45;&gt;ServicesModule</title>
<path fill="none" stroke="#000000" d="M1565.3338,-121.1501C1565.3338,-132.3852 1565.3338,-145 1565.3338,-145 1565.3338,-145 1864,-145 1864,-145 1864,-145 1864,-151.68 1864,-151.68"/>
<polygon fill="#000000" stroke="#000000" points="1860.5001,-151.6799 1864,-161.68 1867.5001,-151.68 1860.5001,-151.6799"/>
</g>
<!-- SubgruposService -->
<g id="node26" class="node">
<title>SubgruposService</title>
<ellipse fill="#fdb462" stroke="#000000" cx="1342" cy="-104" rx="81.1033" ry="18"/>
<text text-anchor="middle" x="1342" y="-99.8" font-family="Times,serif" font-size="14.00" fill="#000000">SubgruposService</text>
</g>
<!-- SubgruposService&#45;&gt;ServicesModule -->
<g id="edge25" class="edge">
<title>SubgruposService&#45;&gt;ServicesModule</title>
<path fill="none" stroke="#000000" d="M1342,-122.4854C1342,-134.1399 1342,-147 1342,-147 1342,-147 1850.6285,-147 1850.6285,-147 1850.6285,-147 1850.6285,-151.9551 1850.6285,-151.9551"/>
<polygon fill="#000000" stroke="#000000" points="1847.1286,-151.9551 1850.6285,-161.9551 1854.1286,-151.9552 1847.1286,-151.9551"/>
</g>
<!-- UserService -->
<g id="node27" class="node">
<title>UserService</title>
<ellipse fill="#fdb462" stroke="#000000" cx="1184" cy="-104" rx="58.4415" ry="18"/>
<text text-anchor="middle" x="1184" y="-99.8" font-family="Times,serif" font-size="14.00" fill="#000000">UserService</text>
</g>
<!-- UserService&#45;&gt;ServicesModule -->
<g id="edge26" class="edge">
<title>UserService&#45;&gt;ServicesModule</title>
<path fill="none" stroke="#000000" d="M1184,-122.0439C1184,-134.5633 1184,-149 1184,-149 1184,-149 1837.257,-149 1837.257,-149 1837.257,-149 1837.257,-151.9672 1837.257,-151.9672"/>
<polygon fill="#000000" stroke="#000000" points="1833.7571,-151.9671 1837.257,-161.9672 1840.7571,-151.9672 1833.7571,-151.9671"/>
</g>
<!-- UsuarioService -->
<g id="node28" class="node">
<title>UsuarioService</title>
<ellipse fill="#fdb462" stroke="#000000" cx="1037" cy="-104" rx="70.622" ry="18"/>
<text text-anchor="middle" x="1037" y="-99.8" font-family="Times,serif" font-size="14.00" fill="#000000">UsuarioService</text>
</g>
<!-- UsuarioService&#45;&gt;ServicesModule -->
<g id="edge27" class="edge">
<title>UsuarioService&#45;&gt;ServicesModule</title>
<path fill="none" stroke="#000000" d="M1037,-122.1804C1037,-135.0382 1037,-150 1037,-150 1037,-150 1823.8855,-150 1823.8855,-150 1823.8855,-150 1823.8855,-151.8568 1823.8855,-151.8568"/>
<polygon fill="#000000" stroke="#000000" points="1820.3856,-151.8568 1823.8855,-161.8568 1827.3856,-151.8568 1820.3856,-151.8568"/>
</g>
<!-- ColorthemeComponent -->
<g id="node29" class="node">
<title>ColorthemeComponent</title>
<polygon fill="#ffffb3" stroke="#000000" points="925.9312,-122 778.0688,-122 778.0688,-86 925.9312,-86 925.9312,-122"/>
<text text-anchor="middle" x="852" y="-99.8" font-family="Times,serif" font-size="14.00" fill="#000000">ColorthemeComponent</text>
</g>
<!-- ColorthemeComponent&#45;&gt;SharedModule -->
<g id="edge28" class="edge">
<title>ColorthemeComponent&#45;&gt;SharedModule</title>
<path fill="none" stroke="#000000" d="M852,-122.1467C852,-135.7395 852,-152 852,-152 852,-152 1758.0115,-152 1758.0115,-152 1758.0115,-152 1758.0115,-152.9793 1758.0115,-152.9793"/>
<polygon fill="#000000" stroke="#000000" points="1754.5116,-151.793 1758.0115,-161.793 1761.5116,-151.7931 1754.5116,-151.793"/>
</g>
<!-- NavbarComponent -->
<g id="node30" class="node">
<title>NavbarComponent</title>
<polygon fill="#ffffb3" stroke="#000000" points="760.0297,-122 637.9703,-122 637.9703,-86 760.0297,-86 760.0297,-122"/>
<text text-anchor="middle" x="699" y="-99.8" font-family="Times,serif" font-size="14.00" fill="#000000">NavbarComponent</text>
</g>
<!-- NavbarComponent&#45;&gt;SharedModule -->
<g id="edge29" class="edge">
<title>NavbarComponent&#45;&gt;SharedModule</title>
<path fill="none" stroke="#000000" d="M699,-122.0511C699,-136.373 699,-154 699,-154 699,-154 1747.3077,-154 1747.3077,-154 1747.3077,-154 1747.3077,-154.7942 1747.3077,-154.7942"/>
<polygon fill="#000000" stroke="#000000" points="1743.8079,-151.9421 1747.3077,-161.9421 1750.8079,-151.9422 1743.8079,-151.9421"/>
</g>
<!-- SidebarComponent -->
<g id="node31" class="node">
<title>SidebarComponent</title>
<polygon fill="#ffffb3" stroke="#000000" points="620.0954,-122 495.9046,-122 495.9046,-86 620.0954,-86 620.0954,-122"/>
<text text-anchor="middle" x="558" y="-99.8" font-family="Times,serif" font-size="14.00" fill="#000000">SidebarComponent</text>
</g>
<!-- SidebarComponent&#45;&gt;SharedModule -->
<g id="edge30" class="edge">
<title>SidebarComponent&#45;&gt;SharedModule</title>
<path fill="none" stroke="#000000" d="M558,-122.1871C558,-137.1824 558,-156 558,-156 558,-156 1736.604,-156 1736.604,-156 1736.604,-156 1736.604,-156.581 1736.604,-156.581"/>
<polygon fill="#000000" stroke="#000000" points="1733.1042,-151.8097 1736.604,-161.8097 1740.1042,-151.8098 1733.1042,-151.8097"/>
</g>
<!-- SidebarfooterComponent -->
<g id="node32" class="node">
<title>SidebarfooterComponent</title>
<polygon fill="#ffffb3" stroke="#000000" points="477.5225,-122 320.4775,-122 320.4775,-86 477.5225,-86 477.5225,-122"/>
<text text-anchor="middle" x="399" y="-99.8" font-family="Times,serif" font-size="14.00" fill="#000000">SidebarfooterComponent</text>
</g>
<!-- SidebarfooterComponent&#45;&gt;SharedModule -->
<g id="edge31" class="edge">
<title>SidebarfooterComponent&#45;&gt;SharedModule</title>
<path fill="none" stroke="#000000" d="M399,-122.2396C399,-137.5706 399,-157 399,-157 399,-157 1725.9002,-157 1725.9002,-157 1725.9002,-157 1725.9002,-157.4878 1725.9002,-157.4878"/>
<polygon fill="#000000" stroke="#000000" points="1722.4004,-151.8776 1725.9002,-161.8777 1729.4004,-151.8778 1722.4004,-151.8776"/>
</g>
</g>
</svg>
