<?xml version="1.0" encoding="UTF-8" standalone="no"?>
<!DOCTYPE svg PUBLIC "-//W3C//DTD SVG 1.1//EN"
 "http://www.w3.org/Graphics/SVG/1.1/DTD/svg11.dtd">
<!-- Generated by graphviz version 2.40.1 (20161225.0304)
 -->
<!-- Title: dependencies Pages: 1 -->
<svg width="2949pt" height="363pt"
 viewBox="0.00 0.00 2949.00 363.00" xmlns="http://www.w3.org/2000/svg" xmlns:xlink="http://www.w3.org/1999/xlink">
<g id="graph0" class="graph" transform="scale(1 1) rotate(0) translate(4 359)">
<title>dependencies</title>
<polygon fill="#ffffff" stroke="transparent" points="-4,4 -4,-359 2945,-359 2945,4 -4,4"/>
<text text-anchor="start" x="1449.5091" y="-42.4" font-family="sans-serif" font-weight="bold" font-size="14.00" fill="#000000">Legend</text>
<polygon fill="#ffffb3" stroke="transparent" points="1236.5,-10 1236.5,-30 1256.5,-30 1256.5,-10 1236.5,-10"/>
<text text-anchor="start" x="1260.129" y="-15.4" font-family="sans-serif" font-size="14.00" fill="#000000"> &#160;Declarations</text>
<polygon fill="#8dd3c7" stroke="transparent" points="1349.5,-10 1349.5,-30 1369.5,-30 1369.5,-10 1349.5,-10"/>
<text text-anchor="start" x="1373.2251" y="-15.4" font-family="sans-serif" font-size="14.00" fill="#000000"> &#160;Module</text>
<polygon fill="#80b1d3" stroke="transparent" points="1435.5,-10 1435.5,-30 1455.5,-30 1455.5,-10 1435.5,-10"/>
<text text-anchor="start" x="1459.2812" y="-15.4" font-family="sans-serif" font-size="14.00" fill="#000000"> &#160;Bootstrap</text>
<polygon fill="#fdb462" stroke="transparent" points="1532.5,-10 1532.5,-30 1552.5,-30 1552.5,-10 1532.5,-10"/>
<text text-anchor="start" x="1556.1732" y="-15.4" font-family="sans-serif" font-size="14.00" fill="#000000"> &#160;Providers</text>
<polygon fill="#fb8072" stroke="transparent" points="1628.5,-10 1628.5,-30 1648.5,-30 1648.5,-10 1628.5,-10"/>
<text text-anchor="start" x="1652.2258" y="-15.4" font-family="sans-serif" font-size="14.00" fill="#000000"> &#160;Exports</text>
<g id="clust1" class="cluster">
<title>cluster_AppModule</title>
<polygon fill="none" stroke="#000000" stroke-dasharray="1,5" points="1156,-146 1156,-347 2104,-347 2104,-146 1156,-146"/>
</g>
<g id="clust2" class="cluster">
<title>cluster_AppModule_declarations</title>
<polygon fill="none" stroke="#000000" points="1710,-154 1710,-206 2096,-206 2096,-154 1710,-154"/>
</g>
<g id="clust6" class="cluster">
<title>cluster_AppModule_imports</title>
<polygon fill="none" stroke="#000000" points="1352,-154 1352,-206 1702,-206 1702,-154 1352,-154"/>
</g>
<g id="clust8" class="cluster">
<title>cluster_AppModule_bootstrap</title>
<polygon fill="none" stroke="#000000" points="1586,-287 1586,-339 1710,-339 1710,-287 1586,-287"/>
</g>
<g id="clust9" class="cluster">
<title>cluster_AppModule_providers</title>
<polygon fill="none" stroke="#000000" points="1164,-154 1164,-206 1344,-206 1344,-154 1164,-154"/>
</g>
<g id="clust10" class="cluster">
<title>cluster_PagesModule</title>
<polygon fill="none" stroke="#000000" stroke-dasharray="1,5" points="1970,-70 1970,-138 2931,-138 2931,-70 1970,-70"/>
</g>
<g id="clust11" class="cluster">
<title>cluster_PagesModule_declarations</title>
<polygon fill="none" stroke="#000000" points="1978,-78 1978,-130 2923,-130 2923,-78 1978,-78"/>
</g>
<g id="clust23" class="cluster">
<title>cluster_PipesModule</title>
<polygon fill="none" stroke="#000000" stroke-dasharray="1,5" points="2799,-154 2799,-279 2933,-279 2933,-154 2799,-154"/>
</g>
<g id="clust27" class="cluster">
<title>cluster_PipesModule_exports</title>
<polygon fill="none" stroke="#000000" points="2807,-219 2807,-271 2925,-271 2925,-219 2807,-219"/>
</g>
<g id="clust30" class="cluster">
<title>cluster_ServicesModule</title>
<polygon fill="none" stroke="#000000" stroke-dasharray="1,5" points="950,-70 950,-138 1962,-138 1962,-70 950,-70"/>
</g>
<g id="clust35" class="cluster">
<title>cluster_ServicesModule_providers</title>
<polygon fill="none" stroke="#000000" points="958,-78 958,-130 1954,-130 1954,-78 958,-78"/>
</g>
<g id="clust36" class="cluster">
<title>cluster_SharedModule</title>
<polygon fill="none" stroke="#000000" stroke-dasharray="1,5" points="8,-70 8,-138 942,-138 942,-70 8,-70"/>
</g>
<g id="clust37" class="cluster">
<title>cluster_SharedModule_declarations</title>
<polygon fill="none" stroke="#000000" points="312,-78 312,-130 934,-130 934,-78 312,-78"/>
</g>
<g id="clust43" class="cluster">
<title>cluster_SharedModule_exports</title>
<polygon fill="none" stroke="#000000" points="16,-78 16,-130 304,-130 304,-78 16,-78"/>
</g>
<!-- AppComponent -->
<g id="node1" class="node">
<title>AppComponent</title>
<polygon fill="#ffffb3" stroke="#000000" points="2087.9399,-198 1982.0601,-198 1982.0601,-162 2087.9399,-162 2087.9399,-198"/>
<text text-anchor="middle" x="2035" y="-175.8" font-family="Times,serif" font-size="14.00" fill="#000000">AppComponent</text>
</g>
<!-- AppModule -->
<g id="node4" class="node">
<title>AppModule</title>
<polygon fill="#8dd3c7" stroke="#000000" points="1689.6571,-263 1686.6571,-267 1665.6571,-267 1662.6571,-263 1606.3429,-263 1606.3429,-227 1689.6571,-227 1689.6571,-263"/>
<text text-anchor="middle" x="1648" y="-240.8" font-family="Times,serif" font-size="14.00" fill="#000000">AppModule</text>
</g>
<!-- AppComponent&#45;&gt;AppModule -->
<g id="edge1" class="edge">
<title>AppComponent&#45;&gt;AppModule</title>
<path fill="none" stroke="#000000" d="M2035,-198.2921C2035,-220.2057 2035,-254 2035,-254 2035,-254 1699.7835,-254 1699.7835,-254"/>
<polygon fill="#000000" stroke="#000000" points="1699.7835,-250.5001 1689.7835,-254 1699.7834,-257.5001 1699.7835,-250.5001"/>
</g>
<!-- LoginComponent -->
<g id="node2" class="node">
<title>LoginComponent</title>
<polygon fill="#ffffb3" stroke="#000000" points="1964.2758,-198 1849.7242,-198 1849.7242,-162 1964.2758,-162 1964.2758,-198"/>
<text text-anchor="middle" x="1907" y="-175.8" font-family="Times,serif" font-size="14.00" fill="#000000">LoginComponent</text>
</g>
<!-- LoginComponent&#45;&gt;AppModule -->
<g id="edge2" class="edge">
<title>LoginComponent&#45;&gt;AppModule</title>
<path fill="none" stroke="#000000" d="M1907,-198.1061C1907,-217.3391 1907,-245 1907,-245 1907,-245 1699.9007,-245 1699.9007,-245"/>
<polygon fill="#000000" stroke="#000000" points="1699.9007,-241.5001 1689.9007,-245 1699.9006,-248.5001 1699.9007,-241.5001"/>
</g>
<!-- PagesComponent -->
<g id="node3" class="node">
<title>PagesComponent</title>
<polygon fill="#ffffb3" stroke="#000000" points="1831.9888,-198 1718.0112,-198 1718.0112,-162 1831.9888,-162 1831.9888,-198"/>
<text text-anchor="middle" x="1775" y="-175.8" font-family="Times,serif" font-size="14.00" fill="#000000">PagesComponent</text>
</g>
<!-- PagesComponent&#45;&gt;AppModule -->
<g id="edge3" class="edge">
<title>PagesComponent&#45;&gt;AppModule</title>
<path fill="none" stroke="#000000" d="M1775,-198.027C1775,-214.3976 1775,-236 1775,-236 1775,-236 1699.9365,-236 1699.9365,-236"/>
<polygon fill="#000000" stroke="#000000" points="1699.9366,-232.5001 1689.9365,-236 1699.9365,-239.5001 1699.9366,-232.5001"/>
</g>
<!-- AppComponent  -->
<g id="node8" class="node">
<title>AppComponent </title>
<polygon fill="#80b1d3" stroke="#000000" points="1702.439,-331 1593.561,-331 1593.561,-295 1702.439,-295 1702.439,-331"/>
<text text-anchor="middle" x="1648" y="-308.8" font-family="Times,serif" font-size="14.00" fill="#000000">AppComponent </text>
</g>
<!-- AppModule&#45;&gt;AppComponent  -->
<g id="edge7" class="edge">
<title>AppModule&#45;&gt;AppComponent </title>
<path fill="none" stroke="#000000" stroke-dasharray="1,5" d="M1648,-263.2228C1648,-263.2228 1648,-284.7269 1648,-284.7269"/>
<polygon fill="#000000" stroke="#000000" points="1644.5001,-284.7269 1648,-294.7269 1651.5001,-284.727 1644.5001,-284.7269"/>
</g>
<!-- PagesModule -->
<g id="node5" class="node">
<title>PagesModule</title>
<polygon fill="#8dd3c7" stroke="#000000" points="1694.2064,-198 1691.2064,-202 1670.2064,-202 1667.2064,-198 1601.7936,-198 1601.7936,-162 1694.2064,-162 1694.2064,-198"/>
<text text-anchor="middle" x="1648" y="-175.8" font-family="Times,serif" font-size="14.00" fill="#000000">PagesModule</text>
</g>
<!-- PagesModule&#45;&gt;AppModule -->
<g id="edge4" class="edge">
<title>PagesModule&#45;&gt;AppModule</title>
<path fill="none" stroke="#000000" d="M1648,-198.1061C1648,-198.1061 1648,-216.991 1648,-216.991"/>
<polygon fill="#000000" stroke="#000000" points="1644.5001,-216.9909 1648,-226.991 1651.5001,-216.991 1644.5001,-216.9909"/>
</g>
<!-- ServicesModule -->
<g id="node6" class="node">
<title>ServicesModule</title>
<polygon fill="#8dd3c7" stroke="#000000" points="1583.472,-198 1580.472,-202 1559.472,-202 1556.472,-198 1476.528,-198 1476.528,-162 1583.472,-162 1583.472,-198"/>
<text text-anchor="middle" x="1530" y="-175.8" font-family="Times,serif" font-size="14.00" fill="#000000">ServicesModule</text>
</g>
<!-- ServicesModule&#45;&gt;AppModule -->
<g id="edge5" class="edge">
<title>ServicesModule&#45;&gt;AppModule</title>
<path fill="none" stroke="#000000" d="M1530,-198.027C1530,-214.3976 1530,-236 1530,-236 1530,-236 1596.0654,-236 1596.0654,-236"/>
<polygon fill="#000000" stroke="#000000" points="1596.0654,-239.5001 1606.0654,-236 1596.0653,-232.5001 1596.0654,-239.5001"/>
</g>
<!-- SharedModule -->
<g id="node7" class="node">
<title>SharedModule</title>
<polygon fill="#8dd3c7" stroke="#000000" points="1458.4231,-198 1455.4231,-202 1434.4231,-202 1431.4231,-198 1359.5769,-198 1359.5769,-162 1458.4231,-162 1458.4231,-198"/>
<text text-anchor="middle" x="1409" y="-175.8" font-family="Times,serif" font-size="14.00" fill="#000000">SharedModule</text>
</g>
<!-- SharedModule&#45;&gt;AppModule -->
<g id="edge6" class="edge">
<title>SharedModule&#45;&gt;AppModule</title>
<path fill="none" stroke="#000000" d="M1409,-198.1061C1409,-217.3391 1409,-245 1409,-245 1409,-245 1596.0959,-245 1596.0959,-245"/>
<polygon fill="#000000" stroke="#000000" points="1596.0959,-248.5001 1606.0959,-245 1596.0959,-241.5001 1596.0959,-248.5001"/>
</g>
<!-- NavbarComponent  -->
<g id="node29" class="node">
<title>NavbarComponent </title>
<polygon fill="#fb8072" stroke="#000000" points="296.0288,-122 169.9712,-122 169.9712,-86 296.0288,-86 296.0288,-122"/>
<text text-anchor="middle" x="233" y="-99.8" font-family="Times,serif" font-size="14.00" fill="#000000">NavbarComponent </text>
</g>
<!-- SharedModule&#45;&gt;NavbarComponent  -->
<g id="edge28" class="edge">
<title>SharedModule&#45;&gt;NavbarComponent </title>
<path fill="none" stroke="#000000" stroke-dasharray="5,2" d="M1380.8459,-161.8975C1380.8459,-150.9141 1380.8459,-139 1380.8459,-139 1380.8459,-139 233,-139 233,-139 233,-139 233,-132.32 233,-132.32"/>
<polygon fill="#000000" stroke="#000000" points="236.5001,-132.32 233,-122.32 229.5001,-132.3201 236.5001,-132.32"/>
</g>
<!-- SidebarComponent  -->
<g id="node30" class="node">
<title>SidebarComponent </title>
<polygon fill="#fb8072" stroke="#000000" points="151.596,-122 24.404,-122 24.404,-86 151.596,-86 151.596,-122"/>
<text text-anchor="middle" x="88" y="-99.8" font-family="Times,serif" font-size="14.00" fill="#000000">SidebarComponent </text>
</g>
<!-- SharedModule&#45;&gt;SidebarComponent  -->
<g id="edge29" class="edge">
<title>SharedModule&#45;&gt;SidebarComponent </title>
<path fill="none" stroke="#000000" stroke-dasharray="5,2" d="M1370.3174,-161.8701C1370.3174,-151.6855 1370.3174,-141 1370.3174,-141 1370.3174,-141 88,-141 88,-141 88,-141 88,-132.0664 88,-132.0664"/>
<polygon fill="#000000" stroke="#000000" points="91.5001,-132.0664 88,-122.0664 84.5001,-132.0665 91.5001,-132.0664"/>
</g>
<!-- InterceptorService -->
<g id="node9" class="node">
<title>InterceptorService</title>
<ellipse fill="#fdb462" stroke="#000000" cx="1254" cy="-180" rx="82.1986" ry="18"/>
<text text-anchor="middle" x="1254" y="-175.8" font-family="Times,serif" font-size="14.00" fill="#000000">InterceptorService</text>
</g>
<!-- InterceptorService&#45;&gt;AppModule -->
<g id="edge8" class="edge">
<title>InterceptorService&#45;&gt;AppModule</title>
<path fill="none" stroke="#000000" d="M1254,-198.2921C1254,-220.2057 1254,-254 1254,-254 1254,-254 1596.2081,-254 1596.2081,-254"/>
<polygon fill="#000000" stroke="#000000" points="1596.2081,-257.5001 1606.2081,-254 1596.2081,-250.5001 1596.2081,-257.5001"/>
</g>
<!-- ConfigComponent -->
<g id="node10" class="node">
<title>ConfigComponent</title>
<polygon fill="#ffffb3" stroke="#000000" points="2799.2204,-122 2678.7796,-122 2678.7796,-86 2799.2204,-86 2799.2204,-122"/>
<text text-anchor="middle" x="2739" y="-99.8" font-family="Times,serif" font-size="14.00" fill="#000000">ConfigComponent</text>
</g>
<!-- ConfigComponent&#45;&gt;PagesModule -->
<g id="edge9" class="edge">
<title>ConfigComponent&#45;&gt;PagesModule</title>
<path fill="none" stroke="#000000" d="M2739,-122.2819C2739,-137.9478 2739,-158 2739,-158 2739,-158 1676.7877,-158 1676.7877,-158 1676.7877,-158 1676.7877,-158.3832 1676.7877,-158.3832"/>
<polygon fill="#000000" stroke="#000000" points="1673.288,-151.832 1676.7877,-161.8321 1680.288,-151.8322 1673.288,-151.832"/>
</g>
<!-- DashboardComponent -->
<g id="node11" class="node">
<title>DashboardComponent</title>
<polygon fill="#ffffb3" stroke="#000000" points="2660.9734,-122 2519.0266,-122 2519.0266,-86 2660.9734,-86 2660.9734,-122"/>
<text text-anchor="middle" x="2590" y="-99.8" font-family="Times,serif" font-size="14.00" fill="#000000">DashboardComponent</text>
</g>
<!-- DashboardComponent&#45;&gt;PagesModule -->
<g id="edge10" class="edge">
<title>DashboardComponent&#45;&gt;PagesModule</title>
<path fill="none" stroke="#000000" d="M2590,-122.1871C2590,-137.1824 2590,-156 2590,-156 2590,-156 1668.1301,-156 1668.1301,-156 1668.1301,-156 1668.1301,-156.581 1668.1301,-156.581"/>
<polygon fill="#000000" stroke="#000000" points="1664.6303,-151.8097 1668.1301,-161.8097 1671.6303,-151.8098 1664.6303,-151.8097"/>
</g>
<!-- GrupoComponent -->
<g id="node12" class="node">
<title>GrupoComponent</title>
<polygon fill="#ffffb3" stroke="#000000" points="2500.5996,-122 2383.4004,-122 2383.4004,-86 2500.5996,-86 2500.5996,-122"/>
<text text-anchor="middle" x="2442" y="-99.8" font-family="Times,serif" font-size="14.00" fill="#000000">GrupoComponent</text>
</g>
<!-- GrupoComponent&#45;&gt;PagesModule -->
<g id="edge11" class="edge">
<title>GrupoComponent&#45;&gt;PagesModule</title>
<path fill="none" stroke="#000000" d="M2442,-122.0511C2442,-136.373 2442,-154 2442,-154 2442,-154 1659.4724,-154 1659.4724,-154 1659.4724,-154 1659.4724,-154.7942 1659.4724,-154.7942"/>
<polygon fill="#000000" stroke="#000000" points="1655.9725,-151.9421 1659.4724,-161.9421 1662.9725,-151.9422 1655.9725,-151.9421"/>
</g>
<!-- GruposComponent -->
<g id="node13" class="node">
<title>GruposComponent</title>
<polygon fill="#ffffb3" stroke="#000000" points="2365.045,-122 2242.955,-122 2242.955,-86 2365.045,-86 2365.045,-122"/>
<text text-anchor="middle" x="2304" y="-99.8" font-family="Times,serif" font-size="14.00" fill="#000000">GruposComponent</text>
</g>
<!-- GruposComponent&#45;&gt;PagesModule -->
<g id="edge12" class="edge">
<title>GruposComponent&#45;&gt;PagesModule</title>
<path fill="none" stroke="#000000" d="M2304,-122.1467C2304,-135.7395 2304,-152 2304,-152 2304,-152 1650.8147,-152 1650.8147,-152 1650.8147,-152 1650.8147,-152.9793 1650.8147,-152.9793"/>
<polygon fill="#000000" stroke="#000000" points="1647.3148,-151.793 1650.8147,-161.793 1654.3148,-151.7931 1647.3148,-151.793"/>
</g>
<!-- RoundceilPipe -->
<g id="node14" class="node">
<title>RoundceilPipe</title>
<polygon fill="#ffffb3" stroke="#000000" points="2915.4358,-122 2816.5642,-122 2816.5642,-86 2915.4358,-86 2915.4358,-122"/>
<text text-anchor="middle" x="2866" y="-99.8" font-family="Times,serif" font-size="14.00" fill="#000000">RoundceilPipe</text>
</g>
<!-- RoundceilPipe&#45;&gt;PagesModule -->
<g id="edge13" class="edge">
<title>RoundceilPipe&#45;&gt;PagesModule</title>
<path fill="none" stroke="#000000" d="M2851.0196,-122.027C2851.0196,-138.3976 2851.0196,-160 2851.0196,-160 2851.0196,-160 1685.4454,-160 1685.4454,-160 1685.4454,-160 1685.4454,-160.1846 1685.4454,-160.1846"/>
<polygon fill="#000000" stroke="#000000" points="1681.946,-151.8455 1685.4454,-161.8457 1688.946,-151.8459 1681.946,-151.8455"/>
</g>
<!-- PipesModule -->
<g id="node17" class="node">
<title>PipesModule</title>
<polygon fill="#8dd3c7" stroke="#000000" points="2910.8823,-198 2907.8823,-202 2886.8823,-202 2883.8823,-198 2821.1177,-198 2821.1177,-162 2910.8823,-162 2910.8823,-198"/>
<text text-anchor="middle" x="2866" y="-175.8" font-family="Times,serif" font-size="14.00" fill="#000000">PipesModule</text>
</g>
<!-- RoundceilPipe&#45;&gt;PipesModule -->
<g id="edge16" class="edge">
<title>RoundceilPipe&#45;&gt;PipesModule</title>
<path fill="none" stroke="#000000" d="M2880.9804,-122.0109C2880.9804,-122.0109 2880.9804,-151.855 2880.9804,-151.855"/>
<polygon fill="#000000" stroke="#000000" points="2877.4805,-151.8549 2880.9804,-161.855 2884.4805,-151.855 2877.4805,-151.8549"/>
</g>
<!-- UserComponent -->
<g id="node15" class="node">
<title>UserComponent</title>
<polygon fill="#ffffb3" stroke="#000000" points="2093.7591,-122 1986.2409,-122 1986.2409,-86 2093.7591,-86 2093.7591,-122"/>
<text text-anchor="middle" x="2040" y="-99.8" font-family="Times,serif" font-size="14.00" fill="#000000">UserComponent</text>
</g>
<!-- UserComponent&#45;&gt;PagesModule -->
<g id="edge14" class="edge">
<title>UserComponent&#45;&gt;PagesModule</title>
<path fill="none" stroke="#000000" d="M2036.9201,-122.1505C2036.9201,-134.2708 2036.9201,-148 2036.9201,-148 2036.9201,-148 1633.4994,-148 1633.4994,-148 1633.4994,-148 1633.4994,-151.7566 1633.4994,-151.7566"/>
<polygon fill="#000000" stroke="#000000" points="1629.9995,-151.7566 1633.4994,-161.7566 1636.9995,-151.7566 1629.9995,-151.7566"/>
</g>
<!-- UsersComponent -->
<g id="node16" class="node">
<title>UsersComponent</title>
<polygon fill="#ffffb3" stroke="#000000" points="2224.7036,-122 2111.2964,-122 2111.2964,-86 2224.7036,-86 2224.7036,-122"/>
<text text-anchor="middle" x="2168" y="-99.8" font-family="Times,serif" font-size="14.00" fill="#000000">UsersComponent</text>
</g>
<!-- UsersComponent&#45;&gt;PagesModule -->
<g id="edge15" class="edge">
<title>UsersComponent&#45;&gt;PagesModule</title>
<path fill="none" stroke="#000000" d="M2168,-122.1804C2168,-135.0382 2168,-150 2168,-150 2168,-150 1642.157,-150 1642.157,-150 1642.157,-150 1642.157,-151.8568 1642.157,-151.8568"/>
<polygon fill="#000000" stroke="#000000" points="1638.6571,-151.8568 1642.157,-161.8568 1645.6571,-151.8568 1638.6571,-151.8568"/>
</g>
<!-- RoundceilPipe  -->
<g id="node18" class="node">
<title>RoundceilPipe </title>
<polygon fill="#fb8072" stroke="#000000" points="2916.9348,-263 2815.0652,-263 2815.0652,-227 2916.9348,-227 2916.9348,-263"/>
<text text-anchor="middle" x="2866" y="-240.8" font-family="Times,serif" font-size="14.00" fill="#000000">RoundceilPipe </text>
</g>
<!-- PipesModule&#45;&gt;RoundceilPipe  -->
<g id="edge17" class="edge">
<title>PipesModule&#45;&gt;RoundceilPipe </title>
<path fill="none" stroke="#000000" stroke-dasharray="5,2" d="M2866,-198.1061C2866,-198.1061 2866,-216.991 2866,-216.991"/>
<polygon fill="#000000" stroke="#000000" points="2862.5001,-216.9909 2866,-226.991 2869.5001,-216.991 2862.5001,-216.9909"/>
</g>
<!-- ColorThemeService -->
<g id="node19" class="node">
<title>ColorThemeService</title>
<ellipse fill="#fdb462" stroke="#000000" cx="1857" cy="-104" rx="88.6024" ry="18"/>
<text text-anchor="middle" x="1857" y="-99.8" font-family="Times,serif" font-size="14.00" fill="#000000">ColorThemeService</text>
</g>
<!-- ColorThemeService&#45;&gt;ServicesModule -->
<g id="edge18" class="edge">
<title>ColorThemeService&#45;&gt;ServicesModule</title>
<path fill="none" stroke="#000000" d="M1800.0967,-118.2193C1800.0967,-130.4038 1800.0967,-146 1800.0967,-146 1800.0967,-146 1568.2043,-146 1568.2043,-146 1568.2043,-146 1568.2043,-151.8056 1568.2043,-151.8056"/>
<polygon fill="#000000" stroke="#000000" points="1564.7044,-151.8055 1568.2043,-161.8056 1571.7044,-151.8056 1564.7044,-151.8055"/>
</g>
<!-- ConfigService -->
<g id="node20" class="node">
<title>ConfigService</title>
<ellipse fill="#fdb462" stroke="#000000" cx="1683" cy="-104" rx="66.6325" ry="18"/>
<text text-anchor="middle" x="1683" y="-99.8" font-family="Times,serif" font-size="14.00" fill="#000000">ConfigService</text>
</g>
<!-- ConfigService&#45;&gt;ServicesModule -->
<g id="edge19" class="edge">
<title>ConfigService&#45;&gt;ServicesModule</title>
<path fill="none" stroke="#000000" d="M1624.8417,-112.8773C1624.8417,-124.6616 1624.8417,-144 1624.8417,-144 1624.8417,-144 1552.9226,-144 1552.9226,-144 1552.9226,-144 1552.9226,-151.5782 1552.9226,-151.5782"/>
<polygon fill="#000000" stroke="#000000" points="1549.4227,-151.5781 1552.9226,-161.5782 1556.4227,-151.5782 1549.4227,-151.5781"/>
</g>
<!-- GruposService -->
<g id="node21" class="node">
<title>GruposService</title>
<ellipse fill="#fdb462" stroke="#000000" cx="1530" cy="-104" rx="68.3382" ry="18"/>
<text text-anchor="middle" x="1530" y="-99.8" font-family="Times,serif" font-size="14.00" fill="#000000">GruposService</text>
</g>
<!-- GruposService&#45;&gt;ServicesModule -->
<g id="edge20" class="edge">
<title>GruposService&#45;&gt;ServicesModule</title>
<path fill="none" stroke="#000000" d="M1537.6409,-122.0109C1537.6409,-122.0109 1537.6409,-151.855 1537.6409,-151.855"/>
<polygon fill="#000000" stroke="#000000" points="1534.141,-151.8549 1537.6409,-161.855 1541.141,-151.855 1534.141,-151.8549"/>
</g>
<!-- MenuSidebarService -->
<g id="node22" class="node">
<title>MenuSidebarService</title>
<ellipse fill="#fdb462" stroke="#000000" cx="1352" cy="-104" rx="92.0335" ry="18"/>
<text text-anchor="middle" x="1352" y="-99.8" font-family="Times,serif" font-size="14.00" fill="#000000">MenuSidebarService</text>
</g>
<!-- MenuSidebarService&#45;&gt;ServicesModule -->
<g id="edge21" class="edge">
<title>MenuSidebarService&#45;&gt;ServicesModule</title>
<path fill="none" stroke="#000000" d="M1433.4883,-112.5415C1433.4883,-118.3555 1433.4883,-125 1433.4883,-125 1433.4883,-125 1522.3591,-125 1522.3591,-125 1522.3591,-125 1522.3591,-151.9909 1522.3591,-151.9909"/>
<polygon fill="#000000" stroke="#000000" points="1518.8592,-151.9909 1522.3591,-161.9909 1525.8592,-151.991 1518.8592,-151.9909"/>
</g>
<!-- UserService -->
<g id="node23" class="node">
<title>UserService</title>
<ellipse fill="#fdb462" stroke="#000000" cx="1184" cy="-104" rx="58.4415" ry="18"/>
<text text-anchor="middle" x="1184" y="-99.8" font-family="Times,serif" font-size="14.00" fill="#000000">UserService</text>
</g>
<!-- UserService&#45;&gt;ServicesModule -->
<g id="edge22" class="edge">
<title>UserService&#45;&gt;ServicesModule</title>
<path fill="none" stroke="#000000" d="M1206.9356,-120.7151C1206.9356,-124.2822 1206.9356,-127 1206.9356,-127 1206.9356,-127 1507.0774,-127 1507.0774,-127 1507.0774,-127 1507.0774,-151.7604 1507.0774,-151.7604"/>
<polygon fill="#000000" stroke="#000000" points="1503.5775,-151.7604 1507.0774,-161.7604 1510.5775,-151.7604 1503.5775,-151.7604"/>
</g>
<!-- UsuarioService -->
<g id="node24" class="node">
<title>UsuarioService</title>
<ellipse fill="#fdb462" stroke="#000000" cx="1037" cy="-104" rx="70.622" ry="18"/>
<text text-anchor="middle" x="1037" y="-99.8" font-family="Times,serif" font-size="14.00" fill="#000000">UsuarioService</text>
</g>
<!-- UsuarioService&#45;&gt;ServicesModule -->
<g id="edge23" class="edge">
<title>UsuarioService&#45;&gt;ServicesModule</title>
<path fill="none" stroke="#000000" d="M1037,-122.1686C1037,-126.0459 1037,-129 1037,-129 1037,-129 1491.7957,-129 1491.7957,-129 1491.7957,-129 1491.7957,-151.8757 1491.7957,-151.8757"/>
<polygon fill="#000000" stroke="#000000" points="1488.2958,-151.8757 1491.7957,-161.8757 1495.2958,-151.8757 1488.2958,-151.8757"/>
</g>
<!-- ColorthemeComponent -->
<g id="node25" class="node">
<title>ColorthemeComponent</title>
<polygon fill="#ffffb3" stroke="#000000" points="925.9312,-122 778.0688,-122 778.0688,-86 925.9312,-86 925.9312,-122"/>
<text text-anchor="middle" x="852" y="-99.8" font-family="Times,serif" font-size="14.00" fill="#000000">ColorthemeComponent</text>
</g>
<!-- ColorthemeComponent&#45;&gt;SharedModule -->
<g id="edge24" class="edge">
<title>ColorthemeComponent&#45;&gt;SharedModule</title>
<path fill="none" stroke="#000000" d="M852,-122.1592C852,-127.0433 852,-131 852,-131 852,-131 1422.9598,-131 1422.9598,-131 1422.9598,-131 1422.9598,-151.7542 1422.9598,-151.7542"/>
<polygon fill="#000000" stroke="#000000" points="1419.4599,-151.7542 1422.9598,-161.7542 1426.4599,-151.7542 1419.4599,-151.7542"/>
</g>
<!-- NavbarComponent -->
<g id="node26" class="node">
<title>NavbarComponent</title>
<polygon fill="#ffffb3" stroke="#000000" points="760.0297,-122 637.9703,-122 637.9703,-86 760.0297,-86 760.0297,-122"/>
<text text-anchor="middle" x="699" y="-99.8" font-family="Times,serif" font-size="14.00" fill="#000000">NavbarComponent</text>
</g>
<!-- NavbarComponent&#45;&gt;SharedModule -->
<g id="edge25" class="edge">
<title>NavbarComponent&#45;&gt;SharedModule</title>
<path fill="none" stroke="#000000" d="M699,-122.2015C699,-128.028 699,-133 699,-133 699,-133 1412.4313,-133 1412.4313,-133 1412.4313,-133 1412.4313,-151.963 1412.4313,-151.963"/>
<polygon fill="#000000" stroke="#000000" points="1408.9314,-151.963 1412.4313,-161.963 1415.9314,-151.963 1408.9314,-151.963"/>
</g>
<!-- SidebarComponent -->
<g id="node27" class="node">
<title>SidebarComponent</title>
<polygon fill="#ffffb3" stroke="#000000" points="620.0954,-122 495.9046,-122 495.9046,-86 620.0954,-86 620.0954,-122"/>
<text text-anchor="middle" x="558" y="-99.8" font-family="Times,serif" font-size="14.00" fill="#000000">SidebarComponent</text>
</g>
<!-- SidebarComponent&#45;&gt;SharedModule -->
<g id="edge26" class="edge">
<title>SidebarComponent&#45;&gt;SharedModule</title>
<path fill="none" stroke="#000000" d="M558,-122.0328C558,-128.8526 558,-135 558,-135 558,-135 1401.9028,-135 1401.9028,-135 1401.9028,-135 1401.9028,-151.9561 1401.9028,-151.9561"/>
<polygon fill="#000000" stroke="#000000" points="1398.4029,-151.956 1401.9028,-161.9561 1405.4029,-151.9561 1398.4029,-151.956"/>
</g>
<!-- SidebarfooterComponent -->
<g id="node28" class="node">
<title>SidebarfooterComponent</title>
<polygon fill="#ffffb3" stroke="#000000" points="477.5225,-122 320.4775,-122 320.4775,-86 477.5225,-86 477.5225,-122"/>
<text text-anchor="middle" x="399" y="-99.8" font-family="Times,serif" font-size="14.00" fill="#000000">SidebarfooterComponent</text>
</g>
<!-- SidebarfooterComponent&#45;&gt;SharedModule -->
<g id="edge27" class="edge">
<title>SidebarfooterComponent&#45;&gt;SharedModule</title>
<path fill="none" stroke="#000000" d="M399,-122.0449C399,-129.749 399,-137 399,-137 399,-137 1391.3743,-137 1391.3743,-137 1391.3743,-137 1391.3743,-151.5146 1391.3743,-151.5146"/>
<polygon fill="#000000" stroke="#000000" points="1387.8744,-151.5145 1391.3743,-161.5146 1394.8744,-151.5146 1387.8744,-151.5145"/>
</g>
</g>
</svg>
