<?xml version="1.0" encoding="UTF-8" standalone="no"?>
<!DOCTYPE svg PUBLIC "-//W3C//DTD SVG 1.1//EN"
 "http://www.w3.org/Graphics/SVG/1.1/DTD/svg11.dtd">
<!-- Generated by graphviz version 2.47.3 (20210619.1520)
 -->
<!-- Title: dependencies Pages: 1 -->
<svg width="260pt" height="247pt"
 viewBox="0.00 0.00 260.00 246.80" xmlns="http://www.w3.org/2000/svg" xmlns:xlink="http://www.w3.org/1999/xlink">
<g id="graph0" class="graph" transform="scale(1 1) rotate(0) translate(4 242.8)">
<title>dependencies</title>
<polygon fill="white" stroke="transparent" points="-4,4 -4,-242.8 256,-242.8 256,4 -4,4"/>
<text text-anchor="middle" x="126" y="-8.2" font-family="sans-serif" font-size="14.00">dependencies</text>
<g id="clust1" class="cluster">
<title>cluster_PipesModule</title>
<polygon fill="none" stroke="black" stroke-dasharray="1,5" points="8,-32.8 8,-230.8 244,-230.8 244,-32.8 8,-32.8"/>
</g>
<g id="clust6" class="cluster">
<title>cluster_PipesModule_exports</title>
<polygon fill="none" stroke="black" points="16,-170.8 16,-222.8 236,-222.8 236,-170.8 16,-170.8"/>
</g>
<g id="clust2" class="cluster">
<title>cluster_PipesModule_declarations</title>
<polygon fill="none" stroke="black" points="20,-40.8 20,-92.8 232,-92.8 232,-40.8 20,-40.8"/>
</g>
<!-- CuentaPipe -->
<g id="node1" class="node">
<title>CuentaPipe</title>
<polygon fill="#ffffb3" stroke="black" points="224.05,-84.8 143.95,-84.8 143.95,-48.8 224.05,-48.8 224.05,-84.8"/>
<text text-anchor="middle" x="184" y="-62.6" font-family="Times,serif" font-size="14.00">CuentaPipe</text>
</g>
<!-- PipesModule -->
<g id="node3" class="node">
<title>PipesModule</title>
<polygon fill="#8dd3c7" stroke="black" points="122.88,-149.8 119.88,-153.8 98.88,-153.8 95.88,-149.8 33.12,-149.8 33.12,-113.8 122.88,-113.8 122.88,-149.8"/>
<text text-anchor="middle" x="78" y="-127.6" font-family="Times,serif" font-size="14.00">PipesModule</text>
</g>
<!-- CuentaPipe&#45;&gt;PipesModule -->
<g id="edge1" class="edge">
<title>CuentaPipe&#45;&gt;PipesModule</title>
<path fill="none" stroke="black" d="M197.51,-84.82C197.51,-102.17 197.51,-125.8 197.51,-125.8 197.51,-125.8 133.18,-125.8 133.18,-125.8"/>
<polygon fill="black" stroke="black" points="133.18,-122.3 123.18,-125.8 133.18,-129.3 133.18,-122.3"/>
</g>
<!-- RoundceilPipe -->
<g id="node2" class="node">
<title>RoundceilPipe</title>
<polygon fill="#ffffb3" stroke="black" points="126.44,-84.8 27.56,-84.8 27.56,-48.8 126.44,-48.8 126.44,-84.8"/>
<text text-anchor="middle" x="77" y="-62.6" font-family="Times,serif" font-size="14.00">RoundceilPipe</text>
</g>
<!-- RoundceilPipe&#45;&gt;PipesModule -->
<g id="edge2" class="edge">
<title>RoundceilPipe&#45;&gt;PipesModule</title>
<path fill="none" stroke="black" d="M78,-84.91C78,-84.91 78,-103.79 78,-103.79"/>
<polygon fill="black" stroke="black" points="74.5,-103.79 78,-113.79 81.5,-103.79 74.5,-103.79"/>
</g>
<!-- CuentaPipe  -->
<g id="node4" class="node">
<title>CuentaPipe </title>
<polygon fill="#fb8072" stroke="black" points="228.04,-214.8 143.96,-214.8 143.96,-178.8 228.04,-178.8 228.04,-214.8"/>
<text text-anchor="middle" x="186" y="-192.6" font-family="Times,serif" font-size="14.00">CuentaPipe </text>
</g>
<!-- PipesModule&#45;&gt;CuentaPipe  -->
<g id="edge3" class="edge">
<title>PipesModule&#45;&gt;CuentaPipe </title>
<path fill="none" stroke="black" stroke-dasharray="5,2" d="M123.01,-137.8C146.64,-137.8 170.74,-137.8 170.74,-137.8 170.74,-137.8 170.74,-168.78 170.74,-168.78"/>
<polygon fill="black" stroke="black" points="167.24,-168.78 170.74,-178.78 174.24,-168.78 167.24,-168.78"/>
</g>
<!-- RoundceilPipe  -->
<g id="node5" class="node">
<title>RoundceilPipe </title>
<polygon fill="#fb8072" stroke="black" points="125.93,-214.8 24.07,-214.8 24.07,-178.8 125.93,-178.8 125.93,-214.8"/>
<text text-anchor="middle" x="75" y="-192.6" font-family="Times,serif" font-size="14.00">RoundceilPipe </text>
</g>
<!-- PipesModule&#45;&gt;RoundceilPipe  -->
<g id="edge4" class="edge">
<title>PipesModule&#45;&gt;RoundceilPipe </title>
<path fill="none" stroke="black" stroke-dasharray="5,2" d="M78,-149.91C78,-149.91 78,-168.79 78,-168.79"/>
<polygon fill="black" stroke="black" points="74.5,-168.79 78,-178.79 81.5,-168.79 74.5,-168.79"/>
</g>
</g>
</svg>
