<?xml version="1.0" encoding="UTF-8" standalone="no"?>
<!DOCTYPE svg PUBLIC "-//W3C//DTD SVG 1.1//EN"
 "http://www.w3.org/Graphics/SVG/1.1/DTD/svg11.dtd">
<!-- Generated by graphviz version 2.40.1 (20161225.0304)
 -->
<!-- Title: dependencies Pages: 1 -->
<svg width="504pt" height="284pt"
 viewBox="0.00 0.00 504.00 284.00" xmlns="http://www.w3.org/2000/svg" xmlns:xlink="http://www.w3.org/1999/xlink">
<g id="graph0" class="graph" transform="scale(1 1) rotate(0) translate(4 280)">
<title>dependencies</title>
<polygon fill="#ffffff" stroke="transparent" points="-4,4 -4,-280 500,-280 500,4 -4,4"/>
<text text-anchor="start" x="227.0091" y="-42.4" font-family="sans-serif" font-weight="bold" font-size="14.00" fill="#000000">Legend</text>
<polygon fill="#ffffb3" stroke="transparent" points="14,-10 14,-30 34,-30 34,-10 14,-10"/>
<text text-anchor="start" x="37.629" y="-15.4" font-family="sans-serif" font-size="14.00" fill="#000000"> &#160;Declarations</text>
<polygon fill="#8dd3c7" stroke="transparent" points="127,-10 127,-30 147,-30 147,-10 127,-10"/>
<text text-anchor="start" x="150.7251" y="-15.4" font-family="sans-serif" font-size="14.00" fill="#000000"> &#160;Module</text>
<polygon fill="#80b1d3" stroke="transparent" points="213,-10 213,-30 233,-30 233,-10 213,-10"/>
<text text-anchor="start" x="236.7812" y="-15.4" font-family="sans-serif" font-size="14.00" fill="#000000"> &#160;Bootstrap</text>
<polygon fill="#fdb462" stroke="transparent" points="310,-10 310,-30 330,-30 330,-10 310,-10"/>
<text text-anchor="start" x="333.6732" y="-15.4" font-family="sans-serif" font-size="14.00" fill="#000000"> &#160;Providers</text>
<polygon fill="#fb8072" stroke="transparent" points="406,-10 406,-30 426,-30 426,-10 406,-10"/>
<text text-anchor="start" x="429.7258" y="-15.4" font-family="sans-serif" font-size="14.00" fill="#000000"> &#160;Exports</text>
<g id="clust1" class="cluster">
<title>cluster_PipesModule</title>
<polygon fill="none" stroke="#000000" stroke-dasharray="1,5" points="130,-70 130,-268 366,-268 366,-70 130,-70"/>
</g>
<g id="clust2" class="cluster">
<title>cluster_PipesModule_declarations</title>
<polygon fill="none" stroke="#000000" points="142,-78 142,-130 354,-130 354,-78 142,-78"/>
</g>
<g id="clust6" class="cluster">
<title>cluster_PipesModule_exports</title>
<polygon fill="none" stroke="#000000" points="138,-208 138,-260 358,-260 358,-208 138,-208"/>
</g>
<!-- CuentaPipe -->
<g id="node1" class="node">
<title>CuentaPipe</title>
<polygon fill="#ffffb3" stroke="#000000" points="346.0455,-122 265.9545,-122 265.9545,-86 346.0455,-86 346.0455,-122"/>
<text text-anchor="middle" x="306" y="-99.8" font-family="Times,serif" font-size="14.00" fill="#000000">CuentaPipe</text>
</g>
<!-- PipesModule -->
<g id="node3" class="node">
<title>PipesModule</title>
<polygon fill="#8dd3c7" stroke="#000000" points="244.8823,-187 241.8823,-191 220.8823,-191 217.8823,-187 155.1177,-187 155.1177,-151 244.8823,-151 244.8823,-187"/>
<text text-anchor="middle" x="200" y="-164.8" font-family="Times,serif" font-size="14.00" fill="#000000">PipesModule</text>
</g>
<!-- CuentaPipe&#45;&gt;PipesModule -->
<g id="edge1" class="edge">
<title>CuentaPipe&#45;&gt;PipesModule</title>
<path fill="none" stroke="#000000" d="M319.5074,-122.0225C319.5074,-139.3734 319.5074,-163 319.5074,-163 319.5074,-163 255.1806,-163 255.1806,-163"/>
<polygon fill="#000000" stroke="#000000" points="255.1806,-159.5001 245.1806,-163 255.1806,-166.5001 255.1806,-159.5001"/>
</g>
<!-- RoundceilPipe -->
<g id="node2" class="node">
<title>RoundceilPipe</title>
<polygon fill="#ffffb3" stroke="#000000" points="248.4358,-122 149.5642,-122 149.5642,-86 248.4358,-86 248.4358,-122"/>
<text text-anchor="middle" x="199" y="-99.8" font-family="Times,serif" font-size="14.00" fill="#000000">RoundceilPipe</text>
</g>
<!-- RoundceilPipe&#45;&gt;PipesModule -->
<g id="edge2" class="edge">
<title>RoundceilPipe&#45;&gt;PipesModule</title>
<path fill="none" stroke="#000000" d="M200,-122.1061C200,-122.1061 200,-140.991 200,-140.991"/>
<polygon fill="#000000" stroke="#000000" points="196.5001,-140.9909 200,-150.991 203.5001,-140.991 196.5001,-140.9909"/>
</g>
<!-- CuentaPipe  -->
<g id="node4" class="node">
<title>CuentaPipe </title>
<polygon fill="#fb8072" stroke="#000000" points="350.0442,-252 265.9558,-252 265.9558,-216 350.0442,-216 350.0442,-252"/>
<text text-anchor="middle" x="308" y="-229.8" font-family="Times,serif" font-size="14.00" fill="#000000">CuentaPipe </text>
</g>
<!-- PipesModule&#45;&gt;CuentaPipe  -->
<g id="edge3" class="edge">
<title>PipesModule&#45;&gt;CuentaPipe </title>
<path fill="none" stroke="#000000" stroke-dasharray="5,2" d="M245.013,-175C268.6424,-175 292.7426,-175 292.7426,-175 292.7426,-175 292.7426,-205.9775 292.7426,-205.9775"/>
<polygon fill="#000000" stroke="#000000" points="289.2427,-205.9774 292.7426,-215.9775 296.2427,-205.9775 289.2427,-205.9774"/>
</g>
<!-- RoundceilPipe  -->
<g id="node5" class="node">
<title>RoundceilPipe </title>
<polygon fill="#fb8072" stroke="#000000" points="247.9348,-252 146.0652,-252 146.0652,-216 247.9348,-216 247.9348,-252"/>
<text text-anchor="middle" x="197" y="-229.8" font-family="Times,serif" font-size="14.00" fill="#000000">RoundceilPipe </text>
</g>
<!-- PipesModule&#45;&gt;RoundceilPipe  -->
<g id="edge4" class="edge">
<title>PipesModule&#45;&gt;RoundceilPipe </title>
<path fill="none" stroke="#000000" stroke-dasharray="5,2" d="M200,-187.1061C200,-187.1061 200,-205.991 200,-205.991"/>
<polygon fill="#000000" stroke="#000000" points="196.5001,-205.9909 200,-215.991 203.5001,-205.991 196.5001,-205.9909"/>
</g>
</g>
</svg>
